<?xml version="1.0" encoding="UTF-8" standalone="no"?>
<!DOCTYPE svg PUBLIC "-//W3C//DTD SVG 1.1//EN" "http://www.w3.org/Graphics/SVG/1.1/DTD/svg11.dtd">
<svg xmlns="http://www.w3.org/2000/svg" version="1.1" viewBox="0.00 0.00 1448.00 1448.00">
<g stroke-width="2.00" fill="none" stroke-linecap="butt">
<path stroke="#cd8e92" vector-effect="non-scaling-stroke" d="
  M 1390.28 48.77
  A 0.12 0.11 -90.0 0 0 1390.17 48.65
  Q 1302.24 48.56 1214.50 48.25
  Q 1204.48 48.22 1194.50 48.22
  Q 639.37 48.17 112.75 48.07
  C 92.45 48.06 73.23 47.64 53.33 48.74
  A 1.15 1.14 0.9 0 0 52.26 49.77
  Q 51.06 62.88 51.07 76.25
  C 51.28 401.43 50.95 725.73 51.05 1052.75
  Q 51.10 1226.43 51.81 1400.53
  Q 51.81 1401.12 52.40 1401.12
  C 318.06 1400.34 536.17 1400.33 871.00 1400.71
  Q 1130.12 1400.99 1389.66 1400.58
  Q 1390.23 1400.58 1390.23 1400.01
  L 1390.28 48.77"
/>
<path stroke="#cd8e92" vector-effect="non-scaling-stroke" d="
  M 147.46 1302.04
  A 0.70 0.70 0.0 0 0 148.16 1302.74
  L 1292.69 1302.83
  A 0.70 0.70 0.0 0 0 1293.39 1302.13
  L 1293.55 147.34
  A 0.70 0.70 0.0 0 0 1292.85 146.64
  L 148.02 146.79
  A 0.70 0.70 0.0 0 0 147.32 147.49
  L 147.46 1302.04"
/>
<path stroke="#cd8e92" vector-effect="non-scaling-stroke" d="
  M 1115.25 274.74
  Q 613.22 274.15 321.25 274.80
  Q 297.52 274.85 274.27 275.52
  A 0.38 0.37 -0.8 0 0 273.90 275.89
  Q 274.53 384.30 274.11 497.98
  Q 274.11 498.53 274.66 498.53
  C 569.78 500.12 851.86 499.71 1165.51 499.24
  Q 1166.24 499.24 1166.24 498.50
  L 1166.28 275.05
  Q 1166.28 274.79 1166.01 274.79
  Q 1164.82 274.80 1115.25 274.74"
/>
<path stroke="#cd8e92" vector-effect="non-scaling-stroke" d="
  M 831.06 663.56
  Q 830.89 638.52 830.97 611.41
  A 0.40 0.40 0.0 0 0 830.58 611.01
  C 797.25 610.93 761.91 611.29 726.26 611.30
  Q 584.45 611.31 443.01 610.98
  Q 432.44 610.95 422.99 611.03
  Q 351.34 611.61 275.36 611.78
  Q 274.85 611.78 274.84 612.30
  Q 274.06 649.03 274.14 685.50
  Q 274.31 760.75 274.16 837.54
  A 0.43 0.43 0.0 0 0 274.59 837.97
  Q 464.70 836.91 608.50 837.30
  Q 724.32 837.61 830.03 837.24
  A 0.56 0.55 -89.5 0 0 830.58 836.69
  Q 831.67 749.14 831.06 663.56"
/>
<path stroke="#cd8e92" vector-effect="non-scaling-stroke" d="
  M 496.93 950.53
  C 477.97 950.41 458.58 949.60 439.25 949.68
  Q 376.76 949.95 314.27 949.74
  C 300.29 949.70 288.46 950.45 275.25 952.01
  Q 274.51 952.09 274.50 952.84
  C 274.07 1010.47 274.15 1068.11 274.26 1125.75
  C 274.29 1141.79 273.76 1157.81 273.67 1173.79
  Q 273.67 1174.42 274.30 1174.43
  C 352.92 1175.35 437.61 1174.85 496.08 1174.91
  A 0.62 0.62 0.0 0 0 496.70 1174.29
  C 496.80 1157.07 497.21 1139.56 497.20 1122.50
  Q 497.16 1036.68 497.36 950.97
  A 0.44 0.44 0.0 0 0 496.93 950.53"
/>
</g>
<path fill="#9c1d26" d="
  M 0.00 0.00
  L 1448.00 0.00
  L 1448.00 1448.00
  L 0.00 1448.00
  L 0.00 0.00
  Z
  M 1390.28 48.77
  A 0.12 0.11 -90.0 0 0 1390.17 48.65
  Q 1302.24 48.56 1214.50 48.25
  Q 1204.48 48.22 1194.50 48.22
  Q 639.37 48.17 112.75 48.07
  C 92.45 48.06 73.23 47.64 53.33 48.74
  A 1.15 1.14 0.9 0 0 52.26 49.77
  Q 51.06 62.88 51.07 76.25
  C 51.28 401.43 50.95 725.73 51.05 1052.75
  Q 51.10 1226.43 51.81 1400.53
  Q 51.81 1401.12 52.40 1401.12
  C 318.06 1400.34 536.17 1400.33 871.00 1400.71
  Q 1130.12 1400.99 1389.66 1400.58
  Q 1390.23 1400.58 1390.23 1400.01
  L 1390.28 48.77
  Z"
/>
<path fill="#fdfefe" d="
  M 1390.28 48.77
  L 1390.23 1400.01
  Q 1390.23 1400.58 1389.66 1400.58
  Q 1130.12 1400.99 871.00 1400.71
  C 536.17 1400.33 318.06 1400.34 52.40 1401.12
  Q 51.81 1401.12 51.81 1400.53
  Q 51.10 1226.43 51.05 1052.75
  C 50.95 725.73 51.28 401.43 51.07 76.25
  Q 51.06 62.88 52.26 49.77
  A 1.15 1.14 0.9 0 1 53.33 48.74
  C 73.23 47.64 92.45 48.06 112.75 48.07
  Q 639.37 48.17 1194.50 48.22
  Q 1204.48 48.22 1214.50 48.25
  Q 1302.24 48.56 1390.17 48.65
  A 0.12 0.11 90.0 0 1 1390.28 48.77
  Z
  M 147.46 1302.04
  A 0.70 0.70 0.0 0 0 148.16 1302.74
  L 1292.69 1302.83
  A 0.70 0.70 0.0 0 0 1293.39 1302.13
  L 1293.55 147.34
  A 0.70 0.70 0.0 0 0 1292.85 146.64
  L 148.02 146.79
  A 0.70 0.70 0.0 0 0 147.32 147.49
  L 147.46 1302.04
  Z"
/>
<path fill="#9c1d26" d="
  M 147.46 1302.04
  L 147.32 147.49
  A 0.70 0.70 0.0 0 1 148.02 146.79
  L 1292.85 146.64
  A 0.70 0.70 0.0 0 1 1293.55 147.34
  L 1293.39 1302.13
  A 0.70 0.70 0.0 0 1 1292.69 1302.83
  L 148.16 1302.74
  A 0.70 0.70 0.0 0 1 147.46 1302.04
  Z
  M 1115.25 274.74
  Q 613.22 274.15 321.25 274.80
  Q 297.52 274.85 274.27 275.52
  A 0.38 0.37 -0.8 0 0 273.90 275.89
  Q 274.53 384.30 274.11 497.98
  Q 274.11 498.53 274.66 498.53
  C 569.78 500.12 851.86 499.71 1165.51 499.24
  Q 1166.24 499.24 1166.24 498.50
  L 1166.28 275.05
  Q 1166.28 274.79 1166.01 274.79
  Q 1164.82 274.80 1115.25 274.74
  Z
  M 831.06 663.56
  Q 830.89 638.52 830.97 611.41
  A 0.40 0.40 0.0 0 0 830.58 611.01
  C 797.25 610.93 761.91 611.29 726.26 611.30
  Q 584.45 611.31 443.01 610.98
  Q 432.44 610.95 422.99 611.03
  Q 351.34 611.61 275.36 611.78
  Q 274.85 611.78 274.84 612.30
  Q 274.06 649.03 274.14 685.50
  Q 274.31 760.75 274.16 837.54
  A 0.43 0.43 0.0 0 0 274.59 837.97
  Q 464.70 836.91 608.50 837.30
  Q 724.32 837.61 830.03 837.24
  A 0.56 0.55 -89.5 0 0 830.58 836.69
  Q 831.67 749.14 831.06 663.56
  Z
  M 496.93 950.53
  C 477.97 950.41 458.58 949.60 439.25 949.68
  Q 376.76 949.95 314.27 949.74
  C 300.29 949.70 288.46 950.45 275.25 952.01
  Q 274.51 952.09 274.50 952.84
  C 274.07 1010.47 274.15 1068.11 274.26 1125.75
  C 274.29 1141.79 273.76 1157.81 273.67 1173.79
  Q 273.67 1174.42 274.30 1174.43
  C 352.92 1175.35 437.61 1174.85 496.08 1174.91
  A 0.62 0.62 0.0 0 0 496.70 1174.29
  C 496.80 1157.07 497.21 1139.56 497.20 1122.50
  Q 497.16 1036.68 497.36 950.97
  A 0.44 0.44 0.0 0 0 496.93 950.53
  Z"
/>
<path fill="#fdfefe" d="
  M 1115.25 274.74
  Q 1164.82 274.80 1166.01 274.79
  Q 1166.28 274.79 1166.28 275.05
  L 1166.24 498.50
  Q 1166.24 499.24 1165.51 499.24
  C 851.86 499.71 569.78 500.12 274.66 498.53
  Q 274.11 498.53 274.11 497.98
  Q 274.53 384.30 273.90 275.89
  A 0.38 0.37 -0.8 0 1 274.27 275.52
  Q 297.52 274.85 321.25 274.80
  Q 613.22 274.15 1115.25 274.74
  Z"
/>
<path fill="#fdfefe" d="
  M 831.06 663.56
  Q 831.67 749.14 830.58 836.69
  A 0.56 0.55 -89.5 0 1 830.03 837.24
  Q 724.32 837.61 608.50 837.30
  Q 464.70 836.91 274.59 837.97
  A 0.43 0.43 0.0 0 1 274.16 837.54
  Q 274.31 760.75 274.14 685.50
  Q 274.06 649.03 274.84 612.30
  Q 274.85 611.78 275.36 611.78
  Q 351.34 611.61 422.99 611.03
  Q 432.44 610.95 443.01 610.98
  Q 584.45 611.31 726.26 611.30
  C 761.91 611.29 797.25 610.93 830.58 611.01
  A 0.40 0.40 0.0 0 1 830.97 611.41
  Q 830.89 638.52 831.06 663.56
  Z"
/>
<path fill="#fdfefe" d="
  M 439.25 949.68
  C 458.58 949.60 477.97 950.41 496.93 950.53
  A 0.44 0.44 0.0 0 1 497.36 950.97
  Q 497.16 1036.68 497.20 1122.50
  C 497.21 1139.56 496.80 1157.07 496.70 1174.29
  A 0.62 0.62 0.0 0 1 496.08 1174.91
  C 437.61 1174.85 352.92 1175.35 274.30 1174.43
  Q 273.67 1174.42 273.67 1173.79
  C 273.76 1157.81 274.29 1141.79 274.26 1125.75
  C 274.15 1068.11 274.07 1010.47 274.50 952.84
  Q 274.51 952.09 275.25 952.01
  C 288.46 950.45 300.29 949.70 314.27 949.74
  Q 376.76 949.95 439.25 949.68
  Z"
/>
</svg>
