<?xml version="1.0" encoding="UTF-8" standalone="no"?>
<!DOCTYPE svg PUBLIC "-//W3C//DTD SVG 1.1//EN" "http://www.w3.org/Graphics/SVG/1.1/DTD/svg11.dtd">
<svg xmlns="http://www.w3.org/2000/svg" version="1.1" viewBox="0.00 0.00 300.00 300.00">
<g stroke-width="2.00" fill="none" stroke-linecap="butt">
<path stroke="#80b7e8" vector-effect="non-scaling-stroke" d="
  M 300.00 49.51
  L 256.82 49.51
  A 0.54 0.52 -79.4 0 0 256.33 49.86
  L 247.14 75.65
  Q 246.66 76.99 246.18 75.64
  L 237.01 49.71
  Q 236.93 49.50 236.72 49.50
  L 180.44 49.50
  Q 179.88 49.50 179.88 50.06
  L 179.95 84.24
  Q 179.95 86.29 179.13 84.41
  L 164.00 50.00
  A 0.84 0.84 0.0 0 0 163.23 49.50
  L 117.98 49.50
  Q 117.55 49.50 117.38 49.90
  L 70.28 156.77
  A 0.26 0.26 0.0 0 0 70.52 157.14
  L 108.19 157.14
  A 0.34 0.33 -0.0 0 1 108.53 157.47
  L 108.53 251.83
  Q 108.53 252.63 109.33 252.63
  L 226.56 252.82
  A 1.92 1.91 20.8 0 0 227.99 252.18
  L 245.59 232.53
  A 0.46 0.46 0.0 0 1 246.28 232.53
  L 264.30 252.43
  Q 264.66 252.83 265.19 252.83
  L 300.00 252.80"
/>
<path stroke="#80b7e8" vector-effect="non-scaling-stroke" d="
  M 300.00 61.31
  L 265.94 61.26
  A 0.86 0.85 -79.6 0 0 265.14 61.82
  L 247.20 111.74
  Q 246.88 112.63 246.56 111.74
  L 228.73 61.91
  Q 228.52 61.33 227.91 61.33
  L 192.84 61.23
  A 0.42 0.42 0.0 0 0 192.42 61.65
  L 192.41 142.00
  Q 192.41 143.74 191.70 142.15
  L 156.11 61.64
  A 0.64 0.63 77.8 0 0 155.53 61.26
  L 126.76 61.26
  Q 126.22 61.26 126.00 61.76
  L 89.26 144.50
  Q 88.92 145.27 89.76 145.27
  L 114.05 145.27
  A 0.99 0.97 11.1 0 0 114.96 144.67
  L 121.49 129.00
  Q 121.70 128.49 122.25 128.49
  L 159.19 128.50
  A 0.74 0.72 78.3 0 1 159.86 128.95
  L 166.44 144.74
  Q 166.66 145.27 167.23 145.27
  L 214.74 145.27
  Q 215.24 145.27 215.24 144.76
  L 215.23 89.53
  Q 215.23 88.11 215.72 89.45
  L 236.26 144.76
  A 0.78 0.78 0.0 0 0 236.99 145.27
  L 256.28 145.27
  A 0.84 0.84 0.0 0 0 257.07 144.72
  L 277.15 89.72
  Q 277.70 88.21 277.70 89.81
  L 277.69 145.19
  A 0.30 0.30 0.0 0 0 277.99 145.49
  L 300.00 145.31"
/>
<path stroke="#80b7e8" vector-effect="non-scaling-stroke" d="
  M 300.00 175.13
  L 278.38 198.09
  Q 277.97 198.52 278.38 198.95
  L 300.00 222.17"
/>
<path stroke="#80b7e8" vector-effect="non-scaling-stroke" d="
  M 300.00 239.36
  L 261.85 198.95
  Q 261.66 198.74 261.85 198.53
  L 299.68 158.03
  A 0.52 0.52 0.0 0 0 299.30 157.16
  L 271.03 157.15
  A 1.34 1.34 0.0 0 0 270.03 157.60
  L 247.11 182.87
  A 0.50 0.50 0.0 0 1 246.37 182.87
  L 223.47 157.56
  A 1.28 1.26 68.6 0 0 222.53 157.14
  L 121.75 157.14
  A 0.36 0.36 0.0 0 0 121.39 157.50
  L 121.39 240.28
  A 0.63 0.63 0.0 0 0 122.02 240.91
  L 221.45 240.81
  A 1.16 1.14 20.9 0 0 222.30 240.44
  L 245.81 214.36
  A 0.37 0.37 0.0 0 1 246.35 214.36
  L 269.99 240.31
  A 1.41 1.40 68.7 0 0 271.03 240.77
  L 300.00 240.80"
/>
<path stroke="#80b7e8" vector-effect="non-scaling-stroke" d="
  M 129.85 109.04
  A 0.33 0.33 0.0 0 0 130.16 109.50
  L 151.20 109.50
  A 0.33 0.33 0.0 0 0 151.51 109.04
  L 140.98 83.86
  A 0.33 0.33 0.0 0 0 140.38 83.86
  L 129.85 109.04"
/>
<path stroke="#80b7e8" vector-effect="non-scaling-stroke" d="
  M 191.14 189.25
  A 0.35 0.35 0.0 0 1 191.49 189.60
  L 191.49 208.09
  A 0.35 0.35 0.0 0 1 191.14 208.44
  L 144.93 208.43
  A 0.35 0.35 0.0 0 0 144.58 208.78
  L 144.59 220.64
  A 0.35 0.35 0.0 0 0 144.94 220.99
  L 192.38 221.03
  A 0.35 0.35 0.0 0 1 192.73 221.38
  L 192.66 239.21
  A 0.35 0.35 0.0 0 0 193.27 239.45
  L 231.20 199.01
  A 0.35 0.35 0.0 0 0 231.20 198.53
  L 193.31 158.20
  A 0.35 0.35 0.0 0 0 192.70 158.45
  L 192.72 175.93
  A 0.35 0.35 0.0 0 1 192.37 176.28
  L 144.94 176.28
  A 0.35 0.35 0.0 0 0 144.59 176.63
  L 144.58 188.90
  A 0.35 0.35 0.0 0 0 144.93 189.25
  L 191.14 189.25"
/>
</g>
<path fill="#016fd0" d="
  M 0.00 0.00
  L 300.00 0.00
  L 300.00 49.51
  L 256.82 49.51
  A 0.54 0.52 -79.4 0 0 256.33 49.86
  L 247.14 75.65
  Q 246.66 76.99 246.18 75.64
  L 237.01 49.71
  Q 236.93 49.50 236.72 49.50
  L 180.44 49.50
  Q 179.88 49.50 179.88 50.06
  L 179.95 84.24
  Q 179.95 86.29 179.13 84.41
  L 164.00 50.00
  A 0.84 0.84 0.0 0 0 163.23 49.50
  L 117.98 49.50
  Q 117.55 49.50 117.38 49.90
  L 70.28 156.77
  A 0.26 0.26 0.0 0 0 70.52 157.14
  L 108.19 157.14
  A 0.34 0.33 -0.0 0 1 108.53 157.47
  L 108.53 251.83
  Q 108.53 252.63 109.33 252.63
  L 226.56 252.82
  A 1.92 1.91 20.8 0 0 227.99 252.18
  L 245.59 232.53
  A 0.46 0.46 0.0 0 1 246.28 232.53
  L 264.30 252.43
  Q 264.66 252.83 265.19 252.83
  L 300.00 252.80
  L 300.00 300.00
  L 0.00 300.00
  L 0.00 0.00
  Z"
/>
<path fill="#ffffff" d="
  M 300.00 49.51
  L 300.00 61.31
  L 265.94 61.26
  A 0.86 0.85 -79.6 0 0 265.14 61.82
  L 247.20 111.74
  Q 246.88 112.63 246.56 111.74
  L 228.73 61.91
  Q 228.52 61.33 227.91 61.33
  L 192.84 61.23
  A 0.42 0.42 0.0 0 0 192.42 61.65
  L 192.41 142.00
  Q 192.41 143.74 191.70 142.15
  L 156.11 61.64
  A 0.64 0.63 77.8 0 0 155.53 61.26
  L 126.76 61.26
  Q 126.22 61.26 126.00 61.76
  L 89.26 144.50
  Q 88.92 145.27 89.76 145.27
  L 114.05 145.27
  A 0.99 0.97 11.1 0 0 114.96 144.67
  L 121.49 129.00
  Q 121.70 128.49 122.25 128.49
  L 159.19 128.50
  A 0.74 0.72 78.3 0 1 159.86 128.95
  L 166.44 144.74
  Q 166.66 145.27 167.23 145.27
  L 214.74 145.27
  Q 215.24 145.27 215.24 144.76
  L 215.23 89.53
  Q 215.23 88.11 215.72 89.45
  L 236.26 144.76
  A 0.78 0.78 0.0 0 0 236.99 145.27
  L 256.28 145.27
  A 0.84 0.84 0.0 0 0 257.07 144.72
  L 277.15 89.72
  Q 277.70 88.21 277.70 89.81
  L 277.69 145.19
  A 0.30 0.30 0.0 0 0 277.99 145.49
  L 300.00 145.31
  L 300.00 175.13
  L 278.38 198.09
  Q 277.97 198.52 278.38 198.95
  L 300.00 222.17
  L 300.00 239.36
  L 261.85 198.95
  Q 261.66 198.74 261.85 198.53
  L 299.68 158.03
  A 0.52 0.52 0.0 0 0 299.30 157.16
  L 271.03 157.15
  A 1.34 1.34 0.0 0 0 270.03 157.60
  L 247.11 182.87
  A 0.50 0.50 0.0 0 1 246.37 182.87
  L 223.47 157.56
  A 1.28 1.26 68.6 0 0 222.53 157.14
  L 121.75 157.14
  A 0.36 0.36 0.0 0 0 121.39 157.50
  L 121.39 240.28
  A 0.63 0.63 0.0 0 0 122.02 240.91
  L 221.45 240.81
  A 1.16 1.14 20.9 0 0 222.30 240.44
  L 245.81 214.36
  A 0.37 0.37 0.0 0 1 246.35 214.36
  L 269.99 240.31
  A 1.41 1.40 68.7 0 0 271.03 240.77
  L 300.00 240.80
  L 300.00 252.80
  L 265.19 252.83
  Q 264.66 252.83 264.30 252.43
  L 246.28 232.53
  A 0.46 0.46 0.0 0 0 245.59 232.53
  L 227.99 252.18
  A 1.92 1.91 20.8 0 1 226.56 252.82
  L 109.33 252.63
  Q 108.53 252.63 108.53 251.83
  L 108.53 157.47
  A 0.34 0.33 -0.0 0 0 108.19 157.14
  L 70.52 157.14
  A 0.26 0.26 0.0 0 1 70.28 156.77
  L 117.38 49.90
  Q 117.55 49.50 117.98 49.50
  L 163.23 49.50
  A 0.84 0.84 0.0 0 1 164.00 50.00
  L 179.13 84.41
  Q 179.95 86.29 179.95 84.24
  L 179.88 50.06
  Q 179.88 49.50 180.44 49.50
  L 236.72 49.50
  Q 236.93 49.50 237.01 49.71
  L 246.18 75.64
  Q 246.66 76.99 247.14 75.65
  L 256.33 49.86
  A 0.54 0.52 -79.4 0 1 256.82 49.51
  L 300.00 49.51
  Z"
/>
<path fill="#016fd0" d="
  M 300.00 61.31
  L 300.00 145.31
  L 277.99 145.49
  A 0.30 0.30 0.0 0 1 277.69 145.19
  L 277.70 89.81
  Q 277.70 88.21 277.15 89.72
  L 257.07 144.72
  A 0.84 0.84 0.0 0 1 256.28 145.27
  L 236.99 145.27
  A 0.78 0.78 0.0 0 1 236.26 144.76
  L 215.72 89.45
  Q 215.23 88.11 215.23 89.53
  L 215.24 144.76
  Q 215.24 145.27 214.74 145.27
  L 167.23 145.27
  Q 166.66 145.27 166.44 144.74
  L 159.86 128.95
  A 0.74 0.72 78.3 0 0 159.19 128.50
  L 122.25 128.49
  Q 121.70 128.49 121.49 129.00
  L 114.96 144.67
  A 0.99 0.97 11.1 0 1 114.05 145.27
  L 89.76 145.27
  Q 88.92 145.27 89.26 144.50
  L 126.00 61.76
  Q 126.22 61.26 126.76 61.26
  L 155.53 61.26
  A 0.64 0.63 77.8 0 1 156.11 61.64
  L 191.70 142.15
  Q 192.41 143.74 192.41 142.00
  L 192.42 61.65
  A 0.42 0.42 0.0 0 1 192.84 61.23
  L 227.91 61.33
  Q 228.52 61.33 228.73 61.91
  L 246.56 111.74
  Q 246.88 112.63 247.20 111.74
  L 265.14 61.82
  A 0.86 0.85 -79.6 0 1 265.94 61.26
  L 300.00 61.31
  Z
  M 129.85 109.04
  A 0.33 0.33 0.0 0 0 130.16 109.50
  L 151.20 109.50
  A 0.33 0.33 0.0 0 0 151.51 109.04
  L 140.98 83.86
  A 0.33 0.33 0.0 0 0 140.38 83.86
  L 129.85 109.04
  Z"
/>
<path fill="#ffffff" d="
  M 129.85 109.04
  L 140.38 83.86
  A 0.33 0.33 0.0 0 1 140.98 83.86
  L 151.51 109.04
  A 0.33 0.33 0.0 0 1 151.20 109.50
  L 130.16 109.50
  A 0.33 0.33 0.0 0 1 129.85 109.04
  Z"
/>
<path fill="#016fd0" d="
  M 300.00 239.36
  L 300.00 240.80
  L 271.03 240.77
  A 1.41 1.40 68.7 0 1 269.99 240.31
  L 246.35 214.36
  A 0.37 0.37 0.0 0 0 245.81 214.36
  L 222.30 240.44
  A 1.16 1.14 20.9 0 1 221.45 240.81
  L 122.02 240.91
  A 0.63 0.63 0.0 0 1 121.39 240.28
  L 121.39 157.50
  A 0.36 0.36 0.0 0 1 121.75 157.14
  L 222.53 157.14
  A 1.28 1.26 68.6 0 1 223.47 157.56
  L 246.37 182.87
  A 0.50 0.50 0.0 0 0 247.11 182.87
  L 270.03 157.60
  A 1.34 1.34 0.0 0 1 271.03 157.15
  L 299.30 157.16
  A 0.52 0.52 0.0 0 1 299.68 158.03
  L 261.85 198.53
  Q 261.66 198.74 261.85 198.95
  L 300.00 239.36
  Z
  M 191.14 189.25
  A 0.35 0.35 0.0 0 1 191.49 189.60
  L 191.49 208.09
  A 0.35 0.35 0.0 0 1 191.14 208.44
  L 144.93 208.43
  A 0.35 0.35 0.0 0 0 144.58 208.78
  L 144.59 220.64
  A 0.35 0.35 0.0 0 0 144.94 220.99
  L 192.38 221.03
  A 0.35 0.35 0.0 0 1 192.73 221.38
  L 192.66 239.21
  A 0.35 0.35 0.0 0 0 193.27 239.45
  L 231.20 199.01
  A 0.35 0.35 0.0 0 0 231.20 198.53
  L 193.31 158.20
  A 0.35 0.35 0.0 0 0 192.70 158.45
  L 192.72 175.93
  A 0.35 0.35 0.0 0 1 192.37 176.28
  L 144.94 176.28
  A 0.35 0.35 0.0 0 0 144.59 176.63
  L 144.58 188.90
  A 0.35 0.35 0.0 0 0 144.93 189.25
  L 191.14 189.25
  Z"
/>
<path fill="#ffffff" d="
  M 191.14 189.25
  L 144.93 189.25
  A 0.35 0.35 0.0 0 1 144.58 188.90
  L 144.59 176.63
  A 0.35 0.35 0.0 0 1 144.94 176.28
  L 192.37 176.28
  A 0.35 0.35 0.0 0 0 192.72 175.93
  L 192.70 158.45
  A 0.35 0.35 0.0 0 1 193.31 158.20
  L 231.20 198.53
  A 0.35 0.35 0.0 0 1 231.20 199.01
  L 193.27 239.45
  A 0.35 0.35 0.0 0 1 192.66 239.21
  L 192.73 221.38
  A 0.35 0.35 0.0 0 0 192.38 221.03
  L 144.94 220.99
  A 0.35 0.35 0.0 0 1 144.59 220.64
  L 144.58 208.78
  A 0.35 0.35 0.0 0 1 144.93 208.43
  L 191.14 208.44
  A 0.35 0.35 0.0 0 0 191.49 208.09
  L 191.49 189.60
  A 0.35 0.35 0.0 0 0 191.14 189.25
  Z"
/>
<path fill="#016fd0" d="
  M 300.00 175.13
  L 300.00 222.17
  L 278.38 198.95
  Q 277.97 198.52 278.38 198.09
  L 300.00 175.13
  Z"
/>
</svg>
