<?xml version="1.0" encoding="UTF-8" standalone="no"?>
<!DOCTYPE svg PUBLIC "-//W3C//DTD SVG 1.1//EN" "http://www.w3.org/Graphics/SVG/1.1/DTD/svg11.dtd">
<svg xmlns="http://www.w3.org/2000/svg" version="1.1" viewBox="0.00 0.00 1552.00 1346.00">
<path fill="#97144d" d="
  M 0.61 1345.27
  L 774.20 0.74
  A 0.32 0.32 0.0 0 1 774.76 0.74
  L 1016.37 416.42
  A 0.32 0.32 0.0 0 1 1016.37 416.74
  L 481.99 1345.59
  A 0.32 0.32 0.0 0 1 481.71 1345.75
  L 0.88 1345.75
  A 0.32 0.32 0.0 0 1 0.61 1345.27
  Z"
/>
<path fill="#97144d" d="
  M 1069.24 1345.60
  L 776.58 834.95
  A 0.30 0.30 0.0 0 1 776.84 834.50
  L 1258.62 834.49
  A 0.30 0.30 0.0 0 1 1258.88 834.64
  L 1551.54 1345.30
  A 0.30 0.30 0.0 0 1 1551.28 1345.75
  L 1069.50 1345.75
  A 0.30 0.30 0.0 0 1 1069.24 1345.60
  Z"
/>
</svg>
