<?xml version="1.0" encoding="UTF-8" standalone="no"?>
<!DOCTYPE svg PUBLIC "-//W3C//DTD SVG 1.1//EN" "http://www.w3.org/Graphics/SVG/1.1/DTD/svg11.dtd">
<svg xmlns="http://www.w3.org/2000/svg" version="1.1" viewBox="0.00 0.00 1395.00 1395.00">
<g stroke-width="2.00" fill="none" stroke-linecap="butt">
<path stroke="#ea9794" vector-effect="non-scaling-stroke" d="
  M 697.22 0.82
  Q 691.03 6.36 683.64 14.14
  C 671.26 27.20 660.94 39.25 649.92 52.19
  Q 642.90 60.43 638.01 66.74
  Q 580.60 140.84 548.14 228.40
  Q 520.72 302.35 511.39 381.73"
/>
<path stroke="#c72a25" vector-effect="non-scaling-stroke" d="
  M 511.39 381.73
  Q 511.52 380.85 511.26 380.42
  Q 510.80 379.64 510.63 380.53
  Q 510.51 381.16 509.96 380.98
  Q 509.52 380.84 509.20 381.17
  L 505.68 384.72
  Q 505.52 384.88 505.30 384.87
  Q 505.16 384.87 505.02 384.86
  Q 504.55 384.82 504.21 385.16
  L 499.70 389.70
  Q 499.51 389.88 499.25 389.88
  L 498.83 389.88
  Q 498.49 389.88 498.24 390.13
  L 493.70 394.70
  Q 493.51 394.88 493.25 394.88
  L 492.83 394.88
  Q 492.49 394.88 492.24 395.13
  L 487.70 399.70
  Q 487.51 399.88 487.25 399.88
  L 486.83 399.88
  Q 486.49 399.88 486.24 400.13
  L 481.70 404.70
  Q 481.51 404.88 481.25 404.88
  L 480.83 404.88
  Q 480.49 404.88 480.24 405.13
  L 475.70 409.70
  Q 475.51 409.88 475.25 409.88
  L 474.83 409.88
  Q 474.49 409.88 474.24 410.13
  L 469.69 414.71
  Q 469.47 414.93 469.17 414.89
  Q 468.98 414.86 468.81 414.87
  A 0.79 0.74 20.3 0 0 468.29 415.09
  L 463.80 419.59
  Q 463.46 419.92 462.98 419.85
  Q 462.41 419.77 462.10 420.12
  Q 460.53 421.89 458.70 423.71
  Q 458.48 423.93 458.16 423.89
  Q 457.98 423.86 457.80 423.87
  A 0.76 0.74 20.3 0 0 457.28 424.10
  L 452.70 428.70
  Q 452.51 428.88 452.25 428.88
  L 451.83 428.88
  Q 451.49 428.88 451.24 429.13
  L 446.70 433.70
  Q 446.51 433.88 446.25 433.88
  L 445.83 433.88
  Q 445.49 433.88 445.24 434.13
  L 440.70 438.70
  Q 440.51 438.88 440.25 438.88
  L 439.83 438.88
  Q 439.49 438.88 439.24 439.13
  L 434.70 443.70
  Q 434.51 443.88 434.25 443.88
  L 433.83 443.88
  Q 433.49 443.88 433.24 444.13
  L 428.64 448.75
  Q 428.53 448.87 428.37 448.88
  Q 428.23 448.89 428.08 448.88
  Q 427.57 448.82 427.20 449.19
  L 422.62 453.71
  Q 422.44 453.88 422.19 453.88
  L 421.83 453.88
  Q 421.48 453.88 421.24 454.13
  L 417.69 457.71
  Q 417.47 457.93 417.16 457.89
  Q 416.99 457.87 416.83 457.87
  Q 416.50 457.87 416.27 458.11
  L 411.70 462.70
  Q 411.51 462.88 411.25 462.88
  L 410.83 462.88
  Q 410.49 462.88 410.24 463.13
  L 405.70 467.70
  Q 405.51 467.88 405.25 467.88
  L 404.83 467.88
  Q 404.49 467.88 404.24 468.13
  L 399.70 472.70
  Q 399.51 472.88 399.25 472.88
  L 398.83 472.88
  Q 398.49 472.88 398.24 473.13
  L 393.70 477.70
  Q 393.51 477.88 393.25 477.88
  L 392.83 477.88
  Q 392.49 477.88 392.24 478.13
  L 387.70 482.70
  Q 387.51 482.88 387.25 482.88
  L 386.83 482.88
  Q 386.49 482.88 386.24 483.13
  L 381.70 487.70
  Q 381.51 487.88 381.25 487.88
  L 380.77 487.88
  A 0.71 0.70 -67.8 0 0 380.26 488.10
  Q 378.32 490.04 376.40 492.01
  Q 375.76 492.66 374.92 492.85
  A 1.63 1.56 15.3 0 0 374.09 493.30
  L 370.65 496.75
  Q 370.52 496.87 370.34 496.87
  Q 370.19 496.87 370.05 496.86
  Q 369.54 496.85 369.19 497.20
  L 364.62 501.71
  Q 364.44 501.88 364.19 501.88
  L 363.83 501.88
  Q 363.49 501.88 363.24 502.13
  L 358.70 506.70
  Q 358.51 506.88 358.25 506.88
  L 357.83 506.88
  Q 357.49 506.88 357.24 507.13
  L 352.70 511.70
  Q 352.51 511.88 352.25 511.88
  L 351.83 511.88
  Q 351.49 511.88 351.24 512.13
  L 346.70 516.70
  Q 346.51 516.88 346.25 516.88
  L 345.83 516.88
  Q 345.49 516.88 345.24 517.13
  L 340.70 521.70
  Q 340.51 521.88 340.25 521.88
  L 339.83 521.88
  Q 339.49 521.88 339.24 522.13
  L 334.70 526.70
  Q 334.51 526.88 334.25 526.88
  L 333.83 526.88
  Q 333.48 526.88 333.24 527.13
  L 329.70 530.70
  Q 329.52 530.88 329.25 530.88
  L 328.83 530.88
  Q 328.49 530.88 328.24 531.13
  L 323.70 535.70
  Q 323.51 535.88 323.25 535.88
  L 322.77 535.88
  A 0.76 0.72 -66.5 0 0 322.25 536.10
  Q 320.33 538.04 318.40 540.00
  Q 317.76 540.65 316.91 540.84
  A 1.67 1.64 15.2 0 0 316.09 541.30
  L 311.68 545.71
  Q 311.46 545.93 311.15 545.89
  Q 310.99 545.86 310.82 545.87
  Q 310.49 545.88 310.26 546.11
  L 305.70 550.70
  Q 305.51 550.88 305.25 550.88
  L 304.84 550.88
  Q 304.49 550.88 304.25 551.13
  L 299.80 555.58
  Q 299.44 555.94 298.95 555.87
  Q 298.76 555.85 298.58 555.90
  Q 298.23 556.01 297.95 556.31
  Q 295.87 558.55 293.70 560.70
  Q 293.51 560.88 293.26 560.88
  L 292.83 560.88
  Q 292.49 560.88 292.24 561.13
  L 287.70 565.70
  Q 287.51 565.88 287.25 565.88
  L 286.83 565.88
  Q 286.48 565.88 286.24 566.13
  L 282.70 569.70
  Q 282.52 569.88 282.25 569.88
  L 281.83 569.88
  Q 281.49 569.88 281.24 570.13
  L 276.70 574.70
  Q 276.51 574.88 276.25 574.88
  L 275.83 574.88
  Q 275.49 574.88 275.24 575.13
  L 270.70 579.70
  Q 270.51 579.88 270.25 579.88
  L 269.83 579.88
  Q 269.49 579.88 269.24 580.13
  L 264.64 584.75
  Q 264.53 584.87 264.37 584.88
  Q 264.23 584.90 264.09 584.88
  Q 263.57 584.82 263.20 585.19
  L 258.62 589.71
  Q 258.44 589.88 258.19 589.88
  L 257.83 589.88
  Q 257.49 589.88 257.24 590.13
  L 252.70 594.70
  Q 252.51 594.88 252.25 594.88
  L 251.83 594.88
  Q 251.49 594.88 251.24 595.13
  L 246.70 599.70
  Q 246.51 599.88 246.25 599.88
  L 245.83 599.88
  Q 245.48 599.88 245.24 600.13
  L 241.70 603.70
  Q 241.52 603.88 241.26 603.88
  L 240.83 603.88
  Q 240.49 603.88 240.24 604.13
  L 235.70 608.70
  Q 235.51 608.88 235.25 608.88
  L 234.83 608.88
  Q 234.49 608.88 234.24 609.13
  L 229.70 613.70
  Q 229.51 613.88 229.25 613.88
  L 228.83 613.88
  Q 228.49 613.88 228.24 614.13
  L 223.70 618.70
  Q 223.51 618.88 223.25 618.88
  L 222.83 618.88
  Q 222.49 618.88 222.24 619.13
  L 217.70 623.70
  Q 217.51 623.88 217.25 623.88
  L 216.77 623.88
  A 0.76 0.72 -66.5 0 0 216.25 624.10
  Q 214.32 626.05 212.41 627.99
  Q 211.77 628.65 210.90 628.84
  A 1.67 1.64 -74.0 0 0 210.09 629.30
  L 205.60 633.79
  Q 205.51 633.88 205.37 633.88
  Q 205.20 633.87 205.03 633.86
  Q 204.51 633.84 204.14 634.21
  L 199.63 638.73
  Q 199.43 638.93 199.14 638.88
  Q 198.99 638.85 198.84 638.87
  Q 198.47 638.90 198.20 639.17
  L 194.69 642.71
  Q 194.47 642.93 194.16 642.89
  Q 193.99 642.87 193.83 642.87
  Q 193.50 642.87 193.26 643.11
  L 188.70 647.70
  Q 188.51 647.88 188.25 647.88
  L 187.83 647.88
  Q 187.49 647.88 187.24 648.13
  L 182.70 652.70
  Q 182.51 652.88 182.25 652.88
  L 181.83 652.88
  Q 181.49 652.88 181.24 653.13
  L 176.70 657.70
  Q 176.51 657.88 176.25 657.88
  L 175.83 657.88
  Q 175.49 657.88 175.24 658.13
  L 170.70 662.70
  Q 170.51 662.88 170.25 662.88
  L 169.83 662.88
  Q 169.49 662.88 169.24 663.13
  L 164.70 667.70
  Q 164.51 667.88 164.25 667.88
  L 163.83 667.88
  Q 163.49 667.88 163.24 668.13
  L 158.70 672.70
  Q 158.51 672.88 158.25 672.88
  L 157.78 672.88
  Q 157.46 672.88 157.24 673.11
  Q 155.89 674.49 154.44 675.96
  Q 153.77 676.64 152.91 676.84
  A 1.67 1.64 15.2 0 0 152.09 677.30
  L 147.68 681.71
  Q 147.46 681.93 147.15 681.89
  Q 146.99 681.86 146.82 681.87
  Q 146.49 681.88 146.26 682.11
  L 141.69 686.71
  Q 141.46 686.93 141.15 686.89
  Q 140.97 686.86 140.80 686.87
  A 0.79 0.74 20.3 0 0 140.28 687.09
  L 135.70 691.70
  Q 135.51 691.88 135.25 691.88
  L 134.94 691.88
  Q 134.41 691.88 134.04 692.27
  L 130.00 696.40
  Q 129.78 696.64 129.47 696.73
  L 126.98 697.51
  Q 126.72 697.58 126.65 697.84
  Q 126.60 698.00 126.62 698.16
  Q 126.68 698.65 126.33 699.01
  L 123.68 701.74
  Q 123.46 701.96 123.16 701.89
  Q 122.97 701.85 122.79 701.86
  A 0.76 0.73 -67.8 0 0 122.29 702.08
  L 117.70 706.70
  Q 117.51 706.88 117.25 706.88
  L 116.83 706.88
  Q 116.49 706.88 116.24 707.13
  L 111.70 711.70
  Q 111.51 711.88 111.25 711.88
  L 110.83 711.88
  Q 110.48 711.88 110.24 712.13
  L 106.70 715.70
  Q 106.52 715.88 106.25 715.88
  L 105.83 715.88
  Q 105.49 715.88 105.24 716.13
  L 100.64 720.75
  Q 100.53 720.87 100.36 720.88
  Q 100.23 720.89 100.08 720.87
  Q 99.57 720.82 99.20 721.19
  L 94.62 725.71
  Q 94.44 725.88 94.19 725.88
  L 93.83 725.88
  Q 93.49 725.88 93.24 726.13
  L 88.70 730.70
  Q 88.51 730.88 88.25 730.88
  L 87.83 730.88
  Q 87.49 730.88 87.24 731.13
  L 82.70 735.70
  Q 82.51 735.88 82.25 735.88
  L 81.83 735.88
  Q 81.49 735.88 81.24 736.13
  L 76.70 740.70
  Q 76.51 740.88 76.25 740.88
  L 75.83 740.88
  Q 75.49 740.88 75.24 741.13
  L 70.70 745.70
  Q 70.51 745.88 70.25 745.88
  L 69.83 745.88
  Q 69.48 745.88 69.24 746.13
  L 65.70 749.70
  Q 65.52 749.88 65.25 749.88
  L 64.83 749.88
  Q 64.49 749.88 64.24 750.13
  L 59.70 754.70
  Q 59.51 754.88 59.25 754.88
  L 58.83 754.88
  Q 58.49 754.88 58.24 755.13
  L 53.70 759.70
  Q 53.51 759.88 53.25 759.88
  L 52.83 759.88
  Q 52.49 759.88 52.24 760.13
  L 47.70 764.70
  Q 47.51 764.88 47.25 764.88
  L 46.83 764.88
  Q 46.49 764.88 46.24 765.13
  L 41.70 769.70
  Q 41.51 769.88 41.25 769.88
  L 40.83 769.88
  Q 40.49 769.88 40.24 770.13
  L 35.70 774.70
  Q 35.51 774.88 35.25 774.88
  L 34.83 774.88
  Q 34.49 774.88 34.24 775.13
  L 29.70 779.70
  Q 29.51 779.88 29.25 779.88
  L 28.83 779.88
  Q 28.49 779.88 28.24 780.13
  L 23.70 784.70
  Q 23.51 784.88 23.25 784.88
  L 22.83 784.88
  Q 22.48 784.88 22.24 785.13
  L 18.70 788.70
  Q 18.52 788.88 18.25 788.88
  L 17.83 788.88
  Q 17.49 788.88 17.24 789.13
  L 12.64 793.76
  Q 12.52 793.87 12.36 793.87
  Q 12.21 793.86 12.04 793.85
  Q 11.62 793.84 11.30 794.13
  L 7.54 797.56"
/>
<path stroke="#f09a93" vector-effect="non-scaling-stroke" d="
  M 697.78 0.94
  C 722.05 24.71 746.02 49.68 766.04 77.24
  Q 787.71 107.07 808.81 143.71
  C 842.76 202.68 866.20 266.71 877.41 334.01
  Q 883.19 368.69 885.48 403.66"
/>
<path stroke="#d79090" vector-effect="non-scaling-stroke" d="
  M 885.48 403.66
  L 885.85 409.29"
/>
<path stroke="#f09a93" vector-effect="non-scaling-stroke" d="
  M 885.85 409.29
  L 886.51 417.67"
/>
<path stroke="#d79090" vector-effect="non-scaling-stroke" d="
  M 886.51 417.67
  L 886.93 428.29"
/>
<path stroke="#f09a93" vector-effect="non-scaling-stroke" d="
  M 886.93 428.29
  L 888.39 477.62"
/>
<path stroke="#d79090" vector-effect="non-scaling-stroke" d="
  M 888.39 477.62
  L 888.45 485.36"
/>
<path stroke="#f09a93" vector-effect="non-scaling-stroke" d="
  M 888.45 485.36
  C 888.55 575.76 866.44 663.91 821.90 742.66
  Q 784.22 809.26 727.20 863.37"
/>
<path stroke="#ea9794" vector-effect="non-scaling-stroke" d="
  M 727.20 863.37
  Q 712.84 877.64 697.29 889.38"
/>
<path stroke="#d79090" vector-effect="non-scaling-stroke" d="
  M 697.29 889.38
  Q 692.43 885.12 688.07 881.39
  Q 635.78 836.61 597.29 779.51
  Q 592.52 772.44 587.85 765.23"
/>
<path stroke="#dc9290" vector-effect="non-scaling-stroke" d="
  M 510.60 545.68
  Q 510.50 543.49 509.83 538.50
  Q 507.87 524.15 506.52 492.80"
/>
<path stroke="#d79090" vector-effect="non-scaling-stroke" d="
  M 506.52 492.80
  L 506.26 474.94"
/>
<path stroke="#dc9290" vector-effect="non-scaling-stroke" d="
  M 506.26 474.94
  Q 505.66 428.17 511.39 381.73"
/>
<path stroke="#e73725" vector-effect="non-scaling-stroke" d="
  M 982.78 62.35
  Q 983.00 62.88 982.79 63.16
  Q 982.59 63.41 982.27 63.41
  Q 981.47 63.39 980.69 63.29
  Q 980.12 63.22 980.12 63.80
  L 980.12 1333.38
  Q 980.12 1333.69 980.25 1333.96
  L 980.50 1334.48"
/>
<path stroke="#db3228" vector-effect="non-scaling-stroke" d="
  M 730.76 1393.70
  Q 730.79 1393.60 730.74 1393.50
  Q 730.61 1393.27 730.85 1393.36
  Q 731.05 1393.44 731.24 1393.37
  Q 732.34 1393.02 731.21 1392.81
  Q 730.49 1392.67 729.81 1392.89
  Q 729.12 1393.12 729.12 1392.39
  Q 729.12 1376.75 729.19 1360.00
  Q 729.20 1355.77 729.58 1351.61
  Q 729.63 1351.13 729.99 1350.81
  C 732.04 1348.99 729.92 1347.21 730.59 1345.16
  Q 730.87 1344.30 730.91 1343.42
  Q 731.00 1341.42 730.66 1339.50
  Q 730.38 1337.87 730.74 1336.01
  Q 731.27 1333.27 730.48 1330.55
  Q 730.31 1329.97 730.56 1329.43
  Q 731.01 1328.43 730.70 1327.44
  Q 730.47 1326.74 730.68 1326.03
  Q 731.22 1324.24 730.38 1322.46
  Q 730.15 1321.99 730.43 1321.55
  L 730.65 1321.22
  Q 730.90 1320.81 730.44 1320.65
  Q 729.53 1320.34 729.65 1319.54
  Q 729.84 1318.18 730.64 1316.88
  A 1.35 1.31 -35.2 0 0 730.82 1315.92
  L 730.25 1313.05
  Q 730.18 1312.67 729.92 1312.38
  Q 729.56 1311.97 729.67 1311.41
  Q 729.95 1309.94 730.72 1308.73
  Q 731.01 1308.29 730.81 1307.79
  Q 730.38 1306.76 730.46 1305.51
  Q 730.49 1305.01 730.15 1304.66
  L 729.96 1304.47
  Q 729.58 1304.08 729.66 1303.55
  Q 729.87 1302.04 730.71 1300.76
  Q 730.99 1300.33 730.84 1299.85
  L 730.55 1298.94
  Q 730.42 1298.52 730.50 1298.09
  Q 730.66 1297.14 729.96 1296.42
  Q 729.64 1296.08 729.67 1295.62
  Q 729.80 1294.15 730.57 1293.02
  Q 730.88 1292.56 730.85 1292.02
  Q 730.81 1291.47 730.52 1290.98
  Q 730.35 1290.67 730.44 1290.32
  Q 730.73 1289.20 729.90 1288.22
  Q 729.58 1287.85 729.67 1287.37
  Q 729.92 1286.05 730.63 1284.90
  Q 730.88 1284.47 730.84 1283.98
  Q 730.80 1283.48 730.55 1283.02
  Q 730.33 1282.63 730.45 1282.20
  Q 730.73 1281.13 729.85 1280.26
  A 0.92 0.90 32.9 0 1 729.63 1279.29
  L 730.81 1276.19
  A 0.56 0.52 54.4 0 0 730.84 1275.96
  Q 730.79 1275.49 730.56 1275.04
  Q 730.35 1274.64 730.45 1274.20
  Q 730.69 1273.16 729.90 1272.22
  Q 729.58 1271.85 729.67 1271.37
  Q 729.92 1270.05 730.63 1268.90
  Q 730.89 1268.47 730.84 1267.97
  Q 730.80 1267.46 730.54 1267.00
  Q 730.34 1266.66 730.44 1266.28
  Q 730.72 1265.20 729.90 1264.22
  Q 729.58 1263.85 729.67 1263.37
  Q 729.92 1262.05 730.62 1260.90
  Q 730.89 1260.47 730.84 1259.97
  Q 730.79 1259.45 730.52 1258.98
  Q 730.34 1258.66 730.44 1258.30
  Q 730.75 1257.22 729.91 1256.34
  A 1.03 1.00 28.5 0 1 729.64 1255.48
  Q 729.89 1254.04 730.71 1252.75
  Q 730.99 1252.32 730.84 1251.84
  L 730.56 1250.96
  Q 730.43 1250.55 730.50 1250.13
  Q 730.66 1249.15 729.95 1248.39
  A 1.12 1.12 0.0 0 1 729.66 1247.42
  Q 729.92 1245.99 730.71 1244.75
  Q 730.99 1244.33 730.84 1243.84
  L 730.56 1242.96
  Q 730.43 1242.55 730.50 1242.13
  Q 730.66 1241.15 729.94 1240.38
  A 1.03 1.02 -63.2 0 1 729.67 1239.55
  Q 729.82 1238.17 730.59 1237.00
  Q 730.89 1236.53 730.84 1235.98
  Q 730.80 1235.47 730.53 1234.99
  Q 730.34 1234.66 730.44 1234.30
  Q 730.73 1233.21 729.90 1232.22
  Q 729.58 1231.85 729.67 1231.37
  Q 729.92 1230.05 730.62 1228.90
  Q 730.90 1228.45 730.83 1227.94
  Q 730.77 1227.47 730.55 1227.04
  Q 730.34 1226.65 730.45 1226.22
  Q 730.71 1225.20 729.94 1224.39
  Q 729.64 1224.06 729.68 1223.62
  Q 729.80 1222.15 730.63 1220.95
  Q 730.92 1220.52 730.87 1220.01
  Q 730.81 1219.46 730.53 1218.98
  Q 730.34 1218.66 730.44 1218.31
  Q 730.75 1217.16 729.85 1216.27
  A 0.95 0.93 33.0 0 1 729.63 1215.28
  L 730.81 1212.18
  A 0.47 0.44 54.7 0 0 730.84 1211.97
  Q 730.80 1211.48 730.56 1211.03
  A 1.16 1.11 38.6 0 1 730.45 1210.20
  Q 730.71 1209.15 729.91 1208.34
  Q 729.56 1207.98 729.64 1207.47
  Q 729.87 1206.13 730.64 1204.94
  Q 730.92 1204.50 730.86 1203.99
  Q 730.80 1203.46 730.53 1202.99
  Q 730.34 1202.66 730.44 1202.29
  Q 730.75 1201.17 729.86 1200.28
  A 0.93 0.93 0.0 0 1 729.64 1199.28
  L 730.81 1196.18
  A 0.45 0.39 -40.7 0 0 730.84 1195.98
  Q 730.80 1195.45 730.52 1194.96
  Q 730.35 1194.65 730.44 1194.31
  Q 730.75 1193.15 729.85 1192.27
  A 0.92 0.92 0.0 0 1 729.63 1191.29
  L 730.81 1188.18
  A 0.47 0.44 54.7 0 0 730.84 1187.97
  Q 730.80 1187.46 730.54 1187.00
  Q 730.34 1186.64 730.44 1186.25
  Q 730.73 1185.15 729.90 1184.32
  A 0.97 0.93 -63.5 0 1 729.64 1183.49
  Q 729.86 1182.15 730.60 1181.00
  Q 730.90 1180.52 730.83 1179.97
  Q 730.78 1179.49 730.54 1179.04
  Q 730.34 1178.65 730.45 1178.23
  Q 730.71 1177.20 729.94 1176.38
  A 1.05 1.05 0.0 0 1 729.66 1175.53
  Q 729.84 1174.07 730.68 1172.88
  Q 731.01 1172.40 730.84 1171.84
  L 730.56 1170.96
  Q 730.43 1170.55 730.50 1170.13
  Q 730.66 1169.15 729.94 1168.38
  A 1.05 1.05 0.0 0 1 729.66 1167.55
  Q 729.82 1166.17 730.58 1165.02
  Q 730.90 1164.53 730.83 1163.95
  Q 730.77 1163.48 730.55 1163.05
  Q 730.34 1162.65 730.45 1162.21
  Q 730.72 1161.20 729.94 1160.38
  A 1.03 1.02 -63.2 0 1 729.67 1159.55
  Q 729.82 1158.16 730.59 1156.99
  Q 730.88 1156.54 730.85 1156.01
  Q 730.81 1155.50 730.55 1155.02
  Q 730.33 1154.63 730.45 1154.20
  Q 730.71 1153.19 729.98 1152.44
  A 1.23 1.20 -61.4 0 1 729.66 1151.31
  Q 729.97 1149.95 730.62 1148.90
  Q 730.90 1148.44 730.82 1147.92
  Q 730.75 1147.44 730.52 1147.01
  Q 730.34 1146.66 730.45 1146.28
  Q 730.74 1145.20 729.89 1144.32
  A 0.94 0.94 0.0 0 1 729.64 1143.49
  Q 729.90 1142.02 730.71 1140.75
  Q 730.99 1140.32 730.84 1139.84
  L 730.56 1138.96
  Q 730.43 1138.55 730.50 1138.13
  Q 730.66 1137.15 729.94 1136.38
  A 1.02 1.00 27.3 0 1 729.67 1135.56
  Q 729.82 1134.16 730.60 1132.97
  Q 730.89 1132.54 730.85 1132.01
  Q 730.80 1131.50 730.55 1131.03
  A 1.18 1.15 38.9 0 1 730.45 1130.20
  Q 730.72 1129.15 729.90 1128.33
  A 0.95 0.94 -62.4 0 1 729.64 1127.49
  Q 729.88 1126.07 730.69 1124.85
  Q 731.01 1124.38 730.84 1123.84
  L 730.56 1122.96
  Q 730.43 1122.55 730.50 1122.13
  Q 730.66 1121.15 729.95 1120.39
  A 1.12 1.12 0.0 0 1 729.66 1119.42
  Q 729.92 1117.99 730.71 1116.75
  Q 730.99 1116.33 730.84 1115.84
  L 730.56 1114.96
  Q 730.43 1114.55 730.50 1114.13
  Q 730.66 1113.15 729.94 1112.38
  A 1.03 1.02 -63.2 0 1 729.67 1111.55
  Q 729.83 1110.16 730.58 1109.01
  Q 730.89 1108.53 730.84 1107.97
  Q 730.80 1107.46 730.53 1106.99
  Q 730.35 1106.68 730.44 1106.32
  Q 730.73 1105.21 729.90 1104.22
  Q 729.58 1103.85 729.67 1103.37
  Q 729.92 1102.05 730.62 1100.90
  Q 730.89 1100.47 730.84 1099.97
  Q 730.79 1099.45 730.52 1098.99
  Q 730.34 1098.68 730.43 1098.33
  Q 730.73 1097.21 729.90 1096.22
  Q 729.58 1095.85 729.67 1095.37
  Q 729.92 1094.04 730.64 1092.88
  Q 730.89 1092.47 730.85 1091.99
  Q 730.80 1091.48 730.55 1091.03
  A 1.14 1.13 -52.0 0 1 730.45 1090.21
  Q 730.71 1089.16 729.91 1088.34
  Q 729.56 1087.98 729.64 1087.48
  Q 729.87 1086.13 730.63 1084.96
  A 1.46 1.46 0.0 0 0 730.85 1083.98
  Q 730.78 1083.47 730.54 1082.99
  Q 730.35 1082.64 730.45 1082.26
  Q 730.71 1081.18 729.90 1080.22
  Q 729.58 1079.85 729.67 1079.37
  Q 729.92 1078.05 730.62 1076.90
  Q 730.89 1076.46 730.84 1075.96
  Q 730.79 1075.44 730.54 1075.01
  Q 730.33 1074.67 730.43 1074.29
  Q 730.72 1073.20 729.90 1072.22
  Q 729.58 1071.85 729.67 1071.37
  Q 729.92 1070.05 730.62 1068.90
  Q 730.88 1068.47 730.84 1067.98
  Q 730.80 1067.47 730.54 1067.01
  Q 730.33 1066.64 730.44 1066.22
  Q 730.72 1065.17 729.92 1064.35
  A 1.08 1.07 29.9 0 1 729.65 1063.37
  Q 729.98 1061.94 730.63 1060.89
  Q 730.89 1060.46 730.84 1059.96
  Q 730.78 1059.47 730.54 1059.03
  Q 730.35 1058.66 730.45 1058.25
  Q 730.71 1057.18 729.90 1056.22
  Q 729.58 1055.85 729.67 1055.37
  Q 729.92 1054.05 730.63 1052.90
  Q 730.88 1052.48 730.84 1051.98
  Q 730.80 1051.47 730.54 1051.00
  Q 730.35 1050.64 730.44 1050.26
  Q 730.72 1049.16 729.91 1048.33
  Q 729.56 1047.97 729.64 1047.48
  Q 729.87 1046.13 730.63 1044.95
  A 1.41 1.40 -32.3 0 0 730.85 1043.99
  Q 730.79 1043.46 730.52 1042.96
  Q 730.35 1042.65 730.44 1042.30
  Q 730.72 1041.20 729.90 1040.22
  Q 729.58 1039.85 729.67 1039.37
  Q 729.92 1038.05 730.62 1036.90
  Q 730.89 1036.47 730.84 1035.97
  Q 730.79 1035.48 730.55 1035.02
  Q 730.35 1034.64 730.45 1034.22
  Q 730.71 1033.18 729.90 1032.22
  Q 729.58 1031.85 729.67 1031.37
  Q 729.92 1030.05 730.62 1028.90
  Q 730.89 1028.47 730.84 1027.96
  Q 730.79 1027.45 730.53 1027.00
  Q 730.35 1026.67 730.44 1026.31
  Q 730.73 1025.20 729.90 1024.22
  Q 729.58 1023.85 729.67 1023.37
  Q 729.92 1022.05 730.63 1020.90
  Q 730.88 1020.47 730.84 1019.98
  Q 730.80 1019.45 730.52 1018.97
  Q 730.35 1018.67 730.44 1018.33
  Q 730.73 1017.21 729.90 1016.22
  Q 729.58 1015.85 729.67 1015.37
  Q 729.93 1013.97 730.71 1012.75
  Q 730.99 1012.33 730.84 1011.84
  L 730.56 1010.96
  Q 730.43 1010.55 730.50 1010.13
  Q 730.66 1009.15 729.95 1008.39
  A 1.12 1.12 0.0 0 1 729.66 1007.42
  Q 729.91 1006.07 730.62 1004.90
  Q 730.90 1004.45 730.83 1003.94
  Q 730.77 1003.48 730.55 1003.06
  Q 730.34 1002.65 730.45 1002.21
  Q 730.72 1001.20 729.94 1000.38
  A 1.03 1.02 -63.2 0 1 729.67 999.55
  Q 729.83 998.08 730.68 996.87
  Q 731.01 996.40 730.84 995.84
  L 730.56 994.96
  Q 730.43 994.55 730.50 994.13
  Q 730.66 993.15 729.94 992.38
  A 1.03 1.02 -63.2 0 1 729.67 991.55
  Q 729.82 990.17 730.58 989.02
  Q 730.90 988.53 730.83 987.95
  Q 730.77 987.47 730.55 987.05
  Q 730.34 986.65 730.45 986.21
  Q 730.71 985.22 729.97 984.41
  Q 729.63 984.05 729.68 983.55
  Q 729.83 982.15 730.59 980.99
  Q 730.88 980.54 730.84 980.01
  Q 730.81 979.47 730.52 978.97
  Q 730.35 978.66 730.44 978.32
  Q 730.73 977.21 729.90 976.22
  Q 729.58 975.85 729.67 975.37
  Q 729.93 973.97 730.71 972.75
  Q 730.99 972.33 730.84 971.84
  L 730.56 970.96
  Q 730.43 970.55 730.50 970.13
  Q 730.66 969.15 729.95 968.39
  Q 729.63 968.05 729.67 967.59
  Q 729.80 966.14 730.62 964.97
  Q 731.01 964.41 730.77 963.78
  Q 730.38 962.75 730.50 961.68
  A 1.35 1.35 0.0 0 0 730.06 960.54
  Q 729.54 960.07 729.67 959.36
  Q 729.95 957.93 730.70 956.78
  A 1.23 1.21 49.9 0 0 730.79 955.62
  Q 730.31 954.53 730.46 953.22
  Q 730.50 952.89 730.25 952.67
  Q 729.05 951.57 730.13 950.13
  Q 731.39 948.45 730.51 946.83
  Q 730.18 946.20 730.49 945.57
  Q 730.80 944.92 730.23 944.49
  Q 729.71 944.09 729.83 943.45
  C 730.16 941.77 731.66 940.88 730.54 938.92
  Q 730.29 938.48 730.42 938.01
  Q 731.36 934.47 730.56 930.94
  Q 730.36 930.04 730.64 929.15
  Q 730.79 928.70 730.76 928.23
  L 730.55 924.58
  Q 730.53 924.09 730.24 923.68
  Q 729.16 922.09 729.66 919.94
  Q 729.70 919.76 729.67 919.60
  Q 729.64 919.41 729.47 919.33
  Q 729.12 919.15 729.12 918.74
  L 729.12 865.37
  Q 729.12 865.02 728.94 864.71
  Q 728.82 864.51 728.63 864.41
  Q 728.21 864.21 728.62 864.00
  Q 728.97 863.82 728.86 863.41
  A 0.49 0.48 70.8 0 0 728.21 863.09
  Q 727.90 863.22 727.91 863.59
  Q 727.94 864.16 727.51 863.78
  Q 727.36 863.65 727.20 863.37"
/>
<path stroke="#c82b23" vector-effect="non-scaling-stroke" d="
  M 888.45 485.36
  Q 889.58 481.39 888.39 477.62"
/>
<path stroke="#c82b23" vector-effect="non-scaling-stroke" d="
  M 886.93 428.29
  Q 887.42 422.76 886.51 417.67"
/>
<path stroke="#c82b23" vector-effect="non-scaling-stroke" d="
  M 885.85 409.29
  Q 886.49 405.86 885.48 403.66"
/>
<path stroke="#b42320" vector-effect="non-scaling-stroke" d="
  M 506.26 474.94
  Q 505.50 483.90 506.52 492.80"
/>
<path stroke="#b42320" vector-effect="non-scaling-stroke" d="
  M 536.79 660.83
  Q 534.64 661.42 532.62 663.83
  Q 532.48 664.00 532.26 664.00
  L 531.79 664.00
  Q 531.48 664.00 531.26 664.22
  L 526.68 668.85
  Q 526.53 669.00 526.31 669.00
  L 525.79 669.00
  Q 525.48 669.00 525.26 669.22
  L 520.68 673.85
  Q 520.53 674.00 520.31 674.00
  L 519.77 674.00
  A 0.72 0.70 -66.8 0 0 519.27 674.21
  L 514.68 678.85
  Q 514.53 679.00 514.31 679.00
  L 513.77 679.00
  A 0.72 0.70 -66.8 0 0 513.27 679.21
  L 508.68 683.85
  Q 508.53 684.00 508.31 684.00
  L 507.78 684.00
  Q 507.47 684.00 507.26 684.22
  L 503.67 687.86
  Q 503.49 688.05 503.23 688.01
  Q 503.05 687.99 502.87 687.98
  A 0.93 0.89 -66.6 0 0 502.23 688.25
  L 497.68 692.85
  Q 497.53 693.00 497.31 693.00
  L 496.77 693.00
  A 0.72 0.70 -66.8 0 0 496.27 693.21
  L 491.68 697.85
  Q 491.53 698.00 491.31 698.00
  L 490.77 698.00
  A 0.72 0.70 -66.8 0 0 490.27 698.21
  L 485.68 702.85
  Q 485.53 703.00 485.31 703.00
  L 484.77 703.00
  A 0.72 0.70 -66.8 0 0 484.27 703.21
  L 479.68 707.85
  Q 479.53 708.00 479.31 708.00
  L 478.77 708.00
  A 0.72 0.70 -66.8 0 0 478.27 708.21
  L 473.68 712.85
  Q 473.53 713.00 473.31 713.00
  L 472.77 713.00
  A 0.72 0.70 -66.8 0 0 472.27 713.21
  L 467.68 717.85
  Q 467.53 718.00 467.31 718.00
  L 466.77 718.00
  A 0.72 0.70 -66.8 0 0 466.27 718.21
  L 461.68 722.85
  Q 461.53 723.00 461.31 723.00
  L 460.78 723.00
  Q 460.47 723.00 460.26 723.22
  L 456.67 726.86
  Q 456.49 727.05 456.23 727.01
  Q 456.05 726.99 455.87 726.98
  A 0.93 0.89 -66.6 0 0 455.23 727.25
  L 450.68 731.85
  Q 450.53 732.00 450.31 732.00
  L 449.77 732.00
  A 0.72 0.70 -66.8 0 0 449.27 732.21
  L 444.68 736.85
  Q 444.53 737.00 444.31 737.00
  L 443.77 737.00
  A 0.72 0.70 -66.8 0 0 443.27 737.21
  L 438.64 741.88
  Q 438.47 742.06 438.23 742.01
  Q 438.08 741.99 437.92 741.98
  A 0.86 0.85 -65.9 0 0 437.27 742.23
  L 432.69 746.85
  Q 432.54 747.00 432.32 747.00
  L 431.77 747.00
  A 0.73 0.69 -65.7 0 0 431.28 747.20
  L 426.73 751.78
  Q 426.51 752.00 426.21 752.00
  L 425.79 752.00
  Q 425.48 752.00 425.26 752.22
  L 420.64 756.88
  Q 420.47 757.06 420.22 757.01
  Q 420.07 756.99 419.92 756.98
  A 0.89 0.88 -65.7 0 0 419.25 757.24
  L 415.71 760.84
  Q 415.56 761.00 415.34 761.00
  L 414.79 761.00
  Q 414.48 761.00 414.27 761.22
  L 409.68 765.85
  Q 409.53 766.00 409.31 766.00
  L 408.77 766.00
  A 0.72 0.70 -66.8 0 0 408.27 766.21
  L 403.68 770.85
  Q 403.53 771.00 403.31 771.00
  L 402.77 771.00
  A 0.72 0.70 -66.8 0 0 402.27 771.21
  L 397.68 775.85
  Q 397.53 776.00 397.31 776.00
  L 396.77 776.00
  A 0.73 0.69 -65.7 0 0 396.28 776.20
  L 391.73 780.78
  Q 391.51 781.00 391.21 781.00
  L 390.79 781.00
  Q 390.48 781.00 390.27 781.22
  L 385.69 785.87
  Q 385.50 786.06 385.23 786.02
  Q 385.07 785.99 384.90 785.98
  Q 384.51 785.97 384.24 786.25
  L 379.73 790.78
  Q 379.51 791.00 379.21 791.00
  L 378.79 791.00
  Q 378.48 791.00 378.27 791.22
  L 373.65 795.88
  A 0.44 0.40 20.8 0 1 373.35 796.00
  L 372.77 796.00
  Q 372.47 796.00 372.25 796.22
  L 368.78 799.77
  Q 368.52 800.04 368.14 799.99
  Q 367.96 799.97 367.78 800.01
  Q 367.40 800.09 367.10 800.39
  Q 365.04 802.45 362.69 804.83
  Q 362.48 805.05 362.17 805.00
  Q 362.02 804.98 361.88 804.98
  Q 361.50 804.98 361.24 805.24
  L 356.68 809.85
  Q 356.53 810.00 356.31 810.00
  L 355.79 810.00
  Q 355.48 810.00 355.27 810.22
  L 350.68 814.85
  Q 350.53 815.00 350.31 815.00
  L 349.77 815.00
  A 0.72 0.70 -66.8 0 0 349.27 815.21
  L 344.66 819.86
  Q 344.48 820.05 344.22 820.01
  Q 344.05 819.99 343.88 819.98
  Q 343.50 819.97 343.24 820.24
  L 338.67 824.87
  Q 338.54 825.00 338.36 824.99
  Q 338.17 824.99 337.98 824.97
  Q 337.55 824.93 337.24 825.24
  L 332.68 829.85
  Q 332.53 830.00 332.31 830.00
  L 331.78 830.00
  Q 331.47 830.00 331.26 830.22
  L 327.67 833.86
  Q 327.49 834.05 327.23 834.01
  Q 327.05 833.99 326.87 833.98
  A 0.93 0.89 -66.6 0 0 326.23 834.25
  L 321.68 838.85
  Q 321.53 839.00 321.31 839.00
  L 320.77 839.00
  A 0.72 0.70 -66.8 0 0 320.27 839.21
  L 315.68 843.85
  Q 315.53 844.00 315.31 844.00
  L 314.77 844.00
  A 0.72 0.70 -66.8 0 0 314.27 844.21
  L 309.68 848.85
  Q 309.53 849.00 309.31 849.00
  L 308.77 849.00
  A 0.72 0.70 -66.8 0 0 308.27 849.21
  L 303.68 853.85
  Q 303.53 854.00 303.31 854.00
  L 302.77 854.00
  A 0.72 0.70 -66.8 0 0 302.27 854.21
  L 297.68 858.85
  Q 297.53 859.00 297.31 859.00
  L 296.77 859.00
  A 0.72 0.70 -66.8 0 0 296.27 859.21
  L 291.68 863.85
  Q 291.53 864.00 291.31 864.00
  L 290.77 864.00
  A 0.72 0.70 -66.8 0 0 290.27 864.21
  L 285.68 868.85
  Q 285.53 869.00 285.31 869.00
  L 284.78 869.00
  Q 284.47 869.00 284.26 869.22
  L 280.67 872.86
  Q 280.49 873.05 280.23 873.01
  Q 280.05 872.99 279.87 872.98
  A 0.93 0.89 -66.6 0 0 279.23 873.25
  L 274.68 877.85
  Q 274.53 878.00 274.31 878.00
  L 273.77 878.00
  A 0.72 0.70 -66.8 0 0 273.27 878.21
  L 268.68 882.85
  Q 268.53 883.00 268.31 883.00
  L 267.77 883.00
  A 0.72 0.70 -66.8 0 0 267.27 883.21
  L 262.68 887.85
  Q 262.53 888.00 262.31 888.00
  L 261.77 888.00
  A 0.72 0.70 -66.8 0 0 261.27 888.21
  L 256.68 892.85
  Q 256.53 893.00 256.31 893.00
  L 255.77 893.00
  A 0.72 0.70 -66.8 0 0 255.27 893.21
  L 250.68 897.85
  Q 250.53 898.00 250.31 898.00
  L 249.77 898.00
  A 0.72 0.70 -66.8 0 0 249.27 898.21
  L 244.68 902.85
  Q 244.53 903.00 244.31 903.00
  L 243.78 903.00
  Q 243.47 903.00 243.26 903.22
  L 239.67 906.86
  Q 239.49 907.05 239.23 907.01
  Q 239.05 906.99 238.87 906.98
  A 0.93 0.89 -66.6 0 0 238.23 907.25
  L 233.68 911.85
  Q 233.53 912.00 233.31 912.00
  L 232.77 912.00
  A 0.72 0.70 -66.8 0 0 232.27 912.21
  L 227.68 916.85
  Q 227.53 917.00 227.31 917.00
  L 226.77 917.00
  A 0.72 0.70 -66.8 0 0 226.27 917.21
  L 221.64 921.88
  Q 221.47 922.06 221.23 922.01
  Q 221.07 921.99 220.92 921.98
  Q 220.52 921.97 220.25 922.25
  L 215.70 926.84
  Q 215.55 927.00 215.33 927.00
  L 214.79 927.00
  Q 214.48 927.00 214.27 927.22
  L 209.68 931.85
  Q 209.53 932.00 209.31 932.00
  L 208.77 932.00
  A 0.72 0.70 -66.8 0 0 208.27 932.21
  L 203.68 936.85
  Q 203.53 937.00 203.31 937.00
  L 202.77 937.00
  A 0.72 0.70 -66.8 0 0 202.27 937.21
  L 197.68 941.85
  Q 197.53 942.00 197.31 942.00
  L 196.78 942.00
  Q 196.47 942.00 196.26 942.22
  L 192.67 945.86
  Q 192.49 946.05 192.23 946.01
  Q 192.04 945.99 191.85 945.99
  A 0.87 0.84 21.2 0 0 191.23 946.25
  L 186.66 950.88
  Q 186.54 951.00 186.38 951.00
  Q 186.25 950.99 186.12 950.98
  Q 185.55 950.94 185.15 951.35
  L 180.67 955.85
  Q 180.52 956.00 180.31 956.00
  L 179.77 956.00
  A 0.72 0.70 -66.8 0 0 179.27 956.21
  L 174.68 960.85
  Q 174.53 961.00 174.31 961.00
  L 173.77 961.00
  A 0.72 0.70 -66.8 0 0 173.27 961.21
  L 168.68 965.85
  Q 168.53 966.00 168.31 966.00
  L 167.77 966.00
  A 0.72 0.70 -66.8 0 0 167.27 966.21
  L 162.68 970.85
  Q 162.53 971.00 162.31 971.00
  L 161.77 971.00
  A 0.72 0.70 -66.8 0 0 161.27 971.21
  L 156.68 975.85
  Q 156.53 976.00 156.31 976.00
  L 155.78 976.00
  Q 155.47 976.00 155.26 976.22
  L 151.67 979.86
  Q 151.49 980.05 151.23 980.01
  Q 151.05 979.99 150.87 979.98
  A 0.93 0.89 -66.6 0 0 150.23 980.25
  L 145.68 984.85
  Q 145.53 985.00 145.31 985.00
  L 144.77 985.00
  A 0.72 0.70 -66.8 0 0 144.27 985.21
  L 139.68 989.85
  Q 139.53 990.00 139.31 990.00
  L 138.77 990.00
  A 0.73 0.69 -65.7 0 0 138.28 990.20
  L 133.73 994.78
  Q 133.51 995.00 133.21 995.00
  L 132.79 995.00
  Q 132.46 995.00 132.23 995.24
  Q 130.43 997.10 128.60 998.89
  Q 128.33 999.15 126.12 1000.65
  Q 124.86 1001.49 124.00 1003.02"
/>
<path stroke="#be2627" vector-effect="non-scaling-stroke" d="
  M 124.00 1003.02
  Q 119.04 1001.84 117.25 1001.28
  Q 96.04 994.63 75.13 987.12
  Q 71.19 985.70 63.99 982.68
  Q 63.26 982.38 61.29 982.77"
/>
<path stroke="#c12825" vector-effect="non-scaling-stroke" d="
  M 697.29 889.38
  Q 668.53 911.82 645.33 926.58
  Q 569.72 974.70 480.70 999.51"
/>
<path stroke="#b82427" vector-effect="non-scaling-stroke" d="
  M 480.70 999.51
  Q 448.99 1008.19 425.25 1012.75
  Q 390.85 1019.37 349.36 1023.06
  Q 312.93 1026.29 267.61 1025.27
  C 249.24 1024.86 230.19 1023.22 212.64 1021.08
  Q 168.50 1015.71 124.00 1003.02"
/>
<path stroke="#cb2b2b" vector-effect="non-scaling-stroke" d="
  M 479.75 1360.51
  Q 479.75 1359.61 480.91 1359.63
  Q 481.10 1359.63 480.98 1359.48
  Q 480.88 1359.35 480.88 1359.19
  Q 480.88 1180.02 480.88 1000.80
  Q 480.88 1000.62 480.76 1000.50
  L 480.53 1000.27
  Q 480.30 1000.05 480.49 999.79
  L 480.70 999.51"
/>
</g>
<path fill="#d42f29" d="
  M 697.22 0.82
  Q 691.03 6.36 683.64 14.14
  C 671.26 27.20 660.94 39.25 649.92 52.19
  Q 642.90 60.43 638.01 66.74
  Q 580.60 140.84 548.14 228.40
  Q 520.72 302.35 511.39 381.73
  Q 511.52 380.85 511.26 380.42
  Q 510.80 379.64 510.63 380.53
  Q 510.51 381.16 509.96 380.98
  Q 509.52 380.84 509.20 381.17
  L 505.68 384.72
  Q 505.52 384.88 505.30 384.87
  Q 505.16 384.87 505.02 384.86
  Q 504.55 384.82 504.21 385.16
  L 499.70 389.70
  Q 499.51 389.88 499.25 389.88
  L 498.83 389.88
  Q 498.49 389.88 498.24 390.13
  L 493.70 394.70
  Q 493.51 394.88 493.25 394.88
  L 492.83 394.88
  Q 492.49 394.88 492.24 395.13
  L 487.70 399.70
  Q 487.51 399.88 487.25 399.88
  L 486.83 399.88
  Q 486.49 399.88 486.24 400.13
  L 481.70 404.70
  Q 481.51 404.88 481.25 404.88
  L 480.83 404.88
  Q 480.49 404.88 480.24 405.13
  L 475.70 409.70
  Q 475.51 409.88 475.25 409.88
  L 474.83 409.88
  Q 474.49 409.88 474.24 410.13
  L 469.69 414.71
  Q 469.47 414.93 469.17 414.89
  Q 468.98 414.86 468.81 414.87
  A 0.79 0.74 20.3 0 0 468.29 415.09
  L 463.80 419.59
  Q 463.46 419.92 462.98 419.85
  Q 462.41 419.77 462.10 420.12
  Q 460.53 421.89 458.70 423.71
  Q 458.48 423.93 458.16 423.89
  Q 457.98 423.86 457.80 423.87
  A 0.76 0.74 20.3 0 0 457.28 424.10
  L 452.70 428.70
  Q 452.51 428.88 452.25 428.88
  L 451.83 428.88
  Q 451.49 428.88 451.24 429.13
  L 446.70 433.70
  Q 446.51 433.88 446.25 433.88
  L 445.83 433.88
  Q 445.49 433.88 445.24 434.13
  L 440.70 438.70
  Q 440.51 438.88 440.25 438.88
  L 439.83 438.88
  Q 439.49 438.88 439.24 439.13
  L 434.70 443.70
  Q 434.51 443.88 434.25 443.88
  L 433.83 443.88
  Q 433.49 443.88 433.24 444.13
  L 428.64 448.75
  Q 428.53 448.87 428.37 448.88
  Q 428.23 448.89 428.08 448.88
  Q 427.57 448.82 427.20 449.19
  L 422.62 453.71
  Q 422.44 453.88 422.19 453.88
  L 421.83 453.88
  Q 421.48 453.88 421.24 454.13
  L 417.69 457.71
  Q 417.47 457.93 417.16 457.89
  Q 416.99 457.87 416.83 457.87
  Q 416.50 457.87 416.27 458.11
  L 411.70 462.70
  Q 411.51 462.88 411.25 462.88
  L 410.83 462.88
  Q 410.49 462.88 410.24 463.13
  L 405.70 467.70
  Q 405.51 467.88 405.25 467.88
  L 404.83 467.88
  Q 404.49 467.88 404.24 468.13
  L 399.70 472.70
  Q 399.51 472.88 399.25 472.88
  L 398.83 472.88
  Q 398.49 472.88 398.24 473.13
  L 393.70 477.70
  Q 393.51 477.88 393.25 477.88
  L 392.83 477.88
  Q 392.49 477.88 392.24 478.13
  L 387.70 482.70
  Q 387.51 482.88 387.25 482.88
  L 386.83 482.88
  Q 386.49 482.88 386.24 483.13
  L 381.70 487.70
  Q 381.51 487.88 381.25 487.88
  L 380.77 487.88
  A 0.71 0.70 -67.8 0 0 380.26 488.10
  Q 378.32 490.04 376.40 492.01
  Q 375.76 492.66 374.92 492.85
  A 1.63 1.56 15.3 0 0 374.09 493.30
  L 370.65 496.75
  Q 370.52 496.87 370.34 496.87
  Q 370.19 496.87 370.05 496.86
  Q 369.54 496.85 369.19 497.20
  L 364.62 501.71
  Q 364.44 501.88 364.19 501.88
  L 363.83 501.88
  Q 363.49 501.88 363.24 502.13
  L 358.70 506.70
  Q 358.51 506.88 358.25 506.88
  L 357.83 506.88
  Q 357.49 506.88 357.24 507.13
  L 352.70 511.70
  Q 352.51 511.88 352.25 511.88
  L 351.83 511.88
  Q 351.49 511.88 351.24 512.13
  L 346.70 516.70
  Q 346.51 516.88 346.25 516.88
  L 345.83 516.88
  Q 345.49 516.88 345.24 517.13
  L 340.70 521.70
  Q 340.51 521.88 340.25 521.88
  L 339.83 521.88
  Q 339.49 521.88 339.24 522.13
  L 334.70 526.70
  Q 334.51 526.88 334.25 526.88
  L 333.83 526.88
  Q 333.48 526.88 333.24 527.13
  L 329.70 530.70
  Q 329.52 530.88 329.25 530.88
  L 328.83 530.88
  Q 328.49 530.88 328.24 531.13
  L 323.70 535.70
  Q 323.51 535.88 323.25 535.88
  L 322.77 535.88
  A 0.76 0.72 -66.5 0 0 322.25 536.10
  Q 320.33 538.04 318.40 540.00
  Q 317.76 540.65 316.91 540.84
  A 1.67 1.64 15.2 0 0 316.09 541.30
  L 311.68 545.71
  Q 311.46 545.93 311.15 545.89
  Q 310.99 545.86 310.82 545.87
  Q 310.49 545.88 310.26 546.11
  L 305.70 550.70
  Q 305.51 550.88 305.25 550.88
  L 304.84 550.88
  Q 304.49 550.88 304.25 551.13
  L 299.80 555.58
  Q 299.44 555.94 298.95 555.87
  Q 298.76 555.85 298.58 555.90
  Q 298.23 556.01 297.95 556.31
  Q 295.87 558.55 293.70 560.70
  Q 293.51 560.88 293.26 560.88
  L 292.83 560.88
  Q 292.49 560.88 292.24 561.13
  L 287.70 565.70
  Q 287.51 565.88 287.25 565.88
  L 286.83 565.88
  Q 286.48 565.88 286.24 566.13
  L 282.70 569.70
  Q 282.52 569.88 282.25 569.88
  L 281.83 569.88
  Q 281.49 569.88 281.24 570.13
  L 276.70 574.70
  Q 276.51 574.88 276.25 574.88
  L 275.83 574.88
  Q 275.49 574.88 275.24 575.13
  L 270.70 579.70
  Q 270.51 579.88 270.25 579.88
  L 269.83 579.88
  Q 269.49 579.88 269.24 580.13
  L 264.64 584.75
  Q 264.53 584.87 264.37 584.88
  Q 264.23 584.90 264.09 584.88
  Q 263.57 584.82 263.20 585.19
  L 258.62 589.71
  Q 258.44 589.88 258.19 589.88
  L 257.83 589.88
  Q 257.49 589.88 257.24 590.13
  L 252.70 594.70
  Q 252.51 594.88 252.25 594.88
  L 251.83 594.88
  Q 251.49 594.88 251.24 595.13
  L 246.70 599.70
  Q 246.51 599.88 246.25 599.88
  L 245.83 599.88
  Q 245.48 599.88 245.24 600.13
  L 241.70 603.70
  Q 241.52 603.88 241.26 603.88
  L 240.83 603.88
  Q 240.49 603.88 240.24 604.13
  L 235.70 608.70
  Q 235.51 608.88 235.25 608.88
  L 234.83 608.88
  Q 234.49 608.88 234.24 609.13
  L 229.70 613.70
  Q 229.51 613.88 229.25 613.88
  L 228.83 613.88
  Q 228.49 613.88 228.24 614.13
  L 223.70 618.70
  Q 223.51 618.88 223.25 618.88
  L 222.83 618.88
  Q 222.49 618.88 222.24 619.13
  L 217.70 623.70
  Q 217.51 623.88 217.25 623.88
  L 216.77 623.88
  A 0.76 0.72 -66.5 0 0 216.25 624.10
  Q 214.32 626.05 212.41 627.99
  Q 211.77 628.65 210.90 628.84
  A 1.67 1.64 -74.0 0 0 210.09 629.30
  L 205.60 633.79
  Q 205.51 633.88 205.37 633.88
  Q 205.20 633.87 205.03 633.86
  Q 204.51 633.84 204.14 634.21
  L 199.63 638.73
  Q 199.43 638.93 199.14 638.88
  Q 198.99 638.85 198.84 638.87
  Q 198.47 638.90 198.20 639.17
  L 194.69 642.71
  Q 194.47 642.93 194.16 642.89
  Q 193.99 642.87 193.83 642.87
  Q 193.50 642.87 193.26 643.11
  L 188.70 647.70
  Q 188.51 647.88 188.25 647.88
  L 187.83 647.88
  Q 187.49 647.88 187.24 648.13
  L 182.70 652.70
  Q 182.51 652.88 182.25 652.88
  L 181.83 652.88
  Q 181.49 652.88 181.24 653.13
  L 176.70 657.70
  Q 176.51 657.88 176.25 657.88
  L 175.83 657.88
  Q 175.49 657.88 175.24 658.13
  L 170.70 662.70
  Q 170.51 662.88 170.25 662.88
  L 169.83 662.88
  Q 169.49 662.88 169.24 663.13
  L 164.70 667.70
  Q 164.51 667.88 164.25 667.88
  L 163.83 667.88
  Q 163.49 667.88 163.24 668.13
  L 158.70 672.70
  Q 158.51 672.88 158.25 672.88
  L 157.78 672.88
  Q 157.46 672.88 157.24 673.11
  Q 155.89 674.49 154.44 675.96
  Q 153.77 676.64 152.91 676.84
  A 1.67 1.64 15.2 0 0 152.09 677.30
  L 147.68 681.71
  Q 147.46 681.93 147.15 681.89
  Q 146.99 681.86 146.82 681.87
  Q 146.49 681.88 146.26 682.11
  L 141.69 686.71
  Q 141.46 686.93 141.15 686.89
  Q 140.97 686.86 140.80 686.87
  A 0.79 0.74 20.3 0 0 140.28 687.09
  L 135.70 691.70
  Q 135.51 691.88 135.25 691.88
  L 134.94 691.88
  Q 134.41 691.88 134.04 692.27
  L 130.00 696.40
  Q 129.78 696.64 129.47 696.73
  L 126.98 697.51
  Q 126.72 697.58 126.65 697.84
  Q 126.60 698.00 126.62 698.16
  Q 126.68 698.65 126.33 699.01
  L 123.68 701.74
  Q 123.46 701.96 123.16 701.89
  Q 122.97 701.85 122.79 701.86
  A 0.76 0.73 -67.8 0 0 122.29 702.08
  L 117.70 706.70
  Q 117.51 706.88 117.25 706.88
  L 116.83 706.88
  Q 116.49 706.88 116.24 707.13
  L 111.70 711.70
  Q 111.51 711.88 111.25 711.88
  L 110.83 711.88
  Q 110.48 711.88 110.24 712.13
  L 106.70 715.70
  Q 106.52 715.88 106.25 715.88
  L 105.83 715.88
  Q 105.49 715.88 105.24 716.13
  L 100.64 720.75
  Q 100.53 720.87 100.36 720.88
  Q 100.23 720.89 100.08 720.87
  Q 99.57 720.82 99.20 721.19
  L 94.62 725.71
  Q 94.44 725.88 94.19 725.88
  L 93.83 725.88
  Q 93.49 725.88 93.24 726.13
  L 88.70 730.70
  Q 88.51 730.88 88.25 730.88
  L 87.83 730.88
  Q 87.49 730.88 87.24 731.13
  L 82.70 735.70
  Q 82.51 735.88 82.25 735.88
  L 81.83 735.88
  Q 81.49 735.88 81.24 736.13
  L 76.70 740.70
  Q 76.51 740.88 76.25 740.88
  L 75.83 740.88
  Q 75.49 740.88 75.24 741.13
  L 70.70 745.70
  Q 70.51 745.88 70.25 745.88
  L 69.83 745.88
  Q 69.48 745.88 69.24 746.13
  L 65.70 749.70
  Q 65.52 749.88 65.25 749.88
  L 64.83 749.88
  Q 64.49 749.88 64.24 750.13
  L 59.70 754.70
  Q 59.51 754.88 59.25 754.88
  L 58.83 754.88
  Q 58.49 754.88 58.24 755.13
  L 53.70 759.70
  Q 53.51 759.88 53.25 759.88
  L 52.83 759.88
  Q 52.49 759.88 52.24 760.13
  L 47.70 764.70
  Q 47.51 764.88 47.25 764.88
  L 46.83 764.88
  Q 46.49 764.88 46.24 765.13
  L 41.70 769.70
  Q 41.51 769.88 41.25 769.88
  L 40.83 769.88
  Q 40.49 769.88 40.24 770.13
  L 35.70 774.70
  Q 35.51 774.88 35.25 774.88
  L 34.83 774.88
  Q 34.49 774.88 34.24 775.13
  L 29.70 779.70
  Q 29.51 779.88 29.25 779.88
  L 28.83 779.88
  Q 28.49 779.88 28.24 780.13
  L 23.70 784.70
  Q 23.51 784.88 23.25 784.88
  L 22.83 784.88
  Q 22.48 784.88 22.24 785.13
  L 18.70 788.70
  Q 18.52 788.88 18.25 788.88
  L 17.83 788.88
  Q 17.49 788.88 17.24 789.13
  L 12.64 793.76
  Q 12.52 793.87 12.36 793.87
  Q 12.21 793.86 12.04 793.85
  Q 11.62 793.84 11.30 794.13
  L 7.54 797.56
  Q 1.07 752.02 0.54 713.25
  Q 0.22 689.47 0.00 682.63
  L 0.00 678.00
  Q 1.08 655.01 1.79 645.50
  C 11.79 510.72 60.90 381.67 143.08 274.81
  Q 235.52 154.61 369.04 82.91
  Q 434.68 47.66 508.17 26.90
  Q 525.61 21.98 546.00 17.42
  C 583.99 8.94 622.67 3.76 662.26 1.65
  Q 678.25 0.80 695.00 0.59
  Q 696.73 0.56 697.22 0.82
  Z"
/>
<path fill="#ffffff" d="
  M 697.22 0.82
  Q 697.70 0.82 697.78 0.94
  C 722.05 24.71 746.02 49.68 766.04 77.24
  Q 787.71 107.07 808.81 143.71
  C 842.76 202.68 866.20 266.71 877.41 334.01
  Q 883.19 368.69 885.48 403.66
  L 885.85 409.29
  L 886.51 417.67
  L 886.93 428.29
  L 888.39 477.62
  L 888.45 485.36
  C 888.55 575.76 866.44 663.91 821.90 742.66
  Q 784.22 809.26 727.20 863.37
  Q 712.84 877.64 697.29 889.38
  Q 692.43 885.12 688.07 881.39
  Q 635.78 836.61 597.29 779.51
  Q 592.52 772.44 587.85 765.23
  Q 533.09 677.14 515.01 574.75
  Q 513.12 564.02 510.60 545.68
  Q 510.50 543.49 509.83 538.50
  Q 507.87 524.15 506.52 492.80
  L 506.26 474.94
  Q 505.66 428.17 511.39 381.73
  Q 520.72 302.35 548.14 228.40
  Q 580.60 140.84 638.01 66.74
  Q 642.90 60.43 649.92 52.19
  C 660.94 39.25 671.26 27.20 683.64 14.14
  Q 691.03 6.36 697.22 0.82
  Z"
/>
<path fill="#e13426" d="
  M 982.78 62.35
  Q 983.00 62.88 982.79 63.16
  Q 982.59 63.41 982.27 63.41
  Q 981.47 63.39 980.69 63.29
  Q 980.12 63.22 980.12 63.80
  L 980.12 1333.38
  Q 980.12 1333.69 980.25 1333.96
  L 980.50 1334.48
  Q 861.43 1387.52 730.76 1393.70
  Q 730.79 1393.60 730.74 1393.50
  Q 730.61 1393.27 730.85 1393.36
  Q 731.05 1393.44 731.24 1393.37
  Q 732.34 1393.02 731.21 1392.81
  Q 730.49 1392.67 729.81 1392.89
  Q 729.12 1393.12 729.12 1392.39
  Q 729.12 1376.75 729.19 1360.00
  Q 729.20 1355.77 729.58 1351.61
  Q 729.63 1351.13 729.99 1350.81
  C 732.04 1348.99 729.92 1347.21 730.59 1345.16
  Q 730.87 1344.30 730.91 1343.42
  Q 731.00 1341.42 730.66 1339.50
  Q 730.38 1337.87 730.74 1336.01
  Q 731.27 1333.27 730.48 1330.55
  Q 730.31 1329.97 730.56 1329.43
  Q 731.01 1328.43 730.70 1327.44
  Q 730.47 1326.74 730.68 1326.03
  Q 731.22 1324.24 730.38 1322.46
  Q 730.15 1321.99 730.43 1321.55
  L 730.65 1321.22
  Q 730.90 1320.81 730.44 1320.65
  Q 729.53 1320.34 729.65 1319.54
  Q 729.84 1318.18 730.64 1316.88
  A 1.35 1.31 -35.2 0 0 730.82 1315.92
  L 730.25 1313.05
  Q 730.18 1312.67 729.92 1312.38
  Q 729.56 1311.97 729.67 1311.41
  Q 729.95 1309.94 730.72 1308.73
  Q 731.01 1308.29 730.81 1307.79
  Q 730.38 1306.76 730.46 1305.51
  Q 730.49 1305.01 730.15 1304.66
  L 729.96 1304.47
  Q 729.58 1304.08 729.66 1303.55
  Q 729.87 1302.04 730.71 1300.76
  Q 730.99 1300.33 730.84 1299.85
  L 730.55 1298.94
  Q 730.42 1298.52 730.50 1298.09
  Q 730.66 1297.14 729.96 1296.42
  Q 729.64 1296.08 729.67 1295.62
  Q 729.80 1294.15 730.57 1293.02
  Q 730.88 1292.56 730.85 1292.02
  Q 730.81 1291.47 730.52 1290.98
  Q 730.35 1290.67 730.44 1290.32
  Q 730.73 1289.20 729.90 1288.22
  Q 729.58 1287.85 729.67 1287.37
  Q 729.92 1286.05 730.63 1284.90
  Q 730.88 1284.47 730.84 1283.98
  Q 730.80 1283.48 730.55 1283.02
  Q 730.33 1282.63 730.45 1282.20
  Q 730.73 1281.13 729.85 1280.26
  A 0.92 0.90 32.9 0 1 729.63 1279.29
  L 730.81 1276.19
  A 0.56 0.52 54.4 0 0 730.84 1275.96
  Q 730.79 1275.49 730.56 1275.04
  Q 730.35 1274.64 730.45 1274.20
  Q 730.69 1273.16 729.90 1272.22
  Q 729.58 1271.85 729.67 1271.37
  Q 729.92 1270.05 730.63 1268.90
  Q 730.89 1268.47 730.84 1267.97
  Q 730.80 1267.46 730.54 1267.00
  Q 730.34 1266.66 730.44 1266.28
  Q 730.72 1265.20 729.90 1264.22
  Q 729.58 1263.85 729.67 1263.37
  Q 729.92 1262.05 730.62 1260.90
  Q 730.89 1260.47 730.84 1259.97
  Q 730.79 1259.45 730.52 1258.98
  Q 730.34 1258.66 730.44 1258.30
  Q 730.75 1257.22 729.91 1256.34
  A 1.03 1.00 28.5 0 1 729.64 1255.48
  Q 729.89 1254.04 730.71 1252.75
  Q 730.99 1252.32 730.84 1251.84
  L 730.56 1250.96
  Q 730.43 1250.55 730.50 1250.13
  Q 730.66 1249.15 729.95 1248.39
  A 1.12 1.12 0.0 0 1 729.66 1247.42
  Q 729.92 1245.99 730.71 1244.75
  Q 730.99 1244.33 730.84 1243.84
  L 730.56 1242.96
  Q 730.43 1242.55 730.50 1242.13
  Q 730.66 1241.15 729.94 1240.38
  A 1.03 1.02 -63.2 0 1 729.67 1239.55
  Q 729.82 1238.17 730.59 1237.00
  Q 730.89 1236.53 730.84 1235.98
  Q 730.80 1235.47 730.53 1234.99
  Q 730.34 1234.66 730.44 1234.30
  Q 730.73 1233.21 729.90 1232.22
  Q 729.58 1231.85 729.67 1231.37
  Q 729.92 1230.05 730.62 1228.90
  Q 730.90 1228.45 730.83 1227.94
  Q 730.77 1227.47 730.55 1227.04
  Q 730.34 1226.65 730.45 1226.22
  Q 730.71 1225.20 729.94 1224.39
  Q 729.64 1224.06 729.68 1223.62
  Q 729.80 1222.15 730.63 1220.95
  Q 730.92 1220.52 730.87 1220.01
  Q 730.81 1219.46 730.53 1218.98
  Q 730.34 1218.66 730.44 1218.31
  Q 730.75 1217.16 729.85 1216.27
  A 0.95 0.93 33.0 0 1 729.63 1215.28
  L 730.81 1212.18
  A 0.47 0.44 54.7 0 0 730.84 1211.97
  Q 730.80 1211.48 730.56 1211.03
  A 1.16 1.11 38.6 0 1 730.45 1210.20
  Q 730.71 1209.15 729.91 1208.34
  Q 729.56 1207.98 729.64 1207.47
  Q 729.87 1206.13 730.64 1204.94
  Q 730.92 1204.50 730.86 1203.99
  Q 730.80 1203.46 730.53 1202.99
  Q 730.34 1202.66 730.44 1202.29
  Q 730.75 1201.17 729.86 1200.28
  A 0.93 0.93 0.0 0 1 729.64 1199.28
  L 730.81 1196.18
  A 0.45 0.39 -40.7 0 0 730.84 1195.98
  Q 730.80 1195.45 730.52 1194.96
  Q 730.35 1194.65 730.44 1194.31
  Q 730.75 1193.15 729.85 1192.27
  A 0.92 0.92 0.0 0 1 729.63 1191.29
  L 730.81 1188.18
  A 0.47 0.44 54.7 0 0 730.84 1187.97
  Q 730.80 1187.46 730.54 1187.00
  Q 730.34 1186.64 730.44 1186.25
  Q 730.73 1185.15 729.90 1184.32
  A 0.97 0.93 -63.5 0 1 729.64 1183.49
  Q 729.86 1182.15 730.60 1181.00
  Q 730.90 1180.52 730.83 1179.97
  Q 730.78 1179.49 730.54 1179.04
  Q 730.34 1178.65 730.45 1178.23
  Q 730.71 1177.20 729.94 1176.38
  A 1.05 1.05 0.0 0 1 729.66 1175.53
  Q 729.84 1174.07 730.68 1172.88
  Q 731.01 1172.40 730.84 1171.84
  L 730.56 1170.96
  Q 730.43 1170.55 730.50 1170.13
  Q 730.66 1169.15 729.94 1168.38
  A 1.05 1.05 0.0 0 1 729.66 1167.55
  Q 729.82 1166.17 730.58 1165.02
  Q 730.90 1164.53 730.83 1163.95
  Q 730.77 1163.48 730.55 1163.05
  Q 730.34 1162.65 730.45 1162.21
  Q 730.72 1161.20 729.94 1160.38
  A 1.03 1.02 -63.2 0 1 729.67 1159.55
  Q 729.82 1158.16 730.59 1156.99
  Q 730.88 1156.54 730.85 1156.01
  Q 730.81 1155.50 730.55 1155.02
  Q 730.33 1154.63 730.45 1154.20
  Q 730.71 1153.19 729.98 1152.44
  A 1.23 1.20 -61.4 0 1 729.66 1151.31
  Q 729.97 1149.95 730.62 1148.90
  Q 730.90 1148.44 730.82 1147.92
  Q 730.75 1147.44 730.52 1147.01
  Q 730.34 1146.66 730.45 1146.28
  Q 730.74 1145.20 729.89 1144.32
  A 0.94 0.94 0.0 0 1 729.64 1143.49
  Q 729.90 1142.02 730.71 1140.75
  Q 730.99 1140.32 730.84 1139.84
  L 730.56 1138.96
  Q 730.43 1138.55 730.50 1138.13
  Q 730.66 1137.15 729.94 1136.38
  A 1.02 1.00 27.3 0 1 729.67 1135.56
  Q 729.82 1134.16 730.60 1132.97
  Q 730.89 1132.54 730.85 1132.01
  Q 730.80 1131.50 730.55 1131.03
  A 1.18 1.15 38.9 0 1 730.45 1130.20
  Q 730.72 1129.15 729.90 1128.33
  A 0.95 0.94 -62.4 0 1 729.64 1127.49
  Q 729.88 1126.07 730.69 1124.85
  Q 731.01 1124.38 730.84 1123.84
  L 730.56 1122.96
  Q 730.43 1122.55 730.50 1122.13
  Q 730.66 1121.15 729.95 1120.39
  A 1.12 1.12 0.0 0 1 729.66 1119.42
  Q 729.92 1117.99 730.71 1116.75
  Q 730.99 1116.33 730.84 1115.84
  L 730.56 1114.96
  Q 730.43 1114.55 730.50 1114.13
  Q 730.66 1113.15 729.94 1112.38
  A 1.03 1.02 -63.2 0 1 729.67 1111.55
  Q 729.83 1110.16 730.58 1109.01
  Q 730.89 1108.53 730.84 1107.97
  Q 730.80 1107.46 730.53 1106.99
  Q 730.35 1106.68 730.44 1106.32
  Q 730.73 1105.21 729.90 1104.22
  Q 729.58 1103.85 729.67 1103.37
  Q 729.92 1102.05 730.62 1100.90
  Q 730.89 1100.47 730.84 1099.97
  Q 730.79 1099.45 730.52 1098.99
  Q 730.34 1098.68 730.43 1098.33
  Q 730.73 1097.21 729.90 1096.22
  Q 729.58 1095.85 729.67 1095.37
  Q 729.92 1094.04 730.64 1092.88
  Q 730.89 1092.47 730.85 1091.99
  Q 730.80 1091.48 730.55 1091.03
  A 1.14 1.13 -52.0 0 1 730.45 1090.21
  Q 730.71 1089.16 729.91 1088.34
  Q 729.56 1087.98 729.64 1087.48
  Q 729.87 1086.13 730.63 1084.96
  A 1.46 1.46 0.0 0 0 730.85 1083.98
  Q 730.78 1083.47 730.54 1082.99
  Q 730.35 1082.64 730.45 1082.26
  Q 730.71 1081.18 729.90 1080.22
  Q 729.58 1079.85 729.67 1079.37
  Q 729.92 1078.05 730.62 1076.90
  Q 730.89 1076.46 730.84 1075.96
  Q 730.79 1075.44 730.54 1075.01
  Q 730.33 1074.67 730.43 1074.29
  Q 730.72 1073.20 729.90 1072.22
  Q 729.58 1071.85 729.67 1071.37
  Q 729.92 1070.05 730.62 1068.90
  Q 730.88 1068.47 730.84 1067.98
  Q 730.80 1067.47 730.54 1067.01
  Q 730.33 1066.64 730.44 1066.22
  Q 730.72 1065.17 729.92 1064.35
  A 1.08 1.07 29.9 0 1 729.65 1063.37
  Q 729.98 1061.94 730.63 1060.89
  Q 730.89 1060.46 730.84 1059.96
  Q 730.78 1059.47 730.54 1059.03
  Q 730.35 1058.66 730.45 1058.25
  Q 730.71 1057.18 729.90 1056.22
  Q 729.58 1055.85 729.67 1055.37
  Q 729.92 1054.05 730.63 1052.90
  Q 730.88 1052.48 730.84 1051.98
  Q 730.80 1051.47 730.54 1051.00
  Q 730.35 1050.64 730.44 1050.26
  Q 730.72 1049.16 729.91 1048.33
  Q 729.56 1047.97 729.64 1047.48
  Q 729.87 1046.13 730.63 1044.95
  A 1.41 1.40 -32.3 0 0 730.85 1043.99
  Q 730.79 1043.46 730.52 1042.96
  Q 730.35 1042.65 730.44 1042.30
  Q 730.72 1041.20 729.90 1040.22
  Q 729.58 1039.85 729.67 1039.37
  Q 729.92 1038.05 730.62 1036.90
  Q 730.89 1036.47 730.84 1035.97
  Q 730.79 1035.48 730.55 1035.02
  Q 730.35 1034.64 730.45 1034.22
  Q 730.71 1033.18 729.90 1032.22
  Q 729.58 1031.85 729.67 1031.37
  Q 729.92 1030.05 730.62 1028.90
  Q 730.89 1028.47 730.84 1027.96
  Q 730.79 1027.45 730.53 1027.00
  Q 730.35 1026.67 730.44 1026.31
  Q 730.73 1025.20 729.90 1024.22
  Q 729.58 1023.85 729.67 1023.37
  Q 729.92 1022.05 730.63 1020.90
  Q 730.88 1020.47 730.84 1019.98
  Q 730.80 1019.45 730.52 1018.97
  Q 730.35 1018.67 730.44 1018.33
  Q 730.73 1017.21 729.90 1016.22
  Q 729.58 1015.85 729.67 1015.37
  Q 729.93 1013.97 730.71 1012.75
  Q 730.99 1012.33 730.84 1011.84
  L 730.56 1010.96
  Q 730.43 1010.55 730.50 1010.13
  Q 730.66 1009.15 729.95 1008.39
  A 1.12 1.12 0.0 0 1 729.66 1007.42
  Q 729.91 1006.07 730.62 1004.90
  Q 730.90 1004.45 730.83 1003.94
  Q 730.77 1003.48 730.55 1003.06
  Q 730.34 1002.65 730.45 1002.21
  Q 730.72 1001.20 729.94 1000.38
  A 1.03 1.02 -63.2 0 1 729.67 999.55
  Q 729.83 998.08 730.68 996.87
  Q 731.01 996.40 730.84 995.84
  L 730.56 994.96
  Q 730.43 994.55 730.50 994.13
  Q 730.66 993.15 729.94 992.38
  A 1.03 1.02 -63.2 0 1 729.67 991.55
  Q 729.82 990.17 730.58 989.02
  Q 730.90 988.53 730.83 987.95
  Q 730.77 987.47 730.55 987.05
  Q 730.34 986.65 730.45 986.21
  Q 730.71 985.22 729.97 984.41
  Q 729.63 984.05 729.68 983.55
  Q 729.83 982.15 730.59 980.99
  Q 730.88 980.54 730.84 980.01
  Q 730.81 979.47 730.52 978.97
  Q 730.35 978.66 730.44 978.32
  Q 730.73 977.21 729.90 976.22
  Q 729.58 975.85 729.67 975.37
  Q 729.93 973.97 730.71 972.75
  Q 730.99 972.33 730.84 971.84
  L 730.56 970.96
  Q 730.43 970.55 730.50 970.13
  Q 730.66 969.15 729.95 968.39
  Q 729.63 968.05 729.67 967.59
  Q 729.80 966.14 730.62 964.97
  Q 731.01 964.41 730.77 963.78
  Q 730.38 962.75 730.50 961.68
  A 1.35 1.35 0.0 0 0 730.06 960.54
  Q 729.54 960.07 729.67 959.36
  Q 729.95 957.93 730.70 956.78
  A 1.23 1.21 49.9 0 0 730.79 955.62
  Q 730.31 954.53 730.46 953.22
  Q 730.50 952.89 730.25 952.67
  Q 729.05 951.57 730.13 950.13
  Q 731.39 948.45 730.51 946.83
  Q 730.18 946.20 730.49 945.57
  Q 730.80 944.92 730.23 944.49
  Q 729.71 944.09 729.83 943.45
  C 730.16 941.77 731.66 940.88 730.54 938.92
  Q 730.29 938.48 730.42 938.01
  Q 731.36 934.47 730.56 930.94
  Q 730.36 930.04 730.64 929.15
  Q 730.79 928.70 730.76 928.23
  L 730.55 924.58
  Q 730.53 924.09 730.24 923.68
  Q 729.16 922.09 729.66 919.94
  Q 729.70 919.76 729.67 919.60
  Q 729.64 919.41 729.47 919.33
  Q 729.12 919.15 729.12 918.74
  L 729.12 865.37
  Q 729.12 865.02 728.94 864.71
  Q 728.82 864.51 728.63 864.41
  Q 728.21 864.21 728.62 864.00
  Q 728.97 863.82 728.86 863.41
  A 0.49 0.48 70.8 0 0 728.21 863.09
  Q 727.90 863.22 727.91 863.59
  Q 727.94 864.16 727.51 863.78
  Q 727.36 863.65 727.20 863.37
  Q 784.22 809.26 821.90 742.66
  C 866.44 663.91 888.55 575.76 888.45 485.36
  Q 889.58 481.39 888.39 477.62
  L 886.93 428.29
  Q 887.42 422.76 886.51 417.67
  L 885.85 409.29
  Q 886.49 405.86 885.48 403.66
  Q 883.19 368.69 877.41 334.01
  C 866.20 266.71 842.76 202.68 808.81 143.71
  Q 787.71 107.07 766.04 77.24
  C 746.02 49.68 722.05 24.71 697.78 0.94
  Q 702.37 0.85 706.50 1.02
  Q 721.69 1.64 736.24 2.44
  Q 789.52 5.36 838.96 15.85
  C 857.42 19.76 878.02 24.62 897.09 30.39
  Q 940.93 43.62 982.78 62.35
  Z"
/>
<path fill="#ed3a24" d="
  M 982.78 62.35
  Q 1088.54 110.06 1173.26 189.24
  Q 1264.66 274.66 1320.34 385.46
  Q 1382.35 508.85 1392.33 647.36
  Q 1394.76 681.11 1394.26 716.70
  Q 1394.11 726.54 1393.53 736.75
  Q 1386.53 858.94 1338.83 970.81
  Q 1313.10 1031.17 1275.31 1087.33
  C 1202.62 1195.36 1099.74 1281.55 980.50 1334.48
  L 980.25 1333.96
  Q 980.12 1333.69 980.12 1333.38
  L 980.12 63.80
  Q 980.12 63.22 980.69 63.29
  Q 981.47 63.39 982.27 63.41
  Q 982.59 63.41 982.79 63.16
  Q 983.00 62.88 982.78 62.35
  Z"
/>
<path fill="#b92520" d="
  M 511.39 381.73
  Q 505.66 428.17 506.26 474.94
  Q 505.50 483.90 506.52 492.80
  Q 507.87 524.15 509.83 538.50
  Q 510.50 543.49 510.60 545.68
  Q 510.73 550.07 511.32 554.38
  Q 518.77 609.06 536.79 660.83
  Q 534.64 661.42 532.62 663.83
  Q 532.48 664.00 532.26 664.00
  L 531.79 664.00
  Q 531.48 664.00 531.26 664.22
  L 526.68 668.85
  Q 526.53 669.00 526.31 669.00
  L 525.79 669.00
  Q 525.48 669.00 525.26 669.22
  L 520.68 673.85
  Q 520.53 674.00 520.31 674.00
  L 519.77 674.00
  A 0.72 0.70 -66.8 0 0 519.27 674.21
  L 514.68 678.85
  Q 514.53 679.00 514.31 679.00
  L 513.77 679.00
  A 0.72 0.70 -66.8 0 0 513.27 679.21
  L 508.68 683.85
  Q 508.53 684.00 508.31 684.00
  L 507.78 684.00
  Q 507.47 684.00 507.26 684.22
  L 503.67 687.86
  Q 503.49 688.05 503.23 688.01
  Q 503.05 687.99 502.87 687.98
  A 0.93 0.89 -66.6 0 0 502.23 688.25
  L 497.68 692.85
  Q 497.53 693.00 497.31 693.00
  L 496.77 693.00
  A 0.72 0.70 -66.8 0 0 496.27 693.21
  L 491.68 697.85
  Q 491.53 698.00 491.31 698.00
  L 490.77 698.00
  A 0.72 0.70 -66.8 0 0 490.27 698.21
  L 485.68 702.85
  Q 485.53 703.00 485.31 703.00
  L 484.77 703.00
  A 0.72 0.70 -66.8 0 0 484.27 703.21
  L 479.68 707.85
  Q 479.53 708.00 479.31 708.00
  L 478.77 708.00
  A 0.72 0.70 -66.8 0 0 478.27 708.21
  L 473.68 712.85
  Q 473.53 713.00 473.31 713.00
  L 472.77 713.00
  A 0.72 0.70 -66.8 0 0 472.27 713.21
  L 467.68 717.85
  Q 467.53 718.00 467.31 718.00
  L 466.77 718.00
  A 0.72 0.70 -66.8 0 0 466.27 718.21
  L 461.68 722.85
  Q 461.53 723.00 461.31 723.00
  L 460.78 723.00
  Q 460.47 723.00 460.26 723.22
  L 456.67 726.86
  Q 456.49 727.05 456.23 727.01
  Q 456.05 726.99 455.87 726.98
  A 0.93 0.89 -66.6 0 0 455.23 727.25
  L 450.68 731.85
  Q 450.53 732.00 450.31 732.00
  L 449.77 732.00
  A 0.72 0.70 -66.8 0 0 449.27 732.21
  L 444.68 736.85
  Q 444.53 737.00 444.31 737.00
  L 443.77 737.00
  A 0.72 0.70 -66.8 0 0 443.27 737.21
  L 438.64 741.88
  Q 438.47 742.06 438.23 742.01
  Q 438.08 741.99 437.92 741.98
  A 0.86 0.85 -65.9 0 0 437.27 742.23
  L 432.69 746.85
  Q 432.54 747.00 432.32 747.00
  L 431.77 747.00
  A 0.73 0.69 -65.7 0 0 431.28 747.20
  L 426.73 751.78
  Q 426.51 752.00 426.21 752.00
  L 425.79 752.00
  Q 425.48 752.00 425.26 752.22
  L 420.64 756.88
  Q 420.47 757.06 420.22 757.01
  Q 420.07 756.99 419.92 756.98
  A 0.89 0.88 -65.7 0 0 419.25 757.24
  L 415.71 760.84
  Q 415.56 761.00 415.34 761.00
  L 414.79 761.00
  Q 414.48 761.00 414.27 761.22
  L 409.68 765.85
  Q 409.53 766.00 409.31 766.00
  L 408.77 766.00
  A 0.72 0.70 -66.8 0 0 408.27 766.21
  L 403.68 770.85
  Q 403.53 771.00 403.31 771.00
  L 402.77 771.00
  A 0.72 0.70 -66.8 0 0 402.27 771.21
  L 397.68 775.85
  Q 397.53 776.00 397.31 776.00
  L 396.77 776.00
  A 0.73 0.69 -65.7 0 0 396.28 776.20
  L 391.73 780.78
  Q 391.51 781.00 391.21 781.00
  L 390.79 781.00
  Q 390.48 781.00 390.27 781.22
  L 385.69 785.87
  Q 385.50 786.06 385.23 786.02
  Q 385.07 785.99 384.90 785.98
  Q 384.51 785.97 384.24 786.25
  L 379.73 790.78
  Q 379.51 791.00 379.21 791.00
  L 378.79 791.00
  Q 378.48 791.00 378.27 791.22
  L 373.65 795.88
  A 0.44 0.40 20.8 0 1 373.35 796.00
  L 372.77 796.00
  Q 372.47 796.00 372.25 796.22
  L 368.78 799.77
  Q 368.52 800.04 368.14 799.99
  Q 367.96 799.97 367.78 800.01
  Q 367.40 800.09 367.10 800.39
  Q 365.04 802.45 362.69 804.83
  Q 362.48 805.05 362.17 805.00
  Q 362.02 804.98 361.88 804.98
  Q 361.50 804.98 361.24 805.24
  L 356.68 809.85
  Q 356.53 810.00 356.31 810.00
  L 355.79 810.00
  Q 355.48 810.00 355.27 810.22
  L 350.68 814.85
  Q 350.53 815.00 350.31 815.00
  L 349.77 815.00
  A 0.72 0.70 -66.8 0 0 349.27 815.21
  L 344.66 819.86
  Q 344.48 820.05 344.22 820.01
  Q 344.05 819.99 343.88 819.98
  Q 343.50 819.97 343.24 820.24
  L 338.67 824.87
  Q 338.54 825.00 338.36 824.99
  Q 338.17 824.99 337.98 824.97
  Q 337.55 824.93 337.24 825.24
  L 332.68 829.85
  Q 332.53 830.00 332.31 830.00
  L 331.78 830.00
  Q 331.47 830.00 331.26 830.22
  L 327.67 833.86
  Q 327.49 834.05 327.23 834.01
  Q 327.05 833.99 326.87 833.98
  A 0.93 0.89 -66.6 0 0 326.23 834.25
  L 321.68 838.85
  Q 321.53 839.00 321.31 839.00
  L 320.77 839.00
  A 0.72 0.70 -66.8 0 0 320.27 839.21
  L 315.68 843.85
  Q 315.53 844.00 315.31 844.00
  L 314.77 844.00
  A 0.72 0.70 -66.8 0 0 314.27 844.21
  L 309.68 848.85
  Q 309.53 849.00 309.31 849.00
  L 308.77 849.00
  A 0.72 0.70 -66.8 0 0 308.27 849.21
  L 303.68 853.85
  Q 303.53 854.00 303.31 854.00
  L 302.77 854.00
  A 0.72 0.70 -66.8 0 0 302.27 854.21
  L 297.68 858.85
  Q 297.53 859.00 297.31 859.00
  L 296.77 859.00
  A 0.72 0.70 -66.8 0 0 296.27 859.21
  L 291.68 863.85
  Q 291.53 864.00 291.31 864.00
  L 290.77 864.00
  A 0.72 0.70 -66.8 0 0 290.27 864.21
  L 285.68 868.85
  Q 285.53 869.00 285.31 869.00
  L 284.78 869.00
  Q 284.47 869.00 284.26 869.22
  L 280.67 872.86
  Q 280.49 873.05 280.23 873.01
  Q 280.05 872.99 279.87 872.98
  A 0.93 0.89 -66.6 0 0 279.23 873.25
  L 274.68 877.85
  Q 274.53 878.00 274.31 878.00
  L 273.77 878.00
  A 0.72 0.70 -66.8 0 0 273.27 878.21
  L 268.68 882.85
  Q 268.53 883.00 268.31 883.00
  L 267.77 883.00
  A 0.72 0.70 -66.8 0 0 267.27 883.21
  L 262.68 887.85
  Q 262.53 888.00 262.31 888.00
  L 261.77 888.00
  A 0.72 0.70 -66.8 0 0 261.27 888.21
  L 256.68 892.85
  Q 256.53 893.00 256.31 893.00
  L 255.77 893.00
  A 0.72 0.70 -66.8 0 0 255.27 893.21
  L 250.68 897.85
  Q 250.53 898.00 250.31 898.00
  L 249.77 898.00
  A 0.72 0.70 -66.8 0 0 249.27 898.21
  L 244.68 902.85
  Q 244.53 903.00 244.31 903.00
  L 243.78 903.00
  Q 243.47 903.00 243.26 903.22
  L 239.67 906.86
  Q 239.49 907.05 239.23 907.01
  Q 239.05 906.99 238.87 906.98
  A 0.93 0.89 -66.6 0 0 238.23 907.25
  L 233.68 911.85
  Q 233.53 912.00 233.31 912.00
  L 232.77 912.00
  A 0.72 0.70 -66.8 0 0 232.27 912.21
  L 227.68 916.85
  Q 227.53 917.00 227.31 917.00
  L 226.77 917.00
  A 0.72 0.70 -66.8 0 0 226.27 917.21
  L 221.64 921.88
  Q 221.47 922.06 221.23 922.01
  Q 221.07 921.99 220.92 921.98
  Q 220.52 921.97 220.25 922.25
  L 215.70 926.84
  Q 215.55 927.00 215.33 927.00
  L 214.79 927.00
  Q 214.48 927.00 214.27 927.22
  L 209.68 931.85
  Q 209.53 932.00 209.31 932.00
  L 208.77 932.00
  A 0.72 0.70 -66.8 0 0 208.27 932.21
  L 203.68 936.85
  Q 203.53 937.00 203.31 937.00
  L 202.77 937.00
  A 0.72 0.70 -66.8 0 0 202.27 937.21
  L 197.68 941.85
  Q 197.53 942.00 197.31 942.00
  L 196.78 942.00
  Q 196.47 942.00 196.26 942.22
  L 192.67 945.86
  Q 192.49 946.05 192.23 946.01
  Q 192.04 945.99 191.85 945.99
  A 0.87 0.84 21.2 0 0 191.23 946.25
  L 186.66 950.88
  Q 186.54 951.00 186.38 951.00
  Q 186.25 950.99 186.12 950.98
  Q 185.55 950.94 185.15 951.35
  L 180.67 955.85
  Q 180.52 956.00 180.31 956.00
  L 179.77 956.00
  A 0.72 0.70 -66.8 0 0 179.27 956.21
  L 174.68 960.85
  Q 174.53 961.00 174.31 961.00
  L 173.77 961.00
  A 0.72 0.70 -66.8 0 0 173.27 961.21
  L 168.68 965.85
  Q 168.53 966.00 168.31 966.00
  L 167.77 966.00
  A 0.72 0.70 -66.8 0 0 167.27 966.21
  L 162.68 970.85
  Q 162.53 971.00 162.31 971.00
  L 161.77 971.00
  A 0.72 0.70 -66.8 0 0 161.27 971.21
  L 156.68 975.85
  Q 156.53 976.00 156.31 976.00
  L 155.78 976.00
  Q 155.47 976.00 155.26 976.22
  L 151.67 979.86
  Q 151.49 980.05 151.23 980.01
  Q 151.05 979.99 150.87 979.98
  A 0.93 0.89 -66.6 0 0 150.23 980.25
  L 145.68 984.85
  Q 145.53 985.00 145.31 985.00
  L 144.77 985.00
  A 0.72 0.70 -66.8 0 0 144.27 985.21
  L 139.68 989.85
  Q 139.53 990.00 139.31 990.00
  L 138.77 990.00
  A 0.73 0.69 -65.7 0 0 138.28 990.20
  L 133.73 994.78
  Q 133.51 995.00 133.21 995.00
  L 132.79 995.00
  Q 132.46 995.00 132.23 995.24
  Q 130.43 997.10 128.60 998.89
  Q 128.33 999.15 126.12 1000.65
  Q 124.86 1001.49 124.00 1003.02
  Q 119.04 1001.84 117.25 1001.28
  Q 96.04 994.63 75.13 987.12
  Q 71.19 985.70 63.99 982.68
  Q 63.26 982.38 61.29 982.77
  Q 21.52 893.82 7.54 797.56
  L 11.30 794.13
  Q 11.62 793.84 12.04 793.85
  Q 12.21 793.86 12.36 793.87
  Q 12.52 793.87 12.64 793.76
  L 17.24 789.13
  Q 17.49 788.88 17.83 788.88
  L 18.25 788.88
  Q 18.52 788.88 18.70 788.70
  L 22.24 785.13
  Q 22.48 784.88 22.83 784.88
  L 23.25 784.88
  Q 23.51 784.88 23.70 784.70
  L 28.24 780.13
  Q 28.49 779.88 28.83 779.88
  L 29.25 779.88
  Q 29.51 779.88 29.70 779.70
  L 34.24 775.13
  Q 34.49 774.88 34.83 774.88
  L 35.25 774.88
  Q 35.51 774.88 35.70 774.70
  L 40.24 770.13
  Q 40.49 769.88 40.83 769.88
  L 41.25 769.88
  Q 41.51 769.88 41.70 769.70
  L 46.24 765.13
  Q 46.49 764.88 46.83 764.88
  L 47.25 764.88
  Q 47.51 764.88 47.70 764.70
  L 52.24 760.13
  Q 52.49 759.88 52.83 759.88
  L 53.25 759.88
  Q 53.51 759.88 53.70 759.70
  L 58.24 755.13
  Q 58.49 754.88 58.83 754.88
  L 59.25 754.88
  Q 59.51 754.88 59.70 754.70
  L 64.24 750.13
  Q 64.49 749.88 64.83 749.88
  L 65.25 749.88
  Q 65.52 749.88 65.70 749.70
  L 69.24 746.13
  Q 69.48 745.88 69.83 745.88
  L 70.25 745.88
  Q 70.51 745.88 70.70 745.70
  L 75.24 741.13
  Q 75.49 740.88 75.83 740.88
  L 76.25 740.88
  Q 76.51 740.88 76.70 740.70
  L 81.24 736.13
  Q 81.49 735.88 81.83 735.88
  L 82.25 735.88
  Q 82.51 735.88 82.70 735.70
  L 87.24 731.13
  Q 87.49 730.88 87.83 730.88
  L 88.25 730.88
  Q 88.51 730.88 88.70 730.70
  L 93.24 726.13
  Q 93.49 725.88 93.83 725.88
  L 94.19 725.88
  Q 94.44 725.88 94.62 725.71
  L 99.20 721.19
  Q 99.57 720.82 100.08 720.87
  Q 100.23 720.89 100.36 720.88
  Q 100.53 720.87 100.64 720.75
  L 105.24 716.13
  Q 105.49 715.88 105.83 715.88
  L 106.25 715.88
  Q 106.52 715.88 106.70 715.70
  L 110.24 712.13
  Q 110.48 711.88 110.83 711.88
  L 111.25 711.88
  Q 111.51 711.88 111.70 711.70
  L 116.24 707.13
  Q 116.49 706.88 116.83 706.88
  L 117.25 706.88
  Q 117.51 706.88 117.70 706.70
  L 122.29 702.08
  A 0.76 0.73 -67.8 0 1 122.79 701.86
  Q 122.97 701.85 123.16 701.89
  Q 123.46 701.96 123.68 701.74
  L 126.33 699.01
  Q 126.68 698.65 126.62 698.16
  Q 126.60 698.00 126.65 697.84
  Q 126.72 697.58 126.98 697.51
  L 129.47 696.73
  Q 129.78 696.64 130.00 696.40
  L 134.04 692.27
  Q 134.41 691.88 134.94 691.88
  L 135.25 691.88
  Q 135.51 691.88 135.70 691.70
  L 140.28 687.09
  A 0.79 0.74 20.3 0 1 140.80 686.87
  Q 140.97 686.86 141.15 686.89
  Q 141.46 686.93 141.69 686.71
  L 146.26 682.11
  Q 146.49 681.88 146.82 681.87
  Q 146.99 681.86 147.15 681.89
  Q 147.46 681.93 147.68 681.71
  L 152.09 677.30
  A 1.67 1.64 15.2 0 1 152.91 676.84
  Q 153.77 676.64 154.44 675.96
  Q 155.89 674.49 157.24 673.11
  Q 157.46 672.88 157.78 672.88
  L 158.25 672.88
  Q 158.51 672.88 158.70 672.70
  L 163.24 668.13
  Q 163.49 667.88 163.83 667.88
  L 164.25 667.88
  Q 164.51 667.88 164.70 667.70
  L 169.24 663.13
  Q 169.49 662.88 169.83 662.88
  L 170.25 662.88
  Q 170.51 662.88 170.70 662.70
  L 175.24 658.13
  Q 175.49 657.88 175.83 657.88
  L 176.25 657.88
  Q 176.51 657.88 176.70 657.70
  L 181.24 653.13
  Q 181.49 652.88 181.83 652.88
  L 182.25 652.88
  Q 182.51 652.88 182.70 652.70
  L 187.24 648.13
  Q 187.49 647.88 187.83 647.88
  L 188.25 647.88
  Q 188.51 647.88 188.70 647.70
  L 193.26 643.11
  Q 193.50 642.87 193.83 642.87
  Q 193.99 642.87 194.16 642.89
  Q 194.47 642.93 194.69 642.71
  L 198.20 639.17
  Q 198.47 638.90 198.84 638.87
  Q 198.99 638.85 199.14 638.88
  Q 199.43 638.93 199.63 638.73
  L 204.14 634.21
  Q 204.51 633.84 205.03 633.86
  Q 205.20 633.87 205.37 633.88
  Q 205.51 633.88 205.60 633.79
  L 210.09 629.30
  A 1.67 1.64 -74.0 0 1 210.90 628.84
  Q 211.77 628.65 212.41 627.99
  Q 214.32 626.05 216.25 624.10
  A 0.76 0.72 -66.5 0 1 216.77 623.88
  L 217.25 623.88
  Q 217.51 623.88 217.70 623.70
  L 222.24 619.13
  Q 222.49 618.88 222.83 618.88
  L 223.25 618.88
  Q 223.51 618.88 223.70 618.70
  L 228.24 614.13
  Q 228.49 613.88 228.83 613.88
  L 229.25 613.88
  Q 229.51 613.88 229.70 613.70
  L 234.24 609.13
  Q 234.49 608.88 234.83 608.88
  L 235.25 608.88
  Q 235.51 608.88 235.70 608.70
  L 240.24 604.13
  Q 240.49 603.88 240.83 603.88
  L 241.26 603.88
  Q 241.52 603.88 241.70 603.70
  L 245.24 600.13
  Q 245.48 599.88 245.83 599.88
  L 246.25 599.88
  Q 246.51 599.88 246.70 599.70
  L 251.24 595.13
  Q 251.49 594.88 251.83 594.88
  L 252.25 594.88
  Q 252.51 594.88 252.70 594.70
  L 257.24 590.13
  Q 257.49 589.88 257.83 589.88
  L 258.19 589.88
  Q 258.44 589.88 258.62 589.71
  L 263.20 585.19
  Q 263.57 584.82 264.09 584.88
  Q 264.23 584.90 264.37 584.88
  Q 264.53 584.87 264.64 584.75
  L 269.24 580.13
  Q 269.49 579.88 269.83 579.88
  L 270.25 579.88
  Q 270.51 579.88 270.70 579.70
  L 275.24 575.13
  Q 275.49 574.88 275.83 574.88
  L 276.25 574.88
  Q 276.51 574.88 276.70 574.70
  L 281.24 570.13
  Q 281.49 569.88 281.83 569.88
  L 282.25 569.88
  Q 282.52 569.88 282.70 569.70
  L 286.24 566.13
  Q 286.48 565.88 286.83 565.88
  L 287.25 565.88
  Q 287.51 565.88 287.70 565.70
  L 292.24 561.13
  Q 292.49 560.88 292.83 560.88
  L 293.26 560.88
  Q 293.51 560.88 293.70 560.70
  Q 295.87 558.55 297.95 556.31
  Q 298.23 556.01 298.58 555.90
  Q 298.76 555.85 298.95 555.87
  Q 299.44 555.94 299.80 555.58
  L 304.25 551.13
  Q 304.49 550.88 304.84 550.88
  L 305.25 550.88
  Q 305.51 550.88 305.70 550.70
  L 310.26 546.11
  Q 310.49 545.88 310.82 545.87
  Q 310.99 545.86 311.15 545.89
  Q 311.46 545.93 311.68 545.71
  L 316.09 541.30
  A 1.67 1.64 15.2 0 1 316.91 540.84
  Q 317.76 540.65 318.40 540.00
  Q 320.33 538.04 322.25 536.10
  A 0.76 0.72 -66.5 0 1 322.77 535.88
  L 323.25 535.88
  Q 323.51 535.88 323.70 535.70
  L 328.24 531.13
  Q 328.49 530.88 328.83 530.88
  L 329.25 530.88
  Q 329.52 530.88 329.70 530.70
  L 333.24 527.13
  Q 333.48 526.88 333.83 526.88
  L 334.25 526.88
  Q 334.51 526.88 334.70 526.70
  L 339.24 522.13
  Q 339.49 521.88 339.83 521.88
  L 340.25 521.88
  Q 340.51 521.88 340.70 521.70
  L 345.24 517.13
  Q 345.49 516.88 345.83 516.88
  L 346.25 516.88
  Q 346.51 516.88 346.70 516.70
  L 351.24 512.13
  Q 351.49 511.88 351.83 511.88
  L 352.25 511.88
  Q 352.51 511.88 352.70 511.70
  L 357.24 507.13
  Q 357.49 506.88 357.83 506.88
  L 358.25 506.88
  Q 358.51 506.88 358.70 506.70
  L 363.24 502.13
  Q 363.49 501.88 363.83 501.88
  L 364.19 501.88
  Q 364.44 501.88 364.62 501.71
  L 369.19 497.20
  Q 369.54 496.85 370.05 496.86
  Q 370.19 496.87 370.34 496.87
  Q 370.52 496.87 370.65 496.75
  L 374.09 493.30
  A 1.63 1.56 15.3 0 1 374.92 492.85
  Q 375.76 492.66 376.40 492.01
  Q 378.32 490.04 380.26 488.10
  A 0.71 0.70 -67.8 0 1 380.77 487.88
  L 381.25 487.88
  Q 381.51 487.88 381.70 487.70
  L 386.24 483.13
  Q 386.49 482.88 386.83 482.88
  L 387.25 482.88
  Q 387.51 482.88 387.70 482.70
  L 392.24 478.13
  Q 392.49 477.88 392.83 477.88
  L 393.25 477.88
  Q 393.51 477.88 393.70 477.70
  L 398.24 473.13
  Q 398.49 472.88 398.83 472.88
  L 399.25 472.88
  Q 399.51 472.88 399.70 472.70
  L 404.24 468.13
  Q 404.49 467.88 404.83 467.88
  L 405.25 467.88
  Q 405.51 467.88 405.70 467.70
  L 410.24 463.13
  Q 410.49 462.88 410.83 462.88
  L 411.25 462.88
  Q 411.51 462.88 411.70 462.70
  L 416.27 458.11
  Q 416.50 457.87 416.83 457.87
  Q 416.99 457.87 417.16 457.89
  Q 417.47 457.93 417.69 457.71
  L 421.24 454.13
  Q 421.48 453.88 421.83 453.88
  L 422.19 453.88
  Q 422.44 453.88 422.62 453.71
  L 427.20 449.19
  Q 427.57 448.82 428.08 448.88
  Q 428.23 448.89 428.37 448.88
  Q 428.53 448.87 428.64 448.75
  L 433.24 444.13
  Q 433.49 443.88 433.83 443.88
  L 434.25 443.88
  Q 434.51 443.88 434.70 443.70
  L 439.24 439.13
  Q 439.49 438.88 439.83 438.88
  L 440.25 438.88
  Q 440.51 438.88 440.70 438.70
  L 445.24 434.13
  Q 445.49 433.88 445.83 433.88
  L 446.25 433.88
  Q 446.51 433.88 446.70 433.70
  L 451.24 429.13
  Q 451.49 428.88 451.83 428.88
  L 452.25 428.88
  Q 452.51 428.88 452.70 428.70
  L 457.28 424.10
  A 0.76 0.74 20.3 0 1 457.80 423.87
  Q 457.98 423.86 458.16 423.89
  Q 458.48 423.93 458.70 423.71
  Q 460.53 421.89 462.10 420.12
  Q 462.41 419.77 462.98 419.85
  Q 463.46 419.92 463.80 419.59
  L 468.29 415.09
  A 0.79 0.74 20.3 0 1 468.81 414.87
  Q 468.98 414.86 469.17 414.89
  Q 469.47 414.93 469.69 414.71
  L 474.24 410.13
  Q 474.49 409.88 474.83 409.88
  L 475.25 409.88
  Q 475.51 409.88 475.70 409.70
  L 480.24 405.13
  Q 480.49 404.88 480.83 404.88
  L 481.25 404.88
  Q 481.51 404.88 481.70 404.70
  L 486.24 400.13
  Q 486.49 399.88 486.83 399.88
  L 487.25 399.88
  Q 487.51 399.88 487.70 399.70
  L 492.24 395.13
  Q 492.49 394.88 492.83 394.88
  L 493.25 394.88
  Q 493.51 394.88 493.70 394.70
  L 498.24 390.13
  Q 498.49 389.88 498.83 389.88
  L 499.25 389.88
  Q 499.51 389.88 499.70 389.70
  L 504.21 385.16
  Q 504.55 384.82 505.02 384.86
  Q 505.16 384.87 505.30 384.87
  Q 505.52 384.88 505.68 384.72
  L 509.20 381.17
  Q 509.52 380.84 509.96 380.98
  Q 510.51 381.16 510.63 380.53
  Q 510.80 379.64 511.26 380.42
  Q 511.52 380.85 511.39 381.73
  Z"
/>
<path fill="#ae2120" d="
  M 885.48 403.66
  Q 886.49 405.86 885.85 409.29
  L 885.48 403.66
  Z"
/>
<path fill="#ae2120" d="
  M 886.51 417.67
  Q 887.42 422.76 886.93 428.29
  L 886.51 417.67
  Z"
/>
<path fill="#ae2120" d="
  M 506.26 474.94
  L 506.52 492.80
  Q 505.50 483.90 506.26 474.94
  Z"
/>
<path fill="#ae2120" d="
  M 888.39 477.62
  Q 889.58 481.39 888.45 485.36
  L 888.39 477.62
  Z"
/>
<path fill="#ae2120" d="
  M 536.79 660.83
  Q 556.07 715.40 587.09 764.92
  Q 587.48 765.55 587.85 765.23
  Q 592.52 772.44 597.29 779.51
  Q 635.78 836.61 688.07 881.39
  Q 692.43 885.12 697.29 889.38
  Q 668.53 911.82 645.33 926.58
  Q 569.72 974.70 480.70 999.51
  Q 448.99 1008.19 425.25 1012.75
  Q 390.85 1019.37 349.36 1023.06
  Q 312.93 1026.29 267.61 1025.27
  C 249.24 1024.86 230.19 1023.22 212.64 1021.08
  Q 168.50 1015.71 124.00 1003.02
  Q 124.86 1001.49 126.12 1000.65
  Q 128.33 999.15 128.60 998.89
  Q 130.43 997.10 132.23 995.24
  Q 132.46 995.00 132.79 995.00
  L 133.21 995.00
  Q 133.51 995.00 133.73 994.78
  L 138.28 990.20
  A 0.73 0.69 -65.7 0 1 138.77 990.00
  L 139.31 990.00
  Q 139.53 990.00 139.68 989.85
  L 144.27 985.21
  A 0.72 0.70 -66.8 0 1 144.77 985.00
  L 145.31 985.00
  Q 145.53 985.00 145.68 984.85
  L 150.23 980.25
  A 0.93 0.89 -66.6 0 1 150.87 979.98
  Q 151.05 979.99 151.23 980.01
  Q 151.49 980.05 151.67 979.86
  L 155.26 976.22
  Q 155.47 976.00 155.78 976.00
  L 156.31 976.00
  Q 156.53 976.00 156.68 975.85
  L 161.27 971.21
  A 0.72 0.70 -66.8 0 1 161.77 971.00
  L 162.31 971.00
  Q 162.53 971.00 162.68 970.85
  L 167.27 966.21
  A 0.72 0.70 -66.8 0 1 167.77 966.00
  L 168.31 966.00
  Q 168.53 966.00 168.68 965.85
  L 173.27 961.21
  A 0.72 0.70 -66.8 0 1 173.77 961.00
  L 174.31 961.00
  Q 174.53 961.00 174.68 960.85
  L 179.27 956.21
  A 0.72 0.70 -66.8 0 1 179.77 956.00
  L 180.31 956.00
  Q 180.52 956.00 180.67 955.85
  L 185.15 951.35
  Q 185.55 950.94 186.12 950.98
  Q 186.25 950.99 186.38 951.00
  Q 186.54 951.00 186.66 950.88
  L 191.23 946.25
  A 0.87 0.84 21.2 0 1 191.85 945.99
  Q 192.04 945.99 192.23 946.01
  Q 192.49 946.05 192.67 945.86
  L 196.26 942.22
  Q 196.47 942.00 196.78 942.00
  L 197.31 942.00
  Q 197.53 942.00 197.68 941.85
  L 202.27 937.21
  A 0.72 0.70 -66.8 0 1 202.77 937.00
  L 203.31 937.00
  Q 203.53 937.00 203.68 936.85
  L 208.27 932.21
  A 0.72 0.70 -66.8 0 1 208.77 932.00
  L 209.31 932.00
  Q 209.53 932.00 209.68 931.85
  L 214.27 927.22
  Q 214.48 927.00 214.79 927.00
  L 215.33 927.00
  Q 215.55 927.00 215.70 926.84
  L 220.25 922.25
  Q 220.52 921.97 220.92 921.98
  Q 221.07 921.99 221.23 922.01
  Q 221.47 922.06 221.64 921.88
  L 226.27 917.21
  A 0.72 0.70 -66.8 0 1 226.77 917.00
  L 227.31 917.00
  Q 227.53 917.00 227.68 916.85
  L 232.27 912.21
  A 0.72 0.70 -66.8 0 1 232.77 912.00
  L 233.31 912.00
  Q 233.53 912.00 233.68 911.85
  L 238.23 907.25
  A 0.93 0.89 -66.6 0 1 238.87 906.98
  Q 239.05 906.99 239.23 907.01
  Q 239.49 907.05 239.67 906.86
  L 243.26 903.22
  Q 243.47 903.00 243.78 903.00
  L 244.31 903.00
  Q 244.53 903.00 244.68 902.85
  L 249.27 898.21
  A 0.72 0.70 -66.8 0 1 249.77 898.00
  L 250.31 898.00
  Q 250.53 898.00 250.68 897.85
  L 255.27 893.21
  A 0.72 0.70 -66.8 0 1 255.77 893.00
  L 256.31 893.00
  Q 256.53 893.00 256.68 892.85
  L 261.27 888.21
  A 0.72 0.70 -66.8 0 1 261.77 888.00
  L 262.31 888.00
  Q 262.53 888.00 262.68 887.85
  L 267.27 883.21
  A 0.72 0.70 -66.8 0 1 267.77 883.00
  L 268.31 883.00
  Q 268.53 883.00 268.68 882.85
  L 273.27 878.21
  A 0.72 0.70 -66.8 0 1 273.77 878.00
  L 274.31 878.00
  Q 274.53 878.00 274.68 877.85
  L 279.23 873.25
  A 0.93 0.89 -66.6 0 1 279.87 872.98
  Q 280.05 872.99 280.23 873.01
  Q 280.49 873.05 280.67 872.86
  L 284.26 869.22
  Q 284.47 869.00 284.78 869.00
  L 285.31 869.00
  Q 285.53 869.00 285.68 868.85
  L 290.27 864.21
  A 0.72 0.70 -66.8 0 1 290.77 864.00
  L 291.31 864.00
  Q 291.53 864.00 291.68 863.85
  L 296.27 859.21
  A 0.72 0.70 -66.8 0 1 296.77 859.00
  L 297.31 859.00
  Q 297.53 859.00 297.68 858.85
  L 302.27 854.21
  A 0.72 0.70 -66.8 0 1 302.77 854.00
  L 303.31 854.00
  Q 303.53 854.00 303.68 853.85
  L 308.27 849.21
  A 0.72 0.70 -66.8 0 1 308.77 849.00
  L 309.31 849.00
  Q 309.53 849.00 309.68 848.85
  L 314.27 844.21
  A 0.72 0.70 -66.8 0 1 314.77 844.00
  L 315.31 844.00
  Q 315.53 844.00 315.68 843.85
  L 320.27 839.21
  A 0.72 0.70 -66.8 0 1 320.77 839.00
  L 321.31 839.00
  Q 321.53 839.00 321.68 838.85
  L 326.23 834.25
  A 0.93 0.89 -66.6 0 1 326.87 833.98
  Q 327.05 833.99 327.23 834.01
  Q 327.49 834.05 327.67 833.86
  L 331.26 830.22
  Q 331.47 830.00 331.78 830.00
  L 332.31 830.00
  Q 332.53 830.00 332.68 829.85
  L 337.24 825.24
  Q 337.55 824.93 337.98 824.97
  Q 338.17 824.99 338.36 824.99
  Q 338.54 825.00 338.67 824.87
  L 343.24 820.24
  Q 343.50 819.97 343.88 819.98
  Q 344.05 819.99 344.22 820.01
  Q 344.48 820.05 344.66 819.86
  L 349.27 815.21
  A 0.72 0.70 -66.8 0 1 349.77 815.00
  L 350.31 815.00
  Q 350.53 815.00 350.68 814.85
  L 355.27 810.22
  Q 355.48 810.00 355.79 810.00
  L 356.31 810.00
  Q 356.53 810.00 356.68 809.85
  L 361.24 805.24
  Q 361.50 804.98 361.88 804.98
  Q 362.02 804.98 362.17 805.00
  Q 362.48 805.05 362.69 804.83
  Q 365.04 802.45 367.10 800.39
  Q 367.40 800.09 367.78 800.01
  Q 367.96 799.97 368.14 799.99
  Q 368.52 800.04 368.78 799.77
  L 372.25 796.22
  Q 372.47 796.00 372.77 796.00
  L 373.35 796.00
  A 0.44 0.40 20.8 0 0 373.65 795.88
  L 378.27 791.22
  Q 378.48 791.00 378.79 791.00
  L 379.21 791.00
  Q 379.51 791.00 379.73 790.78
  L 384.24 786.25
  Q 384.51 785.97 384.90 785.98
  Q 385.07 785.99 385.23 786.02
  Q 385.50 786.06 385.69 785.87
  L 390.27 781.22
  Q 390.48 781.00 390.79 781.00
  L 391.21 781.00
  Q 391.51 781.00 391.73 780.78
  L 396.28 776.20
  A 0.73 0.69 -65.7 0 1 396.77 776.00
  L 397.31 776.00
  Q 397.53 776.00 397.68 775.85
  L 402.27 771.21
  A 0.72 0.70 -66.8 0 1 402.77 771.00
  L 403.31 771.00
  Q 403.53 771.00 403.68 770.85
  L 408.27 766.21
  A 0.72 0.70 -66.8 0 1 408.77 766.00
  L 409.31 766.00
  Q 409.53 766.00 409.68 765.85
  L 414.27 761.22
  Q 414.48 761.00 414.79 761.00
  L 415.34 761.00
  Q 415.56 761.00 415.71 760.84
  L 419.25 757.24
  A 0.89 0.88 -65.7 0 1 419.92 756.98
  Q 420.07 756.99 420.22 757.01
  Q 420.47 757.06 420.64 756.88
  L 425.26 752.22
  Q 425.48 752.00 425.79 752.00
  L 426.21 752.00
  Q 426.51 752.00 426.73 751.78
  L 431.28 747.20
  A 0.73 0.69 -65.7 0 1 431.77 747.00
  L 432.32 747.00
  Q 432.54 747.00 432.69 746.85
  L 437.27 742.23
  A 0.86 0.85 -65.9 0 1 437.92 741.98
  Q 438.08 741.99 438.23 742.01
  Q 438.47 742.06 438.64 741.88
  L 443.27 737.21
  A 0.72 0.70 -66.8 0 1 443.77 737.00
  L 444.31 737.00
  Q 444.53 737.00 444.68 736.85
  L 449.27 732.21
  A 0.72 0.70 -66.8 0 1 449.77 732.00
  L 450.31 732.00
  Q 450.53 732.00 450.68 731.85
  L 455.23 727.25
  A 0.93 0.89 -66.6 0 1 455.87 726.98
  Q 456.05 726.99 456.23 727.01
  Q 456.49 727.05 456.67 726.86
  L 460.26 723.22
  Q 460.47 723.00 460.78 723.00
  L 461.31 723.00
  Q 461.53 723.00 461.68 722.85
  L 466.27 718.21
  A 0.72 0.70 -66.8 0 1 466.77 718.00
  L 467.31 718.00
  Q 467.53 718.00 467.68 717.85
  L 472.27 713.21
  A 0.72 0.70 -66.8 0 1 472.77 713.00
  L 473.31 713.00
  Q 473.53 713.00 473.68 712.85
  L 478.27 708.21
  A 0.72 0.70 -66.8 0 1 478.77 708.00
  L 479.31 708.00
  Q 479.53 708.00 479.68 707.85
  L 484.27 703.21
  A 0.72 0.70 -66.8 0 1 484.77 703.00
  L 485.31 703.00
  Q 485.53 703.00 485.68 702.85
  L 490.27 698.21
  A 0.72 0.70 -66.8 0 1 490.77 698.00
  L 491.31 698.00
  Q 491.53 698.00 491.68 697.85
  L 496.27 693.21
  A 0.72 0.70 -66.8 0 1 496.77 693.00
  L 497.31 693.00
  Q 497.53 693.00 497.68 692.85
  L 502.23 688.25
  A 0.93 0.89 -66.6 0 1 502.87 687.98
  Q 503.05 687.99 503.23 688.01
  Q 503.49 688.05 503.67 687.86
  L 507.26 684.22
  Q 507.47 684.00 507.78 684.00
  L 508.31 684.00
  Q 508.53 684.00 508.68 683.85
  L 513.27 679.21
  A 0.72 0.70 -66.8 0 1 513.77 679.00
  L 514.31 679.00
  Q 514.53 679.00 514.68 678.85
  L 519.27 674.21
  A 0.72 0.70 -66.8 0 1 519.77 674.00
  L 520.31 674.00
  Q 520.53 674.00 520.68 673.85
  L 525.26 669.22
  Q 525.48 669.00 525.79 669.00
  L 526.31 669.00
  Q 526.53 669.00 526.68 668.85
  L 531.26 664.22
  Q 531.48 664.00 531.79 664.00
  L 532.26 664.00
  Q 532.48 664.00 532.62 663.83
  Q 534.64 661.42 536.79 660.83
  Z"
/>
<path fill="#d42f29" d="
  M 730.76 1393.70
  Q 730.07 1393.91 729.25 1393.92
  Q 701.50 1394.20 673.76 1394.04
  Q 662.95 1393.98 653.78 1393.34
  Q 564.87 1387.21 479.75 1360.51
  Q 479.75 1359.61 480.91 1359.63
  Q 481.10 1359.63 480.98 1359.48
  Q 480.88 1359.35 480.88 1359.19
  Q 480.88 1180.02 480.88 1000.80
  Q 480.88 1000.62 480.76 1000.50
  L 480.53 1000.27
  Q 480.30 1000.05 480.49 999.79
  L 480.70 999.51
  Q 569.72 974.70 645.33 926.58
  Q 668.53 911.82 697.29 889.38
  Q 712.84 877.64 727.20 863.37
  Q 727.36 863.65 727.51 863.78
  Q 727.94 864.16 727.91 863.59
  Q 727.90 863.22 728.21 863.09
  A 0.49 0.48 70.8 0 1 728.86 863.41
  Q 728.97 863.82 728.62 864.00
  Q 728.21 864.21 728.63 864.41
  Q 728.82 864.51 728.94 864.71
  Q 729.12 865.02 729.12 865.37
  L 729.12 918.74
  Q 729.12 919.15 729.47 919.33
  Q 729.64 919.41 729.67 919.60
  Q 729.70 919.76 729.66 919.94
  Q 729.16 922.09 730.24 923.68
  Q 730.53 924.09 730.55 924.58
  L 730.76 928.23
  Q 730.79 928.70 730.64 929.15
  Q 730.36 930.04 730.56 930.94
  Q 731.36 934.47 730.42 938.01
  Q 730.29 938.48 730.54 938.92
  C 731.66 940.88 730.16 941.77 729.83 943.45
  Q 729.71 944.09 730.23 944.49
  Q 730.80 944.92 730.49 945.57
  Q 730.18 946.20 730.51 946.83
  Q 731.39 948.45 730.13 950.13
  Q 729.05 951.57 730.25 952.67
  Q 730.50 952.89 730.46 953.22
  Q 730.31 954.53 730.79 955.62
  A 1.23 1.21 49.9 0 1 730.70 956.78
  Q 729.95 957.93 729.67 959.36
  Q 729.54 960.07 730.06 960.54
  A 1.35 1.35 0.0 0 1 730.50 961.68
  Q 730.38 962.75 730.77 963.78
  Q 731.01 964.41 730.62 964.97
  Q 729.80 966.14 729.67 967.59
  Q 729.63 968.05 729.95 968.39
  Q 730.66 969.15 730.50 970.13
  Q 730.43 970.55 730.56 970.96
  L 730.84 971.84
  Q 730.99 972.33 730.71 972.75
  Q 729.93 973.97 729.67 975.37
  Q 729.58 975.85 729.90 976.22
  Q 730.73 977.21 730.44 978.32
  Q 730.35 978.66 730.52 978.97
  Q 730.81 979.47 730.84 980.01
  Q 730.88 980.54 730.59 980.99
  Q 729.83 982.15 729.68 983.55
  Q 729.63 984.05 729.97 984.41
  Q 730.71 985.22 730.45 986.21
  Q 730.34 986.65 730.55 987.05
  Q 730.77 987.47 730.83 987.95
  Q 730.90 988.53 730.58 989.02
  Q 729.82 990.17 729.67 991.55
  A 1.03 1.02 -63.2 0 0 729.94 992.38
  Q 730.66 993.15 730.50 994.13
  Q 730.43 994.55 730.56 994.96
  L 730.84 995.84
  Q 731.01 996.40 730.68 996.87
  Q 729.83 998.08 729.67 999.55
  A 1.03 1.02 -63.2 0 0 729.94 1000.38
  Q 730.72 1001.20 730.45 1002.21
  Q 730.34 1002.65 730.55 1003.06
  Q 730.77 1003.48 730.83 1003.94
  Q 730.90 1004.45 730.62 1004.90
  Q 729.91 1006.07 729.66 1007.42
  A 1.12 1.12 0.0 0 0 729.95 1008.39
  Q 730.66 1009.15 730.50 1010.13
  Q 730.43 1010.55 730.56 1010.96
  L 730.84 1011.84
  Q 730.99 1012.33 730.71 1012.75
  Q 729.93 1013.97 729.67 1015.37
  Q 729.58 1015.85 729.90 1016.22
  Q 730.73 1017.21 730.44 1018.33
  Q 730.35 1018.67 730.52 1018.97
  Q 730.80 1019.45 730.84 1019.98
  Q 730.88 1020.47 730.63 1020.90
  Q 729.92 1022.05 729.67 1023.37
  Q 729.58 1023.85 729.90 1024.22
  Q 730.73 1025.20 730.44 1026.31
  Q 730.35 1026.67 730.53 1027.00
  Q 730.79 1027.45 730.84 1027.96
  Q 730.89 1028.47 730.62 1028.90
  Q 729.92 1030.05 729.67 1031.37
  Q 729.58 1031.85 729.90 1032.22
  Q 730.71 1033.18 730.45 1034.22
  Q 730.35 1034.64 730.55 1035.02
  Q 730.79 1035.48 730.84 1035.97
  Q 730.89 1036.47 730.62 1036.90
  Q 729.92 1038.05 729.67 1039.37
  Q 729.58 1039.85 729.90 1040.22
  Q 730.72 1041.20 730.44 1042.30
  Q 730.35 1042.65 730.52 1042.96
  Q 730.79 1043.46 730.85 1043.99
  A 1.41 1.40 -32.3 0 1 730.63 1044.95
  Q 729.87 1046.13 729.64 1047.48
  Q 729.56 1047.97 729.91 1048.33
  Q 730.72 1049.16 730.44 1050.26
  Q 730.35 1050.64 730.54 1051.00
  Q 730.80 1051.47 730.84 1051.98
  Q 730.88 1052.48 730.63 1052.90
  Q 729.92 1054.05 729.67 1055.37
  Q 729.58 1055.85 729.90 1056.22
  Q 730.71 1057.18 730.45 1058.25
  Q 730.35 1058.66 730.54 1059.03
  Q 730.78 1059.47 730.84 1059.96
  Q 730.89 1060.46 730.63 1060.89
  Q 729.98 1061.94 729.65 1063.37
  A 1.08 1.07 29.9 0 0 729.92 1064.35
  Q 730.72 1065.17 730.44 1066.22
  Q 730.33 1066.64 730.54 1067.01
  Q 730.80 1067.47 730.84 1067.98
  Q 730.88 1068.47 730.62 1068.90
  Q 729.92 1070.05 729.67 1071.37
  Q 729.58 1071.85 729.90 1072.22
  Q 730.72 1073.20 730.43 1074.29
  Q 730.33 1074.67 730.54 1075.01
  Q 730.79 1075.44 730.84 1075.96
  Q 730.89 1076.46 730.62 1076.90
  Q 729.92 1078.05 729.67 1079.37
  Q 729.58 1079.85 729.90 1080.22
  Q 730.71 1081.18 730.45 1082.26
  Q 730.35 1082.64 730.54 1082.99
  Q 730.78 1083.47 730.85 1083.98
  A 1.46 1.46 0.0 0 1 730.63 1084.96
  Q 729.87 1086.13 729.64 1087.48
  Q 729.56 1087.98 729.91 1088.34
  Q 730.71 1089.16 730.45 1090.21
  A 1.14 1.13 -52.0 0 0 730.55 1091.03
  Q 730.80 1091.48 730.85 1091.99
  Q 730.89 1092.47 730.64 1092.88
  Q 729.92 1094.04 729.67 1095.37
  Q 729.58 1095.85 729.90 1096.22
  Q 730.73 1097.21 730.43 1098.33
  Q 730.34 1098.68 730.52 1098.99
  Q 730.79 1099.45 730.84 1099.97
  Q 730.89 1100.47 730.62 1100.90
  Q 729.92 1102.05 729.67 1103.37
  Q 729.58 1103.85 729.90 1104.22
  Q 730.73 1105.21 730.44 1106.32
  Q 730.35 1106.68 730.53 1106.99
  Q 730.80 1107.46 730.84 1107.97
  Q 730.89 1108.53 730.58 1109.01
  Q 729.83 1110.16 729.67 1111.55
  A 1.03 1.02 -63.2 0 0 729.94 1112.38
  Q 730.66 1113.15 730.50 1114.13
  Q 730.43 1114.55 730.56 1114.96
  L 730.84 1115.84
  Q 730.99 1116.33 730.71 1116.75
  Q 729.92 1117.99 729.66 1119.42
  A 1.12 1.12 0.0 0 0 729.95 1120.39
  Q 730.66 1121.15 730.50 1122.13
  Q 730.43 1122.55 730.56 1122.96
  L 730.84 1123.84
  Q 731.01 1124.38 730.69 1124.85
  Q 729.88 1126.07 729.64 1127.49
  A 0.95 0.94 -62.4 0 0 729.90 1128.33
  Q 730.72 1129.15 730.45 1130.20
  A 1.18 1.15 38.9 0 0 730.55 1131.03
  Q 730.80 1131.50 730.85 1132.01
  Q 730.89 1132.54 730.60 1132.97
  Q 729.82 1134.16 729.67 1135.56
  A 1.02 1.00 27.3 0 0 729.94 1136.38
  Q 730.66 1137.15 730.50 1138.13
  Q 730.43 1138.55 730.56 1138.96
  L 730.84 1139.84
  Q 730.99 1140.32 730.71 1140.75
  Q 729.90 1142.02 729.64 1143.49
  A 0.94 0.94 0.0 0 0 729.89 1144.32
  Q 730.74 1145.20 730.45 1146.28
  Q 730.34 1146.66 730.52 1147.01
  Q 730.75 1147.44 730.82 1147.92
  Q 730.90 1148.44 730.62 1148.90
  Q 729.97 1149.95 729.66 1151.31
  A 1.23 1.20 -61.4 0 0 729.98 1152.44
  Q 730.71 1153.19 730.45 1154.20
  Q 730.33 1154.63 730.55 1155.02
  Q 730.81 1155.50 730.85 1156.01
  Q 730.88 1156.54 730.59 1156.99
  Q 729.82 1158.16 729.67 1159.55
  A 1.03 1.02 -63.2 0 0 729.94 1160.38
  Q 730.72 1161.20 730.45 1162.21
  Q 730.34 1162.65 730.55 1163.05
  Q 730.77 1163.48 730.83 1163.95
  Q 730.90 1164.53 730.58 1165.02
  Q 729.82 1166.17 729.66 1167.55
  A 1.05 1.05 0.0 0 0 729.94 1168.38
  Q 730.66 1169.15 730.50 1170.13
  Q 730.43 1170.55 730.56 1170.96
  L 730.84 1171.84
  Q 731.01 1172.40 730.68 1172.88
  Q 729.84 1174.07 729.66 1175.53
  A 1.05 1.05 0.0 0 0 729.94 1176.38
  Q 730.71 1177.20 730.45 1178.23
  Q 730.34 1178.65 730.54 1179.04
  Q 730.78 1179.49 730.83 1179.97
  Q 730.90 1180.52 730.60 1181.00
  Q 729.86 1182.15 729.64 1183.49
  A 0.97 0.93 -63.5 0 0 729.90 1184.32
  Q 730.73 1185.15 730.44 1186.25
  Q 730.34 1186.64 730.54 1187.00
  Q 730.80 1187.46 730.84 1187.97
  A 0.47 0.44 54.7 0 1 730.81 1188.18
  L 729.63 1191.29
  A 0.92 0.92 0.0 0 0 729.85 1192.27
  Q 730.75 1193.15 730.44 1194.31
  Q 730.35 1194.65 730.52 1194.96
  Q 730.80 1195.45 730.84 1195.98
  A 0.45 0.39 -40.7 0 1 730.81 1196.18
  L 729.64 1199.28
  A 0.93 0.93 0.0 0 0 729.86 1200.28
  Q 730.75 1201.17 730.44 1202.29
  Q 730.34 1202.66 730.53 1202.99
  Q 730.80 1203.46 730.86 1203.99
  Q 730.92 1204.50 730.64 1204.94
  Q 729.87 1206.13 729.64 1207.47
  Q 729.56 1207.98 729.91 1208.34
  Q 730.71 1209.15 730.45 1210.20
  A 1.16 1.11 38.6 0 0 730.56 1211.03
  Q 730.80 1211.48 730.84 1211.97
  A 0.47 0.44 54.7 0 1 730.81 1212.18
  L 729.63 1215.28
  A 0.95 0.93 33.0 0 0 729.85 1216.27
  Q 730.75 1217.16 730.44 1218.31
  Q 730.34 1218.66 730.53 1218.98
  Q 730.81 1219.46 730.87 1220.01
  Q 730.92 1220.52 730.63 1220.95
  Q 729.80 1222.15 729.68 1223.62
  Q 729.64 1224.06 729.94 1224.39
  Q 730.71 1225.20 730.45 1226.22
  Q 730.34 1226.65 730.55 1227.04
  Q 730.77 1227.47 730.83 1227.94
  Q 730.90 1228.45 730.62 1228.90
  Q 729.92 1230.05 729.67 1231.37
  Q 729.58 1231.85 729.90 1232.22
  Q 730.73 1233.21 730.44 1234.30
  Q 730.34 1234.66 730.53 1234.99
  Q 730.80 1235.47 730.84 1235.98
  Q 730.89 1236.53 730.59 1237.00
  Q 729.82 1238.17 729.67 1239.55
  A 1.03 1.02 -63.2 0 0 729.94 1240.38
  Q 730.66 1241.15 730.50 1242.13
  Q 730.43 1242.55 730.56 1242.96
  L 730.84 1243.84
  Q 730.99 1244.33 730.71 1244.75
  Q 729.92 1245.99 729.66 1247.42
  A 1.12 1.12 0.0 0 0 729.95 1248.39
  Q 730.66 1249.15 730.50 1250.13
  Q 730.43 1250.55 730.56 1250.96
  L 730.84 1251.84
  Q 730.99 1252.32 730.71 1252.75
  Q 729.89 1254.04 729.64 1255.48
  A 1.03 1.00 28.5 0 0 729.91 1256.34
  Q 730.75 1257.22 730.44 1258.30
  Q 730.34 1258.66 730.52 1258.98
  Q 730.79 1259.45 730.84 1259.97
  Q 730.89 1260.47 730.62 1260.90
  Q 729.92 1262.05 729.67 1263.37
  Q 729.58 1263.85 729.90 1264.22
  Q 730.72 1265.20 730.44 1266.28
  Q 730.34 1266.66 730.54 1267.00
  Q 730.80 1267.46 730.84 1267.97
  Q 730.89 1268.47 730.63 1268.90
  Q 729.92 1270.05 729.67 1271.37
  Q 729.58 1271.85 729.90 1272.22
  Q 730.69 1273.16 730.45 1274.20
  Q 730.35 1274.64 730.56 1275.04
  Q 730.79 1275.49 730.84 1275.96
  A 0.56 0.52 54.4 0 1 730.81 1276.19
  L 729.63 1279.29
  A 0.92 0.90 32.9 0 0 729.85 1280.26
  Q 730.73 1281.13 730.45 1282.20
  Q 730.33 1282.63 730.55 1283.02
  Q 730.80 1283.48 730.84 1283.98
  Q 730.88 1284.47 730.63 1284.90
  Q 729.92 1286.05 729.67 1287.37
  Q 729.58 1287.85 729.90 1288.22
  Q 730.73 1289.20 730.44 1290.32
  Q 730.35 1290.67 730.52 1290.98
  Q 730.81 1291.47 730.85 1292.02
  Q 730.88 1292.56 730.57 1293.02
  Q 729.80 1294.15 729.67 1295.62
  Q 729.64 1296.08 729.96 1296.42
  Q 730.66 1297.14 730.50 1298.09
  Q 730.42 1298.52 730.55 1298.94
  L 730.84 1299.85
  Q 730.99 1300.33 730.71 1300.76
  Q 729.87 1302.04 729.66 1303.55
  Q 729.58 1304.08 729.96 1304.47
  L 730.15 1304.66
  Q 730.49 1305.01 730.46 1305.51
  Q 730.38 1306.76 730.81 1307.79
  Q 731.01 1308.29 730.72 1308.73
  Q 729.95 1309.94 729.67 1311.41
  Q 729.56 1311.97 729.92 1312.38
  Q 730.18 1312.67 730.25 1313.05
  L 730.82 1315.92
  A 1.35 1.31 -35.2 0 1 730.64 1316.88
  Q 729.84 1318.18 729.65 1319.54
  Q 729.53 1320.34 730.44 1320.65
  Q 730.90 1320.81 730.65 1321.22
  L 730.43 1321.55
  Q 730.15 1321.99 730.38 1322.46
  Q 731.22 1324.24 730.68 1326.03
  Q 730.47 1326.74 730.70 1327.44
  Q 731.01 1328.43 730.56 1329.43
  Q 730.31 1329.97 730.48 1330.55
  Q 731.27 1333.27 730.74 1336.01
  Q 730.38 1337.87 730.66 1339.50
  Q 731.00 1341.42 730.91 1343.42
  Q 730.87 1344.30 730.59 1345.16
  C 729.92 1347.21 732.04 1348.99 729.99 1350.81
  Q 729.63 1351.13 729.58 1351.61
  Q 729.20 1355.77 729.19 1360.00
  Q 729.12 1376.75 729.12 1392.39
  Q 729.12 1393.12 729.81 1392.89
  Q 730.49 1392.67 731.21 1392.81
  Q 732.34 1393.02 731.24 1393.37
  Q 731.05 1393.44 730.85 1393.36
  Q 730.61 1393.27 730.74 1393.50
  Q 730.79 1393.60 730.76 1393.70
  Z"
/>
<path fill="#c2262d" d="
  M 61.29 982.77
  Q 63.26 982.38 63.99 982.68
  Q 71.19 985.70 75.13 987.12
  Q 96.04 994.63 117.25 1001.28
  Q 119.04 1001.84 124.00 1003.02
  Q 168.50 1015.71 212.64 1021.08
  C 230.19 1023.22 249.24 1024.86 267.61 1025.27
  Q 312.93 1026.29 349.36 1023.06
  Q 390.85 1019.37 425.25 1012.75
  Q 448.99 1008.19 480.70 999.51
  L 480.49 999.79
  Q 480.30 1000.05 480.53 1000.27
  L 480.76 1000.50
  Q 480.88 1000.62 480.88 1000.80
  Q 480.88 1180.02 480.88 1359.19
  Q 480.88 1359.35 480.98 1359.48
  Q 481.10 1359.63 480.91 1359.63
  Q 479.75 1359.61 479.75 1360.51
  Q 448.39 1350.49 418.01 1337.72
  Q 257.46 1270.27 152.04 1134.46
  Q 98.85 1065.93 61.29 982.77
  Z"
/>
</svg>
