<?xml version="1.0" encoding="UTF-8" standalone="no"?>
<!DOCTYPE svg PUBLIC "-//W3C//DTD SVG 1.1//EN" "http://www.w3.org/Graphics/SVG/1.1/DTD/svg11.dtd">
<svg xmlns="http://www.w3.org/2000/svg" version="1.1" viewBox="0.00 0.00 478.00 518.00">
<g stroke-width="2.00" fill="none" stroke-linecap="butt">
<path stroke="#266c93" vector-effect="non-scaling-stroke" d="
  M 475.01 0.00
  Q 474.04 0.32 474.04 0.71
  Q 474.00 259.36 474.00 518.00"
/>
<path stroke="#164c72" vector-effect="non-scaling-stroke" d="
  M 194.89 289.80
  L 46.75 275.21
  Q 44.57 275.00 46.46 276.09
  L 175.22 350.25
  A 0.18 0.18 0.0 0 1 175.29 350.48
  L 115.78 487.54
  Q 114.58 490.31 116.82 488.28
  Q 160.70 448.39 207.35 406.11
  Q 216.68 397.66 226.38 388.52
  A 0.97 0.97 0.0 0 1 227.69 388.51
  Q 278.23 433.91 330.87 480.77
  C 333.88 483.45 337.16 485.73 339.83 488.81
  Q 339.96 488.95 340.14 489.01
  Q 340.31 489.06 340.47 488.99
  Q 340.80 488.84 340.66 488.51
  Q 338.49 483.59 336.04 478.09
  Q 306.06 410.80 279.09 351.06
  Q 278.62 350.03 279.57 349.44
  Q 281.81 348.02 284.16 346.66
  Q 329.17 320.59 377.90 292.43
  Q 393.67 283.32 408.98 274.08
  Q 410.31 273.27 408.77 273.44
  L 261.64 289.22
  Q 259.59 289.44 259.32 287.51
  L 226.60 52.49
  Q 225.97 47.99 225.41 52.49
  L 195.47 289.34
  Q 195.41 289.85 194.89 289.80"
/>
<path stroke="#904e21" vector-effect="non-scaling-stroke" d="
  M 223.28 86.04
  L 197.65 288.04"
/>
<path stroke="#8d2d21" vector-effect="non-scaling-stroke" d="
  M 197.65 288.04
  L 197.22 291.00
  A 0.93 0.92 6.5 0 1 196.22 291.79
  Q 184.30 290.68 172.76 289.51
  Q 167.69 289.00 162.48 288.47
  Q 112.75 283.49 59.00 278.21
  Q 57.01 278.01 54.72 277.90
  Q 52.93 277.81 54.51 278.66
  L 63.82 283.66"
/>
<path stroke="#904e21" vector-effect="non-scaling-stroke" d="
  M 63.82 283.66
  Q 117.83 314.48 171.71 345.58
  Q 174.35 347.10 177.03 348.78
  Q 178.49 349.70 176.71 352.19"
/>
<path stroke="#8d2d21" vector-effect="non-scaling-stroke" d="
  M 176.71 352.19
  L 120.57 481.62
  A 0.26 0.26 0.0 0 0 120.98 481.91
  L 131.20 472.34"
/>
<path stroke="#904e21" vector-effect="non-scaling-stroke" d="
  M 131.20 472.34
  L 225.32 386.53"
/>
<path stroke="#8d2d21" vector-effect="non-scaling-stroke" d="
  M 225.32 386.53
  Q 226.74 385.11 228.14 386.36
  Q 280.87 433.48 333.60 480.82
  Q 335.78 482.78 334.59 480.09
  L 330.89 471.71"
/>
<path stroke="#904e21" vector-effect="non-scaling-stroke" d="
  M 330.89 471.71
  L 275.99 349.71"
/>
<path stroke="#8d2d21" vector-effect="non-scaling-stroke" d="
  M 275.99 349.71
  Q 276.02 349.03 276.50 348.75
  Q 329.98 317.84 383.47 286.93
  C 388.84 283.83 394.37 280.26 399.84 277.57
  Q 403.98 275.53 399.42 276.22
  L 388.04 277.95"
/>
<path stroke="#904e21" vector-effect="non-scaling-stroke" d="
  M 388.04 277.95
  L 261.70 291.44"
/>
<path stroke="#8d2d21" vector-effect="non-scaling-stroke" d="
  M 261.70 291.44
  Q 260.13 291.77 258.97 291.53
  Q 258.00 291.33 257.87 290.35
  L 226.61 66.45
  Q 226.16 63.26 225.64 66.44
  Q 224.11 75.88 223.28 86.04"
/>
<path stroke="#f36123" vector-effect="non-scaling-stroke" d="
  M 261.70 291.44
  Q 260.15 291.62 259.13 292.13
  A 0.53 0.53 0.0 0 0 259.19 293.10
  Q 260.88 293.69 262.19 294.86
  Q 270.68 302.45 279.12 310.40
  C 280.47 311.68 282.45 313.80 284.56 313.11
  Q 332.13 297.52 380.30 282.17
  Q 384.61 280.79 387.89 279.14
  A 0.74 0.73 -1.4 0 0 388.26 278.76
  Q 388.61 277.99 388.04 277.95"
/>
<path stroke="#f36123" vector-effect="non-scaling-stroke" d="
  M 275.99 349.71
  L 275.03 349.79"
/>
<path stroke="#795f74" vector-effect="non-scaling-stroke" d="
  M 275.03 349.79
  L 275.22 349.14
  A 2.11 2.02 49.3 0 0 275.27 348.22
  L 274.42 343.31"
/>
<path stroke="#f36123" vector-effect="non-scaling-stroke" d="
  M 274.42 343.31
  Q 274.71 343.37 274.66 343.91
  Q 274.61 344.38 275.05 344.58
  Q 275.43 344.75 275.81 344.62
  Q 276.29 344.44 276.38 343.93
  Q 278.68 330.72 281.72 318.22
  Q 282.35 315.63 280.83 314.17
  C 276.12 309.67 270.90 305.27 266.28 300.53
  Q 263.59 297.78 260.38 295.37
  Q 260.21 295.25 260.19 295.05
  Q 260.15 294.68 259.79 294.74
  Q 259.04 294.85 258.81 295.69"
/>
<path stroke="#795f74" vector-effect="non-scaling-stroke" d="
  M 258.81 295.69
  Q 259.23 291.49 253.89 291.67"
/>
<path stroke="#f36123" vector-effect="non-scaling-stroke" d="
  M 253.89 291.67
  L 253.98 291.10
  Q 254.06 290.62 253.64 290.37
  L 228.38 275.80
  A 2.12 2.12 0.0 0 0 226.27 275.79
  Q 214.99 282.21 203.67 288.82
  Q 202.44 289.54 202.18 290.93
  Q 202.09 291.42 201.60 291.48
  L 198.81 291.83"
/>
<path stroke="#795f74" vector-effect="non-scaling-stroke" d="
  M 198.81 291.83
  Q 195.78 291.86 194.54 300.10"
/>
<path stroke="#f36123" vector-effect="non-scaling-stroke" d="
  M 194.54 300.10
  C 193.64 298.15 195.58 297.76 195.15 296.01
  A 0.81 0.81 0.0 0 0 193.82 295.60
  L 173.04 314.16
  A 1.90 1.89 -26.2 0 0 172.44 315.91
  L 178.10 345.47
  Q 178.25 346.25 177.69 346.81
  L 177.45 347.04
  A 0.43 0.43 0.0 0 1 176.73 346.81
  L 171.43 317.54
  A 2.56 2.55 3.5 0 0 169.68 315.57
  Q 129.99 303.27 91.74 290.90
  Q 80.20 287.17 71.68 284.66
  C 69.47 284.01 67.34 283.11 65.09 282.45
  Q 63.90 282.11 63.82 283.66"
/>
<path stroke="#f36123" vector-effect="non-scaling-stroke" d="
  M 197.65 288.04
  Q 197.50 288.94 197.93 289.56
  Q 198.30 290.09 198.85 289.74
  Q 199.03 289.64 199.16 289.49
  Q 199.35 289.28 199.60 289.14
  L 225.14 274.98
  A 1.40 1.37 75.2 0 0 225.84 273.75
  L 225.04 86.66
  A 0.95 0.86 -62.0 0 0 224.93 86.22
  Q 224.34 85.20 223.28 86.04"
/>
<path stroke="#f36123" vector-effect="non-scaling-stroke" d="
  M 330.89 471.71
  Q 330.59 471.94 330.65 472.32
  Q 330.83 473.41 330.31 472.44
  Q 330.22 472.29 330.06 472.35
  Q 329.52 472.54 329.23 472.03
  C 327.67 469.27 325.46 466.89 323.59 464.32
  Q 295.07 425.09 265.19 384.19
  Q 263.84 382.34 262.93 380.47
  Q 262.71 380.02 262.85 379.53
  Q 263.59 376.96 264.19 375.72
  Q 270.98 361.68 274.82 352.75
  Q 275.32 351.58 274.24 350.80"
/>
<path stroke="#7b8074" vector-effect="non-scaling-stroke" d="
  M 253.89 291.67
  L 198.81 291.83"
/>
<path stroke="#7b8074" vector-effect="non-scaling-stroke" d="
  M 194.54 300.10
  Q 194.07 299.06 193.79 300.91"
/>
<path stroke="#a06e42" vector-effect="non-scaling-stroke" d="
  M 193.79 300.91
  Q 191.64 303.79 192.00 306.36"
/>
<path stroke="#7b8074" vector-effect="non-scaling-stroke" d="
  M 192.00 306.36
  Q 188.22 315.65 187.60 319.99
  Q 186.89 324.91 185.65 327.04
  Q 185.38 327.49 185.35 328.01
  Q 185.30 328.66 184.82 329.04
  Q 184.48 329.31 184.34 329.73
  Q 181.80 337.66 179.35 344.99
  Q 178.51 347.51 179.38 350.12
  A 1.50 1.46 -83.8 0 0 180.00 350.91
  C 182.86 352.66 184.92 355.03 187.89 356.73
  Q 191.49 358.79 194.65 362.09
  C 196.32 363.83 198.32 364.89 200.12 366.50
  Q 202.33 368.48 204.58 370.04
  Q 205.15 370.43 205.61 370.97
  Q 206.07 371.50 206.78 371.57
  Q 207.28 371.61 207.70 371.87
  Q 210.84 373.82 214.05 376.16
  Q 214.94 376.81 217.67 378.24
  Q 219.71 379.31 220.95 380.94"
/>
<path stroke="#f36123" vector-effect="non-scaling-stroke" d="
  M 220.95 380.94
  Q 219.21 380.05 217.94 378.53
  A 0.04 0.04 0.0 0 0 217.88 378.52
  L 217.68 378.70
  Q 217.52 378.85 217.67 379.02
  Q 219.70 381.18 221.88 382.24
  Q 222.68 382.63 222.86 383.48
  Q 223.01 384.16 222.33 384.06
  L 193.34 380.09
  A 1.89 1.88 -6.6 0 1 191.83 378.90
  Q 187.56 367.94 182.32 357.01
  Q 181.07 354.41 179.20 351.81
  Q 178.61 350.98 178.03 351.16
  Q 177.43 351.34 176.71 352.19"
/>
<path stroke="#7b8074" vector-effect="non-scaling-stroke" d="
  M 258.81 295.69
  L 260.67 300.26
  A 1.79 1.73 39.0 0 1 260.78 301.14
  Q 260.69 301.73 260.81 302.03
  Q 265.56 313.64 269.14 325.47
  Q 270.11 328.67 270.87 332.93
  Q 270.92 333.21 270.85 333.49
  Q 270.75 333.97 271.10 334.20
  Q 271.48 334.45 271.62 334.89
  L 274.42 343.31"
/>
<path stroke="#7b8074" vector-effect="non-scaling-stroke" d="
  M 275.03 349.79
  Q 274.51 350.14 274.24 350.80"
/>
<path stroke="#795f74" vector-effect="non-scaling-stroke" d="
  M 274.24 350.80
  Q 273.83 350.84 273.67 351.21"
/>
<path stroke="#7b8074" vector-effect="non-scaling-stroke" d="
  M 273.67 351.21
  Q 273.25 351.17 273.03 351.34
  Q 263.02 359.17 253.04 367.03
  Q 249.28 370.00 239.56 376.54
  C 236.85 378.37 233.57 381.27 230.16 383.27"
/>
<path stroke="#795f74" vector-effect="non-scaling-stroke" d="
  M 230.16 383.27
  Q 229.22 383.94 227.98 384.72
  Q 226.87 385.41 225.72 384.51
  Q 224.29 383.38 224.07 383.25
  Q 222.30 382.20 220.95 380.94"
/>
<path stroke="#266c93" vector-effect="non-scaling-stroke" d="
  M 192.00 306.36
  Q 193.32 304.16 193.79 300.91"
/>
<path stroke="#f36123" vector-effect="non-scaling-stroke" d="
  M 225.32 386.53
  Q 210.40 383.47 196.01 381.66
  Q 194.50 381.48 193.05 381.88
  Q 192.57 382.02 192.33 382.45
  Q 191.08 384.66 189.51 386.86
  Q 159.81 428.54 129.99 470.48
  A 1.76 1.70 49.8 0 0 129.87 472.27
  Q 130.04 472.61 131.20 472.34"
/>
<path stroke="#f36123" vector-effect="non-scaling-stroke" d="
  M 230.16 383.27
  Q 232.68 383.86 235.26 383.53
  Q 247.50 381.94 259.54 380.61
  Q 260.54 380.49 260.96 379.57
  L 273.67 351.21"
/>
<path stroke="#0d4b6f" vector-effect="non-scaling-stroke" d="
  M 205.15 367.56
  Q 207.04 368.81 209.14 369.69
  C 212.10 370.94 215.32 372.25 218.39 372.89
  Q 234.85 376.32 249.37 366.96
  Q 249.47 366.90 249.58 366.88
  Q 249.77 366.85 249.96 366.89
  A 0.75 0.75 0.0 0 0 250.64 366.71
  Q 255.48 362.21 259.19 357.19
  Q 267.10 346.49 266.61 332.48
  Q 266.27 322.66 261.98 314.66
  Q 257.21 305.76 249.36 300.76
  Q 236.25 292.40 221.63 294.50
  Q 199.36 297.70 190.14 318.72
  Q 189.74 318.96 189.61 319.39
  Q 184.25 337.22 191.96 352.66
  C 193.28 355.31 195.18 357.39 196.82 359.80
  Q 198.38 362.10 200.58 364.06
  Q 202.76 365.99 205.15 367.56"
/>
<path stroke="#8c8c8c" vector-effect="non-scaling-stroke" d="
  M 265.24 333.87
  A 38.21 38.21 0.0 0 0 227.03 295.66
  A 38.21 38.21 0.0 0 0 188.82 333.87
  A 38.21 38.21 0.0 0 0 227.03 372.08
  A 38.21 38.21 0.0 0 0 265.24 333.87"
/>
<path stroke="#958d8f" vector-effect="non-scaling-stroke" d="
  M 220.85 312.79
  Q 218.80 315.61 218.64 319.48"
/>
<path stroke="#8c8c8c" vector-effect="non-scaling-stroke" d="
  M 218.64 319.48
  Q 217.96 320.76 218.10 322.01
  Q 218.16 322.56 218.72 322.60
  Q 219.87 322.67 220.11 323.76
  Q 220.22 324.26 219.84 324.61
  L 218.38 325.94
  A 0.27 0.27 0.0 0 0 218.34 326.28
  L 218.49 326.50
  Q 218.67 326.77 218.94 326.59
  Q 219.64 326.13 220.18 325.43
  Q 220.27 325.31 220.41 325.26
  Q 220.53 325.21 220.66 325.30
  Q 221.05 325.59 220.79 326.00
  Q 220.03 327.19 219.91 328.49
  Q 219.47 333.01 220.67 328.62
  Q 221.91 324.11 225.39 326.00
  Q 226.16 326.42 225.48 326.96
  Q 222.55 329.25 220.54 332.88
  Q 219.56 334.64 219.56 332.62
  Q 219.57 331.30 218.60 329.91
  Q 218.07 329.15 218.19 330.06
  Q 218.94 335.88 217.57 341.92
  Q 217.10 343.97 218.64 345.09
  Q 219.38 345.63 218.50 345.87
  L 216.60 346.38
  A 0.59 0.59 0.0 0 1 215.88 345.95
  L 210.33 323.26
  Q 210.21 322.80 210.48 322.40
  Q 210.95 321.69 211.01 321.04
  Q 212.37 321.14 212.40 322.30
  Q 212.41 322.54 212.18 322.51
  Q 212.04 322.49 211.91 322.51
  Q 211.32 322.59 211.50 323.16
  Q 211.93 324.49 213.24 324.44
  Q 213.79 324.42 214.26 324.72
  Q 215.88 325.76 217.79 326.09
  Q 217.90 326.11 217.86 326.01
  L 217.75 325.64
  Q 217.71 325.49 217.56 325.46
  Q 215.07 325.04 214.06 323.63
  Q 213.24 322.48 214.65 322.67
  Q 216.45 322.93 218.42 323.49
  Q 218.55 323.52 218.57 323.40
  L 218.62 323.14
  Q 218.67 322.87 218.39 322.84
  Q 215.51 322.59 212.56 321.33
  Q 212.09 321.13 211.84 320.69
  Q 211.12 319.45 209.65 318.97
  Q 209.00 318.76 208.86 318.10
  L 207.56 311.82
  Q 207.46 311.32 207.96 311.25
  Q 208.53 311.18 208.95 310.79
  A 0.92 0.91 68.1 0 0 209.23 310.13
  Q 209.23 307.93 207.94 306.69
  A 0.49 0.48 -49.6 0 1 207.89 306.04
  Q 208.09 305.78 207.92 305.60
  Q 206.93 304.53 207.35 305.93
  Q 208.00 308.11 207.86 309.58
  A 0.28 0.28 0.0 0 1 207.31 309.61
  Q 206.84 307.13 205.63 305.31
  Q 205.09 304.51 205.03 305.47
  Q 204.89 307.72 205.76 309.99
  Q 205.85 310.20 205.62 310.25
  L 205.28 310.31
  Q 205.17 310.33 205.10 310.26
  Q 204.17 309.35 204.79 308.42
  Q 205.03 308.06 204.66 307.83
  Q 203.95 307.39 203.95 306.62
  Q 203.96 306.30 203.64 306.34
  L 203.38 306.38
  Q 203.37 306.38 203.37 306.39
  Q 203.74 308.64 203.73 310.73
  Q 203.73 311.42 204.35 311.74
  Q 205.00 312.07 205.74 311.99
  Q 206.36 311.92 206.52 312.53
  L 215.06 346.14
  Q 215.17 346.56 214.76 346.71
  Q 207.75 349.27 207.01 356.80
  Q 206.87 358.18 206.29 358.69
  Q 205.59 359.29 204.48 359.04
  A 0.37 0.37 0.0 0 0 204.03 359.36
  L 203.99 359.76
  Q 203.96 360.05 204.26 360.06
  L 207.11 360.17
  Q 207.51 360.19 207.74 360.51
  Q 208.60 361.76 210.38 361.20
  A 1.10 1.10 0.0 0 1 211.77 361.98
  Q 212.03 363.03 213.19 362.95
  C 214.44 362.87 216.36 363.23 216.69 364.69
  Q 217.10 366.46 218.98 367.34
  Q 219.53 367.60 219.53 366.99
  L 219.55 364.91
  A 1.18 1.13 61.3 0 1 219.71 364.32
  Q 220.43 363.08 219.80 361.86
  A 0.86 0.86 0.0 0 1 220.74 360.62
  Q 224.09 361.30 226.88 360.34
  Q 227.21 360.23 227.34 359.90
  Q 227.39 359.76 227.48 359.65
  A 0.79 0.78 28.9 0 1 228.33 359.41
  Q 230.56 360.16 232.42 359.42
  A 0.77 0.77 0.0 0 1 233.38 359.76
  L 233.77 360.47
  Q 234.02 360.94 234.54 361.06
  Q 236.47 361.50 238.36 361.23
  Q 239.67 361.04 238.44 360.54
  Q 236.86 359.89 234.98 359.61
  Q 233.20 359.34 234.88 358.71
  Q 236.36 358.15 238.31 358.77
  Q 240.45 359.47 243.02 358.64
  Q 243.91 358.35 243.27 359.04
  Q 242.58 359.79 241.45 359.98
  Q 241.10 360.04 241.00 360.38
  Q 240.96 360.53 241.02 360.67
  Q 241.17 360.98 241.52 361.05
  Q 243.08 361.33 244.46 360.62
  Q 246.92 359.34 249.53 358.41
  Q 249.93 358.26 250.33 358.37
  Q 253.53 359.21 254.43 355.70
  Q 254.46 355.59 254.35 355.54
  L 253.99 355.39
  Q 253.72 355.27 253.61 355.54
  Q 253.16 356.56 252.43 357.27
  Q 251.96 357.73 251.52 357.24
  Q 250.59 356.20 249.20 356.06
  Q 246.55 355.80 244.00 354.73
  Q 243.47 354.50 243.83 354.05
  Q 244.78 352.85 246.14 352.99
  Q 246.65 353.05 246.41 352.59
  Q 246.04 351.89 245.34 351.89
  Q 245.25 351.89 245.17 351.92
  Q 244.97 352.01 244.95 352.23
  Q 244.88 352.84 244.30 352.68
  Q 243.44 352.44 242.79 353.08
  A 1.51 1.49 -60.2 0 1 241.38 353.47
  Q 239.42 353.01 239.79 351.83
  Q 239.96 351.31 240.48 351.15
  C 242.94 350.39 243.40 346.65 242.19 344.85
  A 1.22 1.18 34.1 0 1 242.01 343.99
  Q 242.09 343.50 242.02 343.03
  Q 241.92 342.38 241.45 342.84
  Q 241.25 343.02 241.13 343.27
  A 1.32 1.31 -82.3 0 1 240.18 344.00
  Q 237.64 344.49 236.23 342.42
  Q 235.03 340.65 236.26 337.64
  Q 236.50 337.04 237.15 337.03
  L 241.41 336.97
  Q 241.88 336.97 241.95 337.43
  Q 242.01 337.82 242.21 338.19
  A 0.54 0.53 -18.1 0 1 241.81 338.97
  Q 240.99 339.09 240.29 338.81
  Q 239.64 338.55 239.94 339.18
  Q 240.25 339.81 240.78 340.07
  Q 241.22 340.29 241.61 339.98
  L 242.70 339.12
  Q 242.79 339.05 242.90 339.06
  Q 243.06 339.07 243.20 339.16
  A 0.26 0.26 0.0 0 1 243.28 339.55
  Q 242.53 340.55 242.20 341.86
  Q 242.10 342.26 242.41 342.53
  Q 243.06 343.09 242.88 344.01
  Q 242.77 344.53 243.12 344.93
  Q 245.48 347.57 243.72 351.11
  A 0.39 0.39 0.0 0 0 243.94 351.66
  L 244.23 351.76
  Q 244.54 351.86 244.64 351.55
  Q 245.93 347.56 244.36 344.19
  Q 244.15 343.74 244.26 343.25
  Q 244.39 342.61 244.19 341.98
  Q 244.02 341.44 244.27 340.93
  Q 244.80 339.87 244.55 338.76
  A 0.64 0.63 73.9 0 1 244.95 338.02
  Q 245.26 337.90 245.73 338.01"
/>
<path stroke="#8c8c8c" vector-effect="non-scaling-stroke" d="
  M 245.73 338.01
  Q 246.21 340.78 245.49 343.44
  Q 245.31 344.09 245.54 344.72
  Q 246.52 347.43 245.95 350.81
  A 0.37 0.37 0.0 0 0 246.42 351.22
  L 246.68 351.14
  Q 246.80 351.10 246.81 350.97
  Q 246.95 343.93 246.39 338.85
  Q 246.32 338.26 245.73 338.01"
/>
<path stroke="#8c8c8c" vector-effect="non-scaling-stroke" d="
  M 245.73 338.01
  Q 245.91 335.82 244.09 334.53
  Q 243.35 334.01 243.39 334.92
  Q 243.44 335.88 242.36 335.94
  Q 241.76 335.98 241.83 335.38
  Q 241.89 334.91 242.26 334.67
  Q 243.60 333.77 241.99 333.63
  Q 240.33 333.48 238.86 332.89
  Q 238.47 332.74 238.25 333.09
  Q 238.16 333.24 238.23 333.37
  Q 238.58 334.01 237.90 334.25
  L 236.32 334.81
  Q 235.54 335.09 235.28 334.31
  L 235.01 333.52
  Q 234.78 332.85 235.48 332.82
  L 236.73 332.75
  Q 237.27 332.72 236.85 332.38
  Q 235.65 331.41 235.06 329.44
  C 234.55 326.69 233.79 324.17 233.79 321.36
  Q 233.79 316.48 231.58 313.02
  Q 230.60 311.49 230.28 309.57
  Q 229.85 306.98 229.16 304.45
  A 2.43 2.42 -89.6 0 0 227.51 302.77
  Q 222.75 301.41 221.98 306.37
  Q 221.48 309.61 220.85 312.79"
/>
<path stroke="#8c8c8c" vector-effect="non-scaling-stroke" d="
  M 235.06 329.44
  Q 233.75 326.89 233.43 323.66
  A 0.81 0.80 70.4 0 0 232.18 323.06
  Q 231.55 323.48 230.82 323.36
  Q 230.11 323.25 230.02 323.96
  Q 229.90 325.03 230.28 325.83
  Q 230.71 326.73 231.03 325.79
  Q 231.10 325.59 231.15 325.40
  Q 231.47 324.27 231.64 325.43
  Q 231.92 327.40 232.90 329.02
  A 0.38 0.38 0.0 0 1 232.75 329.55
  L 232.41 329.73
  Q 231.88 330.01 231.83 330.61
  L 231.78 331.32
  Q 231.67 332.76 231.43 331.34
  Q 231.17 329.78 231.38 328.05
  A 0.97 0.94 23.4 0 0 231.02 327.18
  L 230.69 326.92
  A 0.21 0.21 0.0 0 0 230.35 327.06
  Q 229.67 332.36 227.59 337.32
  Q 227.41 337.77 227.42 338.21
  Q 227.44 338.77 226.84 338.80
  Q 226.09 338.84 226.44 339.50
  L 226.69 339.99
  Q 226.99 340.55 226.42 340.85
  Q 226.23 340.96 226.05 340.82
  Q 225.74 340.60 225.44 340.83
  Q 225.08 341.10 225.48 341.68
  A 0.61 0.60 51.4 0 0 226.39 341.79
  Q 229.69 338.70 231.68 334.68
  Q 231.91 334.23 231.78 333.74
  Q 231.70 333.44 231.70 333.11
  Q 231.71 332.58 231.90 333.07
  Q 232.51 334.64 232.15 336.46
  Q 232.13 336.56 232.17 336.65
  Q 232.23 336.82 232.37 336.88
  Q 232.67 337.03 232.81 336.72
  Q 233.21 335.79 234.04 335.25
  A 0.81 0.80 -25.1 0 0 234.37 334.35
  C 234.09 333.39 233.16 332.55 233.04 331.80
  Q 232.98 331.44 233.17 331.11
  Q 233.46 330.62 233.81 331.07
  Q 234.03 331.36 234.11 331.68
  Q 234.32 332.59 234.78 331.78
  Q 235.35 330.79 235.06 329.44"
/>
<path stroke="#8c8c8c" vector-effect="non-scaling-stroke" d="
  M 211.01 321.04
  Q 210.91 320.35 210.18 320.05
  A 0.47 0.46 11.2 0 0 209.53 320.48
  Q 209.53 320.76 209.72 320.96
  Q 209.89 321.14 210.15 321.15
  Q 210.58 321.17 211.01 321.04"
/>
<path stroke="#21191b" vector-effect="non-scaling-stroke" d="
  M 218.64 319.48
  Q 218.77 319.54 218.90 319.61"
/>
<path stroke="#8c8c8c" vector-effect="non-scaling-stroke" d="
  M 218.90 319.61
  Q 218.76 320.43 219.79 320.69
  A 1.14 1.12 36.9 0 0 220.62 320.58
  Q 221.47 320.10 221.85 321.02
  Q 222.27 322.07 223.26 322.22
  A 1.28 1.26 18.3 0 0 224.55 321.58
  Q 226.77 317.63 230.08 314.56
  Q 230.23 314.42 230.10 314.26
  L 230.09 314.25
  Q 229.96 314.09 229.79 314.22
  Q 228.66 315.05 227.43 315.59
  Q 227.12 315.72 226.94 316.01
  L 225.79 317.86
  A 0.24 0.24 0.0 0 1 225.36 317.82
  L 225.20 317.43
  Q 225.15 317.30 225.24 317.21
  Q 225.83 316.60 225.91 316.52
  Q 227.16 315.21 225.55 316.03
  Q 222.84 317.41 221.27 319.62
  Q 220.76 320.33 220.85 319.46
  L 221.07 317.38
  Q 221.13 316.84 221.60 316.59
  Q 223.64 315.51 224.08 313.63
  Q 224.34 312.54 224.81 313.57
  Q 224.85 313.65 224.82 313.72
  A 0.59 0.57 81.5 0 0 225.69 314.39
  Q 226.69 313.68 227.62 312.82
  Q 228.27 312.24 227.40 312.27
  Q 227.23 312.28 227.11 312.41
  A 0.66 0.65 33.6 0 1 226.32 312.56
  Q 223.74 311.24 222.96 313.92
  Q 222.78 314.54 222.42 313.99
  Q 221.83 313.07 221.16 313.32"
/>
<path stroke="#21191b" vector-effect="non-scaling-stroke" d="
  M 221.16 313.32
  Q 220.88 313.29 220.85 312.79"
/>
<path stroke="#958d8f" vector-effect="non-scaling-stroke" d="
  M 218.90 319.61
  Q 219.34 315.86 221.16 313.32"
/>
<path stroke="#8c8c8c" vector-effect="non-scaling-stroke" d="
  M 238.4731 339.7979
  A 0.99 0.40 15.7 0 0 237.6282 339.1449
  A 0.99 0.40 15.7 0 0 236.5669 339.2621
  A 0.99 0.40 15.7 0 0 237.4118 339.9151
  A 0.99 0.40 15.7 0 0 238.4731 339.7979"
/>
<path stroke="#8c8c8c" vector-effect="non-scaling-stroke" d="
  M 240.10 342.49
  Q 240.24 342.26 240.28 341.99
  Q 240.35 341.49 239.92 341.75
  Q 239.24 342.15 238.38 341.98
  Q 237.57 341.83 238.14 342.43
  Q 238.77 343.09 239.59 343.72
  Q 239.76 343.85 239.73 343.63
  Q 239.71 343.47 239.76 343.32
  Q 239.87 342.88 240.10 342.49"
/>
<path stroke="#8c8c8c" vector-effect="non-scaling-stroke" d="
  M 252.22 354.29
  Q 248.95 353.97 247.53 353.25
  Q 247.41 353.19 247.36 353.30
  L 247.35 353.30
  Q 247.30 353.40 247.40 353.46
  Q 249.66 354.91 252.22 354.66
  A 0.19 0.19 0.0 0 0 252.22 354.29"
/>
<path stroke="#32393c" vector-effect="non-scaling-stroke" d="
  M 226.55 311.15
  Q 226.52 310.99 226.49 310.82"
/>
<path stroke="#8c8c8c" vector-effect="non-scaling-stroke" d="
  M 226.49 310.82
  Q 228.92 310.94 228.71 307.74
  Q 228.66 306.98 228.08 307.47
  Q 227.29 308.13 226.31 307.64
  Q 225.77 307.38 225.22 307.59
  L 224.66 307.80
  Q 224.08 308.03 224.04 307.41
  L 224.01 306.95
  A 0.42 0.41 -84.5 0 1 224.53 306.52
  Q 226.15 306.96 228.04 306.85
  Q 228.56 306.82 228.33 306.35
  C 225.80 301.36 220.72 307.56 224.58 310.92
  Q 226.31 312.42 226.55 311.15"
/>
<path stroke="#a5adb0" vector-effect="non-scaling-stroke" d="
  M 226.49 310.82
  Q 226.57 309.97 226.39 309.32
  Q 226.24 308.80 225.93 309.24
  Q 225.40 309.97 226.55 311.15"
/>
<path stroke="#8c8c8c" vector-effect="non-scaling-stroke" d="
  M 229.82 318.88
  Q 230.42 320.28 232.41 319.72
  Q 233.02 319.55 233.03 318.92
  Q 233.10 315.64 230.70 313.84
  Q 230.43 313.64 230.47 313.97
  Q 230.49 314.18 230.67 314.27
  Q 230.94 314.40 230.86 314.69
  Q 230.33 316.63 228.69 317.43
  C 227.28 318.11 226.46 319.41 225.83 320.75
  Q 225.49 321.48 226.30 321.47
  Q 227.53 321.44 228.67 321.87
  A 0.77 0.77 0.0 0 0 229.69 321.30
  Q 229.94 320.03 229.52 318.53
  Q 229.26 317.57 229.82 318.88"
/>
<path stroke="#8c8c8c" vector-effect="non-scaling-stroke" d="
  M 227.80 323.21
  Q 227.22 323.12 226.69 322.82
  A 0.51 0.50 36.2 0 0 226.07 322.91
  L 225.53 323.51
  Q 224.94 324.16 225.82 324.24
  Q 227.01 324.36 227.92 323.74
  A 0.29 0.29 0.0 0 0 227.80 323.21"
/>
<path stroke="#8c8c8c" vector-effect="non-scaling-stroke" d="
  M 219.57 347.54
  Q 218.31 346.92 216.88 347.49
  Q 216.34 347.70 216.36 348.28
  Q 216.42 349.58 217.78 350.01
  A 1.63 1.62 -58.3 0 0 219.38 349.63
  Q 222.22 346.89 224.77 343.25
  Q 225.34 342.43 224.49 341.90
  Q 224.32 341.80 224.30 341.61
  Q 224.22 341.07 224.52 340.58
  Q 228.01 335.03 228.88 329.43
  A 1.94 1.94 0.0 0 0 225.91 327.50
  Q 220.99 330.68 219.63 337.16
  Q 219.22 337.53 219.47 338.00
  Q 219.66 338.36 219.63 338.77
  L 219.48 341.03
  Q 219.41 342.07 219.99 341.21
  Q 221.20 339.42 221.42 337.25
  C 221.73 334.39 224.54 330.40 226.13 328.19
  Q 226.57 327.58 227.02 328.17
  Q 227.26 328.48 227.48 328.79
  Q 227.95 329.46 227.57 330.26
  Q 225.52 334.63 223.24 337.94
  Q 219.83 342.89 220.08 347.20
  Q 220.12 347.81 219.57 347.54"
/>
<path stroke="#8c8c8c" vector-effect="non-scaling-stroke" d="
  M 222.7240 336.6341
  A 4.40 0.77 118.3 0 0 225.4880 333.1250
  A 4.40 0.77 118.3 0 0 226.8960 328.8859
  A 4.40 0.77 118.3 0 0 224.1320 332.3950
  A 4.40 0.77 118.3 0 0 222.7240 336.6341"
/>
<path stroke="#8c8c8c" vector-effect="non-scaling-stroke" d="
  M 239.72 334.87
  Q 237.78 335.05 237.23 335.34
  Q 237.17 335.37 237.11 335.41
  Q 237.01 335.46 237.06 335.37
  Q 237.10 335.31 237.18 335.32
  Q 238.64 335.70 239.80 335.18
  A 0.16 0.16 0.0 0 0 239.72 334.87"
/>
<path stroke="#8c8c8c" vector-effect="non-scaling-stroke" d="
  M 233.76 338.37
  Q 232.81 338.69 232.50 339.63
  Q 232.26 340.36 232.88 339.90
  Q 233.53 339.42 234.02 338.71
  Q 234.42 338.14 233.76 338.37"
/>
<path stroke="#32393c" vector-effect="non-scaling-stroke" d="
  M 227.85 348.06
  Q 227.99 347.90 228.13 347.73"
/>
<path stroke="#8c8c8c" vector-effect="non-scaling-stroke" d="
  M 228.13 347.73
  L 228.23 354.43
  Q 228.24 355.35 228.82 354.64
  C 229.85 353.38 229.55 350.53 229.30 348.94
  Q 229.25 348.56 229.62 348.51
  L 229.92 348.46
  A 0.43 0.42 -88.0 0 0 230.28 348.12
  Q 231.11 344.27 230.74 340.68
  Q 230.63 339.64 230.00 340.47
  Q 229.30 341.40 229.16 342.56
  Q 229.14 342.71 229.07 342.57
  Q 229.05 342.53 229.01 342.49
  Q 228.86 342.35 228.71 342.52
  Q 226.37 345.16 227.85 348.06"
/>
<path stroke="#a5adb0" vector-effect="non-scaling-stroke" d="
  M 228.13 347.73
  Q 229.52 348.70 229.04 346.12
  Q 228.92 345.46 228.52 346.00
  Q 228.13 346.54 227.85 348.06"
/>
<path stroke="#8c8c8c" vector-effect="non-scaling-stroke" d="
  M 233.17 344.10
  Q 233.25 343.03 233.04 341.57
  Q 232.88 340.51 232.59 341.55
  Q 232.19 342.97 232.44 344.14
  A 0.37 0.37 0.0 0 0 233.17 344.10"
/>
<path stroke="#8c8c8c" vector-effect="non-scaling-stroke" d="
  M 237.05 345.26
  L 235.74 343.01
  Q 235.44 342.50 235.31 343.08
  Q 235.09 344.08 235.95 344.85
  A 0.71 0.71 0.0 0 1 235.80 346.02
  Q 235.43 346.21 235.35 346.63
  Q 235.19 347.40 235.87 347.00
  Q 236.18 346.81 236.51 346.95
  Q 236.98 347.14 236.98 347.65
  L 236.99 351.48
  Q 236.99 352.05 237.51 352.28
  Q 237.93 352.46 238.35 352.49
  A 0.65 0.64 2.0 0 0 239.05 351.84
  Q 239.05 351.11 239.75 351.09
  A 0.68 0.68 0.0 0 0 240.38 350.59
  Q 240.78 349.12 241.73 347.95
  Q 242.16 347.43 241.66 346.96
  Q 241.50 346.81 241.27 346.79
  A 0.37 0.36 -56.8 0 1 241.13 346.11
  L 241.44 345.94
  Q 242.07 345.58 241.37 345.37
  Q 238.80 344.59 237.52 345.38
  Q 237.23 345.56 237.05 345.26"
/>
<path stroke="#8c8c8c" vector-effect="non-scaling-stroke" d="
  M 232.05 348.38
  Q 231.88 348.35 231.73 348.42
  A 0.81 0.80 81.9 0 0 231.30 349.00
  Q 230.83 351.75 231.18 354.56
  C 231.33 355.74 232.46 356.49 233.48 356.84
  Q 234.24 357.10 233.70 356.50
  Q 233.31 356.07 232.68 356.04
  Q 232.15 356.02 232.43 355.57
  Q 232.71 355.11 233.22 355.28
  C 234.61 355.74 235.79 356.34 237.32 356.27
  Q 239.05 356.19 240.71 356.50
  A 0.78 0.72 65.8 0 1 240.99 356.62
  Q 241.44 356.95 241.07 357.22
  Q 240.58 357.56 241.17 357.67
  Q 241.49 357.73 241.40 357.42
  A 0.49 0.49 0.0 0 1 241.94 356.80
  Q 242.98 356.94 243.47 357.98
  Q 243.73 358.54 244.33 358.66
  Q 246.38 359.08 247.09 357.63
  A 0.66 0.66 0.0 0 0 246.74 356.72
  Q 244.01 355.67 241.30 354.64
  Q 239.73 354.05 238.11 353.88
  Q 236.41 353.71 234.91 353.04
  Q 234.46 352.83 234.07 353.14
  L 233.84 353.32
  Q 232.96 354.01 233.41 352.99
  Q 233.74 352.24 234.33 351.63
  Q 234.71 351.25 234.99 351.71
  Q 235.41 352.38 236.19 352.64
  Q 236.83 352.85 236.58 352.22
  Q 235.82 350.37 234.06 350.25
  Q 233.07 350.19 233.63 349.37
  L 233.83 349.08
  A 0.86 0.86 0.0 0 0 233.78 348.04
  Q 233.37 347.55 233.20 346.93
  A 0.64 0.63 69.2 0 1 233.52 346.19
  Q 234.28 345.81 234.66 345.10
  Q 234.99 344.49 234.36 344.76
  Q 232.68 345.49 232.15 347.22
  Q 232.07 347.48 232.18 347.72
  Q 232.22 347.80 232.29 347.86
  Q 233.23 348.60 232.05 348.38"
/>
<path stroke="#8c8c8c" vector-effect="non-scaling-stroke" d="
  M 224.91 347.93
  C 226.32 350.42 225.31 352.98 224.28 355.42
  Q 224.15 355.74 224.49 355.78
  L 226.53 356.02
  A 0.33 0.32 -84.0 0 0 226.89 355.72
  L 227.38 349.82
  A 1.95 1.93 -63.5 0 0 226.90 348.37
  Q 226.46 347.88 226.25 347.29
  Q 225.52 345.13 224.15 346.96
  Q 222.88 348.67 221.57 350.55
  C 220.80 351.67 221.00 352.68 220.96 353.94
  Q 220.94 354.55 221.42 354.92
  Q 221.96 355.33 222.61 355.50
  Q 223.28 355.67 223.53 355.02
  L 225.11 350.82
  A 0.98 0.97 36.4 0 0 224.96 349.86
  Q 224.35 349.08 224.48 348.02
  Q 224.56 347.32 224.91 347.93"
/>
<path stroke="#8c8c8c" vector-effect="non-scaling-stroke" d="
  M 236.02 349.24
  L 235.73 348.01
  Q 235.53 347.13 235.09 347.92
  Q 234.54 348.91 235.38 349.63
  Q 236.28 350.39 236.02 349.24"
/>
<path stroke="#8c8c8c" vector-effect="non-scaling-stroke" d="
  M 215.11 356.15
  Q 215.50 355.53 216.20 355.25
  Q 217.16 354.86 216.90 353.86
  L 215.60 348.72
  Q 215.37 347.82 214.46 348.00
  C 211.11 348.67 207.33 353.41 207.61 356.89
  A 3.15 3.15 0.0 0 0 209.80 359.64
  Q 210.85 359.98 211.86 360.48
  C 213.17 361.14 214.64 360.50 215.23 359.23
  A 0.78 0.76 16.6 0 1 216.05 358.80
  L 217.30 359.01
  Q 217.97 359.13 217.89 358.45
  L 217.65 356.53
  Q 217.54 355.64 216.80 356.16
  Q 216.25 356.54 215.58 356.76
  Q 214.51 357.12 215.11 356.15"
/>
<path stroke="#8c8c8c" vector-effect="non-scaling-stroke" d="
  M 219.87 355.98
  Q 219.59 356.25 219.27 356.15
  Q 218.71 355.98 218.63 356.56
  Q 218.51 357.49 218.99 358.27
  Q 219.25 358.69 219.75 358.74
  Q 221.34 358.91 222.73 358.28
  A 0.43 0.42 61.3 0 1 223.26 358.44
  Q 223.97 359.56 225.51 359.50
  Q 226.07 359.48 225.99 358.93
  L 225.95 358.68
  Q 225.87 358.09 225.28 358.15
  Q 222.93 358.41 221.09 356.60
  Q 220.79 356.30 220.70 355.88
  L 219.87 351.73
  Q 219.73 351.02 219.01 351.01
  L 217.52 350.99
  Q 216.99 350.98 217.14 351.50
  L 218.15 354.96
  Q 218.32 355.56 218.94 355.54
  L 219.68 355.53
  Q 220.34 355.51 219.87 355.98"
/>
<path stroke="#8c8c8c" vector-effect="non-scaling-stroke" d="
  M 232.0966 358.4000
  A 1.70 0.98 15.7 0 0 230.7252 356.9966
  A 1.70 0.98 15.7 0 0 228.8234 357.4800
  A 1.70 0.98 15.7 0 0 230.1948 358.8834
  A 1.70 0.98 15.7 0 0 232.0966 358.4000"
/>
<path stroke="#8c8c8c" vector-effect="non-scaling-stroke" d="
  M 215.57 361.79
  Q 216.04 362.48 216.79 362.67
  Q 217.43 362.82 217.09 362.26
  Q 216.24 360.82 214.66 361.27
  Q 214.40 361.34 214.56 361.56
  Q 214.70 361.75 214.90 361.63
  Q 215.31 361.40 215.57 361.79"
/>
<path stroke="#a5adb0" vector-effect="non-scaling-stroke" d="
  M 229.3127 344.9173
  A 0.97 0.41 85.7 0 0 229.6488 343.9193
  A 0.97 0.41 85.7 0 0 229.1673 342.9827
  A 0.97 0.41 85.7 0 0 228.8312 343.9807
  A 0.97 0.41 85.7 0 0 229.3127 344.9173"
/>
<path stroke="#8c8c8c" vector-effect="non-scaling-stroke" d="
  M 239.85 347.47
  Q 240.25 347.59 240.59 347.29
  A 0.65 0.65 0.0 0 0 240.36 346.19
  Q 239.26 345.82 237.73 346.03
  Q 237.08 346.12 237.41 346.68
  Q 238.03 347.72 237.87 348.93
  Q 237.79 349.60 238.32 350.01
  Q 238.96 350.51 239.62 350.21
  A 0.63 0.62 54.0 0 0 239.78 349.19
  Q 239.19 348.64 239.29 347.83
  Q 239.35 347.32 239.85 347.47"
/>
<path stroke="#8c8c8c" vector-effect="non-scaling-stroke" d="
  M 210.56 357.83
  Q 209.58 356.49 210.40 355.14
  A 0.33 0.33 0.0 0 0 210.21 354.64
  L 209.95 354.57
  Q 209.75 354.51 209.67 354.71
  C 208.56 357.52 210.38 358.63 212.37 359.84
  A 0.69 0.69 0.0 0 0 213.41 359.28
  Q 213.44 358.68 213.11 358.11
  Q 212.79 357.55 212.28 357.93
  Q 211.89 358.22 211.40 358.24
  A 0.99 0.99 0.0 0 1 210.56 357.83"
/>
</g>
<path fill="#017dc5" d="
  M 0.00 0.00
  L 475.01 0.00
  Q 474.04 0.32 474.04 0.71
  Q 474.00 259.36 474.00 518.00
  L 0.00 518.00
  L 0.00 0.00
  Z
  M 194.89 289.80
  L 46.75 275.21
  Q 44.57 275.00 46.46 276.09
  L 175.22 350.25
  A 0.18 0.18 0.0 0 1 175.29 350.48
  L 115.78 487.54
  Q 114.58 490.31 116.82 488.28
  Q 160.70 448.39 207.35 406.11
  Q 216.68 397.66 226.38 388.52
  A 0.97 0.97 0.0 0 1 227.69 388.51
  Q 278.23 433.91 330.87 480.77
  C 333.88 483.45 337.16 485.73 339.83 488.81
  Q 339.96 488.95 340.14 489.01
  Q 340.31 489.06 340.47 488.99
  Q 340.80 488.84 340.66 488.51
  Q 338.49 483.59 336.04 478.09
  Q 306.06 410.80 279.09 351.06
  Q 278.62 350.03 279.57 349.44
  Q 281.81 348.02 284.16 346.66
  Q 329.17 320.59 377.90 292.43
  Q 393.67 283.32 408.98 274.08
  Q 410.31 273.27 408.77 273.44
  L 261.64 289.22
  Q 259.59 289.44 259.32 287.51
  L 226.60 52.49
  Q 225.97 47.99 225.41 52.49
  L 195.47 289.34
  Q 195.41 289.85 194.89 289.80
  Z"
/>
<path fill="#4b5a60" d="
  M 475.01 0.00
  L 478.00 0.00
  L 478.00 518.00
  L 474.00 518.00
  Q 474.00 259.36 474.04 0.71
  Q 474.04 0.32 475.01 0.00
  Z"
/>
<path fill="#2a1a1e" d="
  M 195.47 289.34
  L 225.41 52.49
  Q 225.97 47.99 226.60 52.49
  L 259.32 287.51
  Q 259.59 289.44 261.64 289.22
  L 408.77 273.44
  Q 410.31 273.27 408.98 274.08
  Q 393.67 283.32 377.90 292.43
  Q 329.17 320.59 284.16 346.66
  Q 281.81 348.02 279.57 349.44
  Q 278.62 350.03 279.09 351.06
  Q 306.06 410.80 336.04 478.09
  Q 338.49 483.59 340.66 488.51
  Q 340.80 488.84 340.47 488.99
  Q 340.31 489.06 340.14 489.01
  Q 339.96 488.95 339.83 488.81
  C 337.16 485.73 333.88 483.45 330.87 480.77
  Q 278.23 433.91 227.69 388.51
  A 0.97 0.97 0.0 0 0 226.38 388.52
  Q 216.68 397.66 207.35 406.11
  Q 160.70 448.39 116.82 488.28
  Q 114.58 490.31 115.78 487.54
  L 175.29 350.48
  A 0.18 0.18 0.0 0 0 175.22 350.25
  L 46.46 276.09
  Q 44.57 275.00 46.75 275.21
  L 194.89 289.80
  Q 195.41 289.85 195.47 289.34
  Z
  M 223.28 86.04
  L 197.65 288.04
  L 197.22 291.00
  A 0.93 0.92 6.5 0 1 196.22 291.79
  Q 184.30 290.68 172.76 289.51
  Q 167.69 289.00 162.48 288.47
  Q 112.75 283.49 59.00 278.21
  Q 57.01 278.01 54.72 277.90
  Q 52.93 277.81 54.51 278.66
  L 63.82 283.66
  Q 117.83 314.48 171.71 345.58
  Q 174.35 347.10 177.03 348.78
  Q 178.49 349.70 176.71 352.19
  L 120.57 481.62
  A 0.26 0.26 0.0 0 0 120.98 481.91
  L 131.20 472.34
  L 225.32 386.53
  Q 226.74 385.11 228.14 386.36
  Q 280.87 433.48 333.60 480.82
  Q 335.78 482.78 334.59 480.09
  L 330.89 471.71
  L 275.99 349.71
  Q 276.02 349.03 276.50 348.75
  Q 329.98 317.84 383.47 286.93
  C 388.84 283.83 394.37 280.26 399.84 277.57
  Q 403.98 275.53 399.42 276.22
  L 388.04 277.95
  L 261.70 291.44
  Q 260.13 291.77 258.97 291.53
  Q 258.00 291.33 257.87 290.35
  L 226.61 66.45
  Q 226.16 63.26 225.64 66.44
  Q 224.11 75.88 223.28 86.04
  Z"
/>
<path fill="#f04023" d="
  M 261.70 291.44
  Q 260.15 291.62 259.13 292.13
  A 0.53 0.53 0.0 0 0 259.19 293.10
  Q 260.88 293.69 262.19 294.86
  Q 270.68 302.45 279.12 310.40
  C 280.47 311.68 282.45 313.80 284.56 313.11
  Q 332.13 297.52 380.30 282.17
  Q 384.61 280.79 387.89 279.14
  A 0.74 0.73 -1.4 0 0 388.26 278.76
  Q 388.61 277.99 388.04 277.95
  L 399.42 276.22
  Q 403.98 275.53 399.84 277.57
  C 394.37 280.26 388.84 283.83 383.47 286.93
  Q 329.98 317.84 276.50 348.75
  Q 276.02 349.03 275.99 349.71
  L 275.03 349.79
  L 275.22 349.14
  A 2.11 2.02 49.3 0 0 275.27 348.22
  L 274.42 343.31
  Q 274.71 343.37 274.66 343.91
  Q 274.61 344.38 275.05 344.58
  Q 275.43 344.75 275.81 344.62
  Q 276.29 344.44 276.38 343.93
  Q 278.68 330.72 281.72 318.22
  Q 282.35 315.63 280.83 314.17
  C 276.12 309.67 270.90 305.27 266.28 300.53
  Q 263.59 297.78 260.38 295.37
  Q 260.21 295.25 260.19 295.05
  Q 260.15 294.68 259.79 294.74
  Q 259.04 294.85 258.81 295.69
  Q 259.23 291.49 253.89 291.67
  L 253.98 291.10
  Q 254.06 290.62 253.64 290.37
  L 228.38 275.80
  A 2.12 2.12 0.0 0 0 226.27 275.79
  Q 214.99 282.21 203.67 288.82
  Q 202.44 289.54 202.18 290.93
  Q 202.09 291.42 201.60 291.48
  L 198.81 291.83
  Q 195.78 291.86 194.54 300.10
  C 193.64 298.15 195.58 297.76 195.15 296.01
  A 0.81 0.81 0.0 0 0 193.82 295.60
  L 173.04 314.16
  A 1.90 1.89 -26.2 0 0 172.44 315.91
  L 178.10 345.47
  Q 178.25 346.25 177.69 346.81
  L 177.45 347.04
  A 0.43 0.43 0.0 0 1 176.73 346.81
  L 171.43 317.54
  A 2.56 2.55 3.5 0 0 169.68 315.57
  Q 129.99 303.27 91.74 290.90
  Q 80.20 287.17 71.68 284.66
  C 69.47 284.01 67.34 283.11 65.09 282.45
  Q 63.90 282.11 63.82 283.66
  L 54.51 278.66
  Q 52.93 277.81 54.72 277.90
  Q 57.01 278.01 59.00 278.21
  Q 112.75 283.49 162.48 288.47
  Q 167.69 289.00 172.76 289.51
  Q 184.30 290.68 196.22 291.79
  A 0.93 0.92 6.5 0 0 197.22 291.00
  L 197.65 288.04
  Q 197.50 288.94 197.93 289.56
  Q 198.30 290.09 198.85 289.74
  Q 199.03 289.64 199.16 289.49
  Q 199.35 289.28 199.60 289.14
  L 225.14 274.98
  A 1.40 1.37 75.2 0 0 225.84 273.75
  L 225.04 86.66
  A 0.95 0.86 -62.0 0 0 224.93 86.22
  Q 224.34 85.20 223.28 86.04
  Q 224.11 75.88 225.64 66.44
  Q 226.16 63.26 226.61 66.45
  L 257.87 290.35
  Q 258.00 291.33 258.97 291.53
  Q 260.13 291.77 261.70 291.44
  Z"
/>
<path fill="#f58223" d="
  M 197.65 288.04
  L 223.28 86.04
  Q 224.34 85.20 224.93 86.22
  A 0.95 0.86 -62.0 0 1 225.04 86.66
  L 225.84 273.75
  A 1.40 1.37 75.2 0 1 225.14 274.98
  L 199.60 289.14
  Q 199.35 289.28 199.16 289.49
  Q 199.03 289.64 198.85 289.74
  Q 198.30 290.09 197.93 289.56
  Q 197.50 288.94 197.65 288.04
  Z"
/>
<path fill="#f58223" d="
  M 253.89 291.67
  L 198.81 291.83
  L 201.60 291.48
  Q 202.09 291.42 202.18 290.93
  Q 202.44 289.54 203.67 288.82
  Q 214.99 282.21 226.27 275.79
  A 2.12 2.12 0.0 0 1 228.38 275.80
  L 253.64 290.37
  Q 254.06 290.62 253.98 291.10
  L 253.89 291.67
  Z"
/>
<path fill="#f58223" d="
  M 388.04 277.95
  Q 388.61 277.99 388.26 278.76
  A 0.74 0.73 -1.4 0 1 387.89 279.14
  Q 384.61 280.79 380.30 282.17
  Q 332.13 297.52 284.56 313.11
  C 282.45 313.80 280.47 311.68 279.12 310.40
  Q 270.68 302.45 262.19 294.86
  Q 260.88 293.69 259.19 293.10
  A 0.53 0.53 0.0 0 1 259.13 292.13
  Q 260.15 291.62 261.70 291.44
  L 388.04 277.95
  Z"
/>
<path fill="#f58223" d="
  M 194.54 300.10
  Q 194.07 299.06 193.79 300.91
  Q 191.64 303.79 192.00 306.36
  Q 188.22 315.65 187.60 319.99
  Q 186.89 324.91 185.65 327.04
  Q 185.38 327.49 185.35 328.01
  Q 185.30 328.66 184.82 329.04
  Q 184.48 329.31 184.34 329.73
  Q 181.80 337.66 179.35 344.99
  Q 178.51 347.51 179.38 350.12
  A 1.50 1.46 -83.8 0 0 180.00 350.91
  C 182.86 352.66 184.92 355.03 187.89 356.73
  Q 191.49 358.79 194.65 362.09
  C 196.32 363.83 198.32 364.89 200.12 366.50
  Q 202.33 368.48 204.58 370.04
  Q 205.15 370.43 205.61 370.97
  Q 206.07 371.50 206.78 371.57
  Q 207.28 371.61 207.70 371.87
  Q 210.84 373.82 214.05 376.16
  Q 214.94 376.81 217.67 378.24
  Q 219.71 379.31 220.95 380.94
  Q 219.21 380.05 217.94 378.53
  A 0.04 0.04 0.0 0 0 217.88 378.52
  L 217.68 378.70
  Q 217.52 378.85 217.67 379.02
  Q 219.70 381.18 221.88 382.24
  Q 222.68 382.63 222.86 383.48
  Q 223.01 384.16 222.33 384.06
  L 193.34 380.09
  A 1.89 1.88 -6.6 0 1 191.83 378.90
  Q 187.56 367.94 182.32 357.01
  Q 181.07 354.41 179.20 351.81
  Q 178.61 350.98 178.03 351.16
  Q 177.43 351.34 176.71 352.19
  Q 178.49 349.70 177.03 348.78
  Q 174.35 347.10 171.71 345.58
  Q 117.83 314.48 63.82 283.66
  Q 63.90 282.11 65.09 282.45
  C 67.34 283.11 69.47 284.01 71.68 284.66
  Q 80.20 287.17 91.74 290.90
  Q 129.99 303.27 169.68 315.57
  A 2.56 2.55 3.5 0 1 171.43 317.54
  L 176.73 346.81
  A 0.43 0.43 0.0 0 0 177.45 347.04
  L 177.69 346.81
  Q 178.25 346.25 178.10 345.47
  L 172.44 315.91
  A 1.90 1.89 -26.2 0 1 173.04 314.16
  L 193.82 295.60
  A 0.81 0.81 0.0 0 1 195.15 296.01
  C 195.58 297.76 193.64 298.15 194.54 300.10
  Z"
/>
<path fill="#017dc5" d="
  M 253.89 291.67
  Q 259.23 291.49 258.81 295.69
  L 260.67 300.26
  A 1.79 1.73 39.0 0 1 260.78 301.14
  Q 260.69 301.73 260.81 302.03
  Q 265.56 313.64 269.14 325.47
  Q 270.11 328.67 270.87 332.93
  Q 270.92 333.21 270.85 333.49
  Q 270.75 333.97 271.10 334.20
  Q 271.48 334.45 271.62 334.89
  L 274.42 343.31
  L 275.27 348.22
  A 2.11 2.02 49.3 0 1 275.22 349.14
  L 275.03 349.79
  Q 274.51 350.14 274.24 350.80
  Q 273.83 350.84 273.67 351.21
  Q 273.25 351.17 273.03 351.34
  Q 263.02 359.17 253.04 367.03
  Q 249.28 370.00 239.56 376.54
  C 236.85 378.37 233.57 381.27 230.16 383.27
  Q 229.22 383.94 227.98 384.72
  Q 226.87 385.41 225.72 384.51
  Q 224.29 383.38 224.07 383.25
  Q 222.30 382.20 220.95 380.94
  Q 219.71 379.31 217.67 378.24
  Q 214.94 376.81 214.05 376.16
  Q 210.84 373.82 207.70 371.87
  Q 207.28 371.61 206.78 371.57
  Q 206.07 371.50 205.61 370.97
  Q 205.15 370.43 204.58 370.04
  Q 202.33 368.48 200.12 366.50
  C 198.32 364.89 196.32 363.83 194.65 362.09
  Q 191.49 358.79 187.89 356.73
  C 184.92 355.03 182.86 352.66 180.00 350.91
  A 1.50 1.46 -83.8 0 1 179.38 350.12
  Q 178.51 347.51 179.35 344.99
  Q 181.80 337.66 184.34 329.73
  Q 184.48 329.31 184.82 329.04
  Q 185.30 328.66 185.35 328.01
  Q 185.38 327.49 185.65 327.04
  Q 186.89 324.91 187.60 319.99
  Q 188.22 315.65 192.00 306.36
  Q 193.32 304.16 193.79 300.91
  Q 194.07 299.06 194.54 300.10
  Q 195.78 291.86 198.81 291.83
  L 253.89 291.67
  Z
  M 205.15 367.56
  Q 207.04 368.81 209.14 369.69
  C 212.10 370.94 215.32 372.25 218.39 372.89
  Q 234.85 376.32 249.37 366.96
  Q 249.47 366.90 249.58 366.88
  Q 249.77 366.85 249.96 366.89
  A 0.75 0.75 0.0 0 0 250.64 366.71
  Q 255.48 362.21 259.19 357.19
  Q 267.10 346.49 266.61 332.48
  Q 266.27 322.66 261.98 314.66
  Q 257.21 305.76 249.36 300.76
  Q 236.25 292.40 221.63 294.50
  Q 199.36 297.70 190.14 318.72
  Q 189.74 318.96 189.61 319.39
  Q 184.25 337.22 191.96 352.66
  C 193.28 355.31 195.18 357.39 196.82 359.80
  Q 198.38 362.10 200.58 364.06
  Q 202.76 365.99 205.15 367.56
  Z"
/>
<path fill="#181818" d="
  M 205.15 367.56
  Q 202.76 365.99 200.58 364.06
  Q 198.38 362.10 196.82 359.80
  C 195.18 357.39 193.28 355.31 191.96 352.66
  Q 184.25 337.22 189.61 319.39
  Q 189.74 318.96 190.14 318.72
  Q 199.36 297.70 221.63 294.50
  Q 236.25 292.40 249.36 300.76
  Q 257.21 305.76 261.98 314.66
  Q 266.27 322.66 266.61 332.48
  Q 267.10 346.49 259.19 357.19
  Q 255.48 362.21 250.64 366.71
  A 0.75 0.75 0.0 0 1 249.96 366.89
  Q 249.77 366.85 249.58 366.88
  Q 249.47 366.90 249.37 366.96
  Q 234.85 376.32 218.39 372.89
  C 215.32 372.25 212.10 370.94 209.14 369.69
  Q 207.04 368.81 205.15 367.56
  Z
  M 265.24 333.87
  A 38.21 38.21 0.0 0 0 227.03 295.66
  A 38.21 38.21 0.0 0 0 188.82 333.87
  A 38.21 38.21 0.0 0 0 227.03 372.08
  A 38.21 38.21 0.0 0 0 265.24 333.87
  Z"
/>
<path fill="#f58223" d="
  M 274.42 343.31
  L 271.62 334.89
  Q 271.48 334.45 271.10 334.20
  Q 270.75 333.97 270.85 333.49
  Q 270.92 333.21 270.87 332.93
  Q 270.11 328.67 269.14 325.47
  Q 265.56 313.64 260.81 302.03
  Q 260.69 301.73 260.78 301.14
  A 1.79 1.73 39.0 0 0 260.67 300.26
  L 258.81 295.69
  Q 259.04 294.85 259.79 294.74
  Q 260.15 294.68 260.19 295.05
  Q 260.21 295.25 260.38 295.37
  Q 263.59 297.78 266.28 300.53
  C 270.90 305.27 276.12 309.67 280.83 314.17
  Q 282.35 315.63 281.72 318.22
  Q 278.68 330.72 276.38 343.93
  Q 276.29 344.44 275.81 344.62
  Q 275.43 344.75 275.05 344.58
  Q 274.61 344.38 274.66 343.91
  Q 274.71 343.37 274.42 343.31
  Z"
/>
<path fill="#ffffff" d="
  M 265.24 333.87
  A 38.21 38.21 0.0 0 1 227.03 372.08
  A 38.21 38.21 0.0 0 1 188.82 333.87
  A 38.21 38.21 0.0 0 1 227.03 295.66
  A 38.21 38.21 0.0 0 1 265.24 333.87
  Z
  M 220.85 312.79
  Q 218.80 315.61 218.64 319.48
  Q 217.96 320.76 218.10 322.01
  Q 218.16 322.56 218.72 322.60
  Q 219.87 322.67 220.11 323.76
  Q 220.22 324.26 219.84 324.61
  L 218.38 325.94
  A 0.27 0.27 0.0 0 0 218.34 326.28
  L 218.49 326.50
  Q 218.67 326.77 218.94 326.59
  Q 219.64 326.13 220.18 325.43
  Q 220.27 325.31 220.41 325.26
  Q 220.53 325.21 220.66 325.30
  Q 221.05 325.59 220.79 326.00
  Q 220.03 327.19 219.91 328.49
  Q 219.47 333.01 220.67 328.62
  Q 221.91 324.11 225.39 326.00
  Q 226.16 326.42 225.48 326.96
  Q 222.55 329.25 220.54 332.88
  Q 219.56 334.64 219.56 332.62
  Q 219.57 331.30 218.60 329.91
  Q 218.07 329.15 218.19 330.06
  Q 218.94 335.88 217.57 341.92
  Q 217.10 343.97 218.64 345.09
  Q 219.38 345.63 218.50 345.87
  L 216.60 346.38
  A 0.59 0.59 0.0 0 1 215.88 345.95
  L 210.33 323.26
  Q 210.21 322.80 210.48 322.40
  Q 210.95 321.69 211.01 321.04
  Q 212.37 321.14 212.40 322.30
  Q 212.41 322.54 212.18 322.51
  Q 212.04 322.49 211.91 322.51
  Q 211.32 322.59 211.50 323.16
  Q 211.93 324.49 213.24 324.44
  Q 213.79 324.42 214.26 324.72
  Q 215.88 325.76 217.79 326.09
  Q 217.90 326.11 217.86 326.01
  L 217.75 325.64
  Q 217.71 325.49 217.56 325.46
  Q 215.07 325.04 214.06 323.63
  Q 213.24 322.48 214.65 322.67
  Q 216.45 322.93 218.42 323.49
  Q 218.55 323.52 218.57 323.40
  L 218.62 323.14
  Q 218.67 322.87 218.39 322.84
  Q 215.51 322.59 212.56 321.33
  Q 212.09 321.13 211.84 320.69
  Q 211.12 319.45 209.65 318.97
  Q 209.00 318.76 208.86 318.10
  L 207.56 311.82
  Q 207.46 311.32 207.96 311.25
  Q 208.53 311.18 208.95 310.79
  A 0.92 0.91 68.1 0 0 209.23 310.13
  Q 209.23 307.93 207.94 306.69
  A 0.49 0.48 -49.6 0 1 207.89 306.04
  Q 208.09 305.78 207.92 305.60
  Q 206.93 304.53 207.35 305.93
  Q 208.00 308.11 207.86 309.58
  A 0.28 0.28 0.0 0 1 207.31 309.61
  Q 206.84 307.13 205.63 305.31
  Q 205.09 304.51 205.03 305.47
  Q 204.89 307.72 205.76 309.99
  Q 205.85 310.20 205.62 310.25
  L 205.28 310.31
  Q 205.17 310.33 205.10 310.26
  Q 204.17 309.35 204.79 308.42
  Q 205.03 308.06 204.66 307.83
  Q 203.95 307.39 203.95 306.62
  Q 203.96 306.30 203.64 306.34
  L 203.38 306.38
  Q 203.37 306.38 203.37 306.39
  Q 203.74 308.64 203.73 310.73
  Q 203.73 311.42 204.35 311.74
  Q 205.00 312.07 205.74 311.99
  Q 206.36 311.92 206.52 312.53
  L 215.06 346.14
  Q 215.17 346.56 214.76 346.71
  Q 207.75 349.27 207.01 356.80
  Q 206.87 358.18 206.29 358.69
  Q 205.59 359.29 204.48 359.04
  A 0.37 0.37 0.0 0 0 204.03 359.36
  L 203.99 359.76
  Q 203.96 360.05 204.26 360.06
  L 207.11 360.17
  Q 207.51 360.19 207.74 360.51
  Q 208.60 361.76 210.38 361.20
  A 1.10 1.10 0.0 0 1 211.77 361.98
  Q 212.03 363.03 213.19 362.95
  C 214.44 362.87 216.36 363.23 216.69 364.69
  Q 217.10 366.46 218.98 367.34
  Q 219.53 367.60 219.53 366.99
  L 219.55 364.91
  A 1.18 1.13 61.3 0 1 219.71 364.32
  Q 220.43 363.08 219.80 361.86
  A 0.86 0.86 0.0 0 1 220.74 360.62
  Q 224.09 361.30 226.88 360.34
  Q 227.21 360.23 227.34 359.90
  Q 227.39 359.76 227.48 359.65
  A 0.79 0.78 28.9 0 1 228.33 359.41
  Q 230.56 360.16 232.42 359.42
  A 0.77 0.77 0.0 0 1 233.38 359.76
  L 233.77 360.47
  Q 234.02 360.94 234.54 361.06
  Q 236.47 361.50 238.36 361.23
  Q 239.67 361.04 238.44 360.54
  Q 236.86 359.89 234.98 359.61
  Q 233.20 359.34 234.88 358.71
  Q 236.36 358.15 238.31 358.77
  Q 240.45 359.47 243.02 358.64
  Q 243.91 358.35 243.27 359.04
  Q 242.58 359.79 241.45 359.98
  Q 241.10 360.04 241.00 360.38
  Q 240.96 360.53 241.02 360.67
  Q 241.17 360.98 241.52 361.05
  Q 243.08 361.33 244.46 360.62
  Q 246.92 359.34 249.53 358.41
  Q 249.93 358.26 250.33 358.37
  Q 253.53 359.21 254.43 355.70
  Q 254.46 355.59 254.35 355.54
  L 253.99 355.39
  Q 253.72 355.27 253.61 355.54
  Q 253.16 356.56 252.43 357.27
  Q 251.96 357.73 251.52 357.24
  Q 250.59 356.20 249.20 356.06
  Q 246.55 355.80 244.00 354.73
  Q 243.47 354.50 243.83 354.05
  Q 244.78 352.85 246.14 352.99
  Q 246.65 353.05 246.41 352.59
  Q 246.04 351.89 245.34 351.89
  Q 245.25 351.89 245.17 351.92
  Q 244.97 352.01 244.95 352.23
  Q 244.88 352.84 244.30 352.68
  Q 243.44 352.44 242.79 353.08
  A 1.51 1.49 -60.2 0 1 241.38 353.47
  Q 239.42 353.01 239.79 351.83
  Q 239.96 351.31 240.48 351.15
  C 242.94 350.39 243.40 346.65 242.19 344.85
  A 1.22 1.18 34.1 0 1 242.01 343.99
  Q 242.09 343.50 242.02 343.03
  Q 241.92 342.38 241.45 342.84
  Q 241.25 343.02 241.13 343.27
  A 1.32 1.31 -82.3 0 1 240.18 344.00
  Q 237.64 344.49 236.23 342.42
  Q 235.03 340.65 236.26 337.64
  Q 236.50 337.04 237.15 337.03
  L 241.41 336.97
  Q 241.88 336.97 241.95 337.43
  Q 242.01 337.82 242.21 338.19
  A 0.54 0.53 -18.1 0 1 241.81 338.97
  Q 240.99 339.09 240.29 338.81
  Q 239.64 338.55 239.94 339.18
  Q 240.25 339.81 240.78 340.07
  Q 241.22 340.29 241.61 339.98
  L 242.70 339.12
  Q 242.79 339.05 242.90 339.06
  Q 243.06 339.07 243.20 339.16
  A 0.26 0.26 0.0 0 1 243.28 339.55
  Q 242.53 340.55 242.20 341.86
  Q 242.10 342.26 242.41 342.53
  Q 243.06 343.09 242.88 344.01
  Q 242.77 344.53 243.12 344.93
  Q 245.48 347.57 243.72 351.11
  A 0.39 0.39 0.0 0 0 243.94 351.66
  L 244.23 351.76
  Q 244.54 351.86 244.64 351.55
  Q 245.93 347.56 244.36 344.19
  Q 244.15 343.74 244.26 343.25
  Q 244.39 342.61 244.19 341.98
  Q 244.02 341.44 244.27 340.93
  Q 244.80 339.87 244.55 338.76
  A 0.64 0.63 73.9 0 1 244.95 338.02
  Q 245.26 337.90 245.73 338.01
  Q 246.21 340.78 245.49 343.44
  Q 245.31 344.09 245.54 344.72
  Q 246.52 347.43 245.95 350.81
  A 0.37 0.37 0.0 0 0 246.42 351.22
  L 246.68 351.14
  Q 246.80 351.10 246.81 350.97
  Q 246.95 343.93 246.39 338.85
  Q 246.32 338.26 245.73 338.01
  Q 245.91 335.82 244.09 334.53
  Q 243.35 334.01 243.39 334.92
  Q 243.44 335.88 242.36 335.94
  Q 241.76 335.98 241.83 335.38
  Q 241.89 334.91 242.26 334.67
  Q 243.60 333.77 241.99 333.63
  Q 240.33 333.48 238.86 332.89
  Q 238.47 332.74 238.25 333.09
  Q 238.16 333.24 238.23 333.37
  Q 238.58 334.01 237.90 334.25
  L 236.32 334.81
  Q 235.54 335.09 235.28 334.31
  L 235.01 333.52
  Q 234.78 332.85 235.48 332.82
  L 236.73 332.75
  Q 237.27 332.72 236.85 332.38
  Q 235.65 331.41 235.06 329.44
  C 234.55 326.69 233.79 324.17 233.79 321.36
  Q 233.79 316.48 231.58 313.02
  Q 230.60 311.49 230.28 309.57
  Q 229.85 306.98 229.16 304.45
  A 2.43 2.42 -89.6 0 0 227.51 302.77
  Q 222.75 301.41 221.98 306.37
  Q 221.48 309.61 220.85 312.79
  Z
  M 238.4731 339.7979
  A 0.99 0.40 15.7 0 0 237.6282 339.1449
  A 0.99 0.40 15.7 0 0 236.5669 339.2621
  A 0.99 0.40 15.7 0 0 237.4118 339.9151
  A 0.99 0.40 15.7 0 0 238.4731 339.7979
  Z
  M 240.10 342.49
  Q 240.24 342.26 240.28 341.99
  Q 240.35 341.49 239.92 341.75
  Q 239.24 342.15 238.38 341.98
  Q 237.57 341.83 238.14 342.43
  Q 238.77 343.09 239.59 343.72
  Q 239.76 343.85 239.73 343.63
  Q 239.71 343.47 239.76 343.32
  Q 239.87 342.88 240.10 342.49
  Z
  M 252.22 354.29
  Q 248.95 353.97 247.53 353.25
  Q 247.41 353.19 247.36 353.30
  L 247.35 353.30
  Q 247.30 353.40 247.40 353.46
  Q 249.66 354.91 252.22 354.66
  A 0.19 0.19 0.0 0 0 252.22 354.29
  Z"
/>
<path fill="#4b5a60" d="
  M 193.79 300.91
  Q 193.32 304.16 192.00 306.36
  Q 191.64 303.79 193.79 300.91
  Z"
/>
<path fill="#181818" d="
  M 235.06 329.44
  Q 233.75 326.89 233.43 323.66
  A 0.81 0.80 70.4 0 0 232.18 323.06
  Q 231.55 323.48 230.82 323.36
  Q 230.11 323.25 230.02 323.96
  Q 229.90 325.03 230.28 325.83
  Q 230.71 326.73 231.03 325.79
  Q 231.10 325.59 231.15 325.40
  Q 231.47 324.27 231.64 325.43
  Q 231.92 327.40 232.90 329.02
  A 0.38 0.38 0.0 0 1 232.75 329.55
  L 232.41 329.73
  Q 231.88 330.01 231.83 330.61
  L 231.78 331.32
  Q 231.67 332.76 231.43 331.34
  Q 231.17 329.78 231.38 328.05
  A 0.97 0.94 23.4 0 0 231.02 327.18
  L 230.69 326.92
  A 0.21 0.21 0.0 0 0 230.35 327.06
  Q 229.67 332.36 227.59 337.32
  Q 227.41 337.77 227.42 338.21
  Q 227.44 338.77 226.84 338.80
  Q 226.09 338.84 226.44 339.50
  L 226.69 339.99
  Q 226.99 340.55 226.42 340.85
  Q 226.23 340.96 226.05 340.82
  Q 225.74 340.60 225.44 340.83
  Q 225.08 341.10 225.48 341.68
  A 0.61 0.60 51.4 0 0 226.39 341.79
  Q 229.69 338.70 231.68 334.68
  Q 231.91 334.23 231.78 333.74
  Q 231.70 333.44 231.70 333.11
  Q 231.71 332.58 231.90 333.07
  Q 232.51 334.64 232.15 336.46
  Q 232.13 336.56 232.17 336.65
  Q 232.23 336.82 232.37 336.88
  Q 232.67 337.03 232.81 336.72
  Q 233.21 335.79 234.04 335.25
  A 0.81 0.80 -25.1 0 0 234.37 334.35
  C 234.09 333.39 233.16 332.55 233.04 331.80
  Q 232.98 331.44 233.17 331.11
  Q 233.46 330.62 233.81 331.07
  Q 234.03 331.36 234.11 331.68
  Q 234.32 332.59 234.78 331.78
  Q 235.35 330.79 235.06 329.44
  Q 235.65 331.41 236.85 332.38
  Q 237.27 332.72 236.73 332.75
  L 235.48 332.82
  Q 234.78 332.85 235.01 333.52
  L 235.28 334.31
  Q 235.54 335.09 236.32 334.81
  L 237.90 334.25
  Q 238.58 334.01 238.23 333.37
  Q 238.16 333.24 238.25 333.09
  Q 238.47 332.74 238.86 332.89
  Q 240.33 333.48 241.99 333.63
  Q 243.60 333.77 242.26 334.67
  Q 241.89 334.91 241.83 335.38
  Q 241.76 335.98 242.36 335.94
  Q 243.44 335.88 243.39 334.92
  Q 243.35 334.01 244.09 334.53
  Q 245.91 335.82 245.73 338.01
  Q 245.26 337.90 244.95 338.02
  A 0.64 0.63 73.9 0 0 244.55 338.76
  Q 244.80 339.87 244.27 340.93
  Q 244.02 341.44 244.19 341.98
  Q 244.39 342.61 244.26 343.25
  Q 244.15 343.74 244.36 344.19
  Q 245.93 347.56 244.64 351.55
  Q 244.54 351.86 244.23 351.76
  L 243.94 351.66
  A 0.39 0.39 0.0 0 1 243.72 351.11
  Q 245.48 347.57 243.12 344.93
  Q 242.77 344.53 242.88 344.01
  Q 243.06 343.09 242.41 342.53
  Q 242.10 342.26 242.20 341.86
  Q 242.53 340.55 243.28 339.55
  A 0.26 0.26 0.0 0 0 243.20 339.16
  Q 243.06 339.07 242.90 339.06
  Q 242.79 339.05 242.70 339.12
  L 241.61 339.98
  Q 241.22 340.29 240.78 340.07
  Q 240.25 339.81 239.94 339.18
  Q 239.64 338.55 240.29 338.81
  Q 240.99 339.09 241.81 338.97
  A 0.54 0.53 -18.1 0 0 242.21 338.19
  Q 242.01 337.82 241.95 337.43
  Q 241.88 336.97 241.41 336.97
  L 237.15 337.03
  Q 236.50 337.04 236.26 337.64
  Q 235.03 340.65 236.23 342.42
  Q 237.64 344.49 240.18 344.00
  A 1.32 1.31 -82.3 0 0 241.13 343.27
  Q 241.25 343.02 241.45 342.84
  Q 241.92 342.38 242.02 343.03
  Q 242.09 343.50 242.01 343.99
  A 1.22 1.18 34.1 0 0 242.19 344.85
  C 243.40 346.65 242.94 350.39 240.48 351.15
  Q 239.96 351.31 239.79 351.83
  Q 239.42 353.01 241.38 353.47
  A 1.51 1.49 -60.2 0 0 242.79 353.08
  Q 243.44 352.44 244.30 352.68
  Q 244.88 352.84 244.95 352.23
  Q 244.97 352.01 245.17 351.92
  Q 245.25 351.89 245.34 351.89
  Q 246.04 351.89 246.41 352.59
  Q 246.65 353.05 246.14 352.99
  Q 244.78 352.85 243.83 354.05
  Q 243.47 354.50 244.00 354.73
  Q 246.55 355.80 249.20 356.06
  Q 250.59 356.20 251.52 357.24
  Q 251.96 357.73 252.43 357.27
  Q 253.16 356.56 253.61 355.54
  Q 253.72 355.27 253.99 355.39
  L 254.35 355.54
  Q 254.46 355.59 254.43 355.70
  Q 253.53 359.21 250.33 358.37
  Q 249.93 358.26 249.53 358.41
  Q 246.92 359.34 244.46 360.62
  Q 243.08 361.33 241.52 361.05
  Q 241.17 360.98 241.02 360.67
  Q 240.96 360.53 241.00 360.38
  Q 241.10 360.04 241.45 359.98
  Q 242.58 359.79 243.27 359.04
  Q 243.91 358.35 243.02 358.64
  Q 240.45 359.47 238.31 358.77
  Q 236.36 358.15 234.88 358.71
  Q 233.20 359.34 234.98 359.61
  Q 236.86 359.89 238.44 360.54
  Q 239.67 361.04 238.36 361.23
  Q 236.47 361.50 234.54 361.06
  Q 234.02 360.94 233.77 360.47
  L 233.38 359.76
  A 0.77 0.77 0.0 0 0 232.42 359.42
  Q 230.56 360.16 228.33 359.41
  A 0.79 0.78 28.9 0 0 227.48 359.65
  Q 227.39 359.76 227.34 359.90
  Q 227.21 360.23 226.88 360.34
  Q 224.09 361.30 220.74 360.62
  A 0.86 0.86 0.0 0 0 219.80 361.86
  Q 220.43 363.08 219.71 364.32
  A 1.18 1.13 61.3 0 0 219.55 364.91
  L 219.53 366.99
  Q 219.53 367.60 218.98 367.34
  Q 217.10 366.46 216.69 364.69
  C 216.36 363.23 214.44 362.87 213.19 362.95
  Q 212.03 363.03 211.77 361.98
  A 1.10 1.10 0.0 0 0 210.38 361.20
  Q 208.60 361.76 207.74 360.51
  Q 207.51 360.19 207.11 360.17
  L 204.26 360.06
  Q 203.96 360.05 203.99 359.76
  L 204.03 359.36
  A 0.37 0.37 0.0 0 1 204.48 359.04
  Q 205.59 359.29 206.29 358.69
  Q 206.87 358.18 207.01 356.80
  Q 207.75 349.27 214.76 346.71
  Q 215.17 346.56 215.06 346.14
  L 206.52 312.53
  Q 206.36 311.92 205.74 311.99
  Q 205.00 312.07 204.35 311.74
  Q 203.73 311.42 203.73 310.73
  Q 203.74 308.64 203.37 306.39
  Q 203.37 306.38 203.38 306.38
  L 203.64 306.34
  Q 203.96 306.30 203.95 306.62
  Q 203.95 307.39 204.66 307.83
  Q 205.03 308.06 204.79 308.42
  Q 204.17 309.35 205.10 310.26
  Q 205.17 310.33 205.28 310.31
  L 205.62 310.25
  Q 205.85 310.20 205.76 309.99
  Q 204.89 307.72 205.03 305.47
  Q 205.09 304.51 205.63 305.31
  Q 206.84 307.13 207.31 309.61
  A 0.28 0.28 0.0 0 0 207.86 309.58
  Q 208.00 308.11 207.35 305.93
  Q 206.93 304.53 207.92 305.60
  Q 208.09 305.78 207.89 306.04
  A 0.49 0.48 -49.6 0 0 207.94 306.69
  Q 209.23 307.93 209.23 310.13
  A 0.92 0.91 68.1 0 1 208.95 310.79
  Q 208.53 311.18 207.96 311.25
  Q 207.46 311.32 207.56 311.82
  L 208.86 318.10
  Q 209.00 318.76 209.65 318.97
  Q 211.12 319.45 211.84 320.69
  Q 212.09 321.13 212.56 321.33
  Q 215.51 322.59 218.39 322.84
  Q 218.67 322.87 218.62 323.14
  L 218.57 323.40
  Q 218.55 323.52 218.42 323.49
  Q 216.45 322.93 214.65 322.67
  Q 213.24 322.48 214.06 323.63
  Q 215.07 325.04 217.56 325.46
  Q 217.71 325.49 217.75 325.64
  L 217.86 326.01
  Q 217.90 326.11 217.79 326.09
  Q 215.88 325.76 214.26 324.72
  Q 213.79 324.42 213.24 324.44
  Q 211.93 324.49 211.50 323.16
  Q 211.32 322.59 211.91 322.51
  Q 212.04 322.49 212.18 322.51
  Q 212.41 322.54 212.40 322.30
  Q 212.37 321.14 211.01 321.04
  Q 210.91 320.35 210.18 320.05
  A 0.47 0.46 11.2 0 0 209.53 320.48
  Q 209.53 320.76 209.72 320.96
  Q 209.89 321.14 210.15 321.15
  Q 210.58 321.17 211.01 321.04
  Q 210.95 321.69 210.48 322.40
  Q 210.21 322.80 210.33 323.26
  L 215.88 345.95
  A 0.59 0.59 0.0 0 0 216.60 346.38
  L 218.50 345.87
  Q 219.38 345.63 218.64 345.09
  Q 217.10 343.97 217.57 341.92
  Q 218.94 335.88 218.19 330.06
  Q 218.07 329.15 218.60 329.91
  Q 219.57 331.30 219.56 332.62
  Q 219.56 334.64 220.54 332.88
  Q 222.55 329.25 225.48 326.96
  Q 226.16 326.42 225.39 326.00
  Q 221.91 324.11 220.67 328.62
  Q 219.47 333.01 219.91 328.49
  Q 220.03 327.19 220.79 326.00
  Q 221.05 325.59 220.66 325.30
  Q 220.53 325.21 220.41 325.26
  Q 220.27 325.31 220.18 325.43
  Q 219.64 326.13 218.94 326.59
  Q 218.67 326.77 218.49 326.50
  L 218.34 326.28
  A 0.27 0.27 0.0 0 1 218.38 325.94
  L 219.84 324.61
  Q 220.22 324.26 220.11 323.76
  Q 219.87 322.67 218.72 322.60
  Q 218.16 322.56 218.10 322.01
  Q 217.96 320.76 218.64 319.48
  Q 218.77 319.54 218.90 319.61
  Q 218.76 320.43 219.79 320.69
  A 1.14 1.12 36.9 0 0 220.62 320.58
  Q 221.47 320.10 221.85 321.02
  Q 222.27 322.07 223.26 322.22
  A 1.28 1.26 18.3 0 0 224.55 321.58
  Q 226.77 317.63 230.08 314.56
  Q 230.23 314.42 230.10 314.26
  L 230.09 314.25
  Q 229.96 314.09 229.79 314.22
  Q 228.66 315.05 227.43 315.59
  Q 227.12 315.72 226.94 316.01
  L 225.79 317.86
  A 0.24 0.24 0.0 0 1 225.36 317.82
  L 225.20 317.43
  Q 225.15 317.30 225.24 317.21
  Q 225.83 316.60 225.91 316.52
  Q 227.16 315.21 225.55 316.03
  Q 222.84 317.41 221.27 319.62
  Q 220.76 320.33 220.85 319.46
  L 221.07 317.38
  Q 221.13 316.84 221.60 316.59
  Q 223.64 315.51 224.08 313.63
  Q 224.34 312.54 224.81 313.57
  Q 224.85 313.65 224.82 313.72
  A 0.59 0.57 81.5 0 0 225.69 314.39
  Q 226.69 313.68 227.62 312.82
  Q 228.27 312.24 227.40 312.27
  Q 227.23 312.28 227.11 312.41
  A 0.66 0.65 33.6 0 1 226.32 312.56
  Q 223.74 311.24 222.96 313.92
  Q 222.78 314.54 222.42 313.99
  Q 221.83 313.07 221.16 313.32
  Q 220.88 313.29 220.85 312.79
  Q 221.48 309.61 221.98 306.37
  Q 222.75 301.41 227.51 302.77
  A 2.43 2.42 -89.6 0 1 229.16 304.45
  Q 229.85 306.98 230.28 309.57
  Q 230.60 311.49 231.58 313.02
  Q 233.79 316.48 233.79 321.36
  C 233.79 324.17 234.55 326.69 235.06 329.44
  Z
  M 226.55 311.15
  Q 226.52 310.99 226.49 310.82
  Q 228.92 310.94 228.71 307.74
  Q 228.66 306.98 228.08 307.47
  Q 227.29 308.13 226.31 307.64
  Q 225.77 307.38 225.22 307.59
  L 224.66 307.80
  Q 224.08 308.03 224.04 307.41
  L 224.01 306.95
  A 0.42 0.41 -84.5 0 1 224.53 306.52
  Q 226.15 306.96 228.04 306.85
  Q 228.56 306.82 228.33 306.35
  C 225.80 301.36 220.72 307.56 224.58 310.92
  Q 226.31 312.42 226.55 311.15
  Z
  M 229.82 318.88
  Q 230.42 320.28 232.41 319.72
  Q 233.02 319.55 233.03 318.92
  Q 233.10 315.64 230.70 313.84
  Q 230.43 313.64 230.47 313.97
  Q 230.49 314.18 230.67 314.27
  Q 230.94 314.40 230.86 314.69
  Q 230.33 316.63 228.69 317.43
  C 227.28 318.11 226.46 319.41 225.83 320.75
  Q 225.49 321.48 226.30 321.47
  Q 227.53 321.44 228.67 321.87
  A 0.77 0.77 0.0 0 0 229.69 321.30
  Q 229.94 320.03 229.52 318.53
  Q 229.26 317.57 229.82 318.88
  Z
  M 227.80 323.21
  Q 227.22 323.12 226.69 322.82
  A 0.51 0.50 36.2 0 0 226.07 322.91
  L 225.53 323.51
  Q 224.94 324.16 225.82 324.24
  Q 227.01 324.36 227.92 323.74
  A 0.29 0.29 0.0 0 0 227.80 323.21
  Z
  M 219.57 347.54
  Q 218.31 346.92 216.88 347.49
  Q 216.34 347.70 216.36 348.28
  Q 216.42 349.58 217.78 350.01
  A 1.63 1.62 -58.3 0 0 219.38 349.63
  Q 222.22 346.89 224.77 343.25
  Q 225.34 342.43 224.49 341.90
  Q 224.32 341.80 224.30 341.61
  Q 224.22 341.07 224.52 340.58
  Q 228.01 335.03 228.88 329.43
  A 1.94 1.94 0.0 0 0 225.91 327.50
  Q 220.99 330.68 219.63 337.16
  Q 219.22 337.53 219.47 338.00
  Q 219.66 338.36 219.63 338.77
  L 219.48 341.03
  Q 219.41 342.07 219.99 341.21
  Q 221.20 339.42 221.42 337.25
  C 221.73 334.39 224.54 330.40 226.13 328.19
  Q 226.57 327.58 227.02 328.17
  Q 227.26 328.48 227.48 328.79
  Q 227.95 329.46 227.57 330.26
  Q 225.52 334.63 223.24 337.94
  Q 219.83 342.89 220.08 347.20
  Q 220.12 347.81 219.57 347.54
  Z
  M 222.7240 336.6341
  A 4.40 0.77 118.3 0 0 225.4880 333.1250
  A 4.40 0.77 118.3 0 0 226.8960 328.8859
  A 4.40 0.77 118.3 0 0 224.1320 332.3950
  A 4.40 0.77 118.3 0 0 222.7240 336.6341
  Z
  M 239.72 334.87
  Q 237.78 335.05 237.23 335.34
  Q 237.17 335.37 237.11 335.41
  Q 237.01 335.46 237.06 335.37
  Q 237.10 335.31 237.18 335.32
  Q 238.64 335.70 239.80 335.18
  A 0.16 0.16 0.0 0 0 239.72 334.87
  Z
  M 233.76 338.37
  Q 232.81 338.69 232.50 339.63
  Q 232.26 340.36 232.88 339.90
  Q 233.53 339.42 234.02 338.71
  Q 234.42 338.14 233.76 338.37
  Z
  M 227.85 348.06
  Q 227.99 347.90 228.13 347.73
  L 228.23 354.43
  Q 228.24 355.35 228.82 354.64
  C 229.85 353.38 229.55 350.53 229.30 348.94
  Q 229.25 348.56 229.62 348.51
  L 229.92 348.46
  A 0.43 0.42 -88.0 0 0 230.28 348.12
  Q 231.11 344.27 230.74 340.68
  Q 230.63 339.64 230.00 340.47
  Q 229.30 341.40 229.16 342.56
  Q 229.14 342.71 229.07 342.57
  Q 229.05 342.53 229.01 342.49
  Q 228.86 342.35 228.71 342.52
  Q 226.37 345.16 227.85 348.06
  Z
  M 233.17 344.10
  Q 233.25 343.03 233.04 341.57
  Q 232.88 340.51 232.59 341.55
  Q 232.19 342.97 232.44 344.14
  A 0.37 0.37 0.0 0 0 233.17 344.10
  Z
  M 237.05 345.26
  L 235.74 343.01
  Q 235.44 342.50 235.31 343.08
  Q 235.09 344.08 235.95 344.85
  A 0.71 0.71 0.0 0 1 235.80 346.02
  Q 235.43 346.21 235.35 346.63
  Q 235.19 347.40 235.87 347.00
  Q 236.18 346.81 236.51 346.95
  Q 236.98 347.14 236.98 347.65
  L 236.99 351.48
  Q 236.99 352.05 237.51 352.28
  Q 237.93 352.46 238.35 352.49
  A 0.65 0.64 2.0 0 0 239.05 351.84
  Q 239.05 351.11 239.75 351.09
  A 0.68 0.68 0.0 0 0 240.38 350.59
  Q 240.78 349.12 241.73 347.95
  Q 242.16 347.43 241.66 346.96
  Q 241.50 346.81 241.27 346.79
  A 0.37 0.36 -56.8 0 1 241.13 346.11
  L 241.44 345.94
  Q 242.07 345.58 241.37 345.37
  Q 238.80 344.59 237.52 345.38
  Q 237.23 345.56 237.05 345.26
  Z
  M 232.05 348.38
  Q 231.88 348.35 231.73 348.42
  A 0.81 0.80 81.9 0 0 231.30 349.00
  Q 230.83 351.75 231.18 354.56
  C 231.33 355.74 232.46 356.49 233.48 356.84
  Q 234.24 357.10 233.70 356.50
  Q 233.31 356.07 232.68 356.04
  Q 232.15 356.02 232.43 355.57
  Q 232.71 355.11 233.22 355.28
  C 234.61 355.74 235.79 356.34 237.32 356.27
  Q 239.05 356.19 240.71 356.50
  A 0.78 0.72 65.8 0 1 240.99 356.62
  Q 241.44 356.95 241.07 357.22
  Q 240.58 357.56 241.17 357.67
  Q 241.49 357.73 241.40 357.42
  A 0.49 0.49 0.0 0 1 241.94 356.80
  Q 242.98 356.94 243.47 357.98
  Q 243.73 358.54 244.33 358.66
  Q 246.38 359.08 247.09 357.63
  A 0.66 0.66 0.0 0 0 246.74 356.72
  Q 244.01 355.67 241.30 354.64
  Q 239.73 354.05 238.11 353.88
  Q 236.41 353.71 234.91 353.04
  Q 234.46 352.83 234.07 353.14
  L 233.84 353.32
  Q 232.96 354.01 233.41 352.99
  Q 233.74 352.24 234.33 351.63
  Q 234.71 351.25 234.99 351.71
  Q 235.41 352.38 236.19 352.64
  Q 236.83 352.85 236.58 352.22
  Q 235.82 350.37 234.06 350.25
  Q 233.07 350.19 233.63 349.37
  L 233.83 349.08
  A 0.86 0.86 0.0 0 0 233.78 348.04
  Q 233.37 347.55 233.20 346.93
  A 0.64 0.63 69.2 0 1 233.52 346.19
  Q 234.28 345.81 234.66 345.10
  Q 234.99 344.49 234.36 344.76
  Q 232.68 345.49 232.15 347.22
  Q 232.07 347.48 232.18 347.72
  Q 232.22 347.80 232.29 347.86
  Q 233.23 348.60 232.05 348.38
  Z
  M 224.91 347.93
  C 226.32 350.42 225.31 352.98 224.28 355.42
  Q 224.15 355.74 224.49 355.78
  L 226.53 356.02
  A 0.33 0.32 -84.0 0 0 226.89 355.72
  L 227.38 349.82
  A 1.95 1.93 -63.5 0 0 226.90 348.37
  Q 226.46 347.88 226.25 347.29
  Q 225.52 345.13 224.15 346.96
  Q 222.88 348.67 221.57 350.55
  C 220.80 351.67 221.00 352.68 220.96 353.94
  Q 220.94 354.55 221.42 354.92
  Q 221.96 355.33 222.61 355.50
  Q 223.28 355.67 223.53 355.02
  L 225.11 350.82
  A 0.98 0.97 36.4 0 0 224.96 349.86
  Q 224.35 349.08 224.48 348.02
  Q 224.56 347.32 224.91 347.93
  Z
  M 236.02 349.24
  L 235.73 348.01
  Q 235.53 347.13 235.09 347.92
  Q 234.54 348.91 235.38 349.63
  Q 236.28 350.39 236.02 349.24
  Z
  M 215.11 356.15
  Q 215.50 355.53 216.20 355.25
  Q 217.16 354.86 216.90 353.86
  L 215.60 348.72
  Q 215.37 347.82 214.46 348.00
  C 211.11 348.67 207.33 353.41 207.61 356.89
  A 3.15 3.15 0.0 0 0 209.80 359.64
  Q 210.85 359.98 211.86 360.48
  C 213.17 361.14 214.64 360.50 215.23 359.23
  A 0.78 0.76 16.6 0 1 216.05 358.80
  L 217.30 359.01
  Q 217.97 359.13 217.89 358.45
  L 217.65 356.53
  Q 217.54 355.64 216.80 356.16
  Q 216.25 356.54 215.58 356.76
  Q 214.51 357.12 215.11 356.15
  Z
  M 219.87 355.98
  Q 219.59 356.25 219.27 356.15
  Q 218.71 355.98 218.63 356.56
  Q 218.51 357.49 218.99 358.27
  Q 219.25 358.69 219.75 358.74
  Q 221.34 358.91 222.73 358.28
  A 0.43 0.42 61.3 0 1 223.26 358.44
  Q 223.97 359.56 225.51 359.50
  Q 226.07 359.48 225.99 358.93
  L 225.95 358.68
  Q 225.87 358.09 225.28 358.15
  Q 222.93 358.41 221.09 356.60
  Q 220.79 356.30 220.70 355.88
  L 219.87 351.73
  Q 219.73 351.02 219.01 351.01
  L 217.52 350.99
  Q 216.99 350.98 217.14 351.50
  L 218.15 354.96
  Q 218.32 355.56 218.94 355.54
  L 219.68 355.53
  Q 220.34 355.51 219.87 355.98
  Z
  M 232.0966 358.4000
  A 1.70 0.98 15.7 0 0 230.7252 356.9966
  A 1.70 0.98 15.7 0 0 228.8234 357.4800
  A 1.70 0.98 15.7 0 0 230.1948 358.8834
  A 1.70 0.98 15.7 0 0 232.0966 358.4000
  Z
  M 215.57 361.79
  Q 216.04 362.48 216.79 362.67
  Q 217.43 362.82 217.09 362.26
  Q 216.24 360.82 214.66 361.27
  Q 214.40 361.34 214.56 361.56
  Q 214.70 361.75 214.90 361.63
  Q 215.31 361.40 215.57 361.79
  Z"
/>
<path fill="#ffffff" d="
  M 226.49 310.82
  Q 226.57 309.97 226.39 309.32
  Q 226.24 308.80 225.93 309.24
  Q 225.40 309.97 226.55 311.15
  Q 226.31 312.42 224.58 310.92
  C 220.72 307.56 225.80 301.36 228.33 306.35
  Q 228.56 306.82 228.04 306.85
  Q 226.15 306.96 224.53 306.52
  A 0.42 0.41 -84.5 0 0 224.01 306.95
  L 224.04 307.41
  Q 224.08 308.03 224.66 307.80
  L 225.22 307.59
  Q 225.77 307.38 226.31 307.64
  Q 227.29 308.13 228.08 307.47
  Q 228.66 306.98 228.71 307.74
  Q 228.92 310.94 226.49 310.82
  Z"
/>
<path fill="#4b5a60" d="
  M 226.49 310.82
  Q 226.52 310.99 226.55 311.15
  Q 225.40 309.97 225.93 309.24
  Q 226.24 308.80 226.39 309.32
  Q 226.57 309.97 226.49 310.82
  Z"
/>
<path fill="#ffffff" d="
  M 218.90 319.61
  Q 219.34 315.86 221.16 313.32
  Q 221.83 313.07 222.42 313.99
  Q 222.78 314.54 222.96 313.92
  Q 223.74 311.24 226.32 312.56
  A 0.66 0.65 33.6 0 0 227.11 312.41
  Q 227.23 312.28 227.40 312.27
  Q 228.27 312.24 227.62 312.82
  Q 226.69 313.68 225.69 314.39
  A 0.59 0.57 81.5 0 1 224.82 313.72
  Q 224.85 313.65 224.81 313.57
  Q 224.34 312.54 224.08 313.63
  Q 223.64 315.51 221.60 316.59
  Q 221.13 316.84 221.07 317.38
  L 220.85 319.46
  Q 220.76 320.33 221.27 319.62
  Q 222.84 317.41 225.55 316.03
  Q 227.16 315.21 225.91 316.52
  Q 225.83 316.60 225.24 317.21
  Q 225.15 317.30 225.20 317.43
  L 225.36 317.82
  A 0.24 0.24 0.0 0 0 225.79 317.86
  L 226.94 316.01
  Q 227.12 315.72 227.43 315.59
  Q 228.66 315.05 229.79 314.22
  Q 229.96 314.09 230.09 314.25
  L 230.10 314.26
  Q 230.23 314.42 230.08 314.56
  Q 226.77 317.63 224.55 321.58
  A 1.28 1.26 18.3 0 1 223.26 322.22
  Q 222.27 322.07 221.85 321.02
  Q 221.47 320.10 220.62 320.58
  A 1.14 1.12 36.9 0 1 219.79 320.69
  Q 218.76 320.43 218.90 319.61
  Z"
/>
<path fill="#2a1a1e" d="
  M 220.85 312.79
  Q 220.88 313.29 221.16 313.32
  Q 219.34 315.86 218.90 319.61
  Q 218.77 319.54 218.64 319.48
  Q 218.80 315.61 220.85 312.79
  Z"
/>
<path fill="#ffffff" d="
  M 229.52 318.53
  Q 229.94 320.03 229.69 321.30
  A 0.77 0.77 0.0 0 1 228.67 321.87
  Q 227.53 321.44 226.30 321.47
  Q 225.49 321.48 225.83 320.75
  C 226.46 319.41 227.28 318.11 228.69 317.43
  Q 230.33 316.63 230.86 314.69
  Q 230.94 314.40 230.67 314.27
  Q 230.49 314.18 230.47 313.97
  Q 230.43 313.64 230.70 313.84
  Q 233.10 315.64 233.03 318.92
  Q 233.02 319.55 232.41 319.72
  Q 230.42 320.28 229.82 318.88
  Q 229.26 317.57 229.52 318.53
  Z"
/>
<path fill="#ffffff" d="
  M 211.01 321.04
  Q 210.58 321.17 210.15 321.15
  Q 209.89 321.14 209.72 320.96
  Q 209.53 320.76 209.53 320.48
  A 0.47 0.46 11.2 0 1 210.18 320.05
  Q 210.91 320.35 211.01 321.04
  Z"
/>
<path fill="#ffffff" d="
  M 227.80 323.21
  A 0.29 0.29 0.0 0 1 227.92 323.74
  Q 227.01 324.36 225.82 324.24
  Q 224.94 324.16 225.53 323.51
  L 226.07 322.91
  A 0.51 0.50 36.2 0 1 226.69 322.82
  Q 227.22 323.12 227.80 323.21
  Z"
/>
<path fill="#ffffff" d="
  M 235.06 329.44
  Q 235.35 330.79 234.78 331.78
  Q 234.32 332.59 234.11 331.68
  Q 234.03 331.36 233.81 331.07
  Q 233.46 330.62 233.17 331.11
  Q 232.98 331.44 233.04 331.80
  C 233.16 332.55 234.09 333.39 234.37 334.35
  A 0.81 0.80 -25.1 0 1 234.04 335.25
  Q 233.21 335.79 232.81 336.72
  Q 232.67 337.03 232.37 336.88
  Q 232.23 336.82 232.17 336.65
  Q 232.13 336.56 232.15 336.46
  Q 232.51 334.64 231.90 333.07
  Q 231.71 332.58 231.70 333.11
  Q 231.70 333.44 231.78 333.74
  Q 231.91 334.23 231.68 334.68
  Q 229.69 338.70 226.39 341.79
  A 0.61 0.60 51.4 0 1 225.48 341.68
  Q 225.08 341.10 225.44 340.83
  Q 225.74 340.60 226.05 340.82
  Q 226.23 340.96 226.42 340.85
  Q 226.99 340.55 226.69 339.99
  L 226.44 339.50
  Q 226.09 338.84 226.84 338.80
  Q 227.44 338.77 227.42 338.21
  Q 227.41 337.77 227.59 337.32
  Q 229.67 332.36 230.35 327.06
  A 0.21 0.21 0.0 0 1 230.69 326.92
  L 231.02 327.18
  A 0.97 0.94 23.4 0 1 231.38 328.05
  Q 231.17 329.78 231.43 331.34
  Q 231.67 332.76 231.78 331.32
  L 231.83 330.61
  Q 231.88 330.01 232.41 329.73
  L 232.75 329.55
  A 0.38 0.38 0.0 0 0 232.90 329.02
  Q 231.92 327.40 231.64 325.43
  Q 231.47 324.27 231.15 325.40
  Q 231.10 325.59 231.03 325.79
  Q 230.71 326.73 230.28 325.83
  Q 229.90 325.03 230.02 323.96
  Q 230.11 323.25 230.82 323.36
  Q 231.55 323.48 232.18 323.06
  A 0.81 0.80 70.4 0 1 233.43 323.66
  Q 233.75 326.89 235.06 329.44
  Z"
/>
<path fill="#ffffff" d="
  M 220.08 347.20
  Q 219.83 342.89 223.24 337.94
  Q 225.52 334.63 227.57 330.26
  Q 227.95 329.46 227.48 328.79
  Q 227.26 328.48 227.02 328.17
  Q 226.57 327.58 226.13 328.19
  C 224.54 330.40 221.73 334.39 221.42 337.25
  Q 221.20 339.42 219.99 341.21
  Q 219.41 342.07 219.48 341.03
  L 219.63 338.77
  Q 219.66 338.36 219.47 338.00
  Q 219.22 337.53 219.63 337.16
  Q 220.99 330.68 225.91 327.50
  A 1.94 1.94 0.0 0 1 228.88 329.43
  Q 228.01 335.03 224.52 340.58
  Q 224.22 341.07 224.30 341.61
  Q 224.32 341.80 224.49 341.90
  Q 225.34 342.43 224.77 343.25
  Q 222.22 346.89 219.38 349.63
  A 1.63 1.62 -58.3 0 1 217.78 350.01
  Q 216.42 349.58 216.36 348.28
  Q 216.34 347.70 216.88 347.49
  Q 218.31 346.92 219.57 347.54
  Q 220.12 347.81 220.08 347.20
  Z"
/>
<ellipse fill="#ffffff" cx="0.00" cy="0.00" transform="translate(224.81,332.76) rotate(118.3)" rx="4.40" ry="0.77"/>
<path fill="#ffffff" d="
  M 239.72 334.87
  A 0.16 0.16 0.0 0 1 239.80 335.18
  Q 238.64 335.70 237.18 335.32
  Q 237.10 335.31 237.06 335.37
  Q 237.01 335.46 237.11 335.41
  Q 237.17 335.37 237.23 335.34
  Q 237.78 335.05 239.72 334.87
  Z"
/>
<path fill="#181818" d="
  M 245.73 338.01
  Q 246.32 338.26 246.39 338.85
  Q 246.95 343.93 246.81 350.97
  Q 246.80 351.10 246.68 351.14
  L 246.42 351.22
  A 0.37 0.37 0.0 0 1 245.95 350.81
  Q 246.52 347.43 245.54 344.72
  Q 245.31 344.09 245.49 343.44
  Q 246.21 340.78 245.73 338.01
  Z"
/>
<path fill="#ffffff" d="
  M 234.02 338.71
  Q 233.53 339.42 232.88 339.90
  Q 232.26 340.36 232.50 339.63
  Q 232.81 338.69 233.76 338.37
  Q 234.42 338.14 234.02 338.71
  Z"
/>
<ellipse fill="#181818" cx="0.00" cy="0.00" transform="translate(237.52,339.53) rotate(15.7)" rx="0.99" ry="0.40"/>
<path fill="#ffffff" d="
  M 228.13 347.73
  Q 229.52 348.70 229.04 346.12
  Q 228.92 345.46 228.52 346.00
  Q 228.13 346.54 227.85 348.06
  Q 226.37 345.16 228.71 342.52
  Q 228.86 342.35 229.01 342.49
  Q 229.05 342.53 229.07 342.57
  Q 229.14 342.71 229.16 342.56
  Q 229.30 341.40 230.00 340.47
  Q 230.63 339.64 230.74 340.68
  Q 231.11 344.27 230.28 348.12
  A 0.43 0.42 -88.0 0 1 229.92 348.46
  L 229.62 348.51
  Q 229.25 348.56 229.30 348.94
  C 229.55 350.53 229.85 353.38 228.82 354.64
  Q 228.24 355.35 228.23 354.43
  L 228.13 347.73
  Z
  M 229.3127 344.9173
  A 0.97 0.41 85.7 0 0 229.6488 343.9193
  A 0.97 0.41 85.7 0 0 229.1673 342.9827
  A 0.97 0.41 85.7 0 0 228.8312 343.9807
  A 0.97 0.41 85.7 0 0 229.3127 344.9173
  Z"
/>
<path fill="#ffffff" d="
  M 233.17 344.10
  A 0.37 0.37 0.0 0 1 232.44 344.14
  Q 232.19 342.97 232.59 341.55
  Q 232.88 340.51 233.04 341.57
  Q 233.25 343.03 233.17 344.10
  Z"
/>
<path fill="#181818" d="
  M 239.76 343.32
  Q 239.71 343.47 239.73 343.63
  Q 239.76 343.85 239.59 343.72
  Q 238.77 343.09 238.14 342.43
  Q 237.57 341.83 238.38 341.98
  Q 239.24 342.15 239.92 341.75
  Q 240.35 341.49 240.28 341.99
  Q 240.24 342.26 240.10 342.49
  Q 239.87 342.88 239.76 343.32
  Z"
/>
<path fill="#ffffff" d="
  M 237.52 345.38
  Q 238.80 344.59 241.37 345.37
  Q 242.07 345.58 241.44 345.94
  L 241.13 346.11
  A 0.37 0.36 -56.8 0 0 241.27 346.79
  Q 241.50 346.81 241.66 346.96
  Q 242.16 347.43 241.73 347.95
  Q 240.78 349.12 240.38 350.59
  A 0.68 0.68 0.0 0 1 239.75 351.09
  Q 239.05 351.11 239.05 351.84
  A 0.65 0.64 2.0 0 1 238.35 352.49
  Q 237.93 352.46 237.51 352.28
  Q 236.99 352.05 236.99 351.48
  L 236.98 347.65
  Q 236.98 347.14 236.51 346.95
  Q 236.18 346.81 235.87 347.00
  Q 235.19 347.40 235.35 346.63
  Q 235.43 346.21 235.80 346.02
  A 0.71 0.71 0.0 0 0 235.95 344.85
  Q 235.09 344.08 235.31 343.08
  Q 235.44 342.50 235.74 343.01
  L 237.05 345.26
  Q 237.23 345.56 237.52 345.38
  Z
  M 239.85 347.47
  Q 240.25 347.59 240.59 347.29
  A 0.65 0.65 0.0 0 0 240.36 346.19
  Q 239.26 345.82 237.73 346.03
  Q 237.08 346.12 237.41 346.68
  Q 238.03 347.72 237.87 348.93
  Q 237.79 349.60 238.32 350.01
  Q 238.96 350.51 239.62 350.21
  A 0.63 0.62 54.0 0 0 239.78 349.19
  Q 239.19 348.64 239.29 347.83
  Q 239.35 347.32 239.85 347.47
  Z"
/>
<ellipse fill="#4b5a60" cx="0.00" cy="0.00" transform="translate(229.24,343.95) rotate(85.7)" rx="0.97" ry="0.41"/>
<path fill="#ffffff" d="
  M 232.29 347.86
  Q 232.22 347.80 232.18 347.72
  Q 232.07 347.48 232.15 347.22
  Q 232.68 345.49 234.36 344.76
  Q 234.99 344.49 234.66 345.10
  Q 234.28 345.81 233.52 346.19
  A 0.64 0.63 69.2 0 0 233.20 346.93
  Q 233.37 347.55 233.78 348.04
  A 0.86 0.86 0.0 0 1 233.83 349.08
  L 233.63 349.37
  Q 233.07 350.19 234.06 350.25
  Q 235.82 350.37 236.58 352.22
  Q 236.83 352.85 236.19 352.64
  Q 235.41 352.38 234.99 351.71
  Q 234.71 351.25 234.33 351.63
  Q 233.74 352.24 233.41 352.99
  Q 232.96 354.01 233.84 353.32
  L 234.07 353.14
  Q 234.46 352.83 234.91 353.04
  Q 236.41 353.71 238.11 353.88
  Q 239.73 354.05 241.30 354.64
  Q 244.01 355.67 246.74 356.72
  A 0.66 0.66 0.0 0 1 247.09 357.63
  Q 246.38 359.08 244.33 358.66
  Q 243.73 358.54 243.47 357.98
  Q 242.98 356.94 241.94 356.80
  A 0.49 0.49 0.0 0 0 241.40 357.42
  Q 241.49 357.73 241.17 357.67
  Q 240.58 357.56 241.07 357.22
  Q 241.44 356.95 240.99 356.62
  A 0.78 0.72 65.8 0 0 240.71 356.50
  Q 239.05 356.19 237.32 356.27
  C 235.79 356.34 234.61 355.74 233.22 355.28
  Q 232.71 355.11 232.43 355.57
  Q 232.15 356.02 232.68 356.04
  Q 233.31 356.07 233.70 356.50
  Q 234.24 357.10 233.48 356.84
  C 232.46 356.49 231.33 355.74 231.18 354.56
  Q 230.83 351.75 231.30 349.00
  A 0.81 0.80 81.9 0 1 231.73 348.42
  Q 231.88 348.35 232.05 348.38
  Q 233.23 348.60 232.29 347.86
  Z"
/>
<path fill="#4b5a60" d="
  M 228.13 347.73
  Q 227.99 347.90 227.85 348.06
  Q 228.13 346.54 228.52 346.00
  Q 228.92 345.46 229.04 346.12
  Q 229.52 348.70 228.13 347.73
  Z"
/>
<path fill="#ffffff" d="
  M 224.48 348.02
  Q 224.35 349.08 224.96 349.86
  A 0.98 0.97 36.4 0 1 225.11 350.82
  L 223.53 355.02
  Q 223.28 355.67 222.61 355.50
  Q 221.96 355.33 221.42 354.92
  Q 220.94 354.55 220.96 353.94
  C 221.00 352.68 220.80 351.67 221.57 350.55
  Q 222.88 348.67 224.15 346.96
  Q 225.52 345.13 226.25 347.29
  Q 226.46 347.88 226.90 348.37
  A 1.95 1.93 -63.5 0 1 227.38 349.82
  L 226.89 355.72
  A 0.33 0.32 -84.0 0 1 226.53 356.02
  L 224.49 355.78
  Q 224.15 355.74 224.28 355.42
  C 225.31 352.98 226.32 350.42 224.91 347.93
  Q 224.56 347.32 224.48 348.02
  Z"
/>
<path fill="#181818" d="
  M 239.29 347.83
  Q 239.19 348.64 239.78 349.19
  A 0.63 0.62 54.0 0 1 239.62 350.21
  Q 238.96 350.51 238.32 350.01
  Q 237.79 349.60 237.87 348.93
  Q 238.03 347.72 237.41 346.68
  Q 237.08 346.12 237.73 346.03
  Q 239.26 345.82 240.36 346.19
  A 0.65 0.65 0.0 0 1 240.59 347.29
  Q 240.25 347.59 239.85 347.47
  Q 239.35 347.32 239.29 347.83
  Z"
/>
<path fill="#ffffff" d="
  M 236.02 349.24
  Q 236.28 350.39 235.38 349.63
  Q 234.54 348.91 235.09 347.92
  Q 235.53 347.13 235.73 348.01
  L 236.02 349.24
  Z"
/>
<path fill="#ffffff" d="
  M 215.58 356.76
  Q 216.25 356.54 216.80 356.16
  Q 217.54 355.64 217.65 356.53
  L 217.89 358.45
  Q 217.97 359.13 217.30 359.01
  L 216.05 358.80
  A 0.78 0.76 16.6 0 0 215.23 359.23
  C 214.64 360.50 213.17 361.14 211.86 360.48
  Q 210.85 359.98 209.80 359.64
  A 3.15 3.15 0.0 0 1 207.61 356.89
  C 207.33 353.41 211.11 348.67 214.46 348.00
  Q 215.37 347.82 215.60 348.72
  L 216.90 353.86
  Q 217.16 354.86 216.20 355.25
  Q 215.50 355.53 215.11 356.15
  Q 214.51 357.12 215.58 356.76
  Z
  M 210.56 357.83
  Q 209.58 356.49 210.40 355.14
  A 0.33 0.33 0.0 0 0 210.21 354.64
  L 209.95 354.57
  Q 209.75 354.51 209.67 354.71
  C 208.56 357.52 210.38 358.63 212.37 359.84
  A 0.69 0.69 0.0 0 0 213.41 359.28
  Q 213.44 358.68 213.11 358.11
  Q 212.79 357.55 212.28 357.93
  Q 211.89 358.22 211.40 358.24
  A 0.99 0.99 0.0 0 1 210.56 357.83
  Z"
/>
<path fill="#f58223" d="
  M 275.03 349.79
  L 275.99 349.71
  L 330.89 471.71
  Q 330.59 471.94 330.65 472.32
  Q 330.83 473.41 330.31 472.44
  Q 330.22 472.29 330.06 472.35
  Q 329.52 472.54 329.23 472.03
  C 327.67 469.27 325.46 466.89 323.59 464.32
  Q 295.07 425.09 265.19 384.19
  Q 263.84 382.34 262.93 380.47
  Q 262.71 380.02 262.85 379.53
  Q 263.59 376.96 264.19 375.72
  Q 270.98 361.68 274.82 352.75
  Q 275.32 351.58 274.24 350.80
  Q 274.51 350.14 275.03 349.79
  Z"
/>
<path fill="#f04023" d="
  M 274.24 350.80
  Q 275.32 351.58 274.82 352.75
  Q 270.98 361.68 264.19 375.72
  Q 263.59 376.96 262.85 379.53
  Q 262.71 380.02 262.93 380.47
  Q 263.84 382.34 265.19 384.19
  Q 295.07 425.09 323.59 464.32
  C 325.46 466.89 327.67 469.27 329.23 472.03
  Q 329.52 472.54 330.06 472.35
  Q 330.22 472.29 330.31 472.44
  Q 330.83 473.41 330.65 472.32
  Q 330.59 471.94 330.89 471.71
  L 334.59 480.09
  Q 335.78 482.78 333.60 480.82
  Q 280.87 433.48 228.14 386.36
  Q 226.74 385.11 225.32 386.53
  Q 210.40 383.47 196.01 381.66
  Q 194.50 381.48 193.05 381.88
  Q 192.57 382.02 192.33 382.45
  Q 191.08 384.66 189.51 386.86
  Q 159.81 428.54 129.99 470.48
  A 1.76 1.70 49.8 0 0 129.87 472.27
  Q 130.04 472.61 131.20 472.34
  L 120.98 481.91
  A 0.26 0.26 0.0 0 1 120.57 481.62
  L 176.71 352.19
  Q 177.43 351.34 178.03 351.16
  Q 178.61 350.98 179.20 351.81
  Q 181.07 354.41 182.32 357.01
  Q 187.56 367.94 191.83 378.90
  A 1.89 1.88 -6.6 0 0 193.34 380.09
  L 222.33 384.06
  Q 223.01 384.16 222.86 383.48
  Q 222.68 382.63 221.88 382.24
  Q 219.70 381.18 217.67 379.02
  Q 217.52 378.85 217.68 378.70
  L 217.88 378.52
  A 0.04 0.04 0.0 0 1 217.94 378.53
  Q 219.21 380.05 220.95 380.94
  Q 222.30 382.20 224.07 383.25
  Q 224.29 383.38 225.72 384.51
  Q 226.87 385.41 227.98 384.72
  Q 229.22 383.94 230.16 383.27
  Q 232.68 383.86 235.26 383.53
  Q 247.50 381.94 259.54 380.61
  Q 260.54 380.49 260.96 379.57
  L 273.67 351.21
  Q 273.83 350.84 274.24 350.80
  Z"
/>
<path fill="#ffffff" d="
  M 219.68 355.53
  L 218.94 355.54
  Q 218.32 355.56 218.15 354.96
  L 217.14 351.50
  Q 216.99 350.98 217.52 350.99
  L 219.01 351.01
  Q 219.73 351.02 219.87 351.73
  L 220.70 355.88
  Q 220.79 356.30 221.09 356.60
  Q 222.93 358.41 225.28 358.15
  Q 225.87 358.09 225.95 358.68
  L 225.99 358.93
  Q 226.07 359.48 225.51 359.50
  Q 223.97 359.56 223.26 358.44
  A 0.43 0.42 61.3 0 0 222.73 358.28
  Q 221.34 358.91 219.75 358.74
  Q 219.25 358.69 218.99 358.27
  Q 218.51 357.49 218.63 356.56
  Q 218.71 355.98 219.27 356.15
  Q 219.59 356.25 219.87 355.98
  Q 220.34 355.51 219.68 355.53
  Z"
/>
<path fill="#f58223" d="
  M 273.67 351.21
  L 260.96 379.57
  Q 260.54 380.49 259.54 380.61
  Q 247.50 381.94 235.26 383.53
  Q 232.68 383.86 230.16 383.27
  C 233.57 381.27 236.85 378.37 239.56 376.54
  Q 249.28 370.00 253.04 367.03
  Q 263.02 359.17 273.03 351.34
  Q 273.25 351.17 273.67 351.21
  Z"
/>
<path fill="#181818" d="
  M 252.22 354.29
  A 0.19 0.19 0.0 0 1 252.22 354.66
  Q 249.66 354.91 247.40 353.46
  Q 247.30 353.40 247.35 353.30
  L 247.36 353.30
  Q 247.41 353.19 247.53 353.25
  Q 248.95 353.97 252.22 354.29
  Z"
/>
<path fill="#181818" d="
  M 211.40 358.24
  Q 211.89 358.22 212.28 357.93
  Q 212.79 357.55 213.11 358.11
  Q 213.44 358.68 213.41 359.28
  A 0.69 0.69 0.0 0 1 212.37 359.84
  C 210.38 358.63 208.56 357.52 209.67 354.71
  Q 209.75 354.51 209.95 354.57
  L 210.21 354.64
  A 0.33 0.33 0.0 0 1 210.40 355.14
  Q 209.58 356.49 210.56 357.83
  A 0.99 0.99 0.0 0 0 211.40 358.24
  Z"
/>
<ellipse fill="#ffffff" cx="0.00" cy="0.00" transform="translate(230.46,357.94) rotate(15.7)" rx="1.70" ry="0.98"/>
<path fill="#ffffff" d="
  M 214.90 361.63
  Q 214.70 361.75 214.56 361.56
  Q 214.40 361.34 214.66 361.27
  Q 216.24 360.82 217.09 362.26
  Q 217.43 362.82 216.79 362.67
  Q 216.04 362.48 215.57 361.79
  Q 215.31 361.40 214.90 361.63
  Z"
/>
<path fill="#f58223" d="
  M 225.32 386.53
  L 131.20 472.34
  Q 130.04 472.61 129.87 472.27
  A 1.76 1.70 49.8 0 1 129.99 470.48
  Q 159.81 428.54 189.51 386.86
  Q 191.08 384.66 192.33 382.45
  Q 192.57 382.02 193.05 381.88
  Q 194.50 381.48 196.01 381.66
  Q 210.40 383.47 225.32 386.53
  Z"
/>
</svg>
