<?xml version="1.0" encoding="UTF-8" standalone="no"?>
<!DOCTYPE svg PUBLIC "-//W3C//DTD SVG 1.1//EN" "http://www.w3.org/Graphics/SVG/1.1/DTD/svg11.dtd">
<svg xmlns="http://www.w3.org/2000/svg" version="1.1" viewBox="0.00 0.00 1477.00 1233.00">
<path fill="#fe5a35" d="
  M 0.00 981.40
  L 0.00 980.40
  Q 0.03 980.42 0.05 980.44
  Q 0.11 980.48 0.13 980.41
  Q 136.32 488.59 269.22 7.48
  Q 271.00 1.02 276.51 1.02
  Q 294.46 1.01 312.29 1.00
  C 312.83 1.00 313.26 1.26 313.84 1.26
  Q 371.00 1.23 428.07 1.24
  C 428.70 1.24 429.20 1.50 429.87 1.50
  Q 477.16 1.50 525.09 1.49
  C 525.67 1.49 526.08 1.72 526.68 1.72
  Q 563.17 1.75 596.25 1.79
  Q 597.13 1.79 598.00 1.80
  Q 628.97 2.03 656.25 2.00
  C 656.86 2.00 657.33 2.23 657.93 2.23
  Q 682.22 2.25 706.50 2.27
  Q 707.38 2.27 708.25 2.28
  Q 734.42 2.49 759.00 2.50
  Q 769.25 2.50 779.09 2.22
  Q 799.48 1.64 819.95 1.14
  Q 828.43 0.93 836.59 1.01
  C 838.47 1.03 840.26 0.60 842.15 0.81
  Q 843.13 0.92 844.13 0.93
  Q 894.54 1.24 941.69 7.78
  Q 969.28 11.61 996.64 18.91
  C 1044.25 31.61 1091.00 52.98 1122.41 91.85
  C 1145.18 120.03 1156.28 153.66 1157.12 189.93
  Q 1157.60 210.65 1154.77 233.22
  Q 1146.21 301.35 1107.67 357.47
  Q 1078.72 399.62 1035.99 433.82
  C 979.88 478.72 914.11 510.44 844.96 529.80
  C 842.75 530.42 841.00 531.70 839.41 533.34
  A 0.44 0.44 0.0 0 0 839.68 534.08
  Q 853.50 535.35 865.25 537.10
  Q 907.69 543.41 946.63 561.46
  Q 1016.04 593.64 1052.85 660.71
  Q 1088.81 726.23 1077.17 800.74
  Q 1075.48 811.60 1072.88 821.94
  C 1055.42 891.47 1014.77 951.51 960.40 999.20
  C 873.77 1075.19 766.68 1124.71 653.19 1144.70
  C 620.45 1150.47 585.94 1153.07 550.74 1154.78
  Q 399.16 1162.17 247.75 1169.15
  Q 239.52 1169.52 229.00 1169.78
  C 226.90 1169.83 219.90 1172.63 219.78 1167.51
  Q 219.70 1163.81 218.91 1159.99
  Q 218.11 1156.16 220.82 1153.93
  Q 222.77 1152.34 225.71 1151.52
  Q 286.07 1134.65 364.75 1111.88
  Q 657.95 1027.02 921.30 951.25
  C 926.73 949.69 925.85 944.65 924.53 940.50
  A 1.94 1.93 71.3 0 0 922.03 939.26
  C 920.54 939.79 919.28 940.53 917.73 940.90
  Q 570.83 1024.23 218.01 1109.43
  C 213.31 1110.56 207.88 1108.83 205.62 1104.26
  C 204.46 1101.91 203.15 1097.04 205.48 1094.91
  C 206.70 1093.79 208.34 1093.37 209.77 1092.57
  Q 580.47 886.57 951.17 680.72
  Q 955.50 678.32 953.56 673.57
  C 952.26 670.38 950.50 667.00 946.36 669.12
  Q 564.68 864.67 190.38 1055.89
  Q 188.93 1056.64 187.57 1057.53
  C 185.82 1058.69 183.12 1060.87 181.06 1058.91
  Q 176.12 1054.23 173.31 1048.31
  C 172.13 1045.82 175.44 1044.35 176.95 1042.95
  Q 183.88 1036.53 190.64 1030.15
  Q 611.03 633.36 1026.64 241.64
  Q 1044.53 224.77 1062.54 207.78
  Q 1065.86 204.64 1063.19 200.92
  Q 1061.47 198.53 1059.71 196.84
  A 2.43 2.43 0.0 0 0 1056.41 196.79
  Q 1055.15 197.91 1053.84 199.08
  Q 579.48 624.20 146.10 1012.20
  Q 142.41 1015.51 140.54 1016.09
  Q 136.98 1017.20 132.72 1015.43
  C 129.91 1014.26 125.92 1010.65 128.85 1007.42
  Q 130.19 1005.94 131.31 1004.30
  Q 453.25 534.46 775.16 64.60
  C 776.26 63.00 777.63 61.86 778.69 60.26
  Q 779.46 59.09 778.35 58.25
  C 773.80 54.82 769.40 53.19 765.55 58.65
  Q 758.32 68.92 750.59 79.57
  Q 423.12 531.14 95.57 982.75
  Q 92.46 987.03 90.35 990.35
  Q 88.75 992.87 86.07 992.54
  Q 82.48 992.10 79.54 990.73
  C 77.21 989.64 77.96 985.96 78.69 984.14
  Q 254.50 550.68 446.28 77.03
  C 447.08 75.06 448.31 73.61 449.23 71.70
  A 2.32 2.31 -56.6 0 0 448.67 68.94
  C 444.33 65.16 440.07 67.53 438.05 71.91
  Q 237.71 507.42 21.86 975.56
  Q 19.39 980.93 13.78 981.98
  Q 10.17 982.66 0.00 981.40
  Z"
/>
<path fill="#fe5a35" d="
  M 1161.52 585.07
  Q 1161.56 585.11 1162.50 585.19
  Q 1194.28 588.02 1222.97 598.14
  Q 1245.87 606.22 1268.66 619.35
  Q 1324.48 651.52 1355.20 705.29
  C 1372.55 735.65 1383.32 770.27 1387.73 805.11
  Q 1389.58 819.67 1389.20 835.00
  Q 1388.31 871.62 1376.69 907.07
  C 1348.11 994.27 1290.66 1068.29 1213.30 1119.53
  C 1131.27 1173.88 1037.98 1210.45 940.45 1222.37
  Q 872.67 1230.66 802.38 1231.63
  Q 776.58 1231.98 721.25 1231.69
  C 720.42 1231.69 719.52 1232.00 718.58 1232.00
  Q 608.66 1232.00 498.75 1232.02
  Q 498.00 1232.02 497.25 1232.02
  Q 396.37 1232.27 310.00 1232.28
  Q 309.25 1232.28 308.50 1232.28
  Q 265.40 1232.53 226.75 1232.49
  C 217.83 1232.48 215.24 1225.57 218.09 1218.13
  C 219.38 1214.79 222.14 1215.97 224.81 1215.86
  Q 454.89 1206.78 684.77 1197.46
  Q 698.50 1196.90 715.72 1195.86
  Q 767.06 1192.75 813.90 1185.07
  Q 851.91 1178.84 892.36 1165.63
  Q 968.29 1140.84 1038.26 1095.92
  C 1094.80 1059.63 1143.84 1012.58 1179.61 955.94
  C 1213.37 902.50 1233.21 839.60 1226.22 776.14
  Q 1219.23 712.68 1180.31 663.75
  C 1135.58 607.51 1067.33 578.62 996.79 571.78
  Q 995.33 571.64 996.71 571.16
  Q 1007.95 567.32 1019.61 563.34
  Q 1079.88 542.77 1133.18 511.19
  C 1172.71 487.76 1209.29 457.80 1239.84 422.60
  Q 1307.28 344.90 1310.40 241.62
  Q 1310.79 228.70 1309.78 216.58
  Q 1304.62 154.61 1260.73 113.40
  C 1228.30 82.94 1184.56 64.91 1141.59 54.89
  Q 1139.03 54.29 1136.69 53.06
  Q 1135.89 52.63 1136.80 52.58
  Q 1150.96 51.72 1165.02 52.03
  Q 1198.16 52.77 1232.94 56.62
  C 1273.15 61.08 1312.22 69.53 1349.31 84.03
  C 1379.80 95.95 1408.84 112.96 1431.24 136.63
  Q 1475.26 183.15 1476.57 248.88
  Q 1478.06 323.62 1442.56 388.59
  C 1422.36 425.54 1393.17 457.24 1360.28 483.97
  Q 1309.46 525.25 1246.86 553.05
  Q 1206.10 571.15 1161.86 583.76
  Q 1160.57 584.13 1161.52 585.07
  Z"
/>
</svg>
