<?xml version="1.0" encoding="UTF-8" standalone="no"?>
<!DOCTYPE svg PUBLIC "-//W3C//DTD SVG 1.1//EN" "http://www.w3.org/Graphics/SVG/1.1/DTD/svg11.dtd">
<svg xmlns="http://www.w3.org/2000/svg" version="1.1" viewBox="0.00 0.00 658.00 524.00">
<g stroke-width="2.00" fill="none" stroke-linecap="butt">
<path stroke="#80aa76" vector-effect="non-scaling-stroke" d="
  M 335.96 369.04
  L 304.58 406.99"
/>
<path stroke="#80aa76" vector-effect="non-scaling-stroke" d="
  M 252.90 285.39
  L 272.94 251.09"
/>
</g>
<path fill="#019eeb" d="
  M 430.35 0.00
  L 435.81 0.00
  Q 443.70 2.68 447.57 9.72
  Q 558.77 212.28 650.19 379.28
  Q 658.74 394.88 657.68 411.44
  C 656.42 431.14 644.37 447.46 624.15 449.76
  Q 619.34 450.31 607.03 448.60
  Q 496.54 433.27 381.83 417.60
  A 0.38 0.38 0.0 0 1 381.55 417.03
  L 404.17 378.44
  Q 404.50 377.88 405.15 377.96
  Q 489.93 388.92 574.15 399.80
  Q 575.76 400.01 577.38 399.93
  C 588.71 399.39 586.92 389.55 583.52 382.46
  Q 512.76 234.98 442.03 87.48
  Q 438.90 80.96 437.96 79.83
  C 434.34 75.52 426.05 73.32 422.50 79.37
  Q 331.52 234.40 265.70 346.45
  C 264.02 349.31 260.63 355.29 263.62 358.00
  C 265.93 360.08 268.64 360.33 271.75 360.73
  Q 303.86 364.90 335.96 369.04
  L 304.58 406.99
  Q 262.38 401.14 220.76 395.46
  C 211.98 394.26 204.68 389.14 203.40 379.95
  C 202.37 372.50 205.05 366.96 208.85 360.51
  Q 230.85 323.16 252.90 285.39
  L 272.94 251.09
  Q 273.11 250.88 273.37 250.44
  Q 341.22 135.02 407.59 21.95
  C 413.24 12.34 419.42 3.22 430.35 0.00
  Z"
/>
<path fill="#ffb600" d="
  M 0.00 308.62
  L 0.00 304.01
  Q 2.00 298.85 6.33 296.18
  Q 8.96 294.55 15.53 293.47
  Q 144.03 272.26 272.94 251.09
  L 252.90 285.39
  Q 170.56 298.85 88.62 312.43
  Q 84.52 313.11 82.61 314.15
  C 78.39 316.46 75.47 322.37 80.45 325.93
  Q 164.25 385.73 248.30 445.64
  C 254.45 450.02 266.01 453.83 271.98 446.48
  Q 287.96 426.78 304.58 406.99
  L 335.96 369.04
  Q 336.08 368.98 336.22 368.92
  Q 336.37 368.85 336.47 368.73
  Q 368.49 330.07 400.84 291.24
  C 405.18 286.04 407.99 281.37 409.01 275.07
  C 409.95 269.32 407.61 263.11 401.49 261.78
  Q 398.88 261.21 392.86 262.24
  Q 360.56 267.75 328.35 272.90
  A 0.20 0.20 0.0 0 1 328.13 272.62
  L 343.95 239.93
  Q 344.23 239.36 344.85 239.25
  Q 408.99 228.67 471.83 218.32
  C 479.79 217.00 487.30 220.18 489.53 228.54
  C 491.54 236.09 489.30 244.08 485.79 251.34
  Q 483.85 255.37 477.31 264.02
  Q 422.55 336.36 363.48 414.47
  C 338.51 447.48 313.44 480.41 288.42 513.38
  Q 283.42 519.98 280.52 521.55
  C 272.77 525.76 263.08 523.59 255.29 519.54
  Q 251.74 517.69 244.90 512.07
  Q 123.02 412.02 4.39 314.61
  Q 1.20 312.00 0.00 308.62
  Z"
/>
</svg>
