<?xml version="1.0" encoding="UTF-8" standalone="no"?>
<!DOCTYPE svg PUBLIC "-//W3C//DTD SVG 1.1//EN" "http://www.w3.org/Graphics/SVG/1.1/DTD/svg11.dtd">
<svg xmlns="http://www.w3.org/2000/svg" version="1.1" viewBox="0.00 0.00 225.00 225.00">
<g stroke-width="2.00" fill="none" stroke-linecap="butt">
<path stroke="#beaa87" vector-effect="non-scaling-stroke" d="
  M 52.96 92.51
  L 52.12 97.04"
/>
<path stroke="#fdd28e" vector-effect="non-scaling-stroke" d="
  M 52.12 97.04
  L 45.61 132.47"
/>
<path stroke="#80a7cb" vector-effect="non-scaling-stroke" d="
  M 45.61 132.47
  L 36.63 180.85
  A 0.45 0.44 -85.6 0 0 37.07 181.37
  Q 49.60 181.20 63.91 181.35
  C 72.30 181.44 79.46 177.43 83.76 170.21
  Q 85.53 167.25 87.07 158.88
  Q 90.39 140.88 93.77 122.51"
/>
<path stroke="#8096ac" vector-effect="non-scaling-stroke" d="
  M 93.77 122.51
  L 94.53 118.47"
/>
<path stroke="#fdd28e" vector-effect="non-scaling-stroke" d="
  M 94.53 118.47
  Q 94.88 118.16 95.23 118.16
  Q 104.98 118.05 114.90 118.18
  Q 127.57 118.34 131.73 117.05
  Q 142.61 113.68 147.32 103.66
  Q 148.75 100.60 149.83 94.69
  Q 150.68 90.01 151.58 85.63"
/>
<path stroke="#d9bb89" vector-effect="non-scaling-stroke" d="
  M 151.58 85.63
  L 152.22 81.20"
/>
<path stroke="#80a7cb" vector-effect="non-scaling-stroke" d="
  M 152.22 81.20
  Q 152.58 80.99 153.00 80.99
  C 164.06 81.15 174.45 82.18 181.32 72.00
  Q 183.60 68.62 184.78 62.48
  Q 186.63 52.91 188.63 44.12
  A 0.36 0.36 0.0 0 0 188.28 43.69
  Q 129.92 43.64 69.84 43.70
  Q 65.47 43.70 62.69 47.11
  Q 61.10 49.07 60.05 54.82
  Q 56.59 73.69 52.96 92.51"
/>
<path stroke="#5a6354" vector-effect="non-scaling-stroke" d="
  M 152.22 81.20
  L 129.05 81.15"
/>
<path stroke="#3e5253" vector-effect="non-scaling-stroke" d="
  M 129.05 81.15
  L 94.28 81.10"
/>
<path stroke="#263f4f" vector-effect="non-scaling-stroke" d="
  M 94.28 81.10
  Q 87.44 81.08 80.60 80.88
  C 71.80 80.63 63.37 82.07 56.71 88.21
  Q 55.00 89.79 55.13 92.78"
/>
<path stroke="#7e7a59" vector-effect="non-scaling-stroke" d="
  M 55.13 92.78
  L 53.43 94.80"
/>
<path stroke="#3e5253" vector-effect="non-scaling-stroke" d="
  M 53.43 94.80
  Q 52.54 94.83 52.96 92.51"
/>
<path stroke="#d78e17" vector-effect="non-scaling-stroke" d="
  M 151.58 85.63
  L 125.77 85.61"
/>
<path stroke="#7e693a" vector-effect="non-scaling-stroke" d="
  M 94.53 118.47
  Q 94.31 118.08 94.00 118.08
  Q 88.52 118.00 74.01 118.10
  Q 63.33 118.17 54.16 123.38
  Q 48.78 126.43 45.73 132.96"
/>
<path stroke="#7e7a59" vector-effect="non-scaling-stroke" d="
  M 45.73 132.96
  Q 46.23 133.29 45.61 132.47"
/>
<path stroke="#bc7d16" vector-effect="non-scaling-stroke" d="
  M 52.12 97.04
  Q 52.56 95.84 53.43 94.80"
/>
<path stroke="#986611" vector-effect="non-scaling-stroke" d="
  M 129.05 81.15
  Q 127.60 81.00 126.73 81.57
  Q 126.19 81.93 126.51 82.50
  Q 126.64 82.74 126.90 82.84
  Q 127.63 83.13 127.16 83.76
  L 125.77 85.61"
/>
<path stroke="#bc7d16" vector-effect="non-scaling-stroke" d="
  M 125.77 85.61
  L 91.93 85.16"
/>
<path stroke="#64430c" vector-effect="non-scaling-stroke" d="
  M 94.28 81.10
  Q 94.95 81.05 95.36 81.20
  Q 96.21 81.49 95.32 81.61
  Q 94.76 81.69 94.25 82.06
  Q 93.70 82.45 94.12 82.98
  Q 94.64 83.65 95.50 83.89
  Q 95.69 83.95 95.80 84.11
  Q 95.92 84.31 95.87 84.56
  A 0.39 0.38 -86.0 0 1 95.52 84.87
  L 91.93 85.16"
/>
<path stroke="#a46b12" vector-effect="non-scaling-stroke" d="
  M 91.93 85.16
  Q 81.19 85.17 78.50 85.35
  C 70.06 85.93 61.89 87.54 55.13 92.78"
/>
<path stroke="#013e77" vector-effect="non-scaling-stroke" d="
  M 93.77 122.51
  Q 77.98 122.29 62.47 124.06
  C 59.44 124.40 56.73 125.79 53.91 126.75
  Q 51.36 127.62 49.60 129.26
  Q 47.41 131.31 46.06 133.68
  A 0.19 0.19 0.0 0 1 45.70 133.58
  L 45.73 132.96"
/>
</g>
<path fill="#ffffff" d="
  M 0.00 0.00
  L 225.00 0.00
  L 225.00 225.00
  L 0.00 225.00
  L 0.00 0.00
  Z
  M 52.96 92.51
  L 52.12 97.04
  L 45.61 132.47
  L 36.63 180.85
  A 0.45 0.44 -85.6 0 0 37.07 181.37
  Q 49.60 181.20 63.91 181.35
  C 72.30 181.44 79.46 177.43 83.76 170.21
  Q 85.53 167.25 87.07 158.88
  Q 90.39 140.88 93.77 122.51
  L 94.53 118.47
  Q 94.88 118.16 95.23 118.16
  Q 104.98 118.05 114.90 118.18
  Q 127.57 118.34 131.73 117.05
  Q 142.61 113.68 147.32 103.66
  Q 148.75 100.60 149.83 94.69
  Q 150.68 90.01 151.58 85.63
  L 152.22 81.20
  Q 152.58 80.99 153.00 80.99
  C 164.06 81.15 174.45 82.18 181.32 72.00
  Q 183.60 68.62 184.78 62.48
  Q 186.63 52.91 188.63 44.12
  A 0.36 0.36 0.0 0 0 188.28 43.69
  Q 129.92 43.64 69.84 43.70
  Q 65.47 43.70 62.69 47.11
  Q 61.10 49.07 60.05 54.82
  Q 56.59 73.69 52.96 92.51
  Z"
/>
<path fill="#004e96" d="
  M 152.22 81.20
  L 129.05 81.15
  L 94.28 81.10
  Q 87.44 81.08 80.60 80.88
  C 71.80 80.63 63.37 82.07 56.71 88.21
  Q 55.00 89.79 55.13 92.78
  L 53.43 94.80
  Q 52.54 94.83 52.96 92.51
  Q 56.59 73.69 60.05 54.82
  Q 61.10 49.07 62.69 47.11
  Q 65.47 43.70 69.84 43.70
  Q 129.92 43.64 188.28 43.69
  A 0.36 0.36 0.0 0 1 188.63 44.12
  Q 186.63 52.91 184.78 62.48
  Q 183.60 68.62 181.32 72.00
  C 174.45 82.18 164.06 81.15 153.00 80.99
  Q 152.58 80.99 152.22 81.20
  Z"
/>
<path fill="#4c3008" d="
  M 94.28 81.10
  Q 94.95 81.05 95.36 81.20
  Q 96.21 81.49 95.32 81.61
  Q 94.76 81.69 94.25 82.06
  Q 93.70 82.45 94.12 82.98
  Q 94.64 83.65 95.50 83.89
  Q 95.69 83.95 95.80 84.11
  Q 95.92 84.31 95.87 84.56
  A 0.39 0.38 -86.0 0 1 95.52 84.87
  L 91.93 85.16
  Q 81.19 85.17 78.50 85.35
  C 70.06 85.93 61.89 87.54 55.13 92.78
  Q 55.00 89.79 56.71 88.21
  C 63.37 82.07 71.80 80.63 80.60 80.88
  Q 87.44 81.08 94.28 81.10
  Z"
/>
<path fill="#7c550f" d="
  M 94.28 81.10
  L 129.05 81.15
  Q 127.60 81.00 126.73 81.57
  Q 126.19 81.93 126.51 82.50
  Q 126.64 82.74 126.90 82.84
  Q 127.63 83.13 127.16 83.76
  L 125.77 85.61
  L 91.93 85.16
  L 95.52 84.87
  A 0.39 0.38 -86.0 0 0 95.87 84.56
  Q 95.92 84.31 95.80 84.11
  Q 95.69 83.95 95.50 83.89
  Q 94.64 83.65 94.12 82.98
  Q 93.70 82.45 94.25 82.06
  Q 94.76 81.69 95.32 81.61
  Q 96.21 81.49 95.36 81.20
  Q 94.95 81.05 94.28 81.10
  Z"
/>
<path fill="#b37712" d="
  M 152.22 81.20
  L 151.58 85.63
  L 125.77 85.61
  L 127.16 83.76
  Q 127.63 83.13 126.90 82.84
  Q 126.64 82.74 126.51 82.50
  Q 126.19 81.93 126.73 81.57
  Q 127.60 81.00 129.05 81.15
  L 152.22 81.20
  Z"
/>
<path fill="#fba51c" d="
  M 91.93 85.16
  L 125.77 85.61
  L 151.58 85.63
  Q 150.68 90.01 149.83 94.69
  Q 148.75 100.60 147.32 103.66
  Q 142.61 113.68 131.73 117.05
  Q 127.57 118.34 114.90 118.18
  Q 104.98 118.05 95.23 118.16
  Q 94.88 118.16 94.53 118.47
  Q 94.31 118.08 94.00 118.08
  Q 88.52 118.00 74.01 118.10
  Q 63.33 118.17 54.16 123.38
  Q 48.78 126.43 45.73 132.96
  Q 46.23 133.29 45.61 132.47
  L 52.12 97.04
  Q 52.56 95.84 53.43 94.80
  L 55.13 92.78
  C 61.89 87.54 70.06 85.93 78.50 85.35
  Q 81.19 85.17 91.93 85.16
  Z"
/>
<path fill="#7c550f" d="
  M 52.96 92.51
  Q 52.54 94.83 53.43 94.80
  Q 52.56 95.84 52.12 97.04
  L 52.96 92.51
  Z"
/>
<path fill="#012d58" d="
  M 94.53 118.47
  L 93.77 122.51
  Q 77.98 122.29 62.47 124.06
  C 59.44 124.40 56.73 125.79 53.91 126.75
  Q 51.36 127.62 49.60 129.26
  Q 47.41 131.31 46.06 133.68
  A 0.19 0.19 0.0 0 1 45.70 133.58
  L 45.73 132.96
  Q 48.78 126.43 54.16 123.38
  Q 63.33 118.17 74.01 118.10
  Q 88.52 118.00 94.00 118.08
  Q 94.31 118.08 94.53 118.47
  Z"
/>
<path fill="#004e96" d="
  M 93.77 122.51
  Q 90.39 140.88 87.07 158.88
  Q 85.53 167.25 83.76 170.21
  C 79.46 177.43 72.30 181.44 63.91 181.35
  Q 49.60 181.20 37.07 181.37
  A 0.45 0.44 -85.6 0 1 36.63 180.85
  L 45.61 132.47
  Q 46.23 133.29 45.73 132.96
  L 45.70 133.58
  A 0.19 0.19 0.0 0 0 46.06 133.68
  Q 47.41 131.31 49.60 129.26
  Q 51.36 127.62 53.91 126.75
  C 56.73 125.79 59.44 124.40 62.47 124.06
  Q 77.98 122.29 93.77 122.51
  Z"
/>
</svg>
