<?xml version="1.0" encoding="UTF-8" standalone="no"?>
<!DOCTYPE svg PUBLIC "-//W3C//DTD SVG 1.1//EN" "http://www.w3.org/Graphics/SVG/1.1/DTD/svg11.dtd">
<svg xmlns="http://www.w3.org/2000/svg" version="1.1" viewBox="0.00 0.00 1448.00 1447.00">
<g stroke-width="2.00" fill="none" stroke-linecap="butt">
<path stroke="#ded9d9" stroke-opacity="0.592" vector-effect="non-scaling-stroke" d="
  M 0.52 651.57
  L 0.51 796.02"
/>
<path stroke="#cf1f25" stroke-opacity="0.592" vector-effect="non-scaling-stroke" d="
  M 0.51 796.02
  L 0.54 1445.59
  A 0.64 0.63 0.0 0 0 1.18 1446.22
  L 651.51 1446.26"
/>
<path stroke="#ded9d9" stroke-opacity="0.592" vector-effect="non-scaling-stroke" d="
  M 651.51 1446.26
  L 796.31 1446.27"
/>
<path stroke="#cf1f25" stroke-opacity="0.592" vector-effect="non-scaling-stroke" d="
  M 796.31 1446.27
  L 1446.73 1446.25
  A 0.76 0.76 0.0 0 0 1447.49 1445.49
  L 1447.53 796.03"
/>
<path stroke="#ded9d9" stroke-opacity="0.592" vector-effect="non-scaling-stroke" d="
  M 1447.53 796.03
  L 1447.49 651.56"
/>
<path stroke="#cf1f25" stroke-opacity="0.592" vector-effect="non-scaling-stroke" d="
  M 1447.49 651.56
  L 1447.48 1.76
  Q 1447.48 0.89 1446.61 0.89
  L 796.30 0.88"
/>
<path stroke="#ded9d9" stroke-opacity="0.592" vector-effect="non-scaling-stroke" d="
  M 796.30 0.88
  L 651.70 0.89"
/>
<path stroke="#cf1f25" stroke-opacity="0.592" vector-effect="non-scaling-stroke" d="
  M 651.70 0.89
  L 1.27 0.89
  A 0.72 0.72 0.0 0 0 0.55 1.61
  L 0.52 651.57"
/>
<path stroke="#f69195" vector-effect="non-scaling-stroke" d="
  M 651.70 0.89
  L 651.70 252.80
  Q 651.70 253.75 650.75 253.75
  L 254.23 253.75
  A 0.52 0.51 -90.0 0 0 253.72 254.27
  L 253.71 651.22
  A 0.34 0.33 -0.0 0 1 253.37 651.55
  L 0.52 651.57"
/>
<path stroke="#f69195" vector-effect="non-scaling-stroke" d="
  M 796.30 0.88
  L 796.29 252.84
  Q 796.29 253.75 797.20 253.75
  L 1194.00 253.75
  Q 1194.49 253.75 1194.49 254.25
  L 1194.49 651.23
  Q 1194.49 651.55 1194.81 651.55
  L 1447.49 651.56"
/>
<path stroke="#f69195" vector-effect="non-scaling-stroke" d="
  M 1447.53 796.03
  L 1194.98 796.05
  Q 1194.49 796.05 1194.49 796.54
  L 1194.49 1192.98
  Q 1194.49 1193.69 1193.77 1193.69
  L 796.55 1193.66
  A 0.25 0.24 -90.0 0 0 796.31 1193.91
  L 796.31 1446.27"
/>
<path stroke="#f69195" vector-effect="non-scaling-stroke" d="
  M 651.51 1446.26
  L 651.70 1194.20
  A 0.53 0.52 0.5 0 0 651.17 1193.67
  Q 455.93 1193.67 260.30 1193.71
  Q 257.18 1193.71 254.15 1193.49
  A 0.46 0.46 0.0 0 1 253.72 1193.03
  L 253.71 796.36
  A 0.33 0.33 0.0 0 0 253.38 796.03
  L 0.51 796.02"
/>
<path stroke="#80a6c7" vector-effect="non-scaling-stroke" d="
  M 941.22 507.21
  A 0.36 0.36 0.0 0 0 940.86 506.85
  L 507.36 506.85
  A 0.36 0.36 0.0 0 0 507.00 507.21
  L 507.00 940.39
  A 0.36 0.36 0.0 0 0 507.36 940.75
  L 940.86 940.75
  A 0.36 0.36 0.0 0 0 941.22 940.39
  L 941.22 507.21"
/>
</g>
<path fill="#2d0808" fill-opacity="0.184" d="
  M 0.00 0.00
  L 1448.00 0.00
  L 1448.00 1447.00
  L 0.00 1447.00
  L 0.00 0.00
  Z
  M 0.52 651.57
  L 0.51 796.02
  L 0.54 1445.59
  A 0.64 0.63 0.0 0 0 1.18 1446.22
  L 651.51 1446.26
  L 796.31 1446.27
  L 1446.73 1446.25
  A 0.76 0.76 0.0 0 0 1447.49 1445.49
  L 1447.53 796.03
  L 1447.49 651.56
  L 1447.48 1.76
  Q 1447.48 0.89 1446.61 0.89
  L 796.30 0.88
  L 651.70 0.89
  L 1.27 0.89
  A 0.72 0.72 0.0 0 0 0.55 1.61
  L 0.52 651.57
  Z"
/>
<path fill="#ed232a" d="
  M 651.70 0.89
  L 651.70 252.80
  Q 651.70 253.75 650.75 253.75
  L 254.23 253.75
  A 0.52 0.51 -90.0 0 0 253.72 254.27
  L 253.71 651.22
  A 0.34 0.33 -0.0 0 1 253.37 651.55
  L 0.52 651.57
  L 0.55 1.61
  A 0.72 0.72 0.0 0 1 1.27 0.89
  L 651.70 0.89
  Z"
/>
<path fill="#ffffff" d="
  M 651.70 0.89
  L 796.30 0.88
  L 796.29 252.84
  Q 796.29 253.75 797.20 253.75
  L 1194.00 253.75
  Q 1194.49 253.75 1194.49 254.25
  L 1194.49 651.23
  Q 1194.49 651.55 1194.81 651.55
  L 1447.49 651.56
  L 1447.53 796.03
  L 1194.98 796.05
  Q 1194.49 796.05 1194.49 796.54
  L 1194.49 1192.98
  Q 1194.49 1193.69 1193.77 1193.69
  L 796.55 1193.66
  A 0.25 0.24 -90.0 0 0 796.31 1193.91
  L 796.31 1446.27
  L 651.51 1446.26
  L 651.70 1194.20
  A 0.53 0.52 0.5 0 0 651.17 1193.67
  Q 455.93 1193.67 260.30 1193.71
  Q 257.18 1193.71 254.15 1193.49
  A 0.46 0.46 0.0 0 1 253.72 1193.03
  L 253.71 796.36
  A 0.33 0.33 0.0 0 0 253.38 796.03
  L 0.51 796.02
  L 0.52 651.57
  L 253.37 651.55
  A 0.34 0.33 -0.0 0 0 253.71 651.22
  L 253.72 254.27
  A 0.52 0.51 90.0 0 1 254.23 253.75
  L 650.75 253.75
  Q 651.70 253.75 651.70 252.80
  L 651.70 0.89
  Z
  M 941.22 507.21
  A 0.36 0.36 0.0 0 0 940.86 506.85
  L 507.36 506.85
  A 0.36 0.36 0.0 0 0 507.00 507.21
  L 507.00 940.39
  A 0.36 0.36 0.0 0 0 507.36 940.75
  L 940.86 940.75
  A 0.36 0.36 0.0 0 0 941.22 940.39
  L 941.22 507.21
  Z"
/>
<path fill="#ed232a" d="
  M 796.30 0.88
  L 1446.61 0.89
  Q 1447.48 0.89 1447.48 1.76
  L 1447.49 651.56
  L 1194.81 651.55
  Q 1194.49 651.55 1194.49 651.23
  L 1194.49 254.25
  Q 1194.49 253.75 1194.00 253.75
  L 797.20 253.75
  Q 796.29 253.75 796.29 252.84
  L 796.30 0.88
  Z"
/>
<rect fill="#004c8f" x="507.00" y="506.85" width="434.22" height="433.90" rx="0.36"/>
<path fill="#ed232a" d="
  M 0.51 796.02
  L 253.38 796.03
  A 0.33 0.33 0.0 0 1 253.71 796.36
  L 253.72 1193.03
  A 0.46 0.46 0.0 0 0 254.15 1193.49
  Q 257.18 1193.71 260.30 1193.71
  Q 455.93 1193.67 651.17 1193.67
  A 0.53 0.52 0.5 0 1 651.70 1194.20
  L 651.51 1446.26
  L 1.18 1446.22
  A 0.64 0.63 -0.0 0 1 0.54 1445.59
  L 0.51 796.02
  Z"
/>
<path fill="#ed232a" d="
  M 1447.53 796.03
  L 1447.49 1445.49
  A 0.76 0.76 0.0 0 1 1446.73 1446.25
  L 796.31 1446.27
  L 796.31 1193.91
  A 0.25 0.24 -90.0 0 1 796.55 1193.66
  L 1193.77 1193.69
  Q 1194.49 1193.69 1194.49 1192.98
  L 1194.49 796.54
  Q 1194.49 796.05 1194.98 796.05
  L 1447.53 796.03
  Z"
/>
</svg>
