<?xml version="1.0" encoding="UTF-8" standalone="no"?>
<!DOCTYPE svg PUBLIC "-//W3C//DTD SVG 1.1//EN" "http://www.w3.org/Graphics/SVG/1.1/DTD/svg11.dtd">
<svg xmlns="http://www.w3.org/2000/svg" version="1.1" viewBox="0.00 0.00 1388.00 1505.00">
<g stroke-width="2.00" fill="none" stroke-linecap="butt">
<path stroke="#cf4628" vector-effect="non-scaling-stroke" d="
  M 1060.46 1.17
  Q 1039.20 1.59 1017.93 1.74
  C 1016.63 1.75 1015.55 2.27 1014.25 2.33
  Q 1002.71 2.83 992.38 3.95
  Q 989.01 4.31 985.81 4.62
  Q 982.77 4.91 979.23 5.38
  Q 967.86 6.90 957.01 8.55
  Q 940.55 11.06 916.27 16.35
  Q 907.08 18.36 896.84 21.04
  Q 876.60 26.33 862.78 30.64
  C 853.06 33.68 842.96 36.77 833.20 40.28
  Q 784.34 57.85 742.79 77.50
  Q 698.39 98.50 647.59 128.46
  Q 628.84 139.52 619.84 146.12
  Q 592.01 166.52 562.48 191.59
  Q 542.26 208.75 513.97 234.99
  Q 506.52 241.89 499.67 248.81
  Q 444.88 304.13 396.52 365.68
  Q 330.12 450.19 279.52 543.63
  Q 255.99 587.09 235.89 633.84
  C 211.37 690.87 191.91 750.32 179.72 810.90
  Q 169.86 859.94 167.50 906.53
  C 166.52 925.74 166.80 945.31 167.81 964.28
  C 170.77 1019.78 184.25 1075.37 210.86 1123.45
  C 225.66 1150.19 245.20 1174.28 267.92 1193.89
  Q 280.78 1205.00 286.24 1208.92
  Q 312.27 1227.61 338.58 1239.08
  Q 371.68 1253.51 407.47 1260.39
  C 436.75 1266.02 464.48 1267.54 494.93 1267.18"
/>
<path stroke="#f8b190" vector-effect="non-scaling-stroke" d="
  M 494.93 1267.18
  Q 482.83 1298.86 471.29 1325.03
  Q 457.79 1355.64 439.82 1387.26
  Q 422.83 1417.17 402.58 1441.89
  C 388.97 1458.50 373.46 1473.14 355.17 1484.14
  Q 331.60 1498.33 304.05 1498.69"
/>
<path stroke="#cf4628" vector-effect="non-scaling-stroke" d="
  M 1334.38 154.51
  Q 1346.67 178.35 1355.10 199.89
  C 1369.26 236.06 1378.21 276.27 1382.30 315.02
  Q 1389.13 379.80 1383.15 445.71
  Q 1383.12 446.08 1383.25 446.26
  Q 1383.43 446.51 1383.79 446.53"
/>
<path stroke="#cf4628" vector-effect="non-scaling-stroke" d="
  M 1381.75 460.35
  Q 1358.71 545.48 1320.42 624.86
  C 1277.51 713.80 1222.68 796.86 1159.10 873.06
  Q 1113.02 928.29 1058.21 981.95
  Q 990.28 1048.45 912.78 1104.28
  Q 865.18 1138.57 808.24 1170.68
  C 787.49 1182.38 765.91 1192.91 744.37 1203.06
  Q 728.19 1210.69 711.31 1217.29"
/>
<path stroke="#d79497" vector-effect="non-scaling-stroke" d="
  M 711.31 1217.29
  C 713.75 1184.77 718.91 1151.80 725.10 1120.50
  Q 737.18 1059.32 753.32 998.99
  C 790.83 858.80 838.55 720.03 888.54 582.39
  C 891.19 575.07 893.36 567.19 894.93 559.51
  C 900.01 534.71 894.69 510.23 875.61 492.86
  C 856.09 475.08 829.01 468.29 802.35 467.01
  Q 774.67 465.67 745.07 472.93
  C 738.67 474.50 732.45 476.95 726.44 479.72
  Q 695.14 494.13 665.12 512.66
  Q 627.90 535.63 599.62 555.15
  C 551.97 588.03 505.72 622.61 461.04 659.59
  Q 432.91 682.88 408.03 707.82
  Q 392.09 723.79 381.18 742.02
  C 373.56 754.75 363.08 779.57 384.03 786.51
  C 386.32 787.27 388.63 787.39 391.03 787.73
  Q 393.70 788.11 396.40 787.81
  Q 408.75 786.45 418.05 781.76
  Q 425.14 778.18 432.97 773.86
  Q 456.09 761.10 482.18 752.33
  C 500.93 746.04 520.19 742.54 539.38 744.20
  Q 553.91 745.45 566.19 752.31
  C 574.49 756.95 583.39 765.01 586.71 774.11
  C 590.21 783.70 591.70 793.95 592.46 803.81
  C 594.44 829.53 593.11 857.01 590.43 882.75
  Q 584.44 940.15 572.77 996.50
  C 569.35 1013.01 566.25 1028.93 562.22 1044.95
  C 551.19 1088.90 539.60 1132.67 526.32 1176.00
  Q 512.12 1222.35 494.93 1267.18"
/>
<path stroke="#d79497" vector-effect="non-scaling-stroke" d="
  M 799.81 229.40
  C 782.52 255.13 768.99 283.91 764.48 314.20
  Q 761.84 331.97 764.94 348.69
  Q 768.95 370.28 784.19 385.29
  C 802.75 403.57 830.99 405.40 855.18 401.08
  Q 882.85 396.14 908.14 383.60
  C 942.57 366.55 973.35 343.23 997.65 314.24
  C 1025.55 280.97 1048.66 240.71 1053.62 197.83
  Q 1055.31 183.20 1052.84 169.84
  Q 1050.42 156.75 1042.19 145.13
  Q 1025.38 121.39 996.60 116.80
  Q 983.10 114.64 970.70 115.99
  Q 958.82 117.28 955.11 118.13
  Q 939.09 121.82 928.48 125.68
  Q 899.25 136.30 871.21 155.99
  Q 850.30 170.67 835.27 185.84
  Q 816.05 205.24 799.81 229.40"
/>
<path stroke="#f8b190" vector-effect="non-scaling-stroke" d="
  M 791.72 1342.36
  Q 774.60 1347.64 761.76 1347.61
  Q 745.97 1347.57 733.73 1337.12
  C 723.76 1328.61 717.65 1313.85 714.73 1300.94
  Q 712.03 1289.03 711.26 1281.00
  Q 708.28 1250.24 711.31 1217.29"
/>
</g>
<path fill="#f06321" d="
  M 1060.46 1.17
  Q 1039.20 1.59 1017.93 1.74
  C 1016.63 1.75 1015.55 2.27 1014.25 2.33
  Q 1002.71 2.83 992.38 3.95
  Q 989.01 4.31 985.81 4.62
  Q 982.77 4.91 979.23 5.38
  Q 967.86 6.90 957.01 8.55
  Q 940.55 11.06 916.27 16.35
  Q 907.08 18.36 896.84 21.04
  Q 876.60 26.33 862.78 30.64
  C 853.06 33.68 842.96 36.77 833.20 40.28
  Q 784.34 57.85 742.79 77.50
  Q 698.39 98.50 647.59 128.46
  Q 628.84 139.52 619.84 146.12
  Q 592.01 166.52 562.48 191.59
  Q 542.26 208.75 513.97 234.99
  Q 506.52 241.89 499.67 248.81
  Q 444.88 304.13 396.52 365.68
  Q 330.12 450.19 279.52 543.63
  Q 255.99 587.09 235.89 633.84
  C 211.37 690.87 191.91 750.32 179.72 810.90
  Q 169.86 859.94 167.50 906.53
  C 166.52 925.74 166.80 945.31 167.81 964.28
  C 170.77 1019.78 184.25 1075.37 210.86 1123.45
  C 225.66 1150.19 245.20 1174.28 267.92 1193.89
  Q 280.78 1205.00 286.24 1208.92
  Q 312.27 1227.61 338.58 1239.08
  Q 371.68 1253.51 407.47 1260.39
  C 436.75 1266.02 464.48 1267.54 494.93 1267.18
  Q 482.83 1298.86 471.29 1325.03
  Q 457.79 1355.64 439.82 1387.26
  Q 422.83 1417.17 402.58 1441.89
  C 388.97 1458.50 373.46 1473.14 355.17 1484.14
  Q 331.60 1498.33 304.05 1498.69
  Q 253.24 1493.98 208.14 1476.84
  Q 120.13 1443.38 65.27 1365.58
  Q 59.78 1357.80 54.02 1347.85
  Q 33.62 1312.63 21.56 1273.67
  C 8.21 1230.50 1.80 1185.36 1.06 1140.25
  C 0.81 1125.30 0.68 1110.03 1.48 1095.02
  C 3.93 1049.14 10.95 1002.80 21.57 957.57
  Q 43.13 865.73 83.81 772.98
  C 131.00 665.35 192.70 564.31 265.06 471.87
  Q 359.83 350.81 474.71 252.18
  Q 510.95 221.07 552.10 190.79
  C 631.74 132.18 716.81 83.35 807.69 48.24
  C 857.02 29.19 910.27 14.58 963.12 6.65
  Q 1011.59 -0.62 1060.46 1.17
  Z"
/>
<path fill="#ae282e" d="
  M 1060.46 1.17
  C 1111.89 2.97 1163.48 14.30 1209.53 37.11
  C 1243.69 54.04 1274.87 77.64 1300.05 106.58
  Q 1311.05 119.21 1319.35 130.65
  Q 1326.81 140.91 1334.38 154.51
  Q 1346.67 178.35 1355.10 199.89
  C 1369.26 236.06 1378.21 276.27 1382.30 315.02
  Q 1389.13 379.80 1383.15 445.71
  Q 1383.12 446.08 1383.25 446.26
  Q 1383.43 446.51 1383.79 446.53
  L 1381.75 460.35
  Q 1358.71 545.48 1320.42 624.86
  C 1277.51 713.80 1222.68 796.86 1159.10 873.06
  Q 1113.02 928.29 1058.21 981.95
  Q 990.28 1048.45 912.78 1104.28
  Q 865.18 1138.57 808.24 1170.68
  C 787.49 1182.38 765.91 1192.91 744.37 1203.06
  Q 728.19 1210.69 711.31 1217.29
  C 713.75 1184.77 718.91 1151.80 725.10 1120.50
  Q 737.18 1059.32 753.32 998.99
  C 790.83 858.80 838.55 720.03 888.54 582.39
  C 891.19 575.07 893.36 567.19 894.93 559.51
  C 900.01 534.71 894.69 510.23 875.61 492.86
  C 856.09 475.08 829.01 468.29 802.35 467.01
  Q 774.67 465.67 745.07 472.93
  C 738.67 474.50 732.45 476.95 726.44 479.72
  Q 695.14 494.13 665.12 512.66
  Q 627.90 535.63 599.62 555.15
  C 551.97 588.03 505.72 622.61 461.04 659.59
  Q 432.91 682.88 408.03 707.82
  Q 392.09 723.79 381.18 742.02
  C 373.56 754.75 363.08 779.57 384.03 786.51
  C 386.32 787.27 388.63 787.39 391.03 787.73
  Q 393.70 788.11 396.40 787.81
  Q 408.75 786.45 418.05 781.76
  Q 425.14 778.18 432.97 773.86
  Q 456.09 761.10 482.18 752.33
  C 500.93 746.04 520.19 742.54 539.38 744.20
  Q 553.91 745.45 566.19 752.31
  C 574.49 756.95 583.39 765.01 586.71 774.11
  C 590.21 783.70 591.70 793.95 592.46 803.81
  C 594.44 829.53 593.11 857.01 590.43 882.75
  Q 584.44 940.15 572.77 996.50
  C 569.35 1013.01 566.25 1028.93 562.22 1044.95
  C 551.19 1088.90 539.60 1132.67 526.32 1176.00
  Q 512.12 1222.35 494.93 1267.18
  C 464.48 1267.54 436.75 1266.02 407.47 1260.39
  Q 371.68 1253.51 338.58 1239.08
  Q 312.27 1227.61 286.24 1208.92
  Q 280.78 1205.00 267.92 1193.89
  C 245.20 1174.28 225.66 1150.19 210.86 1123.45
  C 184.25 1075.37 170.77 1019.78 167.81 964.28
  C 166.80 945.31 166.52 925.74 167.50 906.53
  Q 169.86 859.94 179.72 810.90
  C 191.91 750.32 211.37 690.87 235.89 633.84
  Q 255.99 587.09 279.52 543.63
  Q 330.12 450.19 396.52 365.68
  Q 444.88 304.13 499.67 248.81
  Q 506.52 241.89 513.97 234.99
  Q 542.26 208.75 562.48 191.59
  Q 592.01 166.52 619.84 146.12
  Q 628.84 139.52 647.59 128.46
  Q 698.39 98.50 742.79 77.50
  Q 784.34 57.85 833.20 40.28
  C 842.96 36.77 853.06 33.68 862.78 30.64
  Q 876.60 26.33 896.84 21.04
  Q 907.08 18.36 916.27 16.35
  Q 940.55 11.06 957.01 8.55
  Q 967.86 6.90 979.23 5.38
  Q 982.77 4.91 985.81 4.62
  Q 989.01 4.31 992.38 3.95
  Q 1002.71 2.83 1014.25 2.33
  C 1015.55 2.27 1016.63 1.75 1017.93 1.74
  Q 1039.20 1.59 1060.46 1.17
  Z
  M 799.81 229.40
  C 782.52 255.13 768.99 283.91 764.48 314.20
  Q 761.84 331.97 764.94 348.69
  Q 768.95 370.28 784.19 385.29
  C 802.75 403.57 830.99 405.40 855.18 401.08
  Q 882.85 396.14 908.14 383.60
  C 942.57 366.55 973.35 343.23 997.65 314.24
  C 1025.55 280.97 1048.66 240.71 1053.62 197.83
  Q 1055.31 183.20 1052.84 169.84
  Q 1050.42 156.75 1042.19 145.13
  Q 1025.38 121.39 996.60 116.80
  Q 983.10 114.64 970.70 115.99
  Q 958.82 117.28 955.11 118.13
  Q 939.09 121.82 928.48 125.68
  Q 899.25 136.30 871.21 155.99
  Q 850.30 170.67 835.27 185.84
  Q 816.05 205.24 799.81 229.40
  Z"
/>
<path fill="#ffffff" d="
  M 764.48 314.20
  C 768.99 283.91 782.52 255.13 799.81 229.40
  Q 816.05 205.24 835.27 185.84
  Q 850.30 170.67 871.21 155.99
  Q 899.25 136.30 928.48 125.68
  Q 939.09 121.82 955.11 118.13
  Q 958.82 117.28 970.70 115.99
  Q 983.10 114.64 996.60 116.80
  Q 1025.38 121.39 1042.19 145.13
  Q 1050.42 156.75 1052.84 169.84
  Q 1055.31 183.20 1053.62 197.83
  C 1048.66 240.71 1025.55 280.97 997.65 314.24
  C 973.35 343.23 942.57 366.55 908.14 383.60
  Q 882.85 396.14 855.18 401.08
  C 830.99 405.40 802.75 403.57 784.19 385.29
  Q 768.95 370.28 764.94 348.69
  Q 761.84 331.97 764.48 314.20
  Z"
/>
<path fill="#f06321" d="
  M 1334.38 154.51
  Q 1349.92 180.19 1360.50 209.01
  C 1376.31 252.09 1384.65 296.92 1386.86 342.51
  Q 1387.47 355.18 1388.00 367.88
  L 1388.00 381.25
  Q 1387.26 414.03 1383.79 446.53
  Q 1383.43 446.51 1383.25 446.26
  Q 1383.12 446.08 1383.15 445.71
  Q 1389.13 379.80 1382.30 315.02
  C 1378.21 276.27 1369.26 236.06 1355.10 199.89
  Q 1346.67 178.35 1334.38 154.51
  Z"
/>
<path fill="#f06321" d="
  M 1381.75 460.35
  Q 1381.88 462.98 1381.17 467.75
  Q 1375.18 507.93 1367.20 542.09
  Q 1349.17 619.20 1319.53 692.78
  C 1290.17 765.66 1254.36 835.39 1212.89 901.57
  Q 1137.91 1021.26 1041.21 1125.78
  C 1007.80 1161.90 970.38 1199.32 932.05 1233.30
  Q 919.14 1244.74 893.95 1265.69
  Q 844.40 1306.89 791.72 1342.36
  Q 774.60 1347.64 761.76 1347.61
  Q 745.97 1347.57 733.73 1337.12
  C 723.76 1328.61 717.65 1313.85 714.73 1300.94
  Q 712.03 1289.03 711.26 1281.00
  Q 708.28 1250.24 711.31 1217.29
  Q 728.19 1210.69 744.37 1203.06
  C 765.91 1192.91 787.49 1182.38 808.24 1170.68
  Q 865.18 1138.57 912.78 1104.28
  Q 990.28 1048.45 1058.21 981.95
  Q 1113.02 928.29 1159.10 873.06
  C 1222.68 796.86 1277.51 713.80 1320.42 624.86
  Q 1358.71 545.48 1381.75 460.35
  Z"
/>
<path fill="#ffffff" d="
  M 711.31 1217.29
  Q 708.28 1250.24 711.26 1281.00
  Q 712.03 1289.03 714.73 1300.94
  C 717.65 1313.85 723.76 1328.61 733.73 1337.12
  Q 745.97 1347.57 761.76 1347.61
  Q 774.60 1347.64 791.72 1342.36
  Q 777.92 1352.13 764.89 1361.37
  Q 726.59 1388.52 685.99 1411.89
  Q 636.77 1440.23 584.19 1461.36
  Q 521.72 1486.47 456.51 1497.24
  Q 414.78 1504.13 375.50 1503.92
  Q 341.17 1503.74 304.05 1498.69
  Q 331.60 1498.33 355.17 1484.14
  C 373.46 1473.14 388.97 1458.50 402.58 1441.89
  Q 422.83 1417.17 439.82 1387.26
  Q 457.79 1355.64 471.29 1325.03
  Q 482.83 1298.86 494.93 1267.18
  Q 512.12 1222.35 526.32 1176.00
  C 539.60 1132.67 551.19 1088.90 562.22 1044.95
  C 566.25 1028.93 569.35 1013.01 572.77 996.50
  Q 584.44 940.15 590.43 882.75
  C 593.11 857.01 594.44 829.53 592.46 803.81
  C 591.70 793.95 590.21 783.70 586.71 774.11
  C 583.39 765.01 574.49 756.95 566.19 752.31
  Q 553.91 745.45 539.38 744.20
  C 520.19 742.54 500.93 746.04 482.18 752.33
  Q 456.09 761.10 432.97 773.86
  Q 425.14 778.18 418.05 781.76
  Q 408.75 786.45 396.40 787.81
  Q 393.70 788.11 391.03 787.73
  C 388.63 787.39 386.32 787.27 384.03 786.51
  C 363.08 779.57 373.56 754.75 381.18 742.02
  Q 392.09 723.79 408.03 707.82
  Q 432.91 682.88 461.04 659.59
  C 505.72 622.61 551.97 588.03 599.62 555.15
  Q 627.90 535.63 665.12 512.66
  Q 695.14 494.13 726.44 479.72
  C 732.45 476.95 738.67 474.50 745.07 472.93
  Q 774.67 465.67 802.35 467.01
  C 829.01 468.29 856.09 475.08 875.61 492.86
  C 894.69 510.23 900.01 534.71 894.93 559.51
  C 893.36 567.19 891.19 575.07 888.54 582.39
  C 838.55 720.03 790.83 858.80 753.32 998.99
  Q 737.18 1059.32 725.10 1120.50
  C 718.91 1151.80 713.75 1184.77 711.31 1217.29
  Z"
/>
</svg>
