<?xml version="1.0" encoding="UTF-8" standalone="no"?>
<!DOCTYPE svg PUBLIC "-//W3C//DTD SVG 1.1//EN" "http://www.w3.org/Graphics/SVG/1.1/DTD/svg11.dtd">
<svg xmlns="http://www.w3.org/2000/svg" version="1.1" viewBox="0.00 0.00 325.00 285.00">
<g stroke-width="2.00" fill="none" stroke-linecap="butt">
<path stroke="#fad89a" vector-effect="non-scaling-stroke" d="
  M 276.50 95.33
  L 276.54 94.79
  Q 276.56 94.39 276.36 94.04
  L 226.34 8.27"
/>
<path stroke="#fad89a" vector-effect="non-scaling-stroke" d="
  M 245.37 108.68
  L 221.18 119.21
  A 0.04 0.03 -63.4 0 0 221.20 119.28
  Q 221.60 119.15 222.00 119.00
  C 244.43 110.25 269.32 112.78 289.17 126.24
  C 307.01 138.33 318.08 158.33 319.22 179.50
  Q 320.41 201.35 309.69 223.33"
/>
<path stroke="#fad89a" vector-effect="non-scaling-stroke" d="
  M 283.92 258.28
  L 277.36 264.91
  Q 277.01 265.27 277.36 265.63
  L 294.82 284.06"
/>
<path stroke="#fad89a" vector-effect="non-scaling-stroke" d="
  M 192.77 227.28
  L 193.71 187.68
  A 0.52 0.52 0.0 0 1 194.59 187.32
  L 216.28 208.41
  Q 216.67 208.79 217.08 208.44
  Q 221.82 204.38 224.50 198.69"
/>
<path stroke="#fad89a" vector-effect="non-scaling-stroke" d="
  M 179.73 160.78
  L 176.03 162.64"
/>
<path stroke="#fad89a" vector-effect="non-scaling-stroke" d="
  M 175.15 170.61
  C 182.34 181.11 187.76 191.52 190.71 203.99
  Q 193.62 216.23 191.16 230.50"
/>
<path stroke="#fad89a" vector-effect="non-scaling-stroke" d="
  M 51.63 116.08
  L 101.90 146.94
  Q 103.76 148.08 102.02 146.75
  Q 90.17 137.67 82.77 123.50"
/>
<path stroke="#fad89a" vector-effect="non-scaling-stroke" d="
  M 93.34 47.33
  Q 98.71 41.86 100.29 40.54
  C 133.41 12.85 179.22 16.77 217.54 30.45
  Q 218.00 30.62 218.18 30.16
  L 221.25 22.11"
/>
<path stroke="#fad89a" vector-effect="non-scaling-stroke" d="
  M 154.20 112.39
  Q 147.25 118.75 146.73 127.51
  C 146.10 138.24 150.26 146.46 157.00 154.68
  Q 158.35 156.31 159.86 157.67"
/>
<path stroke="#fad89a" vector-effect="non-scaling-stroke" d="
  M 174.87 158.29
  Q 175.22 157.45 175.47 157.51"
/>
<path stroke="#fad89a" vector-effect="non-scaling-stroke" d="
  M 195.26 135.06
  Q 203.12 128.94 209.26 125.24
  Q 210.98 124.20 216.70 121.22
  Q 216.92 121.10 216.67 121.11
  Q 216.52 121.11 216.39 121.17
  Q 211.00 123.62 205.77 125.92"
/>
<path stroke="#fad89a" vector-effect="non-scaling-stroke" d="
  M 120.92 178.02
  L 113.10 179.67
  A 0.49 0.49 0.0 0 0 112.72 180.26
  C 116.52 197.59 130.80 210.54 149.02 203.80
  Q 156.99 200.85 162.62 192.34"
/>
<path stroke="#fad89a" vector-effect="non-scaling-stroke" d="
  M 152.18 165.60
  Q 152.16 165.37 152.01 165.36
  Q 133.64 163.75 117.18 156.07
  Q 115.74 155.40 117.09 156.23
  Q 129.96 164.20 142.47 171.79
  Q 143.34 172.31 144.51 172.35"
/>
</g>
<path fill="#ffffff" d="
  M 276.50 95.33
  L 276.54 94.79
  Q 276.56 94.39 276.36 94.04
  L 226.34 8.27
  L 233.35 0.74
  Q 233.72 0.35 233.99 0.81
  L 284.43 86.06
  Q 284.99 87.01 284.23 87.79
  Q 280.93 91.20 278.02 94.36
  C 277.59 94.83 277.04 95.02 276.50 95.33
  Z"
/>
<path fill="#f4b035" d="
  M 226.34 8.27
  L 276.36 94.04
  Q 276.56 94.39 276.54 94.79
  L 276.50 95.33
  L 245.37 108.68
  L 221.18 119.21
  A 0.04 0.03 -63.4 0 0 221.20 119.28
  Q 221.60 119.15 222.00 119.00
  C 244.43 110.25 269.32 112.78 289.17 126.24
  C 307.01 138.33 318.08 158.33 319.22 179.50
  Q 320.41 201.35 309.69 223.33
  Q 299.41 242.62 283.92 258.28
  L 277.36 264.91
  Q 277.01 265.27 277.36 265.63
  L 294.82 284.06
  L 191.99 284.65
  A 0.53 0.53 0.0 0 1 191.46 284.11
  L 192.77 227.28
  L 193.71 187.68
  A 0.52 0.52 0.0 0 1 194.59 187.32
  L 216.28 208.41
  Q 216.67 208.79 217.08 208.44
  Q 221.82 204.38 224.50 198.69
  Q 226.99 194.78 227.67 191.37
  Q 230.92 175.07 218.68 164.32
  Q 210.70 157.32 200.00 156.76
  Q 189.31 156.21 179.73 160.78
  L 176.03 162.64
  L 171.60 165.39
  Q 171.16 165.66 171.49 166.07
  L 175.15 170.61
  C 182.34 181.11 187.76 191.52 190.71 203.99
  Q 193.62 216.23 191.16 230.50
  C 186.40 252.13 170.95 269.04 151.19 277.42
  C 125.29 288.41 96.55 285.69 73.50 269.26
  C 50.09 252.56 37.00 225.57 30.36 197.57
  Q 30.22 197.00 29.64 197.09
  L 0.00 202.01
  L 0.00 201.21
  Q 0.05 201.21 0.11 201.22
  Q 0.22 201.23 0.27 201.14
  Q 26.19 158.42 51.63 116.08
  L 101.90 146.94
  Q 103.76 148.08 102.02 146.75
  Q 90.17 137.67 82.77 123.50
  C 70.69 97.06 74.97 69.52 93.34 47.33
  Q 98.71 41.86 100.29 40.54
  C 133.41 12.85 179.22 16.77 217.54 30.45
  Q 218.00 30.62 218.18 30.16
  L 221.25 22.11
  L 226.34 8.27
  Z
  M 154.20 112.39
  Q 147.25 118.75 146.73 127.51
  C 146.10 138.24 150.26 146.46 157.00 154.68
  Q 158.35 156.31 159.86 157.67
  L 169.15 165.15
  A 0.91 0.90 -53.8 0 0 170.47 164.94
  L 174.87 158.29
  Q 175.22 157.45 175.47 157.51
  Q 184.22 144.96 195.26 135.06
  Q 203.12 128.94 209.26 125.24
  Q 210.98 124.20 216.70 121.22
  Q 216.92 121.10 216.67 121.11
  Q 216.52 121.11 216.39 121.17
  Q 211.00 123.62 205.77 125.92
  L 176.72 138.51
  Q 175.83 138.90 176.18 137.99
  L 187.43 109.18
  Q 187.65 108.64 187.10 108.43
  Q 175.85 104.13 164.54 106.58
  Q 158.61 107.87 154.20 112.39
  Z
  M 144.51 172.35
  L 143.97 172.97
  Q 143.65 173.33 143.18 173.43
  L 120.92 178.02
  L 113.10 179.67
  A 0.49 0.49 0.0 0 0 112.72 180.26
  C 116.52 197.59 130.80 210.54 149.02 203.80
  Q 156.99 200.85 162.62 192.34
  Q 164.47 189.91 165.79 187.06
  Q 170.18 177.66 170.56 167.24
  Q 170.57 166.99 170.64 166.74
  Q 170.70 166.55 170.80 166.39
  Q 171.15 165.81 170.48 165.80
  L 152.18 165.60
  Q 152.16 165.37 152.01 165.36
  Q 133.64 163.75 117.18 156.07
  Q 115.74 155.40 117.09 156.23
  Q 129.96 164.20 142.47 171.79
  Q 143.34 172.31 144.51 172.35
  Z"
/>
<path fill="#ffffff" d="
  M 221.25 22.11
  L 218.18 30.16
  Q 218.00 30.62 217.54 30.45
  C 179.22 16.77 133.41 12.85 100.29 40.54
  Q 98.71 41.86 93.34 47.33
  C 111.44 19.61 145.03 9.78 176.64 12.40
  Q 199.46 14.29 221.25 22.11
  Z"
/>
<path fill="#ffffff" d="
  M 325.00 168.90
  L 325.00 180.96
  Q 322.44 203.95 309.69 223.33
  Q 320.41 201.35 319.22 179.50
  C 318.08 158.33 307.01 138.33 289.17 126.24
  C 269.32 112.78 244.43 110.25 222.00 119.00
  Q 221.60 119.15 221.20 119.28
  A 0.04 0.03 -63.4 0 1 221.18 119.21
  L 245.37 108.68
  Q 271.35 104.72 292.41 117.09
  Q 321.34 134.09 325.00 168.90
  Z"
/>
<path fill="#ffffff" d="
  M 82.77 123.50
  Q 90.17 137.67 102.02 146.75
  Q 103.76 148.08 101.90 146.94
  L 51.63 116.08
  L 58.16 109.23
  Q 58.40 108.98 58.70 109.16
  L 82.77 123.50
  Z"
/>
<path fill="#ffffff" d="
  M 154.20 112.39
  Q 150.82 122.72 154.33 132.47
  C 158.12 143.00 166.11 151.35 175.47 157.51
  Q 175.22 157.45 174.87 158.29
  L 159.86 157.67
  Q 158.35 156.31 157.00 154.68
  C 150.26 146.46 146.10 138.24 146.73 127.51
  Q 147.25 118.75 154.20 112.39
  Z"
/>
<path fill="#ffffff" d="
  M 195.26 135.06
  L 205.77 125.92
  Q 211.00 123.62 216.39 121.17
  Q 216.52 121.11 216.67 121.11
  Q 216.92 121.10 216.70 121.22
  Q 210.98 124.20 209.26 125.24
  Q 203.12 128.94 195.26 135.06
  Z"
/>
<path fill="#ffffff" d="
  M 152.18 165.60
  L 144.51 172.35
  Q 143.34 172.31 142.47 171.79
  Q 129.96 164.20 117.09 156.23
  Q 115.74 155.40 117.18 156.07
  Q 133.64 163.75 152.01 165.36
  Q 152.16 165.37 152.18 165.60
  Z"
/>
<path fill="#ffffff" d="
  M 179.73 160.78
  Q 188.84 171.59 193.85 184.82
  Q 194.08 185.44 194.54 184.96
  L 199.97 179.16
  Q 200.44 178.66 200.93 179.14
  L 222.13 199.73
  Q 222.51 200.10 222.95 199.79
  L 224.50 198.69
  Q 221.82 204.38 217.08 208.44
  Q 216.67 208.79 216.28 208.41
  L 194.59 187.32
  A 0.52 0.52 0.0 0 0 193.71 187.68
  L 192.77 227.28
  Q 192.27 229.25 191.16 230.50
  Q 193.62 216.23 190.71 203.99
  C 187.76 191.52 182.34 181.11 175.15 170.61
  L 176.03 162.64
  L 179.73 160.78
  Z"
/>
<path fill="#ffffff" d="
  M 120.92 178.02
  Q 123.90 189.00 132.95 194.07
  Q 147.84 202.41 162.62 192.34
  Q 156.99 200.85 149.02 203.80
  C 130.80 210.54 116.52 197.59 112.72 180.26
  A 0.49 0.49 0.0 0 1 113.10 179.67
  L 120.92 178.02
  Z"
/>
<path fill="#ffffff" d="
  M 283.92 258.28
  L 302.98 276.15
  Q 303.35 276.49 303.04 276.89
  Q 299.04 281.97 294.82 284.06
  L 277.36 265.63
  Q 277.01 265.27 277.36 264.91
  L 283.92 258.28
  Z"
/>
</svg>
