<?xml version="1.0" encoding="UTF-8" standalone="no"?>
<!DOCTYPE svg PUBLIC "-//W3C//DTD SVG 1.1//EN" "http://www.w3.org/Graphics/SVG/1.1/DTD/svg11.dtd">
<svg xmlns="http://www.w3.org/2000/svg" version="1.1" viewBox="0.00 0.00 256.00 256.00">
<g stroke-width="2.00" fill="none" stroke-linecap="butt">
<path stroke="#8a3134" vector-effect="non-scaling-stroke" d="
  M 256.00 56.15
  Q 252.91 53.35 247.56 47.44
  Q 243.40 42.83 232.65 32.42
  C 231.52 31.32 230.22 30.69 229.20 29.59
  Q 228.98 29.35 228.67 29.41
  Q 228.51 29.45 228.43 29.59
  Q 228.31 29.82 228.44 30.04
  L 231.85 35.80
  Q 232.10 36.22 232.08 36.71
  Q 232.06 37.51 232.38 38.23
  Q 233.50 40.74 234.71 43.24
  Q 235.75 45.40 236.32 48.68
  Q 236.67 50.68 237.52 52.95
  Q 238.23 54.86 238.54 57.13
  Q 238.89 59.75 239.23 62.30
  Q 239.24 62.34 239.73 64.67
  C 240.53 68.47 240.17 73.11 240.19 77.07
  Q 240.21 80.57 239.46 84.39
  Q 238.75 88.00 238.15 91.62
  Q 238.08 92.02 237.70 91.98
  Q 238.10 86.79 238.14 81.58
  Q 238.16 78.72 238.48 75.98
  Q 238.83 73.03 238.54 70.10
  C 238.25 67.17 238.62 64.22 238.10 61.29
  Q 237.74 59.26 237.48 57.26
  Q 237.26 55.59 236.62 54.16
  Q 236.41 53.69 236.39 53.19
  Q 236.30 50.90 235.32 49.02
  C 234.68 47.78 235.01 46.51 234.50 45.22
  Q 232.97 41.36 231.60 38.23
  C 231.18 37.28 231.59 36.53 231.11 35.57
  Q 228.90 31.14 228.19 34.25"
/>
<path stroke="#be9698" vector-effect="non-scaling-stroke" d="
  M 228.19 34.25
  C 225.66 28.79 223.40 22.98 219.05 18.78
  C 217.06 16.86 213.55 16.41 212.21 19.27
  C 210.62 22.70 211.67 27.80 212.56 31.65
  C 215.20 43.12 216.20 57.06 214.11 69.48"
/>
<path stroke="#8a3134" vector-effect="non-scaling-stroke" d="
  M 214.11 69.48
  Q 211.95 66.40 209.81 63.57
  Q 207.78 60.89 205.01 58.09
  Q 188.53 41.43 172.24 24.59
  Q 168.92 21.15 165.68 17.49
  Q 162.17 13.50 158.78 10.69
  Q 157.44 9.58 156.22 8.12
  Q 155.97 7.82 155.59 7.90
  Q 155.44 7.93 155.36 7.81
  Q 155.13 7.48 155.12 7.00
  Q 155.09 5.85 154.22 6.84"
/>
<path stroke="#be9698" vector-effect="non-scaling-stroke" d="
  M 154.22 6.84
  C 153.28 4.09 149.19 5.28 147.35 6.28
  C 116.76 22.89 108.62 60.42 111.36 92.99
  Q 111.53 94.97 110.20 93.49
  C 104.18 86.83 97.41 82.12 88.63 79.70
  Q 73.27 75.47 57.14 80.65
  Q 48.10 83.54 40.07 91.54
  C 27.62 103.93 27.10 122.10 35.06 137.39
  A 1.83 1.81 38.9 0 1 35.21 138.70
  C 32.45 149.09 8.59 152.83 0.00 153.58"
/>
<path stroke="#cb9a9c" vector-effect="non-scaling-stroke" d="
  M 154.22 6.84
  Q 154.10 9.97 152.36 12.87
  Q 147.31 21.29 142.49 29.76
  C 137.78 38.03 133.77 47.09 132.97 56.56
  Q 130.73 83.26 142.20 107.91
  Q 146.12 116.36 150.65 125.47
  A 0.54 0.54 0.0 0 1 150.03 126.23
  C 148.22 125.75 145.97 125.61 144.24 126.44
  Q 143.64 126.73 143.47 127.38
  C 141.96 132.99 139.89 137.92 133.57 139.05
  C 126.62 140.28 122.13 145.99 121.58 152.89
  Q 120.26 169.55 131.68 182.36
  Q 137.93 189.38 144.13 196.09
  C 146.18 198.31 148.63 201.71 147.29 204.72
  Q 143.14 214.07 147.75 221.01
  Q 153.36 229.45 173.05 255.72"
/>
<path stroke="#be9698" vector-effect="non-scaling-stroke" d="
  M 161.59 255.65
  Q 150.64 245.99 139.72 237.00
  Q 135.86 233.83 134.14 230.90
  Q 130.68 224.99 129.97 216.06
  Q 129.45 209.65 128.77 203.60
  A 0.93 0.93 0.0 0 0 127.29 202.96
  C 123.26 206.01 127.35 223.77 128.45 228.19
  C 129.93 234.07 134.04 239.02 138.27 243.47
  Q 143.86 249.35 149.53 255.70"
/>
<path stroke="#be9698" vector-effect="non-scaling-stroke" d="
  M 129.09 255.72
  Q 124.32 248.27 117.93 242.32
  Q 114.41 239.04 113.26 237.51
  C 104.65 226.04 104.44 209.79 106.95 196.47
  C 108.53 188.07 109.31 176.24 105.08 169.84
  A 1.58 1.57 -42.9 0 0 102.53 169.75
  Q 101.74 170.77 101.87 172.12
  Q 102.46 177.93 102.21 182.99
  Q 101.98 187.54 100.35 194.91
  C 98.74 202.17 98.11 210.18 96.94 217.82
  C 95.38 228.10 101.01 239.68 106.89 248.15
  Q 109.45 251.83 112.16 255.72"
/>
<path stroke="#be9698" vector-effect="non-scaling-stroke" d="
  M 86.35 255.72
  Q 87.65 249.74 90.03 244.23
  C 90.50 243.13 90.77 241.51 90.32 240.38
  A 2.32 2.32 0.0 0 0 86.54 239.59
  Q 85.26 240.84 84.61 242.58
  Q 82.21 248.97 80.01 255.72"
/>
<path stroke="#cb9a9c" vector-effect="non-scaling-stroke" d="
  M 60.43 255.73
  C 62.58 247.53 65.80 238.76 72.13 233.25
  C 73.95 231.65 74.84 229.77 75.49 227.52
  Q 81.20 207.71 70.13 192.88
  Q 63.88 184.51 55.66 181.48
  C 47.86 178.60 42.67 180.94 35.73 182.91
  Q 18.18 187.90 0.00 188.72"
/>
<path stroke="#cb9a9c" vector-effect="non-scaling-stroke" d="
  M 214.11 69.48
  Q 213.06 81.74 206.94 91.69
  Q 193.44 113.60 166.98 120.28
  Q 165.88 120.56 164.73 120.58
  Q 162.89 120.61 164.34 121.74
  C 171.01 126.92 178.39 132.57 183.54 138.57
  Q 189.81 145.87 193.37 157.32
  C 196.05 165.98 192.28 173.94 186.38 180.14
  Q 183.69 182.97 182.41 186.95
  Q 177.42 202.44 174.91 219.78
  A 2.13 2.13 0.0 0 1 172.25 221.53
  Q 168.13 220.43 166.45 224.13
  C 165.32 226.64 166.59 229.62 167.75 231.99
  Q 169.92 236.44 170.82 237.43
  Q 174.68 241.71 178.83 238.50"
/>
<path stroke="#8a3134" vector-effect="non-scaling-stroke" d="
  M 178.83 238.50
  Q 179.32 240.35 174.51 239.91
  C 174.26 239.88 173.84 240.03 173.65 240.19
  A 0.53 0.52 -64.7 0 0 173.98 241.12
  L 177.91 241.12
  A 3.15 3.13 10.6 0 0 180.84 239.13
  Q 181.67 236.99 182.84 234.72
  Q 183.96 232.57 184.50 230.15
  Q 185.88 223.96 186.18 217.77
  Q 186.19 217.61 186.28 217.74
  Q 186.32 217.79 186.38 217.78
  Q 186.72 217.76 186.79 217.46
  C 187.46 214.58 187.19 211.77 187.76 208.89
  Q 188.18 206.76 188.15 204.73
  Q 188.14 204.29 188.36 203.90
  Q 189.24 202.30 189.95 200.61
  Q 190.58 199.09 191.86 197.82
  Q 199.30 190.45 203.89 184.33
  Q 205.09 182.73 206.43 181.20
  Q 207.76 179.69 208.65 177.93
  Q 210.40 174.47 212.31 170.69
  A 1.29 1.27 56.4 0 0 212.44 170.01
  L 212.21 167.72
  Q 212.14 166.96 212.74 166.50
  Q 213.29 166.09 213.34 165.36
  C 213.49 163.34 213.52 160.40 212.41 158.70
  Q 211.58 157.42 211.89 155.80
  Q 211.94 155.54 211.76 155.35
  Q 210.62 154.17 210.83 152.28
  C 211.03 150.55 210.32 148.57 209.92 146.91
  Q 209.71 146.03 209.64 144.99
  Q 209.58 144.02 209.24 143.09
  Q 208.46 140.99 209.46 138.95
  Q 211.37 135.04 214.30 132.21
  Q 215.38 131.18 216.06 129.99
  Q 217.07 128.22 218.40 126.58
  Q 219.44 125.30 220.26 123.82
  Q 221.09 122.34 222.14 121.08
  Q 225.03 117.62 226.34 113.96
  Q 227.16 111.68 228.49 109.50
  Q 229.60 107.68 230.25 105.74
  A 0.91 0.90 84.7 0 1 230.66 105.24
  Q 231.27 104.90 231.13 104.25
  Q 231.02 103.73 231.36 103.32
  C 232.19 102.34 231.71 101.14 232.19 99.96
  Q 232.98 98.04 234.02 95.92
  A 5.11 4.87 64.9 0 0 234.46 94.61
  Q 235.39 89.60 236.70 83.78
  Q 237.84 78.71 237.37 76.74
  Q 236.75 74.14 235.74 74.92"
/>
<path stroke="#cb9a9c" vector-effect="non-scaling-stroke" d="
  M 235.74 74.92
  Q 236.42 53.75 228.19 34.25"
/>
<path stroke="#8a3134" vector-effect="non-scaling-stroke" d="
  M 237.70 91.98
  Q 235.37 97.06 234.38 100.50
  Q 234.28 100.84 233.99 101.06
  A 0.78 0.73 77.5 0 0 233.70 101.55
  Q 233.06 106.12 230.45 109.96
  Q 230.31 110.18 230.10 110.33
  Q 228.56 111.50 228.26 113.22
  Q 228.14 113.90 227.82 114.51
  Q 226.61 116.75 225.52 119.11
  Q 224.90 120.46 223.88 121.66
  Q 222.67 123.07 222.08 124.70
  Q 221.31 126.86 219.86 128.70
  Q 216.91 132.46 214.30 135.42
  Q 213.54 136.29 211.98 139.63
  Q 210.20 143.44 210.76 146.65
  Q 211.60 151.43 213.15 155.72
  Q 214.17 158.51 214.26 161.34
  Q 214.35 164.02 214.37 166.82
  Q 214.38 168.12 213.99 169.29
  Q 213.59 170.52 213.24 171.85
  Q 212.73 173.81 211.81 175.45
  Q 210.35 178.07 208.78 180.54
  C 207.62 182.37 206.04 183.77 204.85 185.55
  Q 203.55 187.50 201.83 189.17
  Q 197.87 193.01 194.11 197.35
  Q 191.28 200.62 190.11 204.94
  Q 188.67 210.26 188.18 215.63
  Q 187.79 219.88 186.92 223.77
  Q 186.90 223.83 186.93 223.87
  Q 187.00 223.99 187.08 224.09
  Q 187.12 224.14 187.10 224.20
  Q 186.21 227.18 185.80 230.13
  Q 185.65 231.24 185.20 232.19
  C 184.30 234.13 184.72 236.07 183.57 237.98
  Q 182.18 240.29 180.05 241.44
  Q 178.76 242.14 176.59 241.96
  Q 174.70 241.80 172.90 241.83
  Q 172.01 241.85 172.83 242.20
  Q 173.75 242.60 174.67 243.05
  Q 175.63 243.52 176.89 243.32
  Q 178.73 243.03 180.36 242.73
  Q 181.53 242.52 182.37 241.36
  Q 183.38 239.97 184.65 238.63
  Q 185.00 238.26 185.12 237.78
  Q 185.49 236.22 185.83 234.72
  Q 185.88 234.51 185.96 234.71
  Q 185.99 234.77 186.05 234.76
  Q 186.18 234.74 186.21 234.60
  Q 187.17 230.03 188.05 225.34
  Q 188.12 224.96 188.08 224.57
  Q 188.04 224.22 188.33 224.04
  Q 188.70 223.79 188.65 223.35
  Q 188.46 221.74 188.97 220.20
  Q 189.44 218.77 189.57 217.23
  Q 189.78 214.97 190.27 212.69
  Q 190.53 211.50 190.56 210.26
  Q 190.60 208.88 191.03 207.53
  Q 191.88 204.86 192.70 202.35
  Q 193.45 200.07 195.39 198.54
  C 196.29 197.83 196.73 196.83 197.66 196.11
  Q 198.07 195.79 198.12 195.29
  Q 198.16 194.85 198.60 194.74
  Q 198.98 194.64 199.27 194.38
  Q 203.35 190.72 206.41 186.92
  Q 206.76 186.49 206.89 185.95
  Q 207.02 185.41 207.47 185.13
  Q 207.89 184.87 208.18 184.48
  Q 210.41 181.45 211.95 178.58
  Q 212.49 177.56 213.32 176.77
  Q 214.38 175.75 214.57 174.27
  Q 214.73 173.01 215.09 171.75
  Q 216.57 166.51 216.05 161.34
  Q 215.92 159.94 215.32 158.70
  Q 214.65 157.32 214.33 155.74
  Q 213.91 153.64 213.20 151.71
  Q 210.84 145.34 213.18 139.46
  Q 214.21 136.88 216.81 134.14
  Q 219.55 131.25 221.10 128.67
  Q 222.84 125.76 224.92 123.04
  Q 225.93 121.72 226.54 120.23
  Q 227.15 118.74 228.02 117.50
  Q 229.44 115.46 230.32 113.12
  Q 231.23 110.70 232.84 108.45
  Q 233.14 108.03 233.20 107.51
  Q 233.26 106.92 233.53 106.41
  Q 234.23 105.07 234.26 105.00
  Q 235.57 101.38 236.87 97.76
  Q 237.02 97.36 236.93 96.15
  Q 236.90 95.65 237.12 95.21
  Q 237.93 93.63 237.70 91.98"
/>
<path stroke="#8a3134" vector-effect="non-scaling-stroke" d="
  M 150.58 169.46
  L 142.90 168.64
  Q 142.13 168.56 142.53 169.22
  Q 143.14 170.20 144.29 170.42
  Q 144.79 170.52 145.11 170.92
  Q 146.68 172.94 148.76 174.07
  Q 149.39 174.41 149.86 174.91
  Q 150.62 175.73 150.75 176.78
  Q 151.15 180.24 151.12 183.83
  Q 151.12 184.39 151.43 184.89
  Q 151.71 185.32 152.19 185.39
  Q 153.06 185.51 152.28 185.10
  Q 151.76 184.84 151.44 184.32
  A 1.30 1.23 -62.7 0 1 151.24 183.63
  Q 151.25 180.23 151.28 177.03
  Q 151.28 176.22 150.99 175.41
  Q 150.86 175.05 150.86 174.66
  Q 150.88 173.04 149.26 172.66
  Q 148.68 172.53 148.64 171.93
  L 148.55 170.67
  Q 148.53 170.37 148.81 170.29
  L 149.50 170.10
  A 0.47 0.46 -16.0 0 1 150.07 170.41
  Q 150.20 170.87 150.41 170.66
  Q 150.92 170.14 151.41 170.66
  Q 151.70 170.97 152.43 171.07"
/>
<path stroke="#cb9a9c" vector-effect="non-scaling-stroke" d="
  M 152.43 171.07
  Q 153.93 176.40 153.44 183.01
  Q 153.21 185.99 154.30 185.18"
/>
<path stroke="#8a3134" vector-effect="non-scaling-stroke" d="
  M 154.30 185.18
  Q 154.61 186.00 155.01 186.34
  Q 155.28 186.55 155.61 186.46
  Q 157.66 185.85 159.76 185.71
  Q 163.52 185.45 164.60 181.48
  Q 165.34 178.74 166.01 176.21
  Q 166.15 175.68 165.86 175.20
  Q 165.74 175.00 165.70 174.77
  Q 165.61 174.22 165.83 173.68
  Q 166.15 172.92 166.42 172.20
  Q 166.61 171.73 166.42 171.27
  Q 165.95 170.08 166.14 168.81
  Q 166.22 168.22 165.98 167.68
  Q 165.60 166.80 165.52 165.84
  A 1.47 1.46 -70.9 0 0 165.07 164.91
  Q 163.17 163.18 161.30 162.40
  Q 159.89 161.81 158.92 160.55
  A 1.10 1.09 71.2 0 0 158.05 160.12
  L 155.79 160.12
  Q 155.12 160.12 155.59 160.60
  L 155.99 161.00
  Q 156.46 161.47 155.80 161.45
  L 155.32 161.44"
/>
<path stroke="#cb9a9c" vector-effect="non-scaling-stroke" d="
  M 155.32 161.44
  L 145.92 159.48
  Q 143.63 159.01 143.24 161.31
  L 142.60 165.09
  Q 142.25 167.10 144.21 167.66
  L 150.58 169.46"
/>
<path stroke="#be9698" vector-effect="non-scaling-stroke" d="
  M 155.32 161.44
  Q 164.01 165.97 159.84 175.04
  Q 158.73 177.43 154.30 185.18"
/>
<path stroke="#be9698" vector-effect="non-scaling-stroke" d="
  M 152.43 171.07
  L 150.58 169.46"
/>
<path stroke="#be9698" vector-effect="non-scaling-stroke" d="
  M 235.74 74.92
  Q 234.82 83.57 233.05 89.77
  Q 225.30 116.92 205.93 137.59
  A 1.75 1.75 0.0 0 0 205.57 139.37
  Q 208.79 148.31 211.17 158.14
  Q 212.69 164.40 209.40 170.81
  C 205.83 177.77 200.91 183.41 195.25 188.72
  C 191.41 192.34 186.66 197.59 186.03 203.05
  Q 184.56 215.62 182.31 227.09
  C 181.54 231.01 180.14 234.62 178.83 238.50"
/>
</g>
<path fill="#7d2d30" d="
  M 16.83 0.00
  L 238.80 0.00
  Q 248.49 1.73 253.17 9.82
  Q 254.90 12.81 256.00 18.11
  L 256.00 56.15
  Q 252.91 53.35 247.56 47.44
  Q 243.40 42.83 232.65 32.42
  C 231.52 31.32 230.22 30.69 229.20 29.59
  Q 228.98 29.35 228.67 29.41
  Q 228.51 29.45 228.43 29.59
  Q 228.31 29.82 228.44 30.04
  L 231.85 35.80
  Q 232.10 36.22 232.08 36.71
  Q 232.06 37.51 232.38 38.23
  Q 233.50 40.74 234.71 43.24
  Q 235.75 45.40 236.32 48.68
  Q 236.67 50.68 237.52 52.95
  Q 238.23 54.86 238.54 57.13
  Q 238.89 59.75 239.23 62.30
  Q 239.24 62.34 239.73 64.67
  C 240.53 68.47 240.17 73.11 240.19 77.07
  Q 240.21 80.57 239.46 84.39
  Q 238.75 88.00 238.15 91.62
  Q 238.08 92.02 237.70 91.98
  Q 238.10 86.79 238.14 81.58
  Q 238.16 78.72 238.48 75.98
  Q 238.83 73.03 238.54 70.10
  C 238.25 67.17 238.62 64.22 238.10 61.29
  Q 237.74 59.26 237.48 57.26
  Q 237.26 55.59 236.62 54.16
  Q 236.41 53.69 236.39 53.19
  Q 236.30 50.90 235.32 49.02
  C 234.68 47.78 235.01 46.51 234.50 45.22
  Q 232.97 41.36 231.60 38.23
  C 231.18 37.28 231.59 36.53 231.11 35.57
  Q 228.90 31.14 228.19 34.25
  C 225.66 28.79 223.40 22.98 219.05 18.78
  C 217.06 16.86 213.55 16.41 212.21 19.27
  C 210.62 22.70 211.67 27.80 212.56 31.65
  C 215.20 43.12 216.20 57.06 214.11 69.48
  Q 211.95 66.40 209.81 63.57
  Q 207.78 60.89 205.01 58.09
  Q 188.53 41.43 172.24 24.59
  Q 168.92 21.15 165.68 17.49
  Q 162.17 13.50 158.78 10.69
  Q 157.44 9.58 156.22 8.12
  Q 155.97 7.82 155.59 7.90
  Q 155.44 7.93 155.36 7.81
  Q 155.13 7.48 155.12 7.00
  Q 155.09 5.85 154.22 6.84
  C 153.28 4.09 149.19 5.28 147.35 6.28
  C 116.76 22.89 108.62 60.42 111.36 92.99
  Q 111.53 94.97 110.20 93.49
  C 104.18 86.83 97.41 82.12 88.63 79.70
  Q 73.27 75.47 57.14 80.65
  Q 48.10 83.54 40.07 91.54
  C 27.62 103.93 27.10 122.10 35.06 137.39
  A 1.83 1.81 38.9 0 1 35.21 138.70
  C 32.45 149.09 8.59 152.83 0.00 153.58
  L 0.00 17.47
  Q 2.34 2.95 16.83 0.00
  Z"
/>
<path fill="#ffffff" d="
  M 154.22 6.84
  Q 154.10 9.97 152.36 12.87
  Q 147.31 21.29 142.49 29.76
  C 137.78 38.03 133.77 47.09 132.97 56.56
  Q 130.73 83.26 142.20 107.91
  Q 146.12 116.36 150.65 125.47
  A 0.54 0.54 0.0 0 1 150.03 126.23
  C 148.22 125.75 145.97 125.61 144.24 126.44
  Q 143.64 126.73 143.47 127.38
  C 141.96 132.99 139.89 137.92 133.57 139.05
  C 126.62 140.28 122.13 145.99 121.58 152.89
  Q 120.26 169.55 131.68 182.36
  Q 137.93 189.38 144.13 196.09
  C 146.18 198.31 148.63 201.71 147.29 204.72
  Q 143.14 214.07 147.75 221.01
  Q 153.36 229.45 173.05 255.72
  L 161.59 255.65
  Q 150.64 245.99 139.72 237.00
  Q 135.86 233.83 134.14 230.90
  Q 130.68 224.99 129.97 216.06
  Q 129.45 209.65 128.77 203.60
  A 0.93 0.93 0.0 0 0 127.29 202.96
  C 123.26 206.01 127.35 223.77 128.45 228.19
  C 129.93 234.07 134.04 239.02 138.27 243.47
  Q 143.86 249.35 149.53 255.70
  L 129.09 255.72
  Q 124.32 248.27 117.93 242.32
  Q 114.41 239.04 113.26 237.51
  C 104.65 226.04 104.44 209.79 106.95 196.47
  C 108.53 188.07 109.31 176.24 105.08 169.84
  A 1.58 1.57 -42.9 0 0 102.53 169.75
  Q 101.74 170.77 101.87 172.12
  Q 102.46 177.93 102.21 182.99
  Q 101.98 187.54 100.35 194.91
  C 98.74 202.17 98.11 210.18 96.94 217.82
  C 95.38 228.10 101.01 239.68 106.89 248.15
  Q 109.45 251.83 112.16 255.72
  L 86.35 255.72
  Q 87.65 249.74 90.03 244.23
  C 90.50 243.13 90.77 241.51 90.32 240.38
  A 2.32 2.32 0.0 0 0 86.54 239.59
  Q 85.26 240.84 84.61 242.58
  Q 82.21 248.97 80.01 255.72
  L 60.43 255.73
  C 62.58 247.53 65.80 238.76 72.13 233.25
  C 73.95 231.65 74.84 229.77 75.49 227.52
  Q 81.20 207.71 70.13 192.88
  Q 63.88 184.51 55.66 181.48
  C 47.86 178.60 42.67 180.94 35.73 182.91
  Q 18.18 187.90 0.00 188.72
  L 0.00 153.58
  C 8.59 152.83 32.45 149.09 35.21 138.70
  A 1.83 1.81 38.9 0 0 35.06 137.39
  C 27.10 122.10 27.62 103.93 40.07 91.54
  Q 48.10 83.54 57.14 80.65
  Q 73.27 75.47 88.63 79.70
  C 97.41 82.12 104.18 86.83 110.20 93.49
  Q 111.53 94.97 111.36 92.99
  C 108.62 60.42 116.76 22.89 147.35 6.28
  C 149.19 5.28 153.28 4.09 154.22 6.84
  Z"
/>
<path fill="#963438" d="
  M 214.11 69.48
  Q 213.06 81.74 206.94 91.69
  Q 193.44 113.60 166.98 120.28
  Q 165.88 120.56 164.73 120.58
  Q 162.89 120.61 164.34 121.74
  C 171.01 126.92 178.39 132.57 183.54 138.57
  Q 189.81 145.87 193.37 157.32
  C 196.05 165.98 192.28 173.94 186.38 180.14
  Q 183.69 182.97 182.41 186.95
  Q 177.42 202.44 174.91 219.78
  A 2.13 2.13 0.0 0 1 172.25 221.53
  Q 168.13 220.43 166.45 224.13
  C 165.32 226.64 166.59 229.62 167.75 231.99
  Q 169.92 236.44 170.82 237.43
  Q 174.68 241.71 178.83 238.50
  Q 179.32 240.35 174.51 239.91
  C 174.26 239.88 173.84 240.03 173.65 240.19
  A 0.53 0.52 -64.7 0 0 173.98 241.12
  L 177.91 241.12
  A 3.15 3.13 10.6 0 0 180.84 239.13
  Q 181.67 236.99 182.84 234.72
  Q 183.96 232.57 184.50 230.15
  Q 185.88 223.96 186.18 217.77
  Q 186.19 217.61 186.28 217.74
  Q 186.32 217.79 186.38 217.78
  Q 186.72 217.76 186.79 217.46
  C 187.46 214.58 187.19 211.77 187.76 208.89
  Q 188.18 206.76 188.15 204.73
  Q 188.14 204.29 188.36 203.90
  Q 189.24 202.30 189.95 200.61
  Q 190.58 199.09 191.86 197.82
  Q 199.30 190.45 203.89 184.33
  Q 205.09 182.73 206.43 181.20
  Q 207.76 179.69 208.65 177.93
  Q 210.40 174.47 212.31 170.69
  A 1.29 1.27 56.4 0 0 212.44 170.01
  L 212.21 167.72
  Q 212.14 166.96 212.74 166.50
  Q 213.29 166.09 213.34 165.36
  C 213.49 163.34 213.52 160.40 212.41 158.70
  Q 211.58 157.42 211.89 155.80
  Q 211.94 155.54 211.76 155.35
  Q 210.62 154.17 210.83 152.28
  C 211.03 150.55 210.32 148.57 209.92 146.91
  Q 209.71 146.03 209.64 144.99
  Q 209.58 144.02 209.24 143.09
  Q 208.46 140.99 209.46 138.95
  Q 211.37 135.04 214.30 132.21
  Q 215.38 131.18 216.06 129.99
  Q 217.07 128.22 218.40 126.58
  Q 219.44 125.30 220.26 123.82
  Q 221.09 122.34 222.14 121.08
  Q 225.03 117.62 226.34 113.96
  Q 227.16 111.68 228.49 109.50
  Q 229.60 107.68 230.25 105.74
  A 0.91 0.90 84.7 0 1 230.66 105.24
  Q 231.27 104.90 231.13 104.25
  Q 231.02 103.73 231.36 103.32
  C 232.19 102.34 231.71 101.14 232.19 99.96
  Q 232.98 98.04 234.02 95.92
  A 5.11 4.87 64.9 0 0 234.46 94.61
  Q 235.39 89.60 236.70 83.78
  Q 237.84 78.71 237.37 76.74
  Q 236.75 74.14 235.74 74.92
  Q 236.42 53.75 228.19 34.25
  Q 228.90 31.14 231.11 35.57
  C 231.59 36.53 231.18 37.28 231.60 38.23
  Q 232.97 41.36 234.50 45.22
  C 235.01 46.51 234.68 47.78 235.32 49.02
  Q 236.30 50.90 236.39 53.19
  Q 236.41 53.69 236.62 54.16
  Q 237.26 55.59 237.48 57.26
  Q 237.74 59.26 238.10 61.29
  C 238.62 64.22 238.25 67.17 238.54 70.10
  Q 238.83 73.03 238.48 75.98
  Q 238.16 78.72 238.14 81.58
  Q 238.10 86.79 237.70 91.98
  Q 235.37 97.06 234.38 100.50
  Q 234.28 100.84 233.99 101.06
  A 0.78 0.73 77.5 0 0 233.70 101.55
  Q 233.06 106.12 230.45 109.96
  Q 230.31 110.18 230.10 110.33
  Q 228.56 111.50 228.26 113.22
  Q 228.14 113.90 227.82 114.51
  Q 226.61 116.75 225.52 119.11
  Q 224.90 120.46 223.88 121.66
  Q 222.67 123.07 222.08 124.70
  Q 221.31 126.86 219.86 128.70
  Q 216.91 132.46 214.30 135.42
  Q 213.54 136.29 211.98 139.63
  Q 210.20 143.44 210.76 146.65
  Q 211.60 151.43 213.15 155.72
  Q 214.17 158.51 214.26 161.34
  Q 214.35 164.02 214.37 166.82
  Q 214.38 168.12 213.99 169.29
  Q 213.59 170.52 213.24 171.85
  Q 212.73 173.81 211.81 175.45
  Q 210.35 178.07 208.78 180.54
  C 207.62 182.37 206.04 183.77 204.85 185.55
  Q 203.55 187.50 201.83 189.17
  Q 197.87 193.01 194.11 197.35
  Q 191.28 200.62 190.11 204.94
  Q 188.67 210.26 188.18 215.63
  Q 187.79 219.88 186.92 223.77
  Q 186.90 223.83 186.93 223.87
  Q 187.00 223.99 187.08 224.09
  Q 187.12 224.14 187.10 224.20
  Q 186.21 227.18 185.80 230.13
  Q 185.65 231.24 185.20 232.19
  C 184.30 234.13 184.72 236.07 183.57 237.98
  Q 182.18 240.29 180.05 241.44
  Q 178.76 242.14 176.59 241.96
  Q 174.70 241.80 172.90 241.83
  Q 172.01 241.85 172.83 242.20
  Q 173.75 242.60 174.67 243.05
  Q 175.63 243.52 176.89 243.32
  Q 178.73 243.03 180.36 242.73
  Q 181.53 242.52 182.37 241.36
  Q 183.38 239.97 184.65 238.63
  Q 185.00 238.26 185.12 237.78
  Q 185.49 236.22 185.83 234.72
  Q 185.88 234.51 185.96 234.71
  Q 185.99 234.77 186.05 234.76
  Q 186.18 234.74 186.21 234.60
  Q 187.17 230.03 188.05 225.34
  Q 188.12 224.96 188.08 224.57
  Q 188.04 224.22 188.33 224.04
  Q 188.70 223.79 188.65 223.35
  Q 188.46 221.74 188.97 220.20
  Q 189.44 218.77 189.57 217.23
  Q 189.78 214.97 190.27 212.69
  Q 190.53 211.50 190.56 210.26
  Q 190.60 208.88 191.03 207.53
  Q 191.88 204.86 192.70 202.35
  Q 193.45 200.07 195.39 198.54
  C 196.29 197.83 196.73 196.83 197.66 196.11
  Q 198.07 195.79 198.12 195.29
  Q 198.16 194.85 198.60 194.74
  Q 198.98 194.64 199.27 194.38
  Q 203.35 190.72 206.41 186.92
  Q 206.76 186.49 206.89 185.95
  Q 207.02 185.41 207.47 185.13
  Q 207.89 184.87 208.18 184.48
  Q 210.41 181.45 211.95 178.58
  Q 212.49 177.56 213.32 176.77
  Q 214.38 175.75 214.57 174.27
  Q 214.73 173.01 215.09 171.75
  Q 216.57 166.51 216.05 161.34
  Q 215.92 159.94 215.32 158.70
  Q 214.65 157.32 214.33 155.74
  Q 213.91 153.64 213.20 151.71
  Q 210.84 145.34 213.18 139.46
  Q 214.21 136.88 216.81 134.14
  Q 219.55 131.25 221.10 128.67
  Q 222.84 125.76 224.92 123.04
  Q 225.93 121.72 226.54 120.23
  Q 227.15 118.74 228.02 117.50
  Q 229.44 115.46 230.32 113.12
  Q 231.23 110.70 232.84 108.45
  Q 233.14 108.03 233.20 107.51
  Q 233.26 106.92 233.53 106.41
  Q 234.23 105.07 234.26 105.00
  Q 235.57 101.38 236.87 97.76
  Q 237.02 97.36 236.93 96.15
  Q 236.90 95.65 237.12 95.21
  Q 237.93 93.63 237.70 91.98
  Q 238.08 92.02 238.15 91.62
  Q 238.75 88.00 239.46 84.39
  Q 240.21 80.57 240.19 77.07
  C 240.17 73.11 240.53 68.47 239.73 64.67
  Q 239.24 62.34 239.23 62.30
  Q 238.89 59.75 238.54 57.13
  Q 238.23 54.86 237.52 52.95
  Q 236.67 50.68 236.32 48.68
  Q 235.75 45.40 234.71 43.24
  Q 233.50 40.74 232.38 38.23
  Q 232.06 37.51 232.08 36.71
  Q 232.10 36.22 231.85 35.80
  L 228.44 30.04
  Q 228.31 29.82 228.43 29.59
  Q 228.51 29.45 228.67 29.41
  Q 228.98 29.35 229.20 29.59
  C 230.22 30.69 231.52 31.32 232.65 32.42
  Q 243.40 42.83 247.56 47.44
  Q 252.91 53.35 256.00 56.15
  L 256.00 237.21
  Q 253.29 250.24 242.68 254.16
  Q 238.45 255.73 227.63 255.74
  Q 200.03 255.77 173.05 255.72
  Q 153.36 229.45 147.75 221.01
  Q 143.14 214.07 147.29 204.72
  C 148.63 201.71 146.18 198.31 144.13 196.09
  Q 137.93 189.38 131.68 182.36
  Q 120.26 169.55 121.58 152.89
  C 122.13 145.99 126.62 140.28 133.57 139.05
  C 139.89 137.92 141.96 132.99 143.47 127.38
  Q 143.64 126.73 144.24 126.44
  C 145.97 125.61 148.22 125.75 150.03 126.23
  A 0.54 0.54 0.0 0 0 150.65 125.47
  Q 146.12 116.36 142.20 107.91
  Q 130.73 83.26 132.97 56.56
  C 133.77 47.09 137.78 38.03 142.49 29.76
  Q 147.31 21.29 152.36 12.87
  Q 154.10 9.97 154.22 6.84
  Q 155.09 5.85 155.12 7.00
  Q 155.13 7.48 155.36 7.81
  Q 155.44 7.93 155.59 7.90
  Q 155.97 7.82 156.22 8.12
  Q 157.44 9.58 158.78 10.69
  Q 162.17 13.50 165.68 17.49
  Q 168.92 21.15 172.24 24.59
  Q 188.53 41.43 205.01 58.09
  Q 207.78 60.89 209.81 63.57
  Q 211.95 66.40 214.11 69.48
  Z
  M 150.58 169.46
  L 142.90 168.64
  Q 142.13 168.56 142.53 169.22
  Q 143.14 170.20 144.29 170.42
  Q 144.79 170.52 145.11 170.92
  Q 146.68 172.94 148.76 174.07
  Q 149.39 174.41 149.86 174.91
  Q 150.62 175.73 150.75 176.78
  Q 151.15 180.24 151.12 183.83
  Q 151.12 184.39 151.43 184.89
  Q 151.71 185.32 152.19 185.39
  Q 153.06 185.51 152.28 185.10
  Q 151.76 184.84 151.44 184.32
  A 1.30 1.23 -62.7 0 1 151.24 183.63
  Q 151.25 180.23 151.28 177.03
  Q 151.28 176.22 150.99 175.41
  Q 150.86 175.05 150.86 174.66
  Q 150.88 173.04 149.26 172.66
  Q 148.68 172.53 148.64 171.93
  L 148.55 170.67
  Q 148.53 170.37 148.81 170.29
  L 149.50 170.10
  A 0.47 0.46 -16.0 0 1 150.07 170.41
  Q 150.20 170.87 150.41 170.66
  Q 150.92 170.14 151.41 170.66
  Q 151.70 170.97 152.43 171.07
  Q 153.93 176.40 153.44 183.01
  Q 153.21 185.99 154.30 185.18
  Q 154.61 186.00 155.01 186.34
  Q 155.28 186.55 155.61 186.46
  Q 157.66 185.85 159.76 185.71
  Q 163.52 185.45 164.60 181.48
  Q 165.34 178.74 166.01 176.21
  Q 166.15 175.68 165.86 175.20
  Q 165.74 175.00 165.70 174.77
  Q 165.61 174.22 165.83 173.68
  Q 166.15 172.92 166.42 172.20
  Q 166.61 171.73 166.42 171.27
  Q 165.95 170.08 166.14 168.81
  Q 166.22 168.22 165.98 167.68
  Q 165.60 166.80 165.52 165.84
  A 1.47 1.46 -70.9 0 0 165.07 164.91
  Q 163.17 163.18 161.30 162.40
  Q 159.89 161.81 158.92 160.55
  A 1.10 1.09 71.2 0 0 158.05 160.12
  L 155.79 160.12
  Q 155.12 160.12 155.59 160.60
  L 155.99 161.00
  Q 156.46 161.47 155.80 161.45
  L 155.32 161.44
  L 145.92 159.48
  Q 143.63 159.01 143.24 161.31
  L 142.60 165.09
  Q 142.25 167.10 144.21 167.66
  L 150.58 169.46
  Z"
/>
<path fill="#ffffff" d="
  M 228.19 34.25
  Q 236.42 53.75 235.74 74.92
  Q 234.82 83.57 233.05 89.77
  Q 225.30 116.92 205.93 137.59
  A 1.75 1.75 0.0 0 0 205.57 139.37
  Q 208.79 148.31 211.17 158.14
  Q 212.69 164.40 209.40 170.81
  C 205.83 177.77 200.91 183.41 195.25 188.72
  C 191.41 192.34 186.66 197.59 186.03 203.05
  Q 184.56 215.62 182.31 227.09
  C 181.54 231.01 180.14 234.62 178.83 238.50
  Q 174.68 241.71 170.82 237.43
  Q 169.92 236.44 167.75 231.99
  C 166.59 229.62 165.32 226.64 166.45 224.13
  Q 168.13 220.43 172.25 221.53
  A 2.13 2.13 0.0 0 0 174.91 219.78
  Q 177.42 202.44 182.41 186.95
  Q 183.69 182.97 186.38 180.14
  C 192.28 173.94 196.05 165.98 193.37 157.32
  Q 189.81 145.87 183.54 138.57
  C 178.39 132.57 171.01 126.92 164.34 121.74
  Q 162.89 120.61 164.73 120.58
  Q 165.88 120.56 166.98 120.28
  Q 193.44 113.60 206.94 91.69
  Q 213.06 81.74 214.11 69.48
  C 216.20 57.06 215.20 43.12 212.56 31.65
  C 211.67 27.80 210.62 22.70 212.21 19.27
  C 213.55 16.41 217.06 16.86 219.05 18.78
  C 223.40 22.98 225.66 28.79 228.19 34.25
  Z"
/>
<path fill="#7d2d30" d="
  M 178.83 238.50
  C 180.14 234.62 181.54 231.01 182.31 227.09
  Q 184.56 215.62 186.03 203.05
  C 186.66 197.59 191.41 192.34 195.25 188.72
  C 200.91 183.41 205.83 177.77 209.40 170.81
  Q 212.69 164.40 211.17 158.14
  Q 208.79 148.31 205.57 139.37
  A 1.75 1.75 0.0 0 1 205.93 137.59
  Q 225.30 116.92 233.05 89.77
  Q 234.82 83.57 235.74 74.92
  Q 236.75 74.14 237.37 76.74
  Q 237.84 78.71 236.70 83.78
  Q 235.39 89.60 234.46 94.61
  A 5.11 4.87 64.9 0 1 234.02 95.92
  Q 232.98 98.04 232.19 99.96
  C 231.71 101.14 232.19 102.34 231.36 103.32
  Q 231.02 103.73 231.13 104.25
  Q 231.27 104.90 230.66 105.24
  A 0.91 0.90 84.7 0 0 230.25 105.74
  Q 229.60 107.68 228.49 109.50
  Q 227.16 111.68 226.34 113.96
  Q 225.03 117.62 222.14 121.08
  Q 221.09 122.34 220.26 123.82
  Q 219.44 125.30 218.40 126.58
  Q 217.07 128.22 216.06 129.99
  Q 215.38 131.18 214.30 132.21
  Q 211.37 135.04 209.46 138.95
  Q 208.46 140.99 209.24 143.09
  Q 209.58 144.02 209.64 144.99
  Q 209.71 146.03 209.92 146.91
  C 210.32 148.57 211.03 150.55 210.83 152.28
  Q 210.62 154.17 211.76 155.35
  Q 211.94 155.54 211.89 155.80
  Q 211.58 157.42 212.41 158.70
  C 213.52 160.40 213.49 163.34 213.34 165.36
  Q 213.29 166.09 212.74 166.50
  Q 212.14 166.96 212.21 167.72
  L 212.44 170.01
  A 1.29 1.27 56.4 0 1 212.31 170.69
  Q 210.40 174.47 208.65 177.93
  Q 207.76 179.69 206.43 181.20
  Q 205.09 182.73 203.89 184.33
  Q 199.30 190.45 191.86 197.82
  Q 190.58 199.09 189.95 200.61
  Q 189.24 202.30 188.36 203.90
  Q 188.14 204.29 188.15 204.73
  Q 188.18 206.76 187.76 208.89
  C 187.19 211.77 187.46 214.58 186.79 217.46
  Q 186.72 217.76 186.38 217.78
  Q 186.32 217.79 186.28 217.74
  Q 186.19 217.61 186.18 217.77
  Q 185.88 223.96 184.50 230.15
  Q 183.96 232.57 182.84 234.72
  Q 181.67 236.99 180.84 239.13
  A 3.15 3.13 10.6 0 1 177.91 241.12
  L 173.98 241.12
  A 0.53 0.52 -64.7 0 1 173.65 240.19
  C 173.84 240.03 174.26 239.88 174.51 239.91
  Q 179.32 240.35 178.83 238.50
  Z"
/>
<path fill="#7d2d30" d="
  M 237.70 91.98
  Q 237.93 93.63 237.12 95.21
  Q 236.90 95.65 236.93 96.15
  Q 237.02 97.36 236.87 97.76
  Q 235.57 101.38 234.26 105.00
  Q 234.23 105.07 233.53 106.41
  Q 233.26 106.92 233.20 107.51
  Q 233.14 108.03 232.84 108.45
  Q 231.23 110.70 230.32 113.12
  Q 229.44 115.46 228.02 117.50
  Q 227.15 118.74 226.54 120.23
  Q 225.93 121.72 224.92 123.04
  Q 222.84 125.76 221.10 128.67
  Q 219.55 131.25 216.81 134.14
  Q 214.21 136.88 213.18 139.46
  Q 210.84 145.34 213.20 151.71
  Q 213.91 153.64 214.33 155.74
  Q 214.65 157.32 215.32 158.70
  Q 215.92 159.94 216.05 161.34
  Q 216.57 166.51 215.09 171.75
  Q 214.73 173.01 214.57 174.27
  Q 214.38 175.75 213.32 176.77
  Q 212.49 177.56 211.95 178.58
  Q 210.41 181.45 208.18 184.48
  Q 207.89 184.87 207.47 185.13
  Q 207.02 185.41 206.89 185.95
  Q 206.76 186.49 206.41 186.92
  Q 203.35 190.72 199.27 194.38
  Q 198.98 194.64 198.60 194.74
  Q 198.16 194.85 198.12 195.29
  Q 198.07 195.79 197.66 196.11
  C 196.73 196.83 196.29 197.83 195.39 198.54
  Q 193.45 200.07 192.70 202.35
  Q 191.88 204.86 191.03 207.53
  Q 190.60 208.88 190.56 210.26
  Q 190.53 211.50 190.27 212.69
  Q 189.78 214.97 189.57 217.23
  Q 189.44 218.77 188.97 220.20
  Q 188.46 221.74 188.65 223.35
  Q 188.70 223.79 188.33 224.04
  Q 188.04 224.22 188.08 224.57
  Q 188.12 224.96 188.05 225.34
  Q 187.17 230.03 186.21 234.60
  Q 186.18 234.74 186.05 234.76
  Q 185.99 234.77 185.96 234.71
  Q 185.88 234.51 185.83 234.72
  Q 185.49 236.22 185.12 237.78
  Q 185.00 238.26 184.65 238.63
  Q 183.38 239.97 182.37 241.36
  Q 181.53 242.52 180.36 242.73
  Q 178.73 243.03 176.89 243.32
  Q 175.63 243.52 174.67 243.05
  Q 173.75 242.60 172.83 242.20
  Q 172.01 241.85 172.90 241.83
  Q 174.70 241.80 176.59 241.96
  Q 178.76 242.14 180.05 241.44
  Q 182.18 240.29 183.57 237.98
  C 184.72 236.07 184.30 234.13 185.20 232.19
  Q 185.65 231.24 185.80 230.13
  Q 186.21 227.18 187.10 224.20
  Q 187.12 224.14 187.08 224.09
  Q 187.00 223.99 186.93 223.87
  Q 186.90 223.83 186.92 223.77
  Q 187.79 219.88 188.18 215.63
  Q 188.67 210.26 190.11 204.94
  Q 191.28 200.62 194.11 197.35
  Q 197.87 193.01 201.83 189.17
  Q 203.55 187.50 204.85 185.55
  C 206.04 183.77 207.62 182.37 208.78 180.54
  Q 210.35 178.07 211.81 175.45
  Q 212.73 173.81 213.24 171.85
  Q 213.59 170.52 213.99 169.29
  Q 214.38 168.12 214.37 166.82
  Q 214.35 164.02 214.26 161.34
  Q 214.17 158.51 213.15 155.72
  Q 211.60 151.43 210.76 146.65
  Q 210.20 143.44 211.98 139.63
  Q 213.54 136.29 214.30 135.42
  Q 216.91 132.46 219.86 128.70
  Q 221.31 126.86 222.08 124.70
  Q 222.67 123.07 223.88 121.66
  Q 224.90 120.46 225.52 119.11
  Q 226.61 116.75 227.82 114.51
  Q 228.14 113.90 228.26 113.22
  Q 228.56 111.50 230.10 110.33
  Q 230.31 110.18 230.45 109.96
  Q 233.06 106.12 233.70 101.55
  A 0.78 0.73 77.5 0 1 233.99 101.06
  Q 234.28 100.84 234.38 100.50
  Q 235.37 97.06 237.70 91.98
  Z"
/>
<path fill="#ffffff" d="
  M 155.32 161.44
  Q 164.01 165.97 159.84 175.04
  Q 158.73 177.43 154.30 185.18
  Q 153.21 185.99 153.44 183.01
  Q 153.93 176.40 152.43 171.07
  L 150.58 169.46
  L 144.21 167.66
  Q 142.25 167.10 142.60 165.09
  L 143.24 161.31
  Q 143.63 159.01 145.92 159.48
  L 155.32 161.44
  Z"
/>
<path fill="#7d2d30" d="
  M 154.30 185.18
  Q 158.73 177.43 159.84 175.04
  Q 164.01 165.97 155.32 161.44
  L 155.80 161.45
  Q 156.46 161.47 155.99 161.00
  L 155.59 160.60
  Q 155.12 160.12 155.79 160.12
  L 158.05 160.12
  A 1.10 1.09 71.2 0 1 158.92 160.55
  Q 159.89 161.81 161.30 162.40
  Q 163.17 163.18 165.07 164.91
  A 1.47 1.46 -70.9 0 1 165.52 165.84
  Q 165.60 166.80 165.98 167.68
  Q 166.22 168.22 166.14 168.81
  Q 165.95 170.08 166.42 171.27
  Q 166.61 171.73 166.42 172.20
  Q 166.15 172.92 165.83 173.68
  Q 165.61 174.22 165.70 174.77
  Q 165.74 175.00 165.86 175.20
  Q 166.15 175.68 166.01 176.21
  Q 165.34 178.74 164.60 181.48
  Q 163.52 185.45 159.76 185.71
  Q 157.66 185.85 155.61 186.46
  Q 155.28 186.55 155.01 186.34
  Q 154.61 186.00 154.30 185.18
  Z"
/>
<path fill="#7d2d30" d="
  M 150.58 169.46
  L 152.43 171.07
  Q 151.70 170.97 151.41 170.66
  Q 150.92 170.14 150.41 170.66
  Q 150.20 170.87 150.07 170.41
  A 0.47 0.46 -16.0 0 0 149.50 170.10
  L 148.81 170.29
  Q 148.53 170.37 148.55 170.67
  L 148.64 171.93
  Q 148.68 172.53 149.26 172.66
  Q 150.88 173.04 150.86 174.66
  Q 150.86 175.05 150.99 175.41
  Q 151.28 176.22 151.28 177.03
  Q 151.25 180.23 151.24 183.63
  A 1.30 1.23 -62.7 0 0 151.44 184.32
  Q 151.76 184.84 152.28 185.10
  Q 153.06 185.51 152.19 185.39
  Q 151.71 185.32 151.43 184.89
  Q 151.12 184.39 151.12 183.83
  Q 151.15 180.24 150.75 176.78
  Q 150.62 175.73 149.86 174.91
  Q 149.39 174.41 148.76 174.07
  Q 146.68 172.94 145.11 170.92
  Q 144.79 170.52 144.29 170.42
  Q 143.14 170.20 142.53 169.22
  Q 142.13 168.56 142.90 168.64
  L 150.58 169.46
  Z"
/>
<path fill="#7d2d30" d="
  M 129.09 255.72
  L 112.16 255.72
  Q 109.45 251.83 106.89 248.15
  C 101.01 239.68 95.38 228.10 96.94 217.82
  C 98.11 210.18 98.74 202.17 100.35 194.91
  Q 101.98 187.54 102.21 182.99
  Q 102.46 177.93 101.87 172.12
  Q 101.74 170.77 102.53 169.75
  A 1.58 1.57 -42.9 0 1 105.08 169.84
  C 109.31 176.24 108.53 188.07 106.95 196.47
  C 104.44 209.79 104.65 226.04 113.26 237.51
  Q 114.41 239.04 117.93 242.32
  Q 124.32 248.27 129.09 255.72
  Z"
/>
<path fill="#963438" d="
  M 60.43 255.73
  Q 42.26 255.79 24.04 255.72
  C 16.95 255.69 11.84 254.91 6.81 250.68
  Q 0.93 245.75 0.00 237.61
  L 0.00 188.72
  Q 18.18 187.90 35.73 182.91
  C 42.67 180.94 47.86 178.60 55.66 181.48
  Q 63.88 184.51 70.13 192.88
  Q 81.20 207.71 75.49 227.52
  C 74.84 229.77 73.95 231.65 72.13 233.25
  C 65.80 238.76 62.58 247.53 60.43 255.73
  Z"
/>
<path fill="#7d2d30" d="
  M 161.59 255.65
  L 149.53 255.70
  Q 143.86 249.35 138.27 243.47
  C 134.04 239.02 129.93 234.07 128.45 228.19
  C 127.35 223.77 123.26 206.01 127.29 202.96
  A 0.93 0.93 0.0 0 1 128.77 203.60
  Q 129.45 209.65 129.97 216.06
  Q 130.68 224.99 134.14 230.90
  Q 135.86 233.83 139.72 237.00
  Q 150.64 245.99 161.59 255.65
  Z"
/>
<path fill="#7d2d30" d="
  M 86.35 255.72
  L 80.01 255.72
  Q 82.21 248.97 84.61 242.58
  Q 85.26 240.84 86.54 239.59
  A 2.32 2.32 0.0 0 1 90.32 240.38
  C 90.77 241.51 90.50 243.13 90.03 244.23
  Q 87.65 249.74 86.35 255.72
  Z"
/>
</svg>
