<?xml version="1.0" encoding="UTF-8" standalone="no"?>
<!DOCTYPE svg PUBLIC "-//W3C//DTD SVG 1.1//EN" "http://www.w3.org/Graphics/SVG/1.1/DTD/svg11.dtd">
<svg xmlns="http://www.w3.org/2000/svg" version="1.1" viewBox="0.00 0.00 1480.00 1273.00">
<g stroke-width="2.00" fill="none" stroke-linecap="butt">
<path stroke="#809cba" vector-effect="non-scaling-stroke" d="
  M 650.19 404.56
  Q 634.15 387.02 621.39 376.36
  Q 606.29 363.73 599.33 358.67
  Q 574.71 340.76 546.08 327.19
  Q 509.53 309.85 470.12 304.81
  Q 460.06 303.52 449.98 303.36
  Q 419.00 302.87 389.68 309.10
  C 372.42 312.77 354.66 318.97 339.72 326.28
  Q 313.65 339.04 289.40 360.28
  Q 281.91 366.83 275.00 374.36
  C 254.98 396.19 238.82 420.81 226.44 447.41
  Q 203.07 497.63 194.28 556.23
  Q 188.48 594.89 188.86 629.92
  Q 189.72 709.89 219.56 783.89
  Q 232.20 815.24 250.96 844.05
  Q 270.69 874.33 296.00 898.13
  C 326.55 926.86 363.28 947.49 403.79 957.71
  Q 421.92 962.28 437.05 964.04
  C 466.60 967.48 498.49 966.56 527.80 960.00
  Q 575.37 949.36 616.37 921.34
  Q 616.69 921.11 629.07 912.28
  C 636.07 907.29 642.91 901.45 649.78 895.89"
/>
<path stroke="#772a4c" vector-effect="non-scaling-stroke" d="
  M 649.78 895.89
  L 649.71 1134.42
  A 0.42 0.42 0.0 0 0 650.26 1134.82
  L 822.51 1077.10
  A 0.68 0.67 -9.9 0 0 822.96 1076.47
  L 822.76 824.47"
/>
<path stroke="#809cba" vector-effect="non-scaling-stroke" d="
  M 822.76 824.47
  Q 828.00 832.24 833.22 839.79
  Q 859.74 878.11 894.34 908.47
  Q 901.89 915.10 909.61 920.83
  Q 928.24 934.65 945.60 943.77
  Q 967.96 955.51 992.97 961.97
  Q 1008.68 966.02 1027.44 967.30
  Q 1052.96 969.04 1075.77 966.03
  Q 1085.51 964.75 1095.58 962.80
  Q 1117.88 958.48 1140.32 948.63
  Q 1175.01 933.38 1202.00 908.17
  Q 1209.07 901.56 1215.78 894.04
  Q 1224.58 884.19 1231.12 875.51
  Q 1244.92 857.20 1257.08 833.71
  Q 1277.40 794.45 1288.19 746.00
  C 1290.19 737.02 1292.12 728.02 1293.48 719.02
  Q 1294.83 710.11 1296.26 701.27
  Q 1296.34 700.75 1295.82 700.75
  L 1224.71 700.75
  A 1.13 1.13 0.0 0 0 1223.71 701.35
  Q 1210.73 725.78 1190.46 743.61
  C 1174.34 757.79 1154.52 770.03 1134.02 778.29
  Q 1102.77 790.89 1069.19 795.58
  Q 1041.61 799.43 1016.38 798.50
  Q 988.96 797.49 967.20 792.16
  Q 941.23 785.81 929.75 781.25
  Q 902.31 770.37 895.29 767.19
  Q 867.75 754.74 822.51 731.53"
/>
<path stroke="#772a4c" vector-effect="non-scaling-stroke" d="
  M 822.51 731.53
  L 822.38 691.22"
/>
<path stroke="#809cba" vector-effect="non-scaling-stroke" d="
  M 822.38 691.22
  Q 859.77 639.65 870.45 626.73
  Q 879.90 615.29 889.72 603.51
  C 897.02 594.74 904.42 586.76 912.18 578.68
  C 941.59 548.03 976.16 521.98 1016.03 507.83
  Q 1063.24 491.06 1112.39 499.64
  Q 1122.51 501.40 1131.86 504.17
  Q 1156.46 511.45 1178.37 525.55
  Q 1203.26 541.56 1220.13 565.55
  A 0.47 0.46 72.2 0 0 1220.51 565.75
  L 1291.51 565.75
  A 0.40 0.39 -5.4 0 0 1291.90 565.29
  Q 1283.34 520.42 1265.15 478.55
  Q 1261.29 469.65 1256.58 460.50
  Q 1246.42 440.75 1236.20 425.34
  Q 1218.62 398.85 1195.28 375.83
  Q 1188.07 368.74 1180.32 362.39
  Q 1122.46 315.03 1048.39 306.95
  C 1015.83 303.40 981.11 305.35 948.58 313.77
  Q 935.89 317.05 927.01 320.09
  Q 897.13 330.32 868.54 349.09
  Q 850.69 360.81 835.94 373.45
  Q 832.94 376.02 822.24 385.61"
/>
<path stroke="#772a4c" vector-effect="non-scaling-stroke" d="
  M 822.24 385.61
  L 822.05 148.60
  A 0.40 0.39 -9.2 0 0 821.53 148.23
  L 650.72 204.68
  Q 650.19 204.86 650.19 205.42
  L 650.19 404.56"
/>
<path stroke="#f68e92" vector-effect="non-scaling-stroke" d="
  M 822.24 385.61
  C 805.75 400.89 792.94 415.15 777.35 433.10
  Q 767.55 444.39 747.78 471.49
  Q 740.76 481.10 733.64 490.65
  Q 700.23 535.43 666.52 579.98
  Q 658.69 590.33 650.18 601.75"
/>
<path stroke="#772a4c" vector-effect="non-scaling-stroke" d="
  M 650.18 601.75
  L 650.00 530.75"
/>
<path stroke="#f68e92" vector-effect="non-scaling-stroke" d="
  M 650.00 530.75
  L 650.19 404.56"
/>
<path stroke="#809cba" vector-effect="non-scaling-stroke" d="
  M 650.00 530.75
  C 642.47 526.23 635.07 521.72 627.16 518.00
  C 620.73 514.97 614.56 512.02 607.99 509.43
  Q 598.98 505.87 590.35 502.86
  Q 566.09 494.39 538.17 487.87
  Q 511.99 481.76 490.07 479.64
  Q 444.41 475.21 393.12 484.86
  C 373.99 488.46 354.08 495.00 337.55 502.86
  C 310.40 515.77 285.45 534.84 269.58 560.91
  Q 252.55 588.90 248.98 622.75
  C 247.04 641.20 248.04 660.24 253.53 677.27
  Q 255.47 683.31 257.09 687.06
  C 261.61 697.53 267.44 707.91 274.53 716.75
  Q 285.73 730.73 297.76 740.27
  Q 310.78 750.61 324.78 757.87
  Q 337.66 764.55 350.43 768.80
  Q 364.12 773.36 378.73 775.93
  C 391.48 778.17 406.10 778.87 419.86 777.99
  Q 466.80 775.00 509.09 749.68
  Q 518.82 743.85 526.56 738.27
  C 532.93 733.68 539.64 728.85 545.54 723.54
  C 550.80 718.80 556.36 714.05 561.29 709.28
  Q 583.94 687.39 600.69 666.95
  Q 624.72 637.62 650.18 601.75"
/>
<path stroke="#f68e92" vector-effect="non-scaling-stroke" d="
  M 822.38 691.22
  Q 791.23 733.94 772.17 758.68
  Q 737.59 803.60 694.76 851.49
  Q 675.39 873.16 649.78 895.89"
/>
<path stroke="#f68e92" vector-effect="non-scaling-stroke" d="
  M 822.51 731.53
  Q 822.45 731.07 822.45 731.75
  Q 822.25 777.25 822.20 822.75
  Q 822.20 823.80 822.76 824.47"
/>
</g>
<path fill="#003874" d="
  M 1479.60 636.65
  A 739.54 636.20 0.0 0 1 740.06 1272.85
  A 739.54 636.20 0.0 0 1 0.52 636.65
  A 739.54 636.20 0.0 0 1 740.06 0.45
  A 739.54 636.20 0.0 0 1 1479.60 636.65
  Z
  M 650.19 404.56
  Q 634.15 387.02 621.39 376.36
  Q 606.29 363.73 599.33 358.67
  Q 574.71 340.76 546.08 327.19
  Q 509.53 309.85 470.12 304.81
  Q 460.06 303.52 449.98 303.36
  Q 419.00 302.87 389.68 309.10
  C 372.42 312.77 354.66 318.97 339.72 326.28
  Q 313.65 339.04 289.40 360.28
  Q 281.91 366.83 275.00 374.36
  C 254.98 396.19 238.82 420.81 226.44 447.41
  Q 203.07 497.63 194.28 556.23
  Q 188.48 594.89 188.86 629.92
  Q 189.72 709.89 219.56 783.89
  Q 232.20 815.24 250.96 844.05
  Q 270.69 874.33 296.00 898.13
  C 326.55 926.86 363.28 947.49 403.79 957.71
  Q 421.92 962.28 437.05 964.04
  C 466.60 967.48 498.49 966.56 527.80 960.00
  Q 575.37 949.36 616.37 921.34
  Q 616.69 921.11 629.07 912.28
  C 636.07 907.29 642.91 901.45 649.78 895.89
  L 649.71 1134.42
  A 0.42 0.42 0.0 0 0 650.26 1134.82
  L 822.51 1077.10
  A 0.68 0.67 -9.9 0 0 822.96 1076.47
  L 822.76 824.47
  Q 828.00 832.24 833.22 839.79
  Q 859.74 878.11 894.34 908.47
  Q 901.89 915.10 909.61 920.83
  Q 928.24 934.65 945.60 943.77
  Q 967.96 955.51 992.97 961.97
  Q 1008.68 966.02 1027.44 967.30
  Q 1052.96 969.04 1075.77 966.03
  Q 1085.51 964.75 1095.58 962.80
  Q 1117.88 958.48 1140.32 948.63
  Q 1175.01 933.38 1202.00 908.17
  Q 1209.07 901.56 1215.78 894.04
  Q 1224.58 884.19 1231.12 875.51
  Q 1244.92 857.20 1257.08 833.71
  Q 1277.40 794.45 1288.19 746.00
  C 1290.19 737.02 1292.12 728.02 1293.48 719.02
  Q 1294.83 710.11 1296.26 701.27
  Q 1296.34 700.75 1295.82 700.75
  L 1224.71 700.75
  A 1.13 1.13 0.0 0 0 1223.71 701.35
  Q 1210.73 725.78 1190.46 743.61
  C 1174.34 757.79 1154.52 770.03 1134.02 778.29
  Q 1102.77 790.89 1069.19 795.58
  Q 1041.61 799.43 1016.38 798.50
  Q 988.96 797.49 967.20 792.16
  Q 941.23 785.81 929.75 781.25
  Q 902.31 770.37 895.29 767.19
  Q 867.75 754.74 822.51 731.53
  L 822.38 691.22
  Q 859.77 639.65 870.45 626.73
  Q 879.90 615.29 889.72 603.51
  C 897.02 594.74 904.42 586.76 912.18 578.68
  C 941.59 548.03 976.16 521.98 1016.03 507.83
  Q 1063.24 491.06 1112.39 499.64
  Q 1122.51 501.40 1131.86 504.17
  Q 1156.46 511.45 1178.37 525.55
  Q 1203.26 541.56 1220.13 565.55
  A 0.47 0.46 72.2 0 0 1220.51 565.75
  L 1291.51 565.75
  A 0.40 0.39 -5.4 0 0 1291.90 565.29
  Q 1283.34 520.42 1265.15 478.55
  Q 1261.29 469.65 1256.58 460.50
  Q 1246.42 440.75 1236.20 425.34
  Q 1218.62 398.85 1195.28 375.83
  Q 1188.07 368.74 1180.32 362.39
  Q 1122.46 315.03 1048.39 306.95
  C 1015.83 303.40 981.11 305.35 948.58 313.77
  Q 935.89 317.05 927.01 320.09
  Q 897.13 330.32 868.54 349.09
  Q 850.69 360.81 835.94 373.45
  Q 832.94 376.02 822.24 385.61
  L 822.05 148.60
  A 0.40 0.39 -9.2 0 0 821.53 148.23
  L 650.72 204.68
  Q 650.19 204.86 650.19 205.42
  L 650.19 404.56
  Z"
/>
<path fill="#ed1c24" d="
  M 822.24 385.61
  C 805.75 400.89 792.94 415.15 777.35 433.10
  Q 767.55 444.39 747.78 471.49
  Q 740.76 481.10 733.64 490.65
  Q 700.23 535.43 666.52 579.98
  Q 658.69 590.33 650.18 601.75
  L 650.00 530.75
  L 650.19 404.56
  L 650.19 205.42
  Q 650.19 204.86 650.72 204.68
  L 821.53 148.23
  A 0.40 0.39 -9.2 0 1 822.05 148.60
  L 822.24 385.61
  Z"
/>
<path fill="#ffffff" d="
  M 650.19 404.56
  L 650.00 530.75
  C 642.47 526.23 635.07 521.72 627.16 518.00
  C 620.73 514.97 614.56 512.02 607.99 509.43
  Q 598.98 505.87 590.35 502.86
  Q 566.09 494.39 538.17 487.87
  Q 511.99 481.76 490.07 479.64
  Q 444.41 475.21 393.12 484.86
  C 373.99 488.46 354.08 495.00 337.55 502.86
  C 310.40 515.77 285.45 534.84 269.58 560.91
  Q 252.55 588.90 248.98 622.75
  C 247.04 641.20 248.04 660.24 253.53 677.27
  Q 255.47 683.31 257.09 687.06
  C 261.61 697.53 267.44 707.91 274.53 716.75
  Q 285.73 730.73 297.76 740.27
  Q 310.78 750.61 324.78 757.87
  Q 337.66 764.55 350.43 768.80
  Q 364.12 773.36 378.73 775.93
  C 391.48 778.17 406.10 778.87 419.86 777.99
  Q 466.80 775.00 509.09 749.68
  Q 518.82 743.85 526.56 738.27
  C 532.93 733.68 539.64 728.85 545.54 723.54
  C 550.80 718.80 556.36 714.05 561.29 709.28
  Q 583.94 687.39 600.69 666.95
  Q 624.72 637.62 650.18 601.75
  Q 658.69 590.33 666.52 579.98
  Q 700.23 535.43 733.64 490.65
  Q 740.76 481.10 747.78 471.49
  Q 767.55 444.39 777.35 433.10
  C 792.94 415.15 805.75 400.89 822.24 385.61
  Q 832.94 376.02 835.94 373.45
  Q 850.69 360.81 868.54 349.09
  Q 897.13 330.32 927.01 320.09
  Q 935.89 317.05 948.58 313.77
  C 981.11 305.35 1015.83 303.40 1048.39 306.95
  Q 1122.46 315.03 1180.32 362.39
  Q 1188.07 368.74 1195.28 375.83
  Q 1218.62 398.85 1236.20 425.34
  Q 1246.42 440.75 1256.58 460.50
  Q 1261.29 469.65 1265.15 478.55
  Q 1283.34 520.42 1291.90 565.29
  A 0.40 0.39 -5.4 0 1 1291.51 565.75
  L 1220.51 565.75
  A 0.47 0.46 72.2 0 1 1220.13 565.55
  Q 1203.26 541.56 1178.37 525.55
  Q 1156.46 511.45 1131.86 504.17
  Q 1122.51 501.40 1112.39 499.64
  Q 1063.24 491.06 1016.03 507.83
  C 976.16 521.98 941.59 548.03 912.18 578.68
  C 904.42 586.76 897.02 594.74 889.72 603.51
  Q 879.90 615.29 870.45 626.73
  Q 859.77 639.65 822.38 691.22
  Q 791.23 733.94 772.17 758.68
  Q 737.59 803.60 694.76 851.49
  Q 675.39 873.16 649.78 895.89
  C 642.91 901.45 636.07 907.29 629.07 912.28
  Q 616.69 921.11 616.37 921.34
  Q 575.37 949.36 527.80 960.00
  C 498.49 966.56 466.60 967.48 437.05 964.04
  Q 421.92 962.28 403.79 957.71
  C 363.28 947.49 326.55 926.86 296.00 898.13
  Q 270.69 874.33 250.96 844.05
  Q 232.20 815.24 219.56 783.89
  Q 189.72 709.89 188.86 629.92
  Q 188.48 594.89 194.28 556.23
  Q 203.07 497.63 226.44 447.41
  C 238.82 420.81 254.98 396.19 275.00 374.36
  Q 281.91 366.83 289.40 360.28
  Q 313.65 339.04 339.72 326.28
  C 354.66 318.97 372.42 312.77 389.68 309.10
  Q 419.00 302.87 449.98 303.36
  Q 460.06 303.52 470.12 304.81
  Q 509.53 309.85 546.08 327.19
  Q 574.71 340.76 599.33 358.67
  Q 606.29 363.73 621.39 376.36
  Q 634.15 387.02 650.19 404.56
  Z"
/>
<path fill="#003874" d="
  M 650.00 530.75
  L 650.18 601.75
  Q 624.72 637.62 600.69 666.95
  Q 583.94 687.39 561.29 709.28
  C 556.36 714.05 550.80 718.80 545.54 723.54
  C 539.64 728.85 532.93 733.68 526.56 738.27
  Q 518.82 743.85 509.09 749.68
  Q 466.80 775.00 419.86 777.99
  C 406.10 778.87 391.48 778.17 378.73 775.93
  Q 364.12 773.36 350.43 768.80
  Q 337.66 764.55 324.78 757.87
  Q 310.78 750.61 297.76 740.27
  Q 285.73 730.73 274.53 716.75
  C 267.44 707.91 261.61 697.53 257.09 687.06
  Q 255.47 683.31 253.53 677.27
  C 248.04 660.24 247.04 641.20 248.98 622.75
  Q 252.55 588.90 269.58 560.91
  C 285.45 534.84 310.40 515.77 337.55 502.86
  C 354.08 495.00 373.99 488.46 393.12 484.86
  Q 444.41 475.21 490.07 479.64
  Q 511.99 481.76 538.17 487.87
  Q 566.09 494.39 590.35 502.86
  Q 598.98 505.87 607.99 509.43
  C 614.56 512.02 620.73 514.97 627.16 518.00
  C 635.07 521.72 642.47 526.23 650.00 530.75
  Z"
/>
<path fill="#ed1c24" d="
  M 822.38 691.22
  L 822.51 731.53
  Q 822.45 731.07 822.45 731.75
  Q 822.25 777.25 822.20 822.75
  Q 822.20 823.80 822.76 824.47
  L 822.96 1076.47
  A 0.68 0.67 -9.9 0 1 822.51 1077.10
  L 650.26 1134.82
  A 0.42 0.42 0.0 0 1 649.71 1134.42
  L 649.78 895.89
  Q 675.39 873.16 694.76 851.49
  Q 737.59 803.60 772.17 758.68
  Q 791.23 733.94 822.38 691.22
  Z"
/>
<path fill="#ffffff" d="
  M 822.76 824.47
  Q 822.20 823.80 822.20 822.75
  Q 822.25 777.25 822.45 731.75
  Q 822.45 731.07 822.51 731.53
  Q 867.75 754.74 895.29 767.19
  Q 902.31 770.37 929.75 781.25
  Q 941.23 785.81 967.20 792.16
  Q 988.96 797.49 1016.38 798.50
  Q 1041.61 799.43 1069.19 795.58
  Q 1102.77 790.89 1134.02 778.29
  C 1154.52 770.03 1174.34 757.79 1190.46 743.61
  Q 1210.73 725.78 1223.71 701.35
  A 1.13 1.13 0.0 0 1 1224.71 700.75
  L 1295.82 700.75
  Q 1296.34 700.75 1296.26 701.27
  Q 1294.83 710.11 1293.48 719.02
  C 1292.12 728.02 1290.19 737.02 1288.19 746.00
  Q 1277.40 794.45 1257.08 833.71
  Q 1244.92 857.20 1231.12 875.51
  Q 1224.58 884.19 1215.78 894.04
  Q 1209.07 901.56 1202.00 908.17
  Q 1175.01 933.38 1140.32 948.63
  Q 1117.88 958.48 1095.58 962.80
  Q 1085.51 964.75 1075.77 966.03
  Q 1052.96 969.04 1027.44 967.30
  Q 1008.68 966.02 992.97 961.97
  Q 967.96 955.51 945.60 943.77
  Q 928.24 934.65 909.61 920.83
  Q 901.89 915.10 894.34 908.47
  Q 859.74 878.11 833.22 839.79
  Q 828.00 832.24 822.76 824.47
  Z"
/>
</svg>
