<?xml version="1.0" encoding="UTF-8" standalone="no"?>
<!DOCTYPE svg PUBLIC "-//W3C//DTD SVG 1.1//EN" "http://www.w3.org/Graphics/SVG/1.1/DTD/svg11.dtd">
<svg xmlns="http://www.w3.org/2000/svg" version="1.1" viewBox="0.00 0.00 1264.00 1659.00">
<g stroke-width="2.00" fill="none" stroke-linecap="butt">
<path stroke="#872751" vector-effect="non-scaling-stroke" d="
  M 316.07 401.02
  Q 296.49 412.80 289.10 417.61
  Q 234.21 453.28 188.32 498.81
  Q 101.87 584.58 52.95 696.39
  C 49.56 704.12 46.54 711.95 43.44 719.85
  Q 10.09 804.79 2.91 897.77
  Q 2.21 906.88 1.13 915.97"
/>
<path stroke="#872751" vector-effect="non-scaling-stroke" d="
  M 316.58 960.02
  C 316.56 962.29 316.17 964.57 316.17 966.67
  Q 316.25 1230.91 316.20 1495.15
  Q 316.20 1495.25 316.13 1495.31
  Q 316.09 1495.34 316.06 1495.37"
/>
</g>
<path fill="#21317d" d="
  M 0.79 0.00
  L 316.07 0.00
  L 316.07 401.02
  Q 296.49 412.80 289.10 417.61
  Q 234.21 453.28 188.32 498.81
  Q 101.87 584.58 52.95 696.39
  C 49.56 704.12 46.54 711.95 43.44 719.85
  Q 10.09 804.79 2.91 897.77
  Q 2.21 906.88 1.13 915.97
  L 0.79 0.00
  Z"
/>
<path fill="#ed1c24" d="
  M 316.58 960.02
  C 316.56 962.29 316.17 964.57 316.17 966.67
  Q 316.25 1230.91 316.20 1495.15
  Q 316.20 1495.25 316.13 1495.31
  Q 316.09 1495.34 316.06 1495.37
  L 316.02 1659.00
  L 0.78 1659.00
  L 1.13 915.97
  Q 2.21 906.88 2.91 897.77
  Q 10.09 804.79 43.44 719.85
  C 46.54 711.95 49.56 704.12 52.95 696.39
  Q 101.87 584.58 188.32 498.81
  Q 234.21 453.28 289.10 417.61
  Q 296.49 412.80 316.07 401.02
  Q 386.00 360.17 464.27 338.74
  Q 527.08 321.55 592.27 317.60
  Q 592.74 317.58 592.74 318.05
  L 592.75 634.26
  A 0.47 0.46 -3.5 0 1 592.34 634.72
  Q 531.97 642.53 478.78 671.88
  C 445.07 690.49 414.40 716.32 390.08 745.07
  Q 370.80 767.86 355.44 795.86
  Q 313.46 872.40 316.58 960.02
  Z"
/>
<path fill="#21317d" d="
  M 316.06 1495.37
  Q 316.09 1495.34 316.13 1495.31
  Q 316.20 1495.25 316.20 1495.15
  Q 316.25 1230.91 316.17 966.67
  C 316.17 964.57 316.56 962.29 316.58 960.02
  C 318.22 991.00 323.10 1021.37 333.39 1050.69
  Q 365.54 1142.28 441.03 1199.85
  Q 505.86 1249.30 586.84 1261.13
  Q 597.05 1262.62 606.70 1263.36
  Q 688.42 1269.58 762.58 1236.01
  Q 834.57 1203.42 884.21 1138.41
  C 925.77 1083.98 947.29 1017.64 948.03 949.08
  Q 948.13 940.30 946.35 919.55
  Q 941.31 860.70 914.71 807.38
  C 892.67 763.19 860.36 724.20 820.36 694.62
  Q 754.16 645.67 671.91 634.71
  A 0.56 0.56 0.0 0 1 671.43 634.16
  L 671.42 317.86
  A 0.37 0.36 2.2 0 1 671.82 317.50
  Q 703.22 319.61 734.22 324.47
  Q 756.48 327.96 786.10 335.29
  Q 858.65 353.25 925.83 388.77
  Q 1037.17 447.66 1118.13 545.30
  C 1205.15 650.24 1255.42 780.50 1262.10 916.52
  C 1262.77 930.12 1263.56 943.88 1263.34 957.33
  Q 1261.58 1066.68 1224.32 1167.51
  Q 1181.94 1282.15 1099.45 1373.20
  Q 1005.19 1477.24 873.81 1532.46
  Q 864.55 1536.35 855.00 1539.94
  Q 707.10 1595.48 549.49 1575.04
  C 506.65 1569.49 465.06 1559.30 423.50 1544.79
  Q 367.72 1525.30 316.06 1495.37
  Z"
/>
</svg>
