<?xml version="1.0" encoding="UTF-8" standalone="no"?>
<!DOCTYPE svg PUBLIC "-//W3C//DTD SVG 1.1//EN" "http://www.w3.org/Graphics/SVG/1.1/DTD/svg11.dtd">
<svg xmlns="http://www.w3.org/2000/svg" version="1.1" viewBox="0.00 0.00 2560.00 673.00">
<path stroke="#7a8332" stroke-width="2.00" fill="none" stroke-linecap="butt" vector-effect="non-scaling-stroke" d="
  M 2376.19 177.93
  L 2455.61 335.88
  A 0.76 0.76 0.0 0 1 2455.45 336.77
  L 2288.30 494.87"
/>
<path fill="#1b3281" d="
  M 420.56 278.38
  C 447.89 284.73 468.33 300.50 472.12 330.10
  C 474.99 352.52 469.92 376.97 464.46 399.29
  Q 456.39 432.28 448.36 465.44
  C 448.13 466.40 448.36 467.50 448.10 468.52
  C 446.18 475.98 441.35 497.56 452.38 499.38
  Q 452.96 499.48 452.80 500.05
  L 447.78 518.26
  A 0.57 0.56 -81.7 0 1 447.24 518.67
  L 292.55 518.67
  A 0.32 0.31 1.7 0 1 292.23 518.34
  Q 293.09 500.65 295.10 483.74
  Q 296.33 473.33 298.74 464.62
  Q 305.02 441.94 312.73 414.58
  Q 317.29 398.38 318.68 383.31
  Q 319.74 371.82 316.75 362.31
  C 310.70 343.08 285.97 340.13 269.24 340.08
  Q 236.93 339.99 202.78 340.05
  A 0.44 0.43 7.9 0 0 202.36 340.36
  L 152.81 518.03
  A 0.87 0.86 7.3 0 1 151.97 518.67
  L 1.02 518.67
  A 0.33 0.33 0.0 0 1 0.70 518.26
  L 144.21 0.94
  A 0.57 0.55 -81.5 0 1 144.74 0.53
  Q 260.07 0.57 375.30 0.56
  Q 407.65 0.55 436.64 4.22
  Q 459.85 7.15 480.08 13.81
  C 504.53 21.85 525.44 36.08 534.76 60.28
  C 542.83 81.24 541.94 104.96 537.72 127.59
  Q 531.84 159.08 519.21 186.31
  Q 499.97 227.78 464.26 253.67
  C 450.67 263.51 436.06 271.28 420.51 277.77
  Q 419.59 278.16 420.56 278.38
  Z
  M 385.96 157.22
  C 386.99 142.09 379.23 133.19 364.80 129.75
  Q 350.89 126.43 335.73 126.33
  Q 298.73 126.08 262.01 126.25
  A 0.43 0.41 -81.6 0 0 261.61 126.56
  L 234.94 222.71
  Q 234.78 223.29 235.38 223.29
  Q 271.37 223.23 304.39 223.26
  C 317.68 223.27 330.67 222.36 343.39 219.03
  Q 364.59 213.46 375.24 194.12
  Q 384.59 177.12 385.96 157.22
  Z"
/>
<path fill="#1b3281" d="
  M 1106.42 360.03
  A 0.39 0.38 -82.0 0 0 1106.05 360.31
  L 1062.30 518.38
  A 0.41 0.39 7.5 0 1 1061.91 518.67
  L 908.55 518.67
  Q 908.16 518.67 908.27 518.30
  L 1051.66 0.87
  Q 1051.75 0.54 1052.10 0.54
  C 1118.80 0.55 1185.54 0.80 1252.28 0.57
  Q 1289.31 0.44 1323.27 4.15
  Q 1339.40 5.91 1356.64 10.28
  C 1386.25 17.78 1410.81 32.27 1426.39 58.58
  C 1443.83 88.02 1444.86 122.38 1438.45 155.81
  C 1429.75 201.22 1411.89 245.46 1382.63 280.75
  Q 1336.45 336.45 1262.95 353.19
  Q 1233.15 359.98 1199.46 360.01
  Q 1152.22 360.05 1106.42 360.03
  Z
  M 1272.71 133.85
  Q 1266.39 131.51 1261.31 130.68
  Q 1242.09 127.52 1220.50 127.56
  Q 1195.28 127.61 1170.95 127.55
  A 0.39 0.38 -82.0 0 0 1170.58 127.83
  L 1141.26 233.03
  A 0.35 0.35 0.0 0 0 1141.60 233.47
  Q 1170.93 233.69 1198.44 233.40
  C 1216.21 233.21 1236.20 231.34 1252.22 225.04
  C 1275.23 215.99 1286.38 188.62 1289.11 165.87
  C 1290.81 151.71 1287.24 139.23 1272.71 133.85
  Z"
/>
<path fill="#f47920" d="
  M 2376.19 177.93
  L 2455.61 335.88
  A 0.76 0.76 0.0 0 1 2455.45 336.77
  L 2288.30 494.87
  L 2153.55 622.13
  Q 2153.08 622.57 2153.25 621.95
  L 2311.67 50.76
  Q 2311.83 50.18 2312.10 50.72
  L 2376.19 177.93
  Z"
/>
<path fill="#008c44" d="
  M 2288.30 494.87
  L 2455.45 336.77
  A 0.76 0.76 0.0 0 0 2455.61 335.88
  L 2376.19 177.93
  L 2411.48 50.74
  Q 2411.70 49.95 2412.07 50.68
  L 2555.78 336.20
  A 0.26 0.25 -36.0 0 1 2555.73 336.49
  L 2253.52 622.24
  Q 2253.08 622.65 2253.24 622.07
  L 2288.30 494.87
  Z"
/>
<path fill="#1b3281" d="
  M 1599.15 482.85
  Q 1579.98 497.17 1560.53 507.39
  Q 1521.50 527.89 1477.83 531.71
  C 1437.94 535.19 1385.61 530.55 1366.22 488.66
  C 1357.26 469.28 1357.88 446.18 1362.42 424.75
  C 1371.73 380.79 1392.30 341.85 1432.42 320.41
  C 1443.59 314.44 1455.56 309.68 1467.83 305.80
  C 1495.83 296.93 1527.66 291.05 1557.62 287.32
  Q 1578.42 284.73 1596.22 282.44
  Q 1607.83 280.96 1621.88 277.06
  C 1637.47 272.74 1655.14 264.86 1661.41 249.95
  Q 1665.00 241.42 1663.63 233.01
  C 1662.09 223.60 1652.78 218.64 1644.10 216.95
  Q 1626.87 213.61 1611.09 215.30
  Q 1575.56 219.13 1563.03 252.43
  Q 1562.83 252.95 1562.29 252.95
  L 1425.96 252.95
  A 0.27 0.27 0.0 0 1 1425.70 252.61
  C 1435.65 217.30 1456.27 186.75 1486.24 165.37
  C 1513.49 145.94 1545.69 134.41 1578.96 128.69
  Q 1627.66 120.32 1682.05 124.05
  Q 1708.04 125.83 1734.39 132.87
  C 1755.69 138.55 1774.40 147.09 1788.50 163.68
  Q 1804.59 182.61 1804.72 207.50
  C 1804.81 225.51 1800.72 244.02 1795.91 261.35
  Q 1765.98 369.16 1736.34 476.34
  C 1733.39 487.00 1733.84 499.78 1742.55 507.50
  Q 1743.02 507.92 1742.84 508.52
  L 1740.03 518.05
  Q 1739.84 518.67 1739.20 518.67
  L 1599.06 518.67
  Q 1598.44 518.67 1598.46 518.06
  L 1599.83 483.21
  Q 1599.87 482.31 1599.15 482.85
  Z
  M 1541.25 377.62
  C 1530.40 382.60 1518.50 390.08 1512.92 400.25
  C 1507.66 409.85 1506.00 423.67 1514.02 432.51
  C 1520.09 439.20 1530.48 441.09 1539.48 441.14
  C 1564.97 441.28 1588.89 434.71 1605.63 414.61
  C 1619.36 398.12 1627.39 375.61 1631.81 354.34
  Q 1632.39 351.54 1632.60 348.64
  Q 1632.65 348.01 1632.06 348.24
  C 1611.31 356.20 1590.93 361.62 1568.54 367.68
  Q 1554.92 371.36 1541.25 377.62
  Z"
/>
<path fill="#1b3281" d="
  M 739.63 463.34
  C 701.68 500.36 657.54 527.05 604.24 528.93
  C 583.25 529.67 562.19 527.06 543.82 517.72
  C 519.69 505.44 505.13 482.00 502.15 455.29
  C 499.99 435.94 502.83 417.35 506.80 398.03
  Q 511.85 373.39 518.10 350.62
  Q 542.72 260.88 577.21 136.76
  Q 577.34 136.32 577.79 136.32
  L 717.72 136.33
  Q 718.13 136.33 718.02 136.72
  Q 690.45 236.02 662.81 335.74
  C 658.30 352.04 653.92 371.66 655.89 387.93
  C 657.38 400.24 666.05 407.96 677.81 409.92
  C 729.10 418.46 752.89 374.36 764.32 333.00
  Q 791.47 234.75 818.55 136.55
  A 0.31 0.31 0.0 0 1 818.85 136.32
  L 958.89 136.33
  A 0.27 0.27 0.0 0 1 959.15 136.67
  L 853.36 518.39
  Q 853.28 518.68 852.98 518.68
  L 724.99 518.67
  Q 724.54 518.67 724.66 518.23
  L 740.09 463.61
  Q 740.37 462.62 739.63 463.34
  Z"
/>
<path fill="#1b3281" d="
  M 1981.72 367.71
  A 0.17 0.16 59.0 0 0 1982.03 367.79
  L 2106.09 136.57
  A 0.46 0.46 0.0 0 1 2106.50 136.32
  L 2238.27 136.33
  A 0.29 0.29 0.0 0 1 2238.52 136.76
  Q 2128.78 326.56 2020.29 514.04
  Q 1995.93 556.12 1972.44 592.43
  Q 1965.34 603.39 1955.13 616.34
  C 1933.48 643.80 1905.75 662.99 1871.45 668.43
  Q 1852.58 671.43 1832.68 671.98
  Q 1787.56 673.23 1741.19 669.24
  Q 1740.97 669.22 1741.03 669.01
  L 1772.08 556.63
  A 0.57 0.57 0.0 0 1 1772.63 556.20
  Q 1794.25 556.29 1814.49 556.16
  Q 1824.72 556.10 1834.36 553.15
  Q 1849.94 548.38 1856.43 533.36
  C 1862.75 518.77 1863.89 503.11 1862.93 487.46
  Q 1852.24 312.88 1841.39 136.73
  Q 1841.37 136.33 1841.78 136.33
  L 1983.50 136.33
  Q 1983.93 136.33 1983.93 136.75
  L 1981.72 367.71
  Z"
/>
</svg>
