<?xml version="1.0" encoding="UTF-8" standalone="no"?>
<!DOCTYPE svg PUBLIC "-//W3C//DTD SVG 1.1//EN" "http://www.w3.org/Graphics/SVG/1.1/DTD/svg11.dtd">
<svg xmlns="http://www.w3.org/2000/svg" version="1.1" viewBox="0.00 0.00 1098.00 1745.00">
<path fill="#0473ea" d="
  M 639.12 0.00
  L 649.50 0.00
  Q 655.24 0.55 660.98 1.13
  Q 699.82 5.07 731.59 25.98
  C 771.56 52.30 797.35 94.93 802.21 142.43
  Q 803.27 152.79 802.89 162.76
  Q 800.85 216.39 767.93 257.68
  Q 756.50 272.02 741.16 283.73
  Q 736.32 287.43 724.66 295.02
  Q 559.24 402.65 394.10 510.07
  Q 393.64 510.36 394.10 510.66
  Q 631.86 665.35 911.16 847.09
  C 931.39 860.25 951.57 873.49 971.92 886.47
  Q 1004.27 907.11 1031.00 934.74
  C 1050.00 954.39 1066.28 976.68 1077.97 1001.17
  C 1090.98 1028.43 1096.53 1058.18 1097.24 1088.86
  Q 1098.00 1121.59 1091.70 1152.51
  Q 1081.82 1200.98 1056.86 1247.78
  Q 1043.01 1273.77 1025.16 1297.17
  A 0.96 0.95 36.0 0 1 1023.86 1297.37
  Q 1020.93 1295.33 1018.20 1293.55
  Q 585.98 1012.39 153.79 731.20
  Q 144.95 725.45 132.12 713.53
  Q 94.47 678.56 72.59 632.36
  Q 50.73 586.21 46.96 533.41
  Q 45.37 511.12 46.95 486.93
  C 50.01 440.14 65.20 394.04 91.52 354.90
  Q 115.32 319.52 146.36 295.65
  Q 150.39 292.55 155.60 289.13
  Q 229.91 240.33 312.56 186.29
  Q 431.64 108.42 556.19 27.01
  Q 566.42 20.33 573.40 16.87
  C 590.99 8.13 610.42 2.27 630.12 0.78
  Q 634.63 0.44 639.12 0.00
  Z"
/>
<path fill="#38d200" d="
  M 1053.26 445.28
  Q 1053.77 446.39 1054.25 447.52
  Q 1075.50 496.92 1062.71 548.51
  Q 1054.25 582.63 1031.16 610.27
  Q 1003.50 643.37 962.08 657.84
  Q 952.86 661.06 943.00 663.05
  Q 887.63 674.21 837.69 647.28
  Q 834.02 645.31 830.41 643.25
  Q 826.73 641.15 823.30 638.92
  Q 726.37 575.88 629.45 512.81
  Q 627.62 511.62 625.96 510.38
  Q 625.58 510.09 625.99 509.87
  Q 626.43 509.64 626.84 509.55
  Q 627.22 509.47 818.45 384.92
  Q 833.76 374.95 846.21 368.99
  Q 869.97 357.61 894.97 355.29
  Q 940.80 351.03 979.92 370.27
  Q 1016.35 388.19 1039.65 421.54
  Q 1047.52 432.80 1053.26 445.28
  Z"
/>
<path fill="#38d200" d="
  M 942.62 1745.00
  L 934.25 1745.00
  Q 921.94 1744.17 917.24 1743.53
  Q 888.70 1739.63 863.50 1726.37
  Q 857.55 1723.23 846.43 1716.00
  Q 487.48 1482.56 128.56 1249.08
  Q 123.90 1246.05 119.27 1243.15
  C 82.97 1220.38 50.69 1187.87 29.27 1150.64
  Q 13.12 1122.56 6.51 1091.34
  C -3.27 1045.19 0.81 996.82 14.73 952.12
  Q 34.15 889.74 73.91 836.67
  A 0.85 0.84 34.8 0 1 75.04 836.47
  Q 546.63 1143.31 1018.39 1450.24
  Q 1029.64 1457.55 1034.84 1461.59
  C 1065.60 1485.46 1086.63 1519.43 1093.52 1558.06
  Q 1101.83 1604.66 1083.53 1648.87
  Q 1075.33 1668.69 1060.68 1687.16
  Q 1054.28 1695.23 1047.32 1701.81
  Q 1012.10 1735.14 963.74 1742.98
  Q 959.26 1743.71 953.20 1744.20
  Q 947.92 1744.64 942.62 1745.00
  Z"
/>
<path fill="#0473ea" d="
  M 0.00 1594.12
  L 0.00 1583.00
  Q 0.62 1576.57 1.34 1570.14
  Q 4.26 1544.11 15.18 1521.60
  Q 32.63 1485.62 64.36 1462.59
  Q 85.01 1447.60 108.45 1440.20
  Q 154.33 1425.72 199.42 1439.04
  Q 221.92 1445.69 244.46 1460.33
  Q 341.28 1523.22 440.96 1588.09
  Q 441.84 1588.66 440.97 1589.23
  Q 342.97 1652.98 244.53 1717.03
  C 232.00 1725.18 218.34 1732.24 203.41 1737.23
  C 180.20 1744.97 154.20 1746.30 130.84 1742.51
  Q 96.13 1736.88 66.76 1716.48
  Q 44.38 1700.92 28.14 1677.90
  Q 5.23 1645.40 1.10 1604.85
  Q 0.55 1599.50 0.00 1594.12
  Z"
/>
</svg>
