<?xml version="1.0" encoding="UTF-8" standalone="no"?>
<!DOCTYPE svg PUBLIC "-//W3C//DTD SVG 1.1//EN" "http://www.w3.org/Graphics/SVG/1.1/DTD/svg11.dtd">
<svg xmlns="http://www.w3.org/2000/svg" version="1.1" viewBox="0.00 0.00 500.00 500.00">
<path fill="#006bb7" d="
  M 206.51 188.16
  Q 213.09 170.15 229.30 155.65
  C 256.92 130.96 296.11 119.10 332.49 128.15
  Q 369.54 137.37 385.49 171.36
  C 392.23 185.69 393.94 203.40 392.18 219.79
  Q 391.33 227.75 388.65 238.83
  Q 377.89 283.42 366.97 329.45
  C 364.88 338.28 360.34 344.48 351.57 347.17
  C 342.23 350.04 328.45 346.80 327.44 334.98
  Q 327.20 332.14 328.31 327.56
  Q 341.25 274.03 353.31 223.67
  Q 355.14 216.02 355.19 208.31
  Q 355.39 179.75 331.39 168.55
  C 325.55 165.82 317.14 164.13 310.42 163.99
  Q 278.94 163.34 255.23 183.81
  Q 248.58 189.55 243.94 197.12
  Q 241.84 200.53 240.76 204.78
  Q 233.15 234.53 225.91 262.81
  Q 223.15 273.61 219.53 285.66
  Q 217.41 292.73 211.41 297.10
  C 200.90 304.77 183.60 302.86 181.49 287.77
  Q 181.01 284.31 182.40 279.56
  Q 186.49 265.55 186.49 265.53
  Q 193.76 236.37 203.29 198.77
  Q 204.78 192.89 206.51 188.16
  Z"
/>
<path fill="#ec1e23" d="
  M 165.68 371.34
  C 141.81 365.24 122.09 348.37 113.29 325.75
  C 105.57 305.89 105.47 285.69 110.49 265.30
  Q 119.19 229.94 129.26 188.54
  Q 132.58 174.88 133.96 172.36
  Q 139.51 162.22 152.00 160.86
  C 159.36 160.06 169.02 162.44 171.36 170.45
  Q 171.99 172.60 171.48 174.67
  Q 160.47 219.99 148.97 266.98
  Q 146.36 277.66 145.35 284.51
  Q 142.85 301.55 150.42 315.67
  C 155.19 324.56 165.00 331.11 175.16 333.84
  Q 192.46 338.49 209.09 334.46
  Q 222.39 331.23 233.57 324.52
  C 243.99 318.26 255.74 307.89 258.91 295.99
  Q 265.52 271.19 272.55 242.71
  Q 274.71 233.96 277.40 224.64
  Q 280.38 214.32 283.31 210.24
  C 288.63 202.83 297.37 199.04 306.34 200.77
  C 312.27 201.91 317.44 205.43 318.79 211.59
  Q 319.42 214.48 318.18 218.84
  C 316.20 225.77 314.15 232.87 312.42 239.76
  C 306.60 262.90 300.77 285.99 294.44 308.89
  Q 293.19 313.44 291.27 317.39
  C 275.82 349.16 240.62 369.15 206.49 373.94
  Q 186.69 376.71 165.68 371.34
  Z"
/>
</svg>
