<?xml version="1.0" encoding="UTF-8" standalone="no"?>
<!DOCTYPE svg PUBLIC "-//W3C//DTD SVG 1.1//EN" "http://www.w3.org/Graphics/SVG/1.1/DTD/svg11.dtd">
<svg xmlns="http://www.w3.org/2000/svg" version="1.1" viewBox="0.00 0.00 225.00 225.00">
<g stroke-width="2.00" fill="none" stroke-linecap="butt">
<path stroke="#772692" vector-effect="non-scaling-stroke" d="
  M 97.33 142.63
  C 93.04 145.12 86.84 146.85 81.52 146.43
  Q 71.27 145.61 60.92 144.61
  Q 59.64 144.49 60.58 145.36
  Q 69.20 153.38 77.81 162.00
  Q 83.44 167.63 87.45 169.49
  C 96.34 173.61 106.90 172.20 114.17 165.81
  Q 116.93 163.39 121.92 155.86
  Q 155.27 105.57 189.65 54.30
  A 0.80 0.80 0.0 0 0 189.36 53.15
  Q 188.73 52.82 188.27 53.28
  Q 148.05 93.32 106.98 134.59
  Q 101.25 140.35 97.33 142.63"
/>
<path stroke="#772692" vector-effect="non-scaling-stroke" d="
  M 51.69 118.61
  C 46.75 119.95 41.51 121.80 36.53 123.68
  Q 33.42 124.85 36.61 125.77
  C 44.61 128.10 50.73 133.35 56.43 139.34
  Q 57.15 140.10 58.19 140.19
  Q 71.13 141.28 83.50 142.39
  C 90.29 143.00 92.92 135.10 87.64 130.80
  C 80.06 124.63 71.24 117.98 61.91 117.35
  Q 57.45 117.05 51.69 118.61"
/>
</g>
<path fill="#002edc" d="
  M 0.00 0.00
  L 225.00 0.00
  L 225.00 225.00
  L 0.00 225.00
  L 0.00 0.00
  Z
  M 97.33 142.63
  C 93.04 145.12 86.84 146.85 81.52 146.43
  Q 71.27 145.61 60.92 144.61
  Q 59.64 144.49 60.58 145.36
  Q 69.20 153.38 77.81 162.00
  Q 83.44 167.63 87.45 169.49
  C 96.34 173.61 106.90 172.20 114.17 165.81
  Q 116.93 163.39 121.92 155.86
  Q 155.27 105.57 189.65 54.30
  A 0.80 0.80 0.0 0 0 189.36 53.15
  Q 188.73 52.82 188.27 53.28
  Q 148.05 93.32 106.98 134.59
  Q 101.25 140.35 97.33 142.63
  Z
  M 51.69 118.61
  C 46.75 119.95 41.51 121.80 36.53 123.68
  Q 33.42 124.85 36.61 125.77
  C 44.61 128.10 50.73 133.35 56.43 139.34
  Q 57.15 140.10 58.19 140.19
  Q 71.13 141.28 83.50 142.39
  C 90.29 143.00 92.92 135.10 87.64 130.80
  C 80.06 124.63 71.24 117.98 61.91 117.35
  Q 57.45 117.05 51.69 118.61
  Z"
/>
<path fill="#ed1e48" d="
  M 81.52 146.43
  C 86.84 146.85 93.04 145.12 97.33 142.63
  Q 101.25 140.35 106.98 134.59
  Q 148.05 93.32 188.27 53.28
  Q 188.73 52.82 189.36 53.15
  A 0.80 0.80 0.0 0 1 189.65 54.30
  Q 155.27 105.57 121.92 155.86
  Q 116.93 163.39 114.17 165.81
  C 106.90 172.20 96.34 173.61 87.45 169.49
  Q 83.44 167.63 77.81 162.00
  Q 69.20 153.38 60.58 145.36
  Q 59.64 144.49 60.92 144.61
  Q 71.27 145.61 81.52 146.43
  Z"
/>
<path fill="#ed1e48" d="
  M 36.53 123.68
  C 41.51 121.80 46.75 119.95 51.69 118.61
  Q 57.45 117.05 61.91 117.35
  C 71.24 117.98 80.06 124.63 87.64 130.80
  C 92.92 135.10 90.29 143.00 83.50 142.39
  Q 71.13 141.28 58.19 140.19
  Q 57.15 140.10 56.43 139.34
  C 50.73 133.35 44.61 128.10 36.61 125.77
  Q 33.42 124.85 36.53 123.68
  Z"
/>
</svg>
