<?xml version="1.0" encoding="UTF-8" standalone="no"?>
<!DOCTYPE svg PUBLIC "-//W3C//DTD SVG 1.1//EN" "http://www.w3.org/Graphics/SVG/1.1/DTD/svg11.dtd">
<svg xmlns="http://www.w3.org/2000/svg" version="1.1" viewBox="0.00 0.00 830.00 250.00">
<g stroke-width="2.00" fill="none" stroke-linecap="butt">
<path stroke="#4f89ce" vector-effect="non-scaling-stroke" d="
  M 134.56 27.18
  C 132.54 27.75 130.25 27.73 128.49 28.27
  C 119.14 31.15 112.87 39.93 113.87 49.77
  Q 114.75 58.39 122.18 63.77
  Q 123.92 65.04 125.46 66.43"
/>
<path stroke="#4f89ce" vector-effect="non-scaling-stroke" d="
  M 67.60 164.62
  Q 59.74 159.95 51.76 161.16
  C 40.84 162.81 34.00 172.71 35.17 183.50
  Q 35.41 185.68 37.46 191.35"
/>
</g>
<path fill="#0e47a2" d="
  M 134.56 27.18
  C 132.54 27.75 130.25 27.73 128.49 28.27
  C 119.14 31.15 112.87 39.93 113.87 49.77
  Q 114.75 58.39 122.18 63.77
  Q 123.92 65.04 125.46 66.43
  C 105.24 62.76 85.87 68.48 71.33 82.62
  Q 57.68 95.88 54.28 114.74
  Q 49.34 142.14 67.60 164.62
  Q 59.74 159.95 51.76 161.16
  C 40.84 162.81 34.00 172.71 35.17 183.50
  Q 35.41 185.68 37.46 191.35
  A 100.90 100.60 -77.1 0 1 21.34 165.60
  A 100.68 100.64 -49.4 0 1 16.34 100.25
  A 100.65 100.65 0.0 0 1 54.09 44.59
  A 100.67 100.63 -57.2 0 1 134.56 27.18
  Z"
/>
<path fill="#90caf9" d="
  M 134.56 27.18
  A 100.80 100.79 -25.6 0 1 159.35 35.92
  A 100.73 100.70 -0.7 0 1 202.42 78.01
  A 100.73 100.70 30.1 0 1 214.37 122.75
  A 100.67 100.64 66.5 0 1 185.39 196.39
  A 100.70 100.67 -72.0 0 1 128.75 225.21
  A 74.63 54.97 -7.3 0 1 118.25 226.24
  A 100.72 100.63 -29.3 0 1 57.52 209.17
  A 100.56 100.53 -3.4 0 1 37.46 191.35
  Q 35.41 185.68 35.17 183.50
  C 34.00 172.71 40.84 162.81 51.76 161.16
  Q 59.74 159.95 67.60 164.62
  Q 81.81 180.74 102.34 184.75
  Q 112.66 186.77 122.24 185.24
  C 144.38 181.70 162.67 167.37 170.22 146.32
  C 179.59 120.15 170.72 93.12 148.83 76.65
  Q 139.31 69.48 125.46 66.43
  Q 123.92 65.04 122.18 63.77
  Q 114.75 58.39 113.87 49.77
  C 112.87 39.93 119.14 31.15 128.49 28.27
  C 130.25 27.73 132.54 27.75 134.56 27.18
  Z"
/>
<ellipse fill="#0e47a2" cx="387.44" cy="45.86" rx="19.81" ry="18.07"/>
<path fill="#0e47a2" d="
  M 297.75 74.24
  L 297.74 102.01
  A 0.48 0.48 0.0 0 0 298.22 102.49
  L 338.81 102.50
  A 0.48 0.48 0.0 0 1 339.29 102.98
  L 339.34 127.93
  A 0.48 0.48 0.0 0 1 338.86 128.41
  L 298.23 128.36
  A 0.48 0.48 0.0 0 0 297.75 128.84
  L 297.74 183.02
  A 0.48 0.48 0.0 0 1 297.26 183.50
  L 264.98 183.50
  A 0.48 0.48 0.0 0 1 264.50 183.02
  L 264.50 47.59
  A 0.48 0.48 0.0 0 1 264.98 47.11
  L 352.83 47.11
  A 0.48 0.48 0.0 0 1 353.31 47.59
  L 353.31 73.27
  A 0.48 0.48 0.0 0 1 352.83 73.75
  L 298.23 73.76
  A 0.48 0.48 0.0 0 0 297.75 74.24
  Z"
/>
<path fill="#90caf9" d="
  M 559.25 47.20
  L 591.45 47.20
  Q 591.79 47.20 591.79 47.53
  Q 591.75 87.55 591.77 129.42
  C 591.79 144.20 599.43 153.96 615.05 154.25
  C 631.13 154.54 639.71 144.66 639.72 129.00
  Q 639.74 88.46 639.73 47.76
  Q 639.73 47.18 640.31 47.18
  L 672.22 47.20
  Q 672.78 47.20 672.78 47.76
  Q 672.86 92.27 672.74 131.89
  Q 672.72 138.23 670.86 145.30
  C 663.00 175.25 634.89 187.72 605.75 184.28
  C 582.84 181.57 566.11 167.84 560.39 144.90
  C 559.19 140.07 558.75 133.99 558.74 128.66
  Q 558.67 88.27 558.69 47.79
  Q 558.69 47.20 559.25 47.20
  Z"
/>
<path fill="#90caf9" d="
  M 729.46 89.05
  Q 729.47 90.34 730.24 89.31
  C 738.82 77.88 751.42 72.89 765.49 73.64
  C 791.71 75.04 807.99 96.51 810.27 121.42
  C 811.73 137.40 808.81 154.37 799.15 167.00
  Q 785.56 184.75 763.20 185.00
  Q 742.45 185.23 730.12 169.27
  Q 729.39 168.32 729.39 169.52
  L 729.39 234.29
  Q 729.39 235.22 728.46 235.22
  L 696.73 235.21
  Q 696.24 235.21 696.24 234.73
  L 696.24 75.48
  Q 696.24 75.20 696.52 75.20
  L 729.05 75.20
  Q 729.39 75.20 729.39 75.55
  L 729.46 89.05
  Z
  M 752.4723 156.3941
  A 27.11 24.19 91.2 0 0 777.2247 129.7966
  A 27.11 24.19 91.2 0 0 753.6077 102.1859
  A 27.11 24.19 91.2 0 0 728.8553 128.7834
  A 27.11 24.19 91.2 0 0 752.4723 156.3941
  Z"
/>
<path fill="#0e47a2" d="
  M 461.96 88.66
  Q 472.57 75.70 489.76 74.13
  C 508.15 72.45 524.31 80.20 531.87 97.64
  Q 536.01 107.17 536.01 119.65
  Q 536.01 150.96 536.02 182.98
  A 0.52 0.52 0.0 0 1 535.50 183.50
  L 503.29 183.50
  A 0.25 0.24 90.0 0 1 503.05 183.25
  Q 502.90 155.97 503.08 128.45
  Q 503.13 119.48 501.65 115.15
  Q 497.30 102.49 483.13 101.78
  C 469.72 101.10 461.46 110.59 461.41 123.60
  Q 461.32 150.09 461.38 182.40
  A 1.09 1.09 0.0 0 1 460.29 183.49
  L 428.73 183.50
  Q 428.22 183.50 428.22 182.98
  L 428.22 75.83
  Q 428.22 75.13 428.92 75.13
  L 460.74 75.11
  Q 461.38 75.11 461.38 75.74
  L 461.39 88.46
  Q 461.39 89.36 461.96 88.66
  Z"
/>
<path fill="#0e47a2" d="
  M 370.85 183.09
  L 370.84 75.54
  A 0.41 0.41 0.0 0 1 371.25 75.13
  L 403.61 75.13
  A 0.41 0.41 0.0 0 1 404.02 75.54
  L 404.02 183.09
  A 0.41 0.41 0.0 0 1 403.61 183.50
  L 371.26 183.50
  A 0.41 0.41 0.0 0 1 370.85 183.09
  Z"
/>
</svg>
