<?xml version="1.0" encoding="UTF-8" standalone="no"?>
<!DOCTYPE svg PUBLIC "-//W3C//DTD SVG 1.1//EN" "http://www.w3.org/Graphics/SVG/1.1/DTD/svg11.dtd">
<svg xmlns="http://www.w3.org/2000/svg" version="1.1" viewBox="0.00 0.00 830.00 250.00">
<g stroke-width="2.00" fill="none" stroke-linecap="butt">
<path stroke="#072451" vector-effect="non-scaling-stroke" d="
  M 131.88 26.67
  Q 132.21 27.50 130.39 27.87
  Q 129.52 28.05 128.67 28.31
  C 112.97 33.04 108.20 52.33 121.18 63.16
  Q 122.72 64.44 124.05 66.01"
/>
<path stroke="#072451" vector-effect="non-scaling-stroke" d="
  M 66.80 163.73
  Q 64.06 162.84 61.37 161.94
  C 54.01 159.48 45.93 161.30 40.58 166.99
  Q 31.90 176.20 36.65 190.35"
/>
</g>
<path fill="#0e47a2" d="
  M 131.88 26.67
  Q 132.21 27.50 130.39 27.87
  Q 129.52 28.05 128.67 28.31
  C 112.97 33.04 108.20 52.33 121.18 63.16
  Q 122.72 64.44 124.05 66.01
  C 102.51 62.96 82.30 69.89 68.13 86.01
  C 48.74 108.07 48.63 140.57 66.80 163.73
  Q 64.06 162.84 61.37 161.94
  C 54.01 159.48 45.93 161.30 40.58 166.99
  Q 31.90 176.20 36.65 190.35
  A 71.88 51.27 52.9 0 1 30.52 182.24
  A 100.59 100.58 -56.4 0 1 15.08 105.76
  A 100.68 100.63 -15.2 0 1 46.63 50.64
  A 100.68 100.64 -68.8 0 1 103.49 25.54
  A 100.69 100.47 -42.7 0 1 131.88 26.67
  Z"
/>
<path fill="#000000" d="
  M 131.88 26.67
  A 77.37 60.49 13.7 0 1 142.52 29.22
  A 100.66 100.66 0.0 0 1 181.89 51.61
  A 100.66 100.59 15.6 0 1 212.37 105.75
  A 100.68 100.67 52.6 0 1 203.63 170.87
  A 100.67 100.57 -4.1 0 1 171.37 208.13
  A 100.67 100.60 -64.1 0 1 119.50 226.12
  A 100.67 100.65 64.8 0 1 45.17 199.32
  A 87.51 75.43 49.2 0 1 36.65 190.35
  Q 31.90 176.20 40.58 166.99
  C 45.93 161.30 54.01 159.48 61.37 161.94
  Q 64.06 162.84 66.80 163.73
  Q 81.87 181.29 103.80 185.05
  C 125.37 188.76 147.15 180.17 160.56 163.45
  C 184.46 133.65 175.26 90.62 142.03 72.41
  Q 134.25 68.14 124.05 66.01
  Q 122.72 64.44 121.18 63.16
  C 108.20 52.33 112.97 33.04 128.67 28.31
  Q 129.52 28.05 130.39 27.87
  Q 132.21 27.50 131.88 26.67
  Z"
/>
<ellipse fill="#0e47a2" cx="0.00" cy="0.00" transform="translate(387.43,45.86) rotate(-0.1)" rx="19.80" ry="18.07"/>
<path fill="#0e47a2" d="
  M 297.75 74.28
  L 297.75 101.97
  A 0.53 0.53 0.0 0 0 298.28 102.50
  L 338.76 102.50
  A 0.53 0.53 0.0 0 1 339.29 103.03
  L 339.35 127.88
  A 0.53 0.53 0.0 0 1 338.82 128.41
  L 298.28 128.35
  A 0.53 0.53 0.0 0 0 297.75 128.88
  L 297.74 182.97
  A 0.53 0.53 0.0 0 1 297.21 183.50
  L 265.04 183.48
  A 0.53 0.53 0.0 0 1 264.51 182.95
  L 264.50 47.65
  A 0.53 0.53 0.0 0 1 265.03 47.12
  L 352.77 47.13
  A 0.53 0.53 0.0 0 1 353.30 47.66
  L 353.31 73.22
  A 0.53 0.53 0.0 0 1 352.78 73.75
  L 298.28 73.75
  A 0.53 0.53 0.0 0 0 297.75 74.28
  Z"
/>
<path fill="#000000" d="
  M 672.45 47.08
  A 0.47 0.46 -90.0 0 1 672.91 47.55
  Q 672.92 87.63 672.91 128.03
  Q 672.91 138.66 670.42 147.14
  C 665.17 165.00 652.02 177.31 634.24 182.27
  C 617.87 186.84 597.80 185.84 582.92 176.79
  C 565.63 166.28 558.61 148.38 558.60 128.45
  Q 558.59 88.31 558.60 47.63
  A 0.54 0.54 0.0 0 1 559.14 47.09
  L 591.45 47.09
  A 0.36 0.35 -0.0 0 1 591.81 47.44
  Q 591.82 87.52 591.81 128.42
  C 591.80 145.92 601.38 155.85 619.28 153.99
  C 633.54 152.51 639.63 142.38 639.65 128.75
  Q 639.70 87.28 639.68 47.68
  A 0.59 0.59 0.0 0 1 640.27 47.09
  L 672.45 47.08
  Z"
/>
<path fill="#000000" d="
  M 729.91 169.13
  Q 729.46 168.54 729.46 169.28
  L 729.47 234.51
  A 0.73 0.73 0.0 0 1 728.74 235.24
  L 696.72 235.23
  A 0.51 0.50 90.0 0 1 696.22 234.72
  L 696.22 75.69
  A 0.60 0.59 90.0 0 1 696.81 75.09
  L 728.85 75.09
  A 0.64 0.63 90.0 0 1 729.48 75.73
  L 729.45 89.32
  Q 729.45 90.36 730.06 89.52
  C 738.84 77.56 752.39 72.35 767.15 73.71
  C 790.94 75.89 806.48 94.61 809.84 117.61
  C 812.30 134.50 809.64 153.11 799.30 166.83
  Q 785.67 184.91 762.95 185.08
  Q 742.33 185.23 729.91 169.13
  Z
  M 752.5679 156.3359
  A 27.05 24.13 91.0 0 0 777.1663 129.7111
  A 27.05 24.13 91.0 0 0 753.5121 102.2441
  A 27.05 24.13 91.0 0 0 728.9137 128.8689
  A 27.05 24.13 91.0 0 0 752.5679 156.3359
  Z"
/>
<path fill="#0e47a2" d="
  M 461.95 88.67
  Q 474.99 72.82 497.33 74.04
  Q 516.60 75.08 527.25 89.49
  C 534.91 99.86 536.16 111.80 536.09 125.20
  Q 535.93 155.48 536.05 182.98
  A 0.50 0.50 0.0 0 1 535.55 183.49
  L 503.30 183.49
  A 0.31 0.30 -0.0 0 1 502.99 183.19
  Q 503.04 152.70 502.96 123.51
  C 502.93 112.23 496.69 103.24 485.30 101.95
  C 471.21 100.35 461.47 109.25 461.42 123.23
  Q 461.31 153.12 461.35 182.58
  Q 461.35 183.47 460.46 183.47
  L 428.48 183.50
  A 0.27 0.26 90.0 0 1 428.22 183.23
  L 428.21 75.50
  A 0.35 0.35 0.0 0 1 428.56 75.15
  L 460.76 75.17
  Q 461.36 75.17 461.36 75.76
  L 461.38 88.47
  Q 461.38 89.36 461.95 88.67
  Z"
/>
<rect fill="#0e47a2" x="370.84" y="75.17" width="33.18" height="108.32" rx="0.42"/>
</svg>
