<?xml version="1.0" encoding="UTF-8" standalone="no"?>
<!DOCTYPE svg PUBLIC "-//W3C//DTD SVG 1.1//EN" "http://www.w3.org/Graphics/SVG/1.1/DTD/svg11.dtd">
<svg xmlns="http://www.w3.org/2000/svg" version="1.1" viewBox="0.00 0.00 512.00 512.00">
<path fill="#000000" d="
  M 254.61 0.00
  L 257.50 0.00
  Q 274.94 1.12 286.40 12.10
  Q 301.26 26.32 318.16 42.56
  Q 323.83 48.01 331.25 46.93
  Q 349.10 44.34 367.21 41.81
  Q 378.47 40.24 383.34 40.64
  Q 392.37 41.40 399.44 44.85
  Q 414.26 52.08 421.01 67.24
  Q 423.61 73.10 425.76 86.12
  Q 428.76 104.35 431.64 119.80
  Q 433.09 127.54 439.89 131.12
  Q 458.38 140.86 477.49 151.16
  C 499.08 162.79 507.54 188.11 496.94 210.38
  Q 488.81 227.45 478.75 247.64
  C 476.10 252.96 475.64 257.93 478.27 263.25
  Q 487.97 282.94 497.26 302.35
  C 507.43 323.59 498.86 349.22 478.23 360.41
  Q 461.35 369.57 443.39 378.98
  C 437.19 382.22 433.03 385.08 431.76 391.52
  Q 431.28 393.97 424.14 434.32
  C 419.92 458.15 398.44 474.20 373.99 471.05
  Q 354.53 468.53 334.47 465.48
  C 327.78 464.47 322.67 464.89 317.96 469.46
  Q 301.65 485.30 286.52 499.79
  Q 274.90 510.93 257.37 512.00
  L 254.64 512.00
  Q 237.14 510.94 225.73 500.03
  Q 209.98 484.96 193.91 469.33
  C 189.86 465.39 184.94 464.45 179.34 465.27
  Q 159.64 468.12 138.59 471.03
  C 117.86 473.90 98.10 462.90 90.51 443.53
  Q 88.13 437.46 86.10 425.13
  Q 83.26 407.86 80.27 391.74
  C 79.08 385.33 74.99 382.26 68.82 379.07
  Q 52.30 370.55 33.76 360.41
  C 20.97 353.42 11.95 340.27 10.76 325.72
  Q 9.70 312.79 14.67 302.45
  Q 24.09 282.82 33.90 262.91
  C 36.54 257.56 35.69 252.41 33.06 247.17
  Q 24.03 229.21 15.43 211.20
  Q 7.32 194.23 12.57 177.38
  Q 17.90 160.30 33.83 151.62
  Q 52.44 141.49 72.46 130.92
  Q 78.93 127.51 80.40 119.58
  Q 83.57 102.47 86.16 86.56
  Q 88.27 73.58 90.83 67.68
  Q 97.50 52.32 112.41 44.94
  Q 119.77 41.30 128.32 40.70
  Q 134.61 40.25 143.64 41.60
  Q 162.88 44.49 181.20 46.94
  Q 188.10 47.86 193.49 42.74
  Q 208.97 28.04 225.48 12.21
  Q 237.08 1.08 254.61 0.00
  Z
  M 109.45 124.89
  C 106.86 139.09 98.79 150.31 85.87 157.24
  Q 68.06 166.80 49.78 176.33
  C 43.80 179.45 39.83 184.09 39.98 191.04
  Q 40.06 194.97 43.88 202.50
  Q 52.48 219.50 59.71 234.52
  Q 69.88 255.65 60.89 274.71
  Q 52.56 292.36 43.31 310.72
  C 39.76 317.77 38.14 324.22 43.19 330.60
  Q 45.53 333.56 53.05 337.43
  Q 69.85 346.08 85.47 354.54
  Q 105.29 365.28 109.26 386.33
  Q 112.68 404.47 116.14 425.50
  C 117.44 433.44 119.91 439.06 127.63 441.47
  Q 130.66 442.41 138.38 441.33
  Q 152.69 439.32 167.24 437.10
  Q 180.33 435.09 187.00 435.62
  Q 202.38 436.84 214.65 448.43
  Q 229.17 462.14 243.55 476.37
  C 248.62 481.39 254.40 483.99 261.30 481.40
  Q 264.34 480.25 267.99 476.74
  Q 280.36 464.83 291.19 454.14
  Q 300.57 444.89 306.06 441.59
  Q 319.06 433.77 335.30 435.90
  Q 354.86 438.48 374.51 441.47
  C 382.00 442.62 387.93 441.87 392.46 435.73
  Q 394.64 432.78 395.86 425.46
  Q 398.88 407.26 402.28 388.17
  Q 406.37 365.23 426.66 354.45
  Q 444.30 345.09 462.00 335.74
  Q 465.91 333.67 468.08 331.44
  C 471.56 327.83 473.07 321.76 471.30 316.91
  Q 470.37 314.36 469.15 311.82
  Q 462.24 297.40 455.45 283.98
  Q 449.50 272.22 448.01 265.83
  Q 444.57 251.05 451.44 236.59
  Q 459.80 218.98 468.48 201.70
  Q 471.24 196.20 471.81 192.82
  Q 472.89 186.53 468.73 181.26
  Q 466.57 178.53 458.10 174.14
  Q 441.76 165.67 426.07 157.21
  Q 412.00 149.63 405.81 135.77
  Q 403.24 130.00 401.12 117.42
  Q 398.69 102.98 395.93 86.97
  Q 394.82 80.50 393.35 77.75
  Q 390.53 72.46 384.46 70.59
  Q 380.91 69.50 372.51 70.80
  Q 354.03 73.66 336.49 75.97
  Q 313.25 79.04 297.71 64.04
  Q 283.28 50.10 269.70 36.93
  Q 264.80 32.18 262.17 30.97
  C 254.73 27.53 248.54 30.67 242.81 36.34
  Q 228.69 50.30 214.51 63.72
  Q 198.43 78.94 177.13 76.14
  Q 156.86 73.49 138.16 70.59
  Q 132.10 69.65 128.42 70.41
  Q 122.87 71.55 119.36 76.54
  Q 117.38 79.37 116.30 85.67
  Q 112.16 109.99 109.45 124.89
  Z"
/>
<path fill="#000000" d="
  M 250.99 177.26
  A 54.05 54.05 0.0 0 1 196.94 231.31
  A 54.05 54.05 0.0 0 1 142.89 177.26
  A 54.05 54.05 0.0 0 1 196.94 123.21
  A 54.05 54.05 0.0 0 1 250.99 177.26
  Z
  M 221.48 177.26
  A 24.53 24.53 0.0 0 0 196.95 152.73
  A 24.53 24.53 0.0 0 0 172.42 177.26
  A 24.53 24.53 0.0 0 0 196.95 201.79
  A 24.53 24.53 0.0 0 0 221.48 177.26
  Z"
/>
<rect fill="#000000" x="-152.49" y="-14.76" transform="translate(256.00,256.00) rotate(-45.0)" width="304.98" height="29.52" rx="14.65"/>
<path fill="#000000" d="
  M 369.11 334.75
  A 54.05 54.05 0.0 0 1 315.06 388.80
  A 54.05 54.05 0.0 0 1 261.01 334.75
  A 54.05 54.05 0.0 0 1 315.06 280.70
  A 54.05 54.05 0.0 0 1 369.11 334.75
  Z
  M 339.58 334.75
  A 24.53 24.53 0.0 0 0 315.05 310.22
  A 24.53 24.53 0.0 0 0 290.52 334.75
  A 24.53 24.53 0.0 0 0 315.05 359.28
  A 24.53 24.53 0.0 0 0 339.58 334.75
  Z"
/>
</svg>
