<?xml version="1.0" encoding="UTF-8" standalone="no"?>
<!DOCTYPE svg PUBLIC "-//W3C//DTD SVG 1.1//EN" "http://www.w3.org/Graphics/SVG/1.1/DTD/svg11.dtd">
<svg xmlns="http://www.w3.org/2000/svg" version="1.1" viewBox="0.00 0.00 1885.00 544.00">
<path fill="#006fcf" d="
  M 348.00 87.54
  C 348.47 113.36 348.12 141.05 348.20 169.43
  Q 348.31 207.44 348.21 244.54
  A 0.42 0.42 0.0 0 1 347.79 244.96
  L 290.74 244.96
  Q 290.02 244.96 290.02 244.24
  L 290.08 24.48
  A 0.70 0.70 0.0 0 1 290.78 23.78
  L 382.17 23.78
  Q 382.83 23.78 383.05 24.41
  L 433.04 161.97
  Q 433.75 163.93 434.27 161.91
  Q 434.76 160.02 435.41 158.21
  Q 458.95 93.05 482.52 27.55
  Q 483.18 25.73 484.12 23.97
  A 0.69 0.69 0.0 0 1 484.86 23.62
  Q 486.25 23.90 487.75 23.89
  Q 531.51 23.60 575.22 23.96
  A 0.57 0.57 0.0 0 1 575.78 24.53
  L 575.75 244.24
  A 0.75 0.74 90.0 0 1 575.01 244.99
  L 518.22 244.95
  Q 517.71 244.95 517.71 244.43
  Q 517.67 166.34 517.65 88.25
  Q 517.65 87.76 517.46 87.46
  A 0.25 0.24 39.2 0 0 517.02 87.50
  L 459.45 244.25
  Q 459.20 244.96 458.45 244.96
  L 407.45 244.95
  A 1.23 1.23 0.0 0 1 406.30 244.15
  Q 378.45 168.17 350.70 92.78
  Q 349.72 90.12 348.63 87.41
  Q 347.96 85.74 348.00 87.54
  Z"
/>
<path fill="#006fcf" d="
  M 680.54 74.33
  A 0.51 0.51 0.0 0 0 680.03 74.85
  Q 680.06 87.91 679.79 101.22
  C 679.75 103.51 680.12 105.80 680.06 108.08
  A 0.96 0.96 0.0 0 0 680.98 109.07
  Q 684.44 109.22 688.25 109.22
  Q 745.25 109.14 802.25 109.25
  Q 803.28 109.25 803.87 109.09
  Q 804.75 108.85 804.75 109.76
  L 804.74 158.54
  Q 804.74 159.81 803.48 159.68
  Q 802.31 159.56 800.50 159.55
  Q 740.41 159.52 680.51 159.53
  A 0.64 0.64 0.0 0 0 679.87 160.20
  Q 680.32 172.24 679.83 185.25
  Q 679.66 189.81 680.09 194.20
  A 0.88 0.87 -2.9 0 0 680.96 194.98
  L 807.38 195.01
  A 0.63 0.62 0.0 0 1 808.01 195.63
  L 807.91 244.47
  A 0.51 0.51 0.0 0 1 807.40 244.97
  L 621.47 244.97
  Q 620.98 244.97 620.98 244.47
  L 620.98 24.57
  A 0.82 0.82 0.0 0 1 621.80 23.75
  L 807.25 23.82
  Q 807.97 23.82 807.97 24.52
  L 807.90 73.70
  Q 807.90 74.30 807.30 74.30
  L 680.54 74.33
  Z"
/>
<path fill="#006fcf" d="
  M 91.79 200.25
  A 1.11 1.11 0.0 0 0 90.76 200.94
  L 72.74 244.30
  Q 72.46 244.98 71.72 244.98
  Q 40.52 244.91 10.21 244.99
  Q 9.21 244.99 8.22 245.12
  Q 7.17 245.25 7.60 244.28
  L 104.61 24.70
  Q 105.01 23.81 105.98 23.81
  L 180.72 23.78
  A 0.83 0.82 -12.3 0 1 181.47 24.26
  L 278.59 244.15
  Q 278.95 244.96 278.06 244.96
  L 212.75 244.95
  A 0.77 0.76 78.2 0 1 212.05 244.49
  L 193.56 200.75
  A 0.83 0.82 -11.2 0 0 192.80 200.25
  L 91.79 200.25
  Z
  M 111.38 151.25
  A 0.30 0.30 0.0 0 0 111.66 151.67
  L 172.74 151.67
  A 0.30 0.30 0.0 0 0 173.02 151.25
  L 142.48 78.47
  A 0.30 0.30 0.0 0 0 141.92 78.47
  L 111.38 151.25
  Z"
/>
<path fill="#006fcf" d="
  M 995.52 164.70
  A 0.78 0.78 0.0 0 0 995.09 165.99
  L 1066.73 244.01
  Q 1068.20 245.61 1066.06 245.22
  Q 1064.84 245.00 1063.76 245.00
  Q 1028.35 244.91 995.34 244.99
  A 2.31 2.31 0.0 0 1 993.60 244.20
  L 928.00 168.76
  Q 927.03 167.63 925.39 167.63
  L 906.43 167.58
  A 0.82 0.81 -89.7 0 0 905.61 168.40
  Q 905.61 203.72 905.64 238.69
  Q 905.65 241.40 905.49 244.31
  A 0.70 0.70 0.0 0 1 904.79 244.98
  L 847.16 244.96
  Q 846.62 244.96 846.62 244.50
  L 846.57 24.73
  Q 846.57 23.79 847.51 23.79
  Q 905.74 23.79 965.00 23.74
  C 977.86 23.73 989.20 24.50 1000.67 27.43
  C 1037.95 36.96 1058.00 69.04 1052.51 106.63
  Q 1049.65 126.22 1037.07 141.11
  C 1026.78 153.28 1010.97 161.65 995.52 164.70
  Z
  M 905.60 75.06
  L 905.60 118.20
  A 0.73 0.73 0.0 0 0 906.33 118.93
  L 969.36 118.93
  A 24.82 21.55 -0.0 0 0 994.18 97.38
  L 994.18 95.88
  A 24.82 21.55 0.0 0 0 969.36 74.33
  L 906.33 74.33
  A 0.73 0.73 0.0 0 0 905.60 75.06
  Z"
/>
<rect fill="#006fcf" x="1084.50" y="23.79" width="59.18" height="221.18" rx="0.77"/>
<path fill="#006fcf" d="
  M 1325.75 195.98
  L 1302.89 244.46
  Q 1302.65 244.96 1302.10 244.96
  Q 1289.55 245.02 1278.16 244.89
  C 1252.28 244.61 1227.12 236.87 1207.67 219.81
  C 1190.16 204.45 1179.63 181.64 1176.54 158.63
  Q 1173.22 133.93 1176.74 110.19
  C 1179.33 92.74 1186.25 75.58 1197.34 61.52
  C 1219.11 33.93 1252.77 24.23 1287.25 23.88
  Q 1314.48 23.61 1355.46 23.93
  A 0.63 0.62 90.0 0 1 1356.08 24.56
  L 1356.00 75.68
  A 0.36 0.35 90.0 0 1 1355.65 76.04
  Q 1323.13 75.89 1288.98 76.10
  C 1260.41 76.27 1238.93 92.01 1234.92 120.97
  Q 1233.22 133.26 1234.75 146.89
  C 1236.66 163.86 1244.25 178.92 1259.22 187.19
  C 1270.85 193.62 1283.49 194.98 1296.63 195.01
  Q 1309.74 195.04 1322.69 194.92
  Q 1323.70 194.92 1324.78 194.72
  Q 1326.49 194.41 1325.75 195.98
  Z"
/>
<path fill="#006fcf" d="
  M 1515.96 200.25
  L 1413.98 200.26
  A 0.31 0.31 0.0 0 0 1413.69 200.45
  L 1395.35 244.76
  A 0.31 0.31 0.0 0 1 1395.06 244.95
  L 1330.60 244.97
  A 0.31 0.31 0.0 0 1 1330.31 244.53
  L 1427.75 23.98
  A 0.31 0.31 0.0 0 1 1428.03 23.80
  L 1503.77 23.79
  A 0.31 0.31 0.0 0 1 1504.05 23.97
  L 1601.50 244.53
  A 0.31 0.31 0.0 0 1 1601.21 244.97
  L 1535.25 244.95
  A 0.31 0.31 0.0 0 1 1534.96 244.76
  L 1516.25 200.44
  A 0.31 0.31 0.0 0 0 1515.96 200.25
  Z
  M 1434.32 151.04
  A 0.46 0.46 0.0 0 0 1434.74 151.68
  L 1495.24 151.68
  A 0.46 0.46 0.0 0 0 1495.66 151.04
  L 1465.41 78.83
  A 0.46 0.46 0.0 0 0 1464.57 78.83
  L 1434.32 151.04
  Z"
/>
<path fill="#006fcf" d="
  M 1776.16 157.75
  Q 1777.47 158.45 1777.47 156.97
  Q 1777.44 93.77 1777.51 24.80
  Q 1777.51 23.83 1778.48 23.82
  Q 1809.09 23.63 1835.12 24.02
  Q 1835.65 24.03 1835.66 24.55
  Q 1835.81 34.50 1835.82 43.00
  Q 1835.91 142.60 1835.74 220.50
  Q 1835.71 232.34 1835.75 244.69
  A 0.27 0.27 0.0 0 1 1835.48 244.97
  L 1764.99 244.97
  A 1.15 1.15 0.0 0 1 1764.03 244.45
  L 1672.33 106.31
  Q 1671.51 105.07 1671.51 106.56
  L 1671.52 244.73
  A 0.25 0.24 -0.0 0 1 1671.27 244.97
  L 1613.53 244.96
  Q 1612.86 244.96 1612.86 244.28
  L 1612.85 24.15
  A 0.38 0.38 0.0 0 1 1613.23 23.77
  L 1685.97 23.78
  Q 1687.23 23.79 1687.92 24.83
  Q 1731.89 90.70 1775.53 156.11
  Q 1775.76 156.46 1775.86 156.91
  Q 1776.01 157.67 1776.16 157.75
  Z"
/>
<path fill="#006fcf" d="
  M 621.70 374.69
  A 0.54 0.54 0.0 0 0 622.55 374.73
  L 679.03 309.31
  A 2.26 2.24 20.3 0 1 680.73 308.54
  L 754.49 308.53
  Q 754.80 308.53 754.59 308.77
  Q 710.64 358.14 666.62 407.62
  Q 662.84 411.87 659.16 415.78
  A 0.78 0.78 0.0 0 0 659.15 416.83
  L 758.21 528.88
  A 0.40 0.40 0.0 0 1 757.91 529.54
  L 682.49 529.53
  Q 681.99 529.53 681.63 529.17
  Q 679.88 527.42 678.30 525.59
  Q 650.96 493.94 621.69 459.93
  A 0.64 0.64 0.0 0 0 620.72 459.93
  L 561.43 528.80
  Q 560.80 529.54 559.83 529.54
  L 486.45 529.53
  A 0.40 0.40 0.0 0 1 486.15 528.87
  L 584.65 417.98
  Q 584.90 417.70 584.65 417.42
  L 488.24 309.23
  A 0.44 0.44 0.0 0 1 488.57 308.49
  Q 526.61 308.60 563.15 308.53
  Q 564.79 308.52 565.86 309.77
  Q 595.31 344.08 618.79 371.03
  Q 620.39 372.86 621.70 374.69
  Z"
/>
<path fill="#006fcf" d="
  M 349.22 444.04
  L 349.21 477.93
  Q 349.21 479.04 350.31 479.04
  Q 406.67 479.03 456.77 478.99
  C 463.48 478.98 470.21 479.29 476.75 479.33
  A 0.50 0.50 0.0 0 1 477.25 479.83
  L 477.20 528.80
  Q 477.19 529.54 476.45 529.54
  L 290.54 529.53
  A 0.49 0.49 0.0 0 1 290.05 529.04
  L 290.06 309.32
  Q 290.06 308.87 290.51 308.84
  Q 296.36 308.48 303.46 308.49
  Q 388.89 308.58 476.30 308.56
  A 0.90 0.90 0.0 0 1 477.20 309.46
  L 477.21 357.23
  Q 477.21 358.65 475.80 358.65
  Q 429.15 358.65 380.74 358.74
  Q 365.35 358.77 350.04 358.43
  A 0.82 0.81 -89.3 0 0 349.21 359.25
  L 349.21 393.10
  A 0.64 0.63 0.0 0 0 349.85 393.73
  L 473.01 393.77
  Q 473.99 393.77 473.99 394.76
  L 474.01 443.16
  A 0.67 0.66 0.0 0 1 473.34 443.82
  L 349.46 443.79
  A 0.25 0.24 90.0 0 0 349.22 444.04
  Z"
/>
<path fill="#006fcf" d="
  M 824.68 457.81
  L 824.72 528.00
  Q 824.72 529.55 823.21 529.55
  L 766.45 529.53
  Q 765.62 529.53 765.62 528.70
  L 765.62 309.05
  A 0.46 0.46 0.0 0 1 766.08 308.59
  Q 829.45 308.47 896.90 308.62
  Q 914.55 308.66 930.21 314.80
  C 952.11 323.39 967.46 341.78 972.19 364.83
  Q 976.42 385.38 971.22 404.68
  C 962.99 435.22 936.06 453.91 904.90 456.70
  Q 898.47 457.28 892.08 457.29
  Q 858.49 457.35 825.23 457.27
  A 0.55 0.54 -0.0 0 0 824.68 457.81
  Z
  M 824.57 359.55
  L 824.57 406.31
  A 0.93 0.93 0.0 0 0 825.50 407.24
  L 890.11 407.24
  A 24.72 23.44 0.0 0 0 914.83 383.80
  L 914.83 382.06
  A 24.72 23.44 -0.0 0 0 890.11 358.62
  L 825.50 358.62
  A 0.93 0.93 0.0 0 0 824.57 359.55
  Z"
/>
<path fill="#006fcf" d="
  M 1059.41 451.97
  Q 1058.54 451.97 1058.54 452.84
  L 1058.55 528.50
  Q 1058.55 529.56 1057.50 529.56
  L 1000.26 529.52
  Q 999.50 529.52 999.50 528.76
  L 999.41 309.04
  Q 999.41 308.56 999.89 308.56
  Q 1057.86 308.52 1127.56 308.58
  Q 1144.31 308.60 1158.24 313.07
  C 1182.53 320.87 1199.75 338.79 1204.81 363.95
  Q 1209.02 384.85 1201.79 405.42
  Q 1198.36 415.18 1191.50 423.52
  Q 1175.11 443.43 1148.47 449.00
  Q 1148.15 449.07 1147.89 449.28
  A 0.62 0.60 49.6 0 0 1147.83 450.17
  L 1220.26 528.96
  A 0.35 0.35 0.0 0 1 1220.01 529.55
  L 1148.79 529.52
  Q 1147.43 529.52 1146.54 528.50
  L 1080.70 452.88
  A 2.51 2.50 69.2 0 0 1078.82 452.03
  L 1059.41 451.97
  Z
  M 1058.61 359.33
  L 1058.47 402.11
  A 0.83 0.83 0.0 0 0 1059.29 402.94
  L 1122.20 403.16
  A 24.72 21.13 0.2 0 0 1147.00 382.11
  L 1147.00 379.93
  A 24.72 21.13 0.2 0 0 1122.36 358.72
  L 1059.45 358.50
  A 0.83 0.83 0.0 0 0 1058.61 359.33
  Z"
/>
<path fill="#006fcf" d="
  M 1297.00 358.65
  Q 1296.48 358.65 1296.48 359.21
  L 1296.46 393.23
  A 0.52 0.51 0.0 0 0 1296.98 393.74
  L 1420.54 393.76
  Q 1421.30 393.76 1421.30 394.52
  L 1421.29 443.50
  Q 1421.29 444.03 1420.76 444.00
  Q 1417.43 443.83 1414.23 443.83
  Q 1355.65 443.80 1297.39 443.81
  A 0.93 0.93 0.0 0 0 1296.46 444.74
  L 1296.48 478.44
  A 0.58 0.58 0.0 0 0 1297.06 479.02
  L 1423.75 479.05
  Q 1424.49 479.05 1424.49 479.77
  L 1424.51 528.52
  Q 1424.51 529.54 1423.48 529.54
  L 1238.25 529.53
  A 0.79 0.79 0.0 0 1 1237.46 528.74
  L 1237.47 309.03
  Q 1237.47 308.54 1237.97 308.54
  L 1423.92 308.59
  A 0.58 0.58 0.0 0 1 1424.50 309.17
  L 1424.51 357.71
  Q 1424.51 358.67 1423.55 358.67
  L 1297.00 358.65
  Z"
/>
<path fill="#006fcf" d="
  M 1649.42 309.88
  Q 1638.54 332.99 1627.24 357.93
  A 1.06 1.06 0.0 0 1 1626.27 358.56
  Q 1577.34 358.78 1534.25 358.54
  Q 1526.51 358.50 1522.02 359.51
  C 1515.41 360.99 1509.66 366.31 1508.66 373.30
  C 1506.74 386.85 1517.74 393.85 1529.82 393.78
  Q 1559.03 393.61 1584.93 393.87
  Q 1596.39 393.99 1609.11 397.12
  Q 1623.06 400.56 1634.22 409.82
  C 1650.59 423.40 1655.87 446.05 1653.54 466.37
  Q 1648.61 509.56 1608.26 524.15
  C 1596.69 528.33 1583.37 529.59 1570.73 529.57
  Q 1515.04 529.51 1457.12 529.52
  A 0.92 0.91 -0.0 0 1 1456.20 528.61
  L 1456.25 479.44
  A 0.33 0.33 0.0 0 1 1456.58 479.11
  Q 1516.63 478.96 1577.00 479.04
  C 1586.26 479.06 1594.99 471.89 1594.93 462.01
  Q 1594.86 450.18 1584.27 445.59
  C 1580.58 444.00 1575.68 443.85 1571.59 443.84
  Q 1544.86 443.75 1519.80 443.83
  Q 1506.42 443.87 1493.37 439.94
  Q 1480.52 436.08 1470.35 427.76
  Q 1467.52 425.44 1465.70 423.18
  C 1463.80 420.82 1461.64 418.67 1459.94 416.15
  C 1449.91 401.36 1447.47 381.01 1450.74 363.69
  C 1457.82 326.13 1491.24 308.68 1526.90 308.61
  Q 1594.39 308.49 1649.39 308.56
  Q 1650.01 308.56 1649.76 309.14
  Q 1649.59 309.51 1649.42 309.88
  Z"
/>
<path fill="#006fcf" d="
  M 1866.96 308.97
  L 1844.40 358.06
  Q 1844.14 358.63 1843.51 358.63
  Q 1797.00 358.73 1749.51 358.53
  C 1742.18 358.50 1735.62 359.29 1730.44 364.44
  Q 1725.36 369.49 1725.75 376.88
  C 1726.36 388.59 1736.22 393.75 1746.88 393.75
  Q 1774.36 393.73 1798.23 393.76
  C 1813.12 393.78 1828.19 396.04 1840.34 402.37
  Q 1862.81 414.09 1868.93 438.18
  Q 1874.82 461.31 1866.68 484.93
  C 1859.27 506.46 1840.00 521.01 1818.40 526.23
  C 1808.58 528.61 1798.97 529.60 1788.27 529.58
  Q 1730.87 529.48 1674.38 529.54
  Q 1673.62 529.54 1673.63 528.79
  L 1673.68 479.99
  Q 1673.68 479.12 1674.55 479.11
  Q 1729.72 478.91 1793.20 479.08
  C 1804.11 479.11 1813.79 470.94 1812.13 459.63
  C 1810.30 447.09 1800.48 443.78 1789.38 443.80
  Q 1763.52 443.85 1737.59 443.79
  C 1731.67 443.78 1725.07 443.50 1719.31 442.01
  C 1715.96 441.14 1712.43 440.63 1709.21 439.53
  Q 1695.23 434.74 1685.99 426.35
  Q 1682.67 423.33 1678.31 417.76
  Q 1674.17 412.46 1671.46 405.16
  Q 1663.73 384.34 1668.16 362.70
  C 1672.47 341.68 1685.87 325.17 1705.62 316.36
  C 1718.52 310.60 1732.42 308.59 1746.85 308.58
  Q 1805.96 308.55 1866.67 308.53
  A 0.32 0.31 12.0 0 1 1866.96 308.97
  Z"
/>
</svg>
