<?xml version="1.0" encoding="UTF-8" standalone="no"?>
<!DOCTYPE svg PUBLIC "-//W3C//DTD SVG 1.1//EN" "http://www.w3.org/Graphics/SVG/1.1/DTD/svg11.dtd">
<svg xmlns="http://www.w3.org/2000/svg" version="1.1" viewBox="0.00 0.00 1627.00 1288.00">
<g stroke-width="2.00" fill="none" stroke-linecap="butt">
<path stroke="#80bcdf" vector-effect="non-scaling-stroke" d="
  M 1240.62 642.81
  A 589.58 589.58 0.0 0 0 651.04 53.23
  A 589.58 589.58 0.0 0 0 61.46 642.81
  A 589.58 589.58 0.0 0 0 651.04 1232.39
  A 589.58 589.58 0.0 0 0 1240.62 642.81"
/>
<path stroke="#80bcdf" vector-effect="non-scaling-stroke" d="
  M 300.13 514.88
  Q 277.26 577.57 277.45 643.75
  Q 277.65 710.59 300.98 773.09
  Q 322.88 831.73 361.54 878.72
  Q 424.34 955.05 516.50 991.29
  A 0.54 0.53 -79.2 0 0 517.23 990.79
  L 517.23 294.71
  A 0.43 0.42 79.3 0 0 516.65 294.31
  C 416.28 333.51 337.12 413.43 300.13 514.88"
/>
<path stroke="#80bcdf" vector-effect="non-scaling-stroke" d="
  M 995.92 786.41
  Q 1021.66 725.00 1024.49 656.75
  Q 1024.90 646.90 1024.68 636.74
  Q 1022.34 531.09 966.20 442.36
  Q 960.75 433.73 955.07 425.89
  Q 889.66 335.47 785.44 294.23
  A 0.52 0.52 0.0 0 0 784.73 294.72
  L 784.73 991.20
  A 0.32 0.31 79.4 0 0 785.16 991.50
  C 880.43 954.50 956.40 880.66 995.92 786.41"
/>
</g>
<path fill="#0079be" d="
  M 629.87 0.00
  L 972.25 0.00
  Q 982.24 0.66 992.23 1.21
  Q 1093.41 6.78 1187.61 40.40
  Q 1323.20 88.78 1427.03 185.83
  Q 1434.31 192.63 1441.48 199.90
  Q 1484.78 243.76 1516.49 290.29
  Q 1610.66 428.48 1624.10 597.80
  Q 1625.58 616.45 1625.98 636.78
  Q 1628.23 751.39 1586.73 859.16
  C 1536.98 988.37 1444.09 1097.96 1329.03 1173.84
  Q 1238.62 1233.47 1134.38 1263.13
  Q 1057.28 1285.07 974.61 1288.00
  L 628.00 1288.00
  Q 595.97 1286.64 574.20 1284.12
  Q 425.28 1266.88 299.77 1187.37
  C 180.04 1111.54 87.80 998.86 38.43 865.55
  Q 7.93 783.21 1.67 694.24
  Q 0.76 681.44 0.00 668.63
  L 0.00 628.75
  Q 0.84 612.87 1.90 597.02
  Q 4.42 559.43 10.76 524.38
  Q 25.43 443.23 57.37 372.07
  C 93.13 292.39 145.07 220.62 210.38 162.75
  Q 312.38 72.38 443.39 31.17
  Q 510.84 9.96 581.26 3.20
  Q 602.97 1.11 613.75 0.75
  Q 625.49 0.35 629.87 0.00
  Z
  M 1240.62 642.81
  A 589.58 589.58 0.0 0 0 651.04 53.23
  A 589.58 589.58 0.0 0 0 61.46 642.81
  A 589.58 589.58 0.0 0 0 651.04 1232.39
  A 589.58 589.58 0.0 0 0 1240.62 642.81
  Z"
/>
<path fill="#ffffff" d="
  M 1240.62 642.81
  A 589.58 589.58 0.0 0 1 651.04 1232.39
  A 589.58 589.58 0.0 0 1 61.46 642.81
  A 589.58 589.58 0.0 0 1 651.04 53.23
  A 589.58 589.58 0.0 0 1 1240.62 642.81
  Z
  M 300.13 514.88
  Q 277.26 577.57 277.45 643.75
  Q 277.65 710.59 300.98 773.09
  Q 322.88 831.73 361.54 878.72
  Q 424.34 955.05 516.50 991.29
  A 0.54 0.53 -79.2 0 0 517.23 990.79
  L 517.23 294.71
  A 0.43 0.42 79.3 0 0 516.65 294.31
  C 416.28 333.51 337.12 413.43 300.13 514.88
  Z
  M 995.92 786.41
  Q 1021.66 725.00 1024.49 656.75
  Q 1024.90 646.90 1024.68 636.74
  Q 1022.34 531.09 966.20 442.36
  Q 960.75 433.73 955.07 425.89
  Q 889.66 335.47 785.44 294.23
  A 0.52 0.52 0.0 0 0 784.73 294.72
  L 784.73 991.20
  A 0.32 0.31 79.4 0 0 785.16 991.50
  C 880.43 954.50 956.40 880.66 995.92 786.41
  Z"
/>
<path fill="#0079be" d="
  M 300.13 514.88
  C 337.12 413.43 416.28 333.51 516.65 294.31
  A 0.43 0.42 79.3 0 1 517.23 294.71
  L 517.23 990.79
  A 0.54 0.53 -79.2 0 1 516.50 991.29
  Q 424.34 955.05 361.54 878.72
  Q 322.88 831.73 300.98 773.09
  Q 277.65 710.59 277.45 643.75
  Q 277.26 577.57 300.13 514.88
  Z"
/>
<path fill="#0079be" d="
  M 995.92 786.41
  C 956.40 880.66 880.43 954.50 785.16 991.50
  A 0.32 0.31 79.4 0 1 784.73 991.20
  L 784.73 294.72
  A 0.52 0.52 0.0 0 1 785.44 294.23
  Q 889.66 335.47 955.07 425.89
  Q 960.75 433.73 966.20 442.36
  Q 1022.34 531.09 1024.68 636.74
  Q 1024.90 646.90 1024.49 656.75
  Q 1021.66 725.00 995.92 786.41
  Z"
/>
</svg>
