<?xml version="1.0" encoding="UTF-8" standalone="no"?>
<!DOCTYPE svg PUBLIC "-//W3C//DTD SVG 1.1//EN" "http://www.w3.org/Graphics/SVG/1.1/DTD/svg11.dtd">
<svg xmlns="http://www.w3.org/2000/svg" version="1.1" viewBox="0.00 0.00 1837.00 1141.00">
<g stroke-width="2.00" fill="none" stroke-linecap="butt">
<path stroke="#ff300b" vector-effect="non-scaling-stroke" d="
  M 915.99 123.63
  Q 916.12 123.69 916.14 123.86
  A 0.60 0.60 0.0 0 1 915.91 124.39
  Q 813.96 206.24 757.82 322.47
  Q 757.43 323.28 757.08 324.01
  Q 750.93 336.56 745.85 348.67
  Q 705.10 445.88 702.04 550.67
  Q 698.67 666.44 740.17 773.39
  Q 778.18 871.34 849.42 949.55
  C 858.75 959.79 868.95 969.94 878.87 979.36
  Q 894.90 994.58 915.94 1011.32
  Q 916.23 1011.56 916.08 1012.02"
/>
<path stroke="#ff7f00" vector-effect="non-scaling-stroke" d="
  M 917.97 1011.78
  Q 963.14 976.10 999.26 933.50
  Q 1071.73 848.02 1106.40 739.87
  Q 1109.47 730.29 1112.13 720.49
  Q 1141.24 613.30 1129.16 504.90
  Q 1117.52 400.39 1069.17 307.44
  Q 1020.79 214.44 941.89 144.10
  Q 932.67 135.88 918.07 123.86"
/>
</g>
<path fill="#ff0015" d="
  M 915.99 123.63
  Q 916.12 123.69 916.14 123.86
  A 0.60 0.60 0.0 0 1 915.91 124.39
  Q 813.96 206.24 757.82 322.47
  Q 757.43 323.28 757.08 324.01
  Q 750.93 336.56 745.85 348.67
  Q 705.10 445.88 702.04 550.67
  Q 698.67 666.44 740.17 773.39
  Q 778.18 871.34 849.42 949.55
  C 858.75 959.79 868.95 969.94 878.87 979.36
  Q 894.90 994.58 915.94 1011.32
  Q 916.23 1011.56 916.08 1012.02
  Q 827.11 1081.88 720.51 1111.68
  Q 643.12 1133.32 562.81 1132.51
  Q 486.54 1131.74 415.03 1111.47
  Q 303.11 1079.74 213.09 1006.63
  Q 123.06 933.52 68.86 830.67
  Q 23.11 743.90 9.59 645.92
  Q -0.21 574.95 7.79 504.06
  Q 19.76 397.98 69.48 303.82
  Q 110.45 226.24 173.70 164.23
  Q 218.19 120.60 270.24 88.25
  Q 359.45 32.80 461.96 13.17
  Q 515.84 2.86 571.99 3.20
  Q 642.60 3.63 710.82 21.39
  Q 822.90 50.58 915.99 123.63
  Z"
/>
<path fill="#ff9f00" d="
  M 917.97 1011.78
  Q 963.14 976.10 999.26 933.50
  Q 1071.73 848.02 1106.40 739.87
  Q 1109.47 730.29 1112.13 720.49
  Q 1141.24 613.30 1129.16 504.90
  Q 1117.52 400.39 1069.17 307.44
  Q 1020.79 214.44 941.89 144.10
  Q 932.67 135.88 918.07 123.86
  Q 993.49 64.69 1082.40 33.90
  Q 1159.95 7.05 1242.04 3.72
  Q 1371.35 -1.52 1488.82 49.14
  Q 1586.75 91.37 1663.27 167.42
  Q 1739.53 243.21 1782.75 341.57
  Q 1819.96 426.23 1828.04 519.00
  Q 1830.26 544.43 1830.14 571.92
  Q 1830.12 576.67 1829.97 581.09
  Q 1829.82 585.76 1829.65 590.25
  Q 1826.46 675.79 1797.73 756.95
  Q 1761.51 859.28 1689.11 941.50
  Q 1629.18 1009.54 1551.46 1055.06
  Q 1438.36 1121.30 1308.27 1130.90
  Q 1184.55 1140.02 1069.75 1097.30
  Q 988.14 1066.92 917.97 1011.78
  Z"
/>
<path fill="#ff5f00" d="
  M 915.99 123.63
  Q 917.04 124.18 918.07 123.86
  Q 932.67 135.88 941.89 144.10
  Q 1020.79 214.44 1069.17 307.44
  Q 1117.52 400.39 1129.16 504.90
  Q 1141.24 613.30 1112.13 720.49
  Q 1109.47 730.29 1106.40 739.87
  Q 1071.73 848.02 999.26 933.50
  Q 963.14 976.10 917.97 1011.78
  Q 916.91 1011.66 916.08 1012.02
  Q 916.23 1011.56 915.94 1011.32
  Q 894.90 994.58 878.87 979.36
  C 868.95 969.94 858.75 959.79 849.42 949.55
  Q 778.18 871.34 740.17 773.39
  Q 698.67 666.44 702.04 550.67
  Q 705.10 445.88 745.85 348.67
  Q 750.93 336.56 757.08 324.01
  Q 757.43 323.28 757.82 322.47
  Q 813.96 206.24 915.91 124.39
  A 0.60 0.60 0.0 0 0 916.14 123.86
  Q 916.12 123.69 915.99 123.63
  Z"
/>
</svg>
